<svg width="85" height="20" viewBox="0 0 85 20" fill="none" xmlns="http://www.w3.org/2000/svg">
<path d="M11.3121 15.0147H13.7668L8.01873 0.184103H5.60493L0 15.0147H2.35243L3.8048 11.0667H9.88022L11.3121 15.0147ZM4.43894 9.28699L6.85274 2.72064L9.22563 9.28699H4.43894Z" fill="#9CA3AF"/>
<path d="M21.0827 4.23438C19.5281 4.23438 18.1575 4.97079 17.5643 6.13678L17.4416 4.43894H15.4573V19.1058H17.6257V13.4191C18.178 14.5033 19.5281 15.2192 21.1645 15.2192C24.0488 15.2192 25.9103 13.0304 25.9103 9.81885C25.9103 6.38225 24.0079 4.23438 21.0827 4.23438ZM20.6941 13.46C18.9758 13.46 17.7484 12.2122 17.6257 10.3302V9.1438C17.7484 7.26186 18.9758 6.01405 20.6941 6.01405C22.2896 6.01405 23.6806 7.18003 23.6806 9.81885C23.6806 12.2736 22.3101 13.46 20.6941 13.46Z" fill="#9CA3AF"/>
<path d="M32.7797 13.5214C31.0818 13.5214 29.8749 12.4781 29.8545 10.228H37.5868C37.6073 9.94159 37.6482 9.4711 37.6482 9.08244C37.6482 6.13678 35.7662 4.23438 32.8001 4.23438C29.7727 4.23438 27.6861 6.25952 27.6861 9.71657C27.6861 13.235 29.7317 15.2192 32.8206 15.2192C35.173 15.2192 37.1368 13.9919 37.6073 11.9054H35.4389C35.1117 12.8872 34.1502 13.5214 32.7797 13.5214ZM32.7388 5.93222C34.2934 5.93222 35.4799 6.85274 35.4799 8.63241V8.67332H29.8749C29.9977 7.01639 31 5.93222 32.7388 5.93222Z" fill="#9CA3AF"/>
<path d="M44.6406 9.34836C44.6406 12.8872 47.0135 15.2192 50.7774 15.2192C54.4594 15.2192 56.9142 12.9691 56.9142 9.34836V0.184103H54.664V9.36882C54.664 11.7008 53.0889 13.235 50.7978 13.235C48.4659 13.235 46.8908 11.7008 46.8908 9.36882V0.184103H44.6406V9.34836Z" fill="#9CA3AF"/>
<path d="M60.004 15.0147H62.1723V9.10289C62.1723 7.54824 63.0928 6.01405 65.2407 6.01405C67.3885 6.01405 67.6545 7.65052 67.6545 8.63241V15.0147H69.8228V8.32557C69.8228 5.68675 68.4114 4.23438 65.8748 4.23438C64.2588 4.23438 62.786 5.03216 62.1723 6.17769L61.9677 4.43894H60.004V15.0147Z" fill="#9CA3AF"/>
<path d="M72.8484 2.06605H75.7531V0H72.8484V2.06605ZM73.2166 15.0147H75.3849V4.43894H73.2166V15.0147Z" fill="#9CA3AF"/>
<path d="M83.4044 15.1988C83.8954 15.1988 84.5091 15.1169 85 15.0147V13.3577C84.7136 13.3986 84.2636 13.4396 83.9772 13.4396C82.4635 13.4396 82.1566 12.6418 82.1566 11.5167V6.17769H85V4.43894H82.1566V1.49328H80.0088V3.17067C80.0088 4.1321 79.5587 4.43894 78.5768 4.43894H77.5745V6.17769H80.0088V11.8235C80.0088 13.8282 80.9293 15.1988 83.4044 15.1988Z" fill="#9CA3AF"/>
</svg>
