<svg width="101" height="43" viewBox="0 0 101 43" fill="none" xmlns="http://www.w3.org/2000/svg">
<path d="M71.9932 29.7314L74.1911 28.9942V9.55551L71.9932 10.2927V29.7314ZM46.6409 17.937C48.0211 17.937 49.2989 18.5924 50.1167 19.6845L51.0112 17.4729C49.8355 16.2717 48.2766 15.6984 46.6409 15.6984C42.8586 15.6984 40.2518 18.8927 40.2774 22.4146C40.3029 26.2367 43.1141 29.3491 46.6409 29.3491C48.4299 29.3491 49.7844 28.7759 50.8067 27.9841V25.2812C49.7333 26.4279 48.1743 27.1104 46.8198 27.1104C44.7753 27.1104 42.4752 25.3359 42.4752 22.4146C42.4752 19.7117 44.4687 17.937 46.6409 17.937ZM61.2594 15.6984C57.477 15.6984 55.2791 18.8927 55.2791 22.4146C55.2791 26.2367 58.1159 29.3491 61.6427 29.3491C63.4317 29.3491 64.7862 28.7759 65.8084 27.9841V25.2812C64.7351 26.4279 63.1761 27.1104 61.8216 27.1104C60.0071 27.1104 58.0136 25.9091 57.6048 23.3701H67.2396V22.4691C67.2396 18.7015 64.914 15.6984 61.2594 15.6984ZM85.0016 15.6984C81.4747 15.6984 78.6123 18.7562 78.6123 22.5238C78.6123 26.2914 81.4747 29.3491 85.0016 29.3491C88.5284 29.3491 91.3907 26.2914 91.3907 22.5238C91.3907 18.7562 88.5284 15.6984 85.0016 15.6984ZM61.2849 17.937C62.9972 17.937 64.8118 19.0838 64.9651 21.2952H57.6048C57.7581 19.0838 59.5727 17.937 61.2849 17.937ZM85.0016 27.1104C84.1523 27.1104 83.3222 26.8414 82.6162 26.3375C81.9101 25.8335 81.3598 25.1171 81.0348 24.279C80.7098 23.4409 80.6249 22.5187 80.7905 21.629C80.9562 20.7392 81.3651 19.9219 81.9655 19.2805C82.566 18.639 83.3311 18.2022 84.1639 18.0252C84.9968 17.8482 85.8601 17.9391 86.6446 18.2863C87.4291 18.6334 88.0996 19.2213 88.5714 19.9755C89.0432 20.7298 89.2951 21.6166 89.2951 22.5238C89.296 23.1263 89.1856 23.7232 88.9701 24.2802C88.7548 24.8371 88.4385 25.3431 88.0397 25.7692C87.6407 26.1953 87.167 26.5331 86.6458 26.7633C86.1243 26.9935 85.5657 27.1115 85.0016 27.1104Z" fill="#9CA3AF"/>
<path d="M19.193 30.0317C23.0746 30.0317 26.2211 26.6703 26.2211 22.5238C26.2211 18.3773 23.0746 15.0159 19.193 15.0159C15.3115 15.0159 12.165 18.3773 12.165 22.5238C12.165 26.6703 15.3115 30.0317 19.193 30.0317ZM19.193 32.7618C13.9002 32.7618 9.6093 28.1779 9.6093 22.5238C9.6093 16.8696 13.9002 12.2857 19.193 12.2857C24.4858 12.2857 28.7768 16.8696 28.7768 22.5238C28.7768 28.1779 24.4858 32.7618 19.193 32.7618Z" fill="#9CA3AF"/>
<path d="M24.3044 24.5714C28.1859 24.5714 31.3325 21.21 31.3325 17.0635C31.3325 12.9169 28.1859 9.55553 24.3044 9.55553C20.4228 9.55553 17.2763 12.9169 17.2763 17.0635C17.2763 21.21 20.4228 24.5714 24.3044 24.5714ZM24.3044 27.3015C19.0116 27.3015 14.7206 22.7176 14.7206 17.0635C14.7206 11.4093 19.0116 6.82538 24.3044 6.82538C29.5972 6.82538 33.8882 11.4093 33.8882 17.0635C33.8882 22.7176 29.5972 27.3015 24.3044 27.3015Z" fill="#9CA3AF"/>
</svg>
