<svg viewBox="0 0 2500 1175" fill="none" xmlns="http://www.w3.org/2000/svg">
<path d="M540 0H642.75C803.25 15.75 951.75 96.5 1061.75 212.75C1290 452.25 1415.5 790.25 1706 968.5C1916 1097.5 2209.75 992 2313 774.25C2365.5 773.25 2418.25 773.25 2470.75 773.5C2398.5 994.75 2188 1153.75 1957.75 1175H1873C1731.25 1163.25 1593.5 1108.75 1486.25 1014.5C1330.5 882.5 1230.5 701.5 1109.5 540.25C1005.5 397.75 899.25 237.5 727 172.75C514.25 93 254.25 217.75 176.75 429.75C108.5 604.25 164 820.75 316.5 932.5C430.75 1021 590 1054 727.25 1002.5C879.75 947.5 993 822.5 1079.75 690C1114 739 1147.25 788.75 1180.25 838.75C1045.25 1008.75 858 1154.75 635.25 1175H544C263.25 1155.5 19.25 917 0 635.25V543C18.25 261.75 259 20.5 540 0Z" fill="currentColor"/>
<path d="M1867.25 0H1952.5C2235.75 18.5 2476.75 261.75 2500 543.5V688C2266.25 690.25 2032.25 688.75 1798.5 689C1798.75 646.75 1798.75 604.75 1798.5 562.5C1983.25 562 2167.75 563.25 2352.25 562C2339.25 487.25 2322.25 410.75 2278 347.5C2170 182.5 1941.75 115 1759.25 186.5C1613.75 240.5 1504.25 358.75 1419.75 485C1387.25 438.25 1355 391 1323.75 343.25C1457 170.75 1643 21.5 1867.25 0" fill="currentColor"/>
</svg>
