<svg viewBox="0 0 261 261" fill="none" xmlns="http://www.w3.org/2000/svg">
<circle cx="130.5" cy="130.5" r="130.5" fill="#FBB03B"/>
<g clip-path="url(#clip0_16758_18914)">
<path d="M178.294 82.4775C167.934 82.4775 156.59 88.1182 144.619 99.2299C139.51 104.022 134.749 109.171 130.372 114.638C130.372 114.638 136.18 121.306 142.552 128.493C146.021 124.15 150.945 118.254 156.691 112.93C167.314 102.993 174.252 100.984 178.247 100.984C193.168 100.984 205.286 113.502 205.286 128.956C205.286 144.256 193.168 156.774 178.247 156.928C177.519 156.928 176.691 156.82 175.653 156.619C180.005 158.628 184.72 160.081 189.126 160.081C216.474 160.081 221.863 141.211 222.173 139.867C222.948 136.405 223.42 132.781 223.42 129.057C223.366 103.364 203.164 82.4775 178.294 82.4775ZM82.714 178.526C93.0742 178.526 104.418 172.885 116.388 161.773C121.498 156.981 126.259 151.832 130.635 146.365C130.635 146.365 124.828 139.697 118.456 132.511C114.987 136.853 110.062 142.749 104.317 148.073C93.6937 157.894 86.7018 160.019 82.7605 160.019C67.8398 160.019 55.7219 147.501 55.7219 132.047C55.7219 116.747 67.8398 104.229 82.7605 104.075C83.4884 104.075 84.3168 104.183 85.3545 104.384C81.0029 102.375 76.2874 100.922 71.8817 100.922C44.5334 100.868 39.1442 119.738 38.8345 121.136C38.0602 124.598 37.5879 128.222 37.5879 131.947C37.5879 157.639 57.7971 178.526 82.714 178.526ZM103.535 114.893C100.531 111.995 85.9274 100.157 71.9358 99.7399C46.9647 99.1218 39.663 117.219 38.9894 119.545C43.8055 99.2762 61.6299 84.1234 82.7605 84.0229C100.012 84.0229 117.472 100.93 130.38 116.183L130.426 116.129C130.426 116.129 136.234 122.798 142.598 129.984C142.598 129.984 149.854 138.515 157.519 146.01C160.524 148.908 175.08 160.591 189.072 161C214.717 161.727 221.816 142.602 222.173 141.15C217.466 161.572 199.587 176.772 178.348 176.88C161.096 176.88 143.636 159.973 130.682 144.719C130.682 144.773 130.635 144.773 130.635 144.82C130.635 144.82 124.828 138.151 118.456 130.965C118.51 130.965 111.255 122.388 103.535 114.893Z" fill="white"/>
</g>
<defs>
<clipPath id="clip0_16758_18914">
<rect width="185.832" height="185.832" fill="white" transform="translate(37.5879 37.5879)"/>
</clipPath>
</defs>
</svg>
