<svg  viewBox="0 0 219 219" fill="none" xmlns="http://www.w3.org/2000/svg" class="w-full h-auto max-h-full relative"><circle cx="109.5" cy="109.5" r="109.5" fill="black"></circle><path d="M144.441 57.4552L120.249 93.3969C118.576 95.8446 121.793 98.8075 124.109 96.7464L147.915 76.0058C148.558 75.4905 149.459 75.8769 149.459 76.7787V141.577C149.459 142.479 148.301 142.865 147.786 142.221L75.7251 55.9093C73.4089 53.0752 70.0632 51.5293 66.3315 51.5293H63.7579C57.0665 51.5293 51.5332 57.0687 51.5332 63.8964V155.103C51.5332 161.931 57.0665 167.47 63.8865 167.47C68.133 167.47 72.1221 165.28 74.4383 161.545L98.6303 125.603C100.303 123.155 97.0861 120.192 94.7699 122.253L70.964 142.865C70.3206 143.38 69.4198 142.994 69.4198 142.092V77.4228C69.4198 76.5211 70.5779 76.1346 71.0926 76.7787L143.154 163.09C145.47 165.925 148.944 167.47 152.547 167.47H155.121C161.941 167.47 167.474 161.931 167.474 155.103V63.8964C167.474 57.0687 161.941 51.5293 155.121 51.5293C150.746 51.5293 146.757 53.7193 144.441 57.4552Z" fill="white"></path></svg>
