<svg>
<svg viewBox="0 0 60 60" fill="none" xmlns="http://www.w3.org/2000/svg">
    <g clip-path="url(#clip0_7_23)">
    <path fill-rule="evenodd" clip-rule="evenodd" d="M38.2253 26.8879C39.68 28.7163 40.5499 31.0286 40.5499 33.5438C40.5499 36.0592 39.6536 38.4421 38.1607 40.2807L38.0314 40.4396L37.9975 40.2381C37.9682 40.0674 37.9344 39.8938 37.8948 39.7203C37.1468 36.4312 34.7107 33.6115 30.7008 31.3271C27.9927 29.7886 26.4426 27.9382 26.0356 25.8333C25.7726 24.4727 25.9681 23.1062 26.3456 21.9353C26.7233 20.766 27.2845 19.7849 27.762 19.1951L29.3226 17.2858C29.5959 16.9504 30.1086 16.9504 30.3819 17.2858L38.2268 26.8879H38.2253ZM40.6923 24.9801L30.2364 12.1831C30.0367 11.939 29.6634 11.939 29.4636 12.1831L19.0092 24.9801L18.9753 25.0229C17.052 27.413 15.9 30.4505 15.9 33.7571C15.9 41.4574 22.1463 47.7 29.85 47.7C37.5538 47.7 43.8 41.4574 43.8 33.7571C43.8 30.4505 42.6481 27.413 40.7247 25.0242L40.691 24.9816L40.6923 24.9801ZM21.5115 26.8467L22.446 25.701L22.474 25.9127C22.4959 26.0804 22.5238 26.2481 22.5562 26.4173C23.1615 29.5959 25.323 32.2451 28.9362 34.297C32.0775 36.0871 33.9068 38.1449 34.4329 40.4012C34.6533 41.3427 34.6915 42.2693 34.596 43.0799L34.5901 43.1299L34.5446 43.1519C33.1267 43.8447 31.5325 44.2345 29.8486 44.2345C23.9403 44.2345 19.1503 39.4481 19.1503 33.5423C19.1503 31.0066 20.0333 28.6781 21.5085 26.8438L21.5115 26.8467Z" fill="white"/>
    </g>
    <defs>
    <clipPath id="clip0_7_23">
    <rect width="60" height="60" fill="white"/>
    </clipPath>
    </defs>
</svg>
</svg>