<svg viewBox="0 0 60 60" fill="none" xmlns="http://www.w3.org/2000/svg"><g clip-path="url(#SUI_svg__a)"><path fill-rule="evenodd" clip-rule="evenodd" d="M38.225 26.888a10.653 10.653 0 0 1 2.325 6.656c0 2.515-.896 4.898-2.39 6.737l-.129.159-.033-.202a9.72 9.72 0 0 0-.103-.518c-.748-3.289-3.184-6.108-7.194-8.393-2.708-1.538-4.258-3.389-4.665-5.494-.263-1.36-.068-2.727.31-3.898.377-1.169.939-2.15 1.416-2.74l1.56-1.91a.683.683 0 0 1 1.06 0l7.845 9.603h-.002Zm2.467-1.908L30.236 12.183a.5.5 0 0 0-.772 0L19.009 24.98l-.034.043a13.884 13.884 0 0 0-3.075 8.734c0 7.7 6.246 13.943 13.95 13.943 7.704 0 13.95-6.243 13.95-13.943 0-3.306-1.152-6.344-3.075-8.733l-.034-.042.001-.002Zm-19.18 1.867.934-1.146.028.212c.022.167.05.335.082.504.605 3.179 2.767 5.828 6.38 7.88 3.142 1.79 4.97 3.848 5.497 6.104.22.942.258 1.868.163 2.679l-.006.05-.045.022a10.67 10.67 0 0 1-4.696 1.082c-5.909 0-10.699-4.786-10.699-10.692 0-2.535.883-4.864 2.359-6.698l.003.003Z" fill="#fff"></path></g><defs><clipPath id="SUI_svg__a"><path fill="#fff" d="M0 0h60v60H0z"></path></clipPath></defs></svg>