<svg viewBox="0 0 60 60" fill="none" xmlns="http://www.w3.org/2000/svg">
<path d="M29.9961 60C46.5516 60 59.9921 46.5594 59.9921 30.0039C59.9921 13.4484 46.5594 0 29.9961 0C13.4327 0 0 13.4406 0 29.9961C0 46.5516 13.4406 60 29.9961 60Z" fill="currentColor" fill-opacity="0"/>
<path d="M34.4057 52.0913C31.2515 52.0913 28.9526 51.3538 27.5089 49.8316C26.0652 48.3095 25.3669 46.7167 25.3669 44.9591C25.3669 44.3393 25.4845 43.79 25.7592 43.3585C25.9946 42.927 26.3398 42.5817 26.7713 42.3463C27.2029 42.111 27.7443 41.954 28.372 41.954C28.9997 41.954 29.5411 42.0717 29.9726 42.3463C30.4041 42.5817 30.7494 42.927 30.9848 43.3585C31.2202 43.79 31.3771 44.3314 31.3771 44.9591C31.3771 45.7359 31.1809 46.3636 30.8278 46.8265C30.4748 47.2973 30.0118 47.6425 29.5018 47.7995C29.9334 48.3801 30.6317 48.8116 31.5654 49.0862C32.4991 49.3609 33.4328 49.4785 34.3743 49.4785C35.7004 49.4785 36.8694 49.1255 37.9208 48.4272C38.9722 47.7288 39.749 46.6774 40.259 45.3122C40.769 43.947 40.9966 42.3934 40.9966 40.6359C40.9966 38.7292 40.722 37.1286 40.1806 35.8026C39.6313 34.4374 38.8545 33.4252 37.8032 32.8054C36.7518 32.1463 35.6219 31.8324 34.3743 31.8324C33.5583 31.8324 32.5854 32.1855 31.3771 32.8446L29.1801 33.896V32.8054L39.1135 19.561H25.3669V33.3154C25.3669 34.4452 25.6022 35.3789 26.1044 36.1243C26.6144 36.8618 27.3912 37.2149 28.4034 37.2149C29.2194 37.2149 29.9648 36.9403 30.7023 36.3989C31.4398 35.8497 32.0675 35.1906 32.6089 34.4531C32.6874 34.2961 32.7659 34.1784 32.8443 34.1392C32.962 34.0607 33.0405 34.0215 33.1582 34.0215C33.3543 34.0215 33.5505 34.1 33.8173 34.2961C34.0526 34.5708 34.1703 34.8768 34.1703 35.2298C34.1703 35.3868 34.0919 35.6221 34.0526 35.9281C33.5034 37.2149 32.7266 38.1879 31.7145 38.8469C30.7023 39.506 29.6117 39.8591 28.4034 39.8591C25.4061 39.8591 23.3739 39.2785 22.2048 38.1094C21.075 36.9403 20.4943 35.3397 20.4943 33.3546V19.561H13.4798V16.9874H20.5336V11.142L18.9329 9.54134V8.21533H23.6093L25.359 9.1098V16.9482L43.5544 16.9089L45.3434 18.6979L34.2096 29.8866C34.8687 29.6119 35.5748 29.455 36.3124 29.3766C37.5207 29.3766 38.8859 29.7689 40.361 30.5456C41.8832 31.2832 43.0523 32.3346 43.8683 33.6606C44.6843 34.9866 45.2335 36.2341 45.4689 37.4425C45.7043 38.6508 45.8612 39.7022 45.8612 40.6751C45.8612 42.8171 45.3905 44.8022 44.496 46.6382C43.6015 48.4664 42.2363 49.8709 40.3689 50.7653C38.5329 51.6598 36.5478 52.0913 34.4057 52.0913Z" fill="currentColor"/>
</svg>
