<?xml version="1.0" encoding="UTF-8"?>
<svg width="657px" height="150px" viewBox="0 0 657 150" version="1.1" xmlns="http://www.w3.org/2000/svg" xmlns:xlink="http://www.w3.org/1999/xlink">
    <!-- Generator: Sketch 47.1 (45422) - http://www.bohemiancoding.com/sketch -->
    <title>logo font white</title>
    <desc>Created with Sketch.</desc>
    <defs></defs>
    <g id="LOGO" stroke="none" stroke-width="1" fill="none" fill-rule="evenodd">
        <g id="Artboard-Copy" transform="translate(-242.000000, -688.000000)" fill="#FFFFFF">
            <g id="logo-font-white" transform="translate(242.000000, 688.000000)">
                <path d="M607,130 L647.003662,130 C637.881599,142.144467 623.358178,150 607,150 C579.385763,150 557,127.614237 557,100 C557,72.3857625 579.385763,50 607,50 C634.614237,50 657,72.3857625 657,100 C657,103.424658 656.655697,106.768901 655.999819,110 L621.146471,110 L578.707057,110 C582.825421,121.651924 593.937812,130 607,130 Z M578.707057,90 L635.292943,90 C631.174579,78.3480763 620.062188,70 607,70 C593.937812,70 582.825421,78.3480763 578.707057,90 Z" id="Combined-Shape"></path>
                <path d="M527,61.5796232 L527,0 L547,0 L547,150 L527,150 L527,138.420377 C518.328963,145.650277 507.172448,150 495,150 C467.385763,150 445,127.614237 445,100 C445,72.3857625 467.385763,50 495,50 C507.172448,50 518.328963,54.3497231 527,61.5796232 Z M495,130 C511.568542,130 525,116.568542 525,100 C525,83.4314575 511.568542,70 495,70 C478.431458,70 465,83.4314575 465,100 C465,116.568542 478.431458,130 495,130 Z" id="Combined-Shape"></path>
                <path d="M415,61.5796232 L415,50 L435,50 L435,150 L415,150 L415,138.420377 C406.328963,145.650277 395.172448,150 383,150 C355.385763,150 333,127.614237 333,100 C333,72.3857625 355.385763,50 383,50 C395.172448,50 406.328963,54.3497231 415,61.5796232 Z M383,130 C399.568542,130 413,116.568542 413,100 C413,83.4314575 399.568542,70 383,70 C366.431458,70 353,83.4314575 353,100 C353,116.568542 366.431458,130 383,130 Z" id="Combined-Shape"></path>
                <path d="M322.999819,90 C318.367116,67.1775968 298.189579,50 274,50 C246.385763,50 224,72.3857625 224,100 C224,127.614237 246.385763,150 274,150 C298.189579,150 318.367116,132.822403 322.999819,110 L302.292943,110 C298.174579,121.651924 287.062188,130 274,130 C257.431458,130 244,116.568542 244,100 C244,83.4314575 257.431458,70 274,70 C287.062188,70 298.174579,78.3480763 302.292943,90 L322.999819,90 Z" id="Combined-Shape"></path>
                <path d="M194,61.5796232 L194,50 L214,50 L214,150 L194,150 L194,138.420377 C185.328963,145.650277 174.172448,150 162,150 C134.385763,150 112,127.614237 112,100 C112,72.3857625 134.385763,50 162,50 C174.172448,50 185.328963,54.3497231 194,61.5796232 Z M162,130 C178.568542,130 192,116.568542 192,100 C192,83.4314575 178.568542,70 162,70 C145.431458,70 132,83.4314575 132,100 C132,116.568542 145.431458,130 162,130 Z" id="Combined-Shape"></path>
                <path d="M82,61.5796232 L82,0 L102,0 L102,150 L82,150 L82,138.420377 C73.328963,145.650277 62.1724476,150 50,150 C22.3857625,150 0,127.614237 0,100 C0,72.3857625 22.3857625,50 50,50 C62.1724476,50 73.328963,54.3497231 82,61.5796232 Z M50,130 C66.5685425,130 80,116.568542 80,100 C80,83.4314575 66.5685425,70 50,70 C33.4314575,70 20,83.4314575 20,100 C20,116.568542 33.4314575,130 50,130 Z" id="Combined-Shape"></path>
            </g>
        </g>
    </g>
</svg>