<svg width="16" height="16" viewBox="0 0 16 16" fill="none" xmlns="http://www.w3.org/2000/svg">
<path d="M8.125 15.5C3.98275 15.5 0.625 12.1423 0.625 8C0.625 3.85775 3.98275 0.5 8.125 0.5C12.2673 0.5 15.625 3.85775 15.625 8C15.625 12.1423 12.2673 15.5 8.125 15.5ZM8.125 14C9.7163 14 11.2424 13.3679 12.3676 12.2426C13.4929 11.1174 14.125 9.5913 14.125 8C14.125 6.4087 13.4929 4.88258 12.3676 3.75736C11.2424 2.63214 9.7163 2 8.125 2C6.5337 2 5.00758 2.63214 3.88236 3.75736C2.75714 4.88258 2.125 6.4087 2.125 8C2.125 9.5913 2.75714 11.1174 3.88236 12.2426C5.00758 13.3679 6.5337 14 8.125 14ZM7.37725 11L4.195 7.81775L5.2555 6.75725L7.37725 8.879L11.6193 4.63625L12.6805 5.69675L7.37725 11Z" fill="#71717A"/>
</svg>
