<svg width="24" height="24" viewBox="0 0 24 24" fill="none" xmlns="http://www.w3.org/2000/svg">
<path d="M8.25049 15C10.9429 15 13.1255 12.8174 13.1255 10.125C13.1255 7.43261 10.9429 5.25 8.25049 5.25C5.5581 5.25 3.37549 7.43261 3.37549 10.125C3.37549 12.8174 5.5581 15 8.25049 15Z" stroke="white" stroke-width="1.5" stroke-miterlimit="10"/>
<path d="M14.5708 5.43076C15.2413 5.24184 15.9445 5.1988 16.6331 5.30454C17.3216 5.41029 17.9795 5.66236 18.5625 6.04377C19.1454 6.42519 19.6398 6.92709 20.0125 7.51568C20.3851 8.10427 20.6272 8.76588 20.7226 9.45594C20.818 10.146 20.7645 10.8485 20.5655 11.5161C20.3665 12.1837 20.0268 12.8009 19.5692 13.3262C19.1116 13.8514 18.5468 14.2726 17.9128 14.5611C17.2787 14.8497 16.5902 14.9991 15.8936 14.9992" stroke="white" stroke-width="1.5" stroke-linecap="round" stroke-linejoin="round"/>
<path d="M1.49902 18.5059C2.2604 17.4229 3.27117 16.539 4.44601 15.9288C5.62084 15.3186 6.92525 15.0001 8.2491 15C9.57295 14.9999 10.8774 15.3184 12.0523 15.9285C13.2271 16.5386 14.238 17.4225 14.9994 18.5054" stroke="white" stroke-width="1.5" stroke-linecap="round" stroke-linejoin="round"/>
<path d="M15.8936 15C17.2175 14.999 18.5222 15.3171 19.6972 15.9273C20.8722 16.5375 21.8828 17.4218 22.6436 18.5054" stroke="white" stroke-width="1.5" stroke-linecap="round" stroke-linejoin="round"/>
</svg>
