<svg width="16" height="14" viewBox="0 0 16 14" fill="none" xmlns="http://www.w3.org/2000/svg">
<path d="M13.5452 1.90696C12.5077 1.43083 11.4129 1.091 10.2882 0.895958C10.278 0.894242 10.2675 0.895724 10.2582 0.900201C10.2489 0.904678 10.2412 0.911929 10.2362 0.920958C10.0952 1.17096 9.93917 1.49796 9.83017 1.75396C8.61778 1.56997 7.38456 1.56997 6.17217 1.75396C6.05058 1.46878 5.91303 1.19067 5.76017 0.920958C5.75504 0.912028 5.74733 0.90486 5.73804 0.900398C5.72876 0.895936 5.71835 0.894388 5.70817 0.895958C4.58317 1.08996 3.48817 1.42996 2.45117 1.90696C2.4423 1.91034 2.43487 1.91671 2.43017 1.92496C0.356169 5.02396 -0.212831 8.04696 0.0661689 11.032C0.0671689 11.046 0.0761689 11.06 0.0871689 11.069C1.29489 11.9636 2.64576 12.6466 4.08217 13.089C4.09231 13.0922 4.10321 13.092 4.11328 13.0886C4.12335 13.0852 4.13207 13.0787 4.13817 13.07C4.44617 12.65 4.72017 12.207 4.95617 11.741C4.96109 11.7314 4.96277 11.7204 4.96097 11.7098C4.95917 11.6992 4.95398 11.6894 4.94617 11.682C4.941 11.6771 4.93487 11.6733 4.92817 11.671C4.49733 11.5054 4.08006 11.3064 3.68017 11.076C3.669 11.0696 3.66069 11.0592 3.65697 11.047C3.65325 11.0347 3.65439 11.0214 3.66017 11.01C3.66357 11.0025 3.66872 10.996 3.67517 10.991C3.75917 10.928 3.84317 10.862 3.92317 10.796C3.93024 10.7903 3.93872 10.7866 3.9477 10.7854C3.95668 10.7842 3.96583 10.7854 3.97417 10.789C6.59317 11.985 9.42817 11.985 12.0152 10.789C12.0238 10.7852 12.0333 10.7839 12.0426 10.7851C12.052 10.7864 12.0608 10.7901 12.0682 10.796C12.1482 10.862 12.2322 10.928 12.3162 10.991C12.323 10.9959 12.3284 11.0025 12.3321 11.0101C12.3357 11.0177 12.3374 11.0261 12.337 11.0345C12.3366 11.043 12.3341 11.0511 12.3298 11.0584C12.3255 11.0656 12.3194 11.0716 12.3122 11.076C11.9132 11.3086 11.4954 11.5072 11.0632 11.67C11.0563 11.6725 11.05 11.6764 11.0448 11.6816C11.0396 11.6868 11.0357 11.6931 11.0332 11.7C11.0309 11.7066 11.0299 11.7137 11.0304 11.7208C11.031 11.7278 11.0329 11.7347 11.0362 11.741C11.2762 12.206 11.5512 12.65 11.8532 13.07C11.8593 13.0787 11.868 13.0852 11.8781 13.0886C11.8881 13.092 11.899 13.0922 11.9092 13.089C13.348 12.648 14.701 11.9649 15.9102 11.069C15.9162 11.0648 15.9213 11.0593 15.9249 11.0529C15.9285 11.0465 15.9307 11.0393 15.9312 11.032C16.2652 7.58096 15.3722 4.58296 13.5652 1.92596C13.5633 1.92157 13.5606 1.91761 13.5572 1.91434C13.5537 1.91107 13.5496 1.90855 13.5452 1.90696ZM5.34717 9.21396C4.55817 9.21396 3.90917 8.48996 3.90917 7.60196C3.90917 6.71296 4.54617 5.98896 5.34717 5.98896C6.15417 5.98896 6.79717 6.71896 6.78517 7.60196C6.78517 8.48996 6.14817 9.21396 5.34717 9.21396ZM10.6632 9.21396C9.87517 9.21396 9.22517 8.48996 9.22517 7.60196C9.22517 6.71296 9.86217 5.98896 10.6632 5.98896C11.4702 5.98896 12.1142 6.71896 12.1012 7.60196C12.1012 8.48996 11.4702 9.21396 10.6632 9.21396Z" fill="black"/>
</svg>
