<svg width="20" height="20" viewBox="0 0 20 20" fill="none" xmlns="http://www.w3.org/2000/svg">
<g clip-path="url(#clip0)">
<path fill-rule="evenodd" clip-rule="evenodd" d="M10 0C4.47853 0 0 4.59119 0 10.2516C0 14.7799 2.88344 18.6164 6.80982 20C7.30061 20.0629 7.48466 19.7484 7.48466 19.4969C7.48466 19.2453 7.48466 18.6164 7.48466 17.7358C4.72393 18.3648 4.11043 16.3522 4.11043 16.3522C3.68098 15.1572 3.00614 14.8428 3.00614 14.8428C2.08589 14.2138 3.06748 14.2138 3.06748 14.2138C4.04908 14.2767 4.60123 15.283 4.60123 15.283C5.52147 16.8553 6.93252 16.4151 7.48466 16.1635C7.54601 15.4717 7.85276 15.0314 8.09816 14.7799C5.88957 14.5283 3.55828 13.6478 3.55828 9.68553C3.55828 8.55346 3.92638 7.67296 4.60123 6.91824C4.53988 6.72956 4.17178 5.66038 4.72393 4.27673C4.72393 4.27673 5.58282 4.02516 7.48466 5.34591C8.28221 5.09434 9.1411 5.03145 10 5.03145C10.8589 5.03145 11.7178 5.15723 12.5153 5.34591C14.4172 4.02516 15.2761 4.27673 15.2761 4.27673C15.8282 5.66038 15.4601 6.72956 15.3988 6.98113C16.0123 7.67296 16.4417 8.61635 16.4417 9.74843C16.4417 13.7107 14.1104 14.5283 11.9018 14.7799C12.2699 15.0943 12.5767 15.7233 12.5767 16.6667C12.5767 18.0503 12.5767 19.1195 12.5767 19.4969C12.5767 19.7484 12.7607 20.0629 13.2515 20C17.2393 18.6164 20.0614 14.7799 20.0614 10.2516C20 4.59119 15.5215 0 10 0Z" fill="currentColor"/>
</g>
<defs>
<clipPath id="clip0">
<rect width="20" height="20" fill="white"/>
</clipPath>
</defs>
</svg>
