<svg width="21" height="21" viewBox="0 0 21 21" fill="none" xmlns="http://www.w3.org/2000/svg">
<g clip-path="url(#clip0_1945_8929)">
<path d="M5.25558 6.88824H1.24055C1.06236 6.88824 0.917969 7.0327 0.917969 7.21083V20.1094C0.917969 20.2876 1.06236 20.432 1.24055 20.432H5.25558C5.43377 20.432 5.57816 20.2876 5.57816 20.1094V7.21083C5.57816 7.0327 5.43377 6.88824 5.25558 6.88824Z" fill="#9CA3AF"/>
<path d="M3.24952 0.476044C1.78861 0.476044 0.600098 1.66327 0.600098 3.12256C0.600098 4.5825 1.78861 5.77017 3.24952 5.77017C4.70926 5.77017 5.89681 4.58243 5.89681 3.12256C5.89687 1.66327 4.70926 0.476044 3.24952 0.476044Z" fill="#9CA3AF"/>
<path d="M15.4681 6.56766C13.8555 6.56766 12.6634 7.26088 11.9404 8.04856V7.21082C11.9404 7.03269 11.796 6.88824 11.6178 6.88824H7.77271C7.59452 6.88824 7.45013 7.03269 7.45013 7.21082V20.1094C7.45013 20.2876 7.59452 20.432 7.77271 20.432H11.779C11.9572 20.432 12.1016 20.2876 12.1016 20.1094V13.7276C12.1016 11.5771 12.6857 10.7393 14.1848 10.7393C15.8174 10.7393 15.9472 12.0824 15.9472 13.8382V20.1095C15.9472 20.2877 16.0916 20.432 16.2697 20.432H20.2775C20.4557 20.432 20.6001 20.2877 20.6001 20.1095V13.0344C20.6001 9.83662 19.9903 6.56766 15.4681 6.56766Z" fill="#9CA3AF"/>
</g>
<defs>
<clipPath id="clip0_1945_8929">
<rect width="20" height="20" fill="white" transform="translate(0.600098 0.454041)"/>
</clipPath>
</defs>
</svg>
