<svg viewBox="0 0 26 28" fill="none" xmlns="http://www.w3.org/2000/svg">
    <path
        d="M13.5267 1.81128L14.9955 3.80192C15.5428 4.54361 16.5012 4.85503 17.3799 4.57666L19.7383 3.82953C20.1583 3.69645 20.5872 4.00807 20.5905 4.4487L20.6087 6.92251C20.6155 7.84422 21.2078 8.65952 22.0823 8.95079L24.4294 9.73261C24.8475 9.87181 25.0113 10.376 24.7549 10.7344L23.3156 12.7465C22.7793 13.4961 22.7793 14.5039 23.3156 15.2535L24.7549 17.2656C25.0113 17.624 24.8475 18.1282 24.4294 18.2674L22.0823 19.0492C21.2078 19.3405 20.6155 20.1558 20.6087 21.0775L20.5905 23.5513C20.5872 23.9919 20.1583 24.3036 19.7383 24.1705L17.3799 23.4234C16.5012 23.145 15.5428 23.4564 14.9955 24.1981L13.5267 26.1887C13.2651 26.5433 12.7349 26.5433 12.4733 26.1887L11.0045 24.1981C10.4572 23.4564 9.4988 23.145 8.6201 23.4234L6.26175 24.1705C5.84168 24.3036 5.41278 23.9919 5.40953 23.5513L5.39132 21.0775C5.38454 20.1558 4.79219 19.3405 3.91769 19.0492L1.57058 18.2674C1.15252 18.1282 0.988694 17.624 1.24507 17.2656L2.6844 15.2535C3.22068 14.5039 3.22068 13.4961 2.6844 12.7465L1.24507 10.7344C0.988694 10.376 1.15252 9.87181 1.57058 9.73261L3.91769 8.95079C4.79219 8.65952 5.38454 7.84422 5.39132 6.92251L5.40953 4.4487C5.41278 4.00807 5.84168 3.69645 6.26175 3.82953L8.6201 4.57666C9.4988 4.85503 10.4572 4.54361 11.0045 3.80192L12.4733 1.81128C12.7349 1.4567 13.2651 1.4567 13.5267 1.81128Z"
        fill="#1B66F8" stroke="white" stroke-width="1.5" />
    <path d="M9.1897 14.4486L11.7183 16.8494L16.8102 11.1507" stroke="white" stroke-width="1.5"
        stroke-linecap="round" stroke-linejoin="round" />
</svg>