<svg width="439" height="410" viewBox="0 0 439 410" fill="none" xmlns="http://www.w3.org/2000/svg">
<g clip-path="url(#clip0_10044_3376)">
<path d="M219.404 0C203.145 0 188.799 8.23447 180.191 20.6819L6.12113 338.954C2.29542 345.848 0 353.699 0 362.125C0 388.552 21.424 409.809 47.6301 409.809C64.8457 409.809 79.766 400.617 88.1826 387.02C88.9477 385.68 89.9041 384.148 90.478 382.616L259.574 72.7697C264.165 65.4928 266.843 56.6838 266.843 47.4918C267.034 21.4479 245.61 0 219.404 0Z" fill="#A6FA7C"/>
<path d="M413.559 320.186C413.559 320.186 328.82 270.588 219.404 270.588C109.989 270.588 25.2497 320.186 25.2497 320.186C10.3294 328.038 0 343.932 0 362.316C0 388.743 21.424 409.999 47.6301 409.999C54.8989 409.999 61.7852 408.276 68.0976 405.403C68.0976 405.403 139.447 367.678 219.404 367.678C299.362 367.678 368.033 404.063 368.033 404.063C374.919 407.893 382.762 410.191 391.179 410.191C417.576 410.191 438.809 388.743 438.809 362.508C439 343.932 428.671 328.038 413.559 320.186Z" fill="white"/>
<path d="M433.07 339.337C428.671 331.294 421.784 324.591 413.559 320.187C413.559 320.187 363.442 290.887 290.754 277.291L348.522 382.999C349.287 384.531 350.052 385.871 350.818 387.403C359.234 401 374.154 410.192 391.37 410.192C417.767 410.192 439 388.744 439 362.508C439 353.891 436.896 346.039 433.07 339.337Z" fill="white"/>
</g>
<rect x="246" y="122" width="128" height="128" rx="64" fill="#A6FA7C"/>
<defs>
<clipPath id="clip0_10044_3376">
<rect width="439" height="410" fill="white"/>
</clipPath>
</defs>
</svg>
