<svg width="440" height="440" viewBox="0 0 440 440" fill="none" xmlns="http://www.w3.org/2000/svg">
<g clip-path="url(#clip0_8007_6260)">
<path fill-rule="evenodd" clip-rule="evenodd" d="M279.854 183.688C296.223 210.623 292.768 246.219 269.489 269.498L120.996 417.991L120.991 417.985C120.744 418.24 120.494 418.493 120.242 418.745C92.9053 446.082 48.5838 446.082 21.2471 418.745C-6.08963 391.408 -6.08965 347.087 21.2471 319.75C21.499 319.498 21.7523 319.249 22.0071 319.001L22.0015 318.996L120.996 220.001L22.0007 121.005L22.0063 120.999C21.7516 120.752 21.4982 120.503 21.2463 120.251C-6.09042 92.9139 -6.09042 48.5924 21.2463 21.2557C48.583 -6.08101 92.9045 -6.08103 120.241 21.2557C120.493 21.5076 120.743 21.7609 120.99 22.0157L120.996 22.0101L269.488 170.503C269.488 170.503 269.489 170.503 269.489 170.503C273.546 174.561 277.001 178.993 279.854 183.688Z" fill="white"/>
<path fill-rule="evenodd" clip-rule="evenodd" d="M170.897 170.098C170.761 170.232 170.625 170.367 170.49 170.503C143.153 197.839 143.153 242.161 170.49 269.497L318.982 417.99L318.988 417.984C319.235 418.239 319.485 418.492 319.736 418.744C347.073 446.081 391.395 446.081 418.731 418.744C446.068 391.408 446.068 347.086 418.731 319.749C418.479 319.497 418.226 319.248 417.971 319.001L417.977 318.995L318.984 220.002L417.981 121.004L417.975 120.999C418.23 120.751 418.484 120.502 418.735 120.25C446.072 92.9131 446.072 48.5916 418.735 21.2549C391.399 -6.08182 347.077 -6.08181 319.741 21.2549C319.489 21.5068 319.239 21.7602 318.992 22.0149L318.986 22.0093L170.897 170.098Z" fill="#2E3337"/>
</g>
<defs>
<clipPath id="clip0_8007_6260">
<rect width="440" height="440" fill="white"/>
</clipPath>
</defs>
</svg>
