<svg viewBox="0 0 100 100" fill="none" xmlns="http://www.w3.org/2000/svg">
<path d="M47 88.5714C61 88.5714 72.8571 79.5714 77.2857 67.1429H68.5714C64.7143 75.1429 56.4286 80.5714 47 80.5714C33.7143 80.5714 22.8571 69.7143 22.8571 56.4286C22.8571 47 28.2857 38.7143 36.2857 34.8571V26.1429C23.8571 30.5714 14.8571 42.4286 14.8571 56.4286C14.8571 74.1429 29.2857 88.5714 47 88.5714ZM65.4286 49.2857V37.5714C69.4286 38.5714 72.5714 39.8571 72.5714 43.2857C72.5714 46.4286 69.8571 48.7143 65.4286 49.2857ZM60 60.1429H65.7143V55.7143C74.1429 54.7143 79.5714 49.8571 79.5714 43.2857C79.5714 34.1429 72.2857 32.1429 65.4286 30.8571V18.7143C68.7143 19 72.2857 20 75.5714 21.5714V14.4286C72.4286 13.2857 69 12.5714 65.7143 12.4286V8.14285H60V12.4286C51.2857 13.4286 46.2857 18.2857 46.2857 24.4286C46.2857 33.7143 53.4286 35.8571 60.2857 37.1429V49.2857C56.1429 48.7143 51.7143 47 46.5714 44.2857V51.8571C51 54 55.5714 55.4286 60 55.7143V60.1429ZM60.2857 30.2857C56.2857 29.4286 53.2857 28 53.2857 24.4286C53.2857 21.1429 55.8571 19.1429 60.2857 18.7143V30.2857Z" fill="currentColor"/>
</svg>
