<svg width="75" height="75" viewBox="0 0 75 75" fill="none" xmlns="http://www.w3.org/2000/svg">
<path d="M75 37.5C75 58.2107 58.2107 75 37.5 75C16.7893 75 0 58.2107 0 37.5C0 16.7893 16.7893 0 37.5 0C58.2107 0 75 16.7893 75 37.5Z" fill="#2E3337"/>
<path fill-rule="evenodd" clip-rule="evenodd" d="M37.5 74.3372C57.8446 74.3372 74.3372 57.8446 74.3372 37.5C74.3372 17.1554 57.8446 0.662842 37.5 0.662842C17.1554 0.662842 0.662842 17.1554 0.662842 37.5C0.662842 57.8446 17.1554 74.3372 37.5 74.3372ZM37.5 75C58.2107 75 75 58.2107 75 37.5C75 16.7893 58.2107 0 37.5 0C16.7893 0 0 16.7893 0 37.5C0 58.2107 16.7893 75 37.5 75Z" fill="white"/>
<path d="M6.4156 32.0733L6.51526 31.4783L3.33941 30.9466L3.23975 31.5417L6.4156 32.0733Z" fill="white"/>
<path d="M6.70735 30.3483L6.84732 29.8218L4.46216 29.188L7.21983 28.4207L7.37947 27.8202L4.26745 26.9933L4.12747 27.5198L6.3777 28.1177L3.77926 28.8295L3.59532 29.5214L6.70735 30.3483Z" fill="white"/>
<path d="M8.09468 25.7977L8.31954 25.2378L5.77017 24.2145L6.1041 23.3831L5.66527 23.2069L4.77255 25.4297L5.21138 25.6058L5.54531 24.7744L8.09468 25.7977Z" fill="white"/>
<path d="M9.23416 23.1469L9.51841 22.6198L8.37276 22.0024L8.55442 21.6655L10.0997 21.5419L10.4075 20.9712L8.75296 21.1076C8.852 20.7057 8.77564 20.3065 8.33165 20.0672L8.31579 20.0587C7.73702 19.7467 7.24822 20.0459 6.91269 20.6681L6.39976 21.6193L9.23416 23.1469ZM7.99616 21.7994L7.09232 21.3123L7.321 20.8882C7.50266 20.5514 7.72265 20.4091 8.04771 20.5843L8.06357 20.5928C8.36485 20.7552 8.41504 21.0226 8.22483 21.3754L7.99616 21.7994Z" fill="white"/>
<path d="M11.4579 18.6096C11.1194 19.0872 10.5009 19.1733 9.92768 18.7672L9.89828 18.7464C9.3324 18.3455 9.17003 17.7725 9.53457 17.2582C9.8991 16.7439 10.5131 16.7264 11.0533 17.109L11.0827 17.1299C11.6523 17.5333 11.8094 18.1137 11.4579 18.6096ZM11.8459 18.8955C12.4109 18.0984 12.2063 17.1644 11.4384 16.6203L11.409 16.5995C10.6373 16.0528 9.69968 16.1998 9.14506 16.9822C8.59305 17.761 8.77204 18.7155 9.54002 19.2596L9.56942 19.2804C10.3264 19.8167 11.2756 19.7 11.8459 18.8955Z" fill="white"/>
<path d="M13.4689 15.9972L11.7967 14.4561L12.0318 14.2012C12.5446 13.645 13.0662 13.6971 13.5762 14.1671L13.6026 14.1915C14.1258 14.6737 14.1954 15.2093 13.707 15.739L13.4689 15.9972ZM13.4106 16.7579L14.0669 16.0461C14.8331 15.2153 14.7124 14.3631 14.0236 13.7283L13.9938 13.7008C13.3051 13.0661 12.4655 13.0333 11.7055 13.8576L11.0431 14.5759L13.4106 16.7579Z" fill="white"/>
<path d="M17.101 13.1634C17.7524 12.6156 17.8019 11.968 17.2598 11.3237L15.9988 9.82489L15.5369 10.2132L16.7661 11.6742C17.1951 12.1841 17.1493 12.4933 16.7943 12.7918C16.4289 13.099 16.1276 13.0347 15.7479 12.5833L14.4926 11.0914L14.0308 11.4797L15.315 13.0061C15.8484 13.6401 16.4841 13.6821 17.101 13.1634Z" fill="white"/>
<path d="M20.4619 10.6758C21.1054 10.2611 21.3549 9.63423 21.0147 8.93211L20.5227 9.24924C20.7161 9.66559 20.5731 10.0256 20.1984 10.2671C19.6987 10.5891 19.1755 10.4174 18.7826 9.80815L18.7631 9.77787C18.3727 9.1724 18.4439 8.60151 18.9209 8.29415C19.3108 8.04289 19.631 8.09903 19.9195 8.42193L20.4306 8.09261C19.9601 7.4959 19.2792 7.4954 18.6584 7.89546C17.9052 8.3809 17.711 9.30957 18.2356 10.1232L18.2551 10.1534C18.7919 10.986 19.614 11.2222 20.4619 10.6758Z" fill="white"/>
<path d="M23.1729 9.06702L23.7153 8.8026L22.5113 6.33402L23.3168 5.94133L23.1096 5.51641L20.956 6.56621L21.1633 6.99113L21.9689 6.59844L23.1729 9.06702Z" fill="white"/>
<path d="M25.8194 7.87783L26.3822 7.66011L25.2201 4.65787L24.6573 4.8756L25.8194 7.87783Z" fill="white"/>
<path d="M28.7552 6.42727C28.1918 6.5864 27.6564 6.26508 27.4654 5.58917L27.4556 5.55451C27.267 4.88727 27.5006 4.3394 28.1074 4.16803C28.7141 3.99666 29.203 4.36855 29.383 5.00546L29.3928 5.04012C29.5826 5.7117 29.3403 6.26202 28.7552 6.42727ZM28.8775 6.89332C29.818 6.62769 30.2455 5.77241 29.9896 4.86687L29.9798 4.8322C29.7227 3.92233 28.9007 3.44803 27.9776 3.70876C27.0588 3.96826 26.5985 4.82345 26.8544 5.72899L26.8642 5.76365C27.1164 6.6562 27.9284 7.16139 28.8775 6.89332Z" fill="white"/>
<path d="M31.4375 6.2078L31.9768 6.12966L31.6228 3.68789L33.4119 5.92171L34.027 5.8326L33.5651 2.64672L33.0258 2.72486L33.3598 5.02849L31.6843 2.91924L30.9756 3.02192L31.4375 6.2078Z" fill="white"/>
<path d="M38.031 5.68022L38.6341 5.70286L38.7372 2.95838L39.6328 2.99201L39.6506 2.5196L37.2563 2.42969L37.2386 2.9021L38.1342 2.93573L38.031 5.68022Z" fill="white"/>
<path d="M42.4416 5.64941C41.8635 5.55641 41.5134 5.03949 41.625 4.34605L41.6308 4.31049C41.741 3.62594 42.1837 3.22747 42.8062 3.32763C43.4287 3.42778 43.7153 3.97097 43.6101 4.6244L43.6044 4.65996C43.4935 5.34896 43.0418 5.746 42.4416 5.64941ZM42.3561 6.12361C43.321 6.27886 44.0692 5.68328 44.2187 4.75424L44.2244 4.71868C44.3747 3.78521 43.8292 3.00883 42.8821 2.85644C41.9394 2.70478 41.1616 3.28646 41.012 4.21549L41.0063 4.25105C40.8589 5.16675 41.3823 5.96694 42.3561 6.12361Z" fill="white"/>
<path d="M46.7574 7.09545L47.9239 7.5114C48.5899 7.74888 49.0645 7.59786 49.2658 7.03385L49.2718 7.01689C49.4155 6.61403 49.3006 6.31969 48.9209 6.08392C49.3023 6.10042 49.5228 5.91135 49.6302 5.61026L49.6363 5.5933C49.833 5.04202 49.5486 4.67295 48.9251 4.4506L47.8392 4.06338L46.7574 7.09545ZM47.4526 6.88922L47.799 5.91811L48.3081 6.09962C48.7238 6.24785 48.8417 6.46677 48.7297 6.78058L48.7237 6.79754C48.6117 7.11135 48.3773 7.21896 47.9998 7.08434L47.4526 6.88922ZM47.9352 5.53645L48.2469 4.66288L48.705 4.82623C49.0656 4.9548 49.1871 5.13677 49.0842 5.42514L49.0782 5.4421C48.9677 5.75167 48.7751 5.83594 48.4018 5.70283L47.9352 5.53645Z" fill="white"/>
<path d="M50.1459 8.38838L51.9216 9.24714L52.1295 8.81752L50.893 8.21952L52.0874 5.75124L51.5482 5.49048L50.1459 8.38838Z" fill="white"/>
<path d="M54.4341 10.2177C53.94 9.90365 53.823 9.29042 54.2 8.69771L54.2193 8.66732C54.5914 8.08221 55.1557 7.89137 55.6878 8.22957C56.2199 8.56776 56.2681 9.17999 55.9129 9.7385L55.8936 9.76889C55.5191 10.3578 54.9471 10.5438 54.4341 10.2177ZM54.1679 10.6194C54.9926 11.1436 55.9154 10.8925 56.4205 10.0985L56.4398 10.0681C56.9472 9.27019 56.7534 8.34137 55.9439 7.82683C55.1382 7.31471 54.1936 7.54126 53.6886 8.33534L53.6693 8.36573C53.1715 9.14841 53.3356 10.0904 54.1679 10.6194Z" fill="white"/>
<path d="M57.4361 13.0112C58.0243 13.5011 58.6972 13.5517 59.2657 13.0173L58.8159 12.6426C58.4763 12.9517 58.09 12.9229 57.7474 12.6376C57.2907 12.2572 57.2981 11.7067 57.7622 11.1497L57.7853 11.1221C58.2465 10.5686 58.8128 10.4659 59.2488 10.829C59.6051 11.1259 59.6473 11.4481 59.4253 11.82L59.8924 12.209C60.3214 11.5818 60.1183 10.9321 59.5509 10.4595C58.8623 9.88599 57.9178 9.97834 57.298 10.7221L57.275 10.7497C56.6408 11.5107 56.661 12.3656 57.4361 13.0112Z" fill="white"/>
<path d="M59.3411 14.6474L59.7518 15.0832L60.8466 14.0519L60.6012 15.9843L61.0861 16.4988L61.3514 14.3249L63.3866 14.2388L62.9449 13.7702L61.0334 13.8759L62.0953 12.8755L61.6846 12.4397L59.3411 14.6474Z" fill="white"/>
<path d="M62.5818 18.4931C63.0361 19.1092 63.6775 19.3189 64.3571 18.9355L64.0097 18.4644C63.6062 18.6835 63.2379 18.5634 62.9733 18.2046C62.6206 17.7262 62.7592 17.1934 63.3428 16.7633L63.3718 16.7419C63.9518 16.3144 64.5262 16.3498 64.8629 16.8064C65.1382 17.1797 65.1022 17.5027 64.7979 17.8108L65.1586 18.3001C65.7249 17.7933 65.6827 17.1139 65.2445 16.5196C64.7127 15.7984 63.7734 15.6628 62.994 16.2372L62.965 16.2586C62.1675 16.8463 61.9832 17.6813 62.5818 18.4931Z" fill="white"/>
<path d="M64.0484 20.5328L64.3401 21.0558L65.5359 20.3894L66.2398 21.6517L65.0439 22.3182L65.3378 22.8451L68.1504 21.2777L67.8565 20.7508L66.6607 21.4172L65.9568 20.1548L67.1527 19.4884L66.861 18.9654L64.0484 20.5328Z" fill="white"/>
<path d="M65.8377 23.8542L66.0491 24.3759L66.8826 24.3103L67.3443 25.4495L66.7019 25.9866L66.9353 26.5624L69.5206 24.3688L69.2263 23.6428L65.8377 23.8542ZM68.905 24.1567L67.6968 25.1561L67.3399 24.2757L68.905 24.1567Z" fill="white"/>
<path d="M67.2439 27.5858L67.4207 28.1626L70.4995 27.2195L70.3226 26.6427L67.2439 27.5858Z" fill="white"/>
<path d="M67.7539 29.2593L67.864 29.7929L70.2811 29.2943L68.1571 31.2127L68.2826 31.8212L71.4363 31.1708L71.3262 30.6372L69.0459 31.1076L71.0523 29.31L70.9076 28.6089L67.7539 29.2593Z" fill="white"/>
<path d="M65.625 37.5C65.625 53.033 53.033 65.625 37.5 65.625C21.967 65.625 9.375 53.033 9.375 37.5C9.375 21.967 21.967 9.375 37.5 9.375C53.033 9.375 65.625 21.967 65.625 37.5Z" fill="#35C07D"/>
<path fill-rule="evenodd" clip-rule="evenodd" d="M37.5 65.0968C52.7413 65.0968 65.0968 52.7413 65.0968 37.5C65.0968 22.2587 52.7413 9.90317 37.5 9.90317C22.2587 9.90317 9.90317 22.2587 9.90317 37.5C9.90317 52.7413 22.2587 65.0968 37.5 65.0968ZM37.5 65.625C53.033 65.625 65.625 53.033 65.625 37.5C65.625 21.967 53.033 9.375 37.5 9.375C21.967 9.375 9.375 21.967 9.375 37.5C9.375 53.033 21.967 65.625 37.5 65.625Z" fill="white"/>
<path d="M27.8888 70.997L28.3006 68.7755L28.6421 68.8378C29.3872 68.9737 29.6218 69.4394 29.4962 70.1168L29.4897 70.152C29.3609 70.847 28.9444 71.1894 28.2348 71.06L27.8888 70.997ZM27.2134 71.3513L28.1669 71.5251C29.2801 71.7281 29.9374 71.175 30.107 70.26L30.1143 70.2204C30.2839 69.3054 29.8631 68.5829 28.7588 68.3816L27.7964 68.2061L27.2134 71.3513Z" fill="white"/>
<path d="M30.681 71.9528L31.2414 72.0126L31.5779 71.2523L32.8019 71.3829L32.972 72.1973L33.5907 72.2633L32.8776 68.9709L32.0974 68.8876L30.681 71.9528ZM32.399 69.4101L32.7097 70.9367L31.7637 70.8358L32.399 69.4101Z" fill="white"/>
<path d="M35.9006 72.4078C36.6667 72.4325 37.2293 72.0613 37.3492 71.2955L36.7633 71.2766C36.6854 71.7261 36.3626 71.9394 35.9164 71.925C35.3215 71.9058 34.9884 71.4699 35.012 70.7502L35.0132 70.7144C35.0367 69.9992 35.4206 69.573 35.9885 69.5914C36.4527 69.6064 36.6844 69.8331 36.738 70.26L37.3465 70.2796C37.299 69.5263 36.7387 69.1413 35.9995 69.1174C35.1026 69.0884 34.4136 69.7374 34.3821 70.6985L34.3809 70.7343C34.3486 71.7177 34.891 72.3752 35.9006 72.4078Z" fill="white"/>
<path d="M38.0106 72.4008L38.5738 72.3773L38.7925 71.5758L40.0224 71.5244L40.3128 72.3046L40.9345 72.2787L39.7356 69.128L38.9516 69.1608L38.0106 72.4008ZM39.3283 69.633L39.8643 71.0968L38.9137 71.1365L39.3283 69.633Z" fill="white"/>
<path d="M42.3738 71.6637L42.1086 69.4204L42.4534 69.3803C43.2059 69.2927 43.5682 69.6694 43.6491 70.3535L43.6533 70.389C43.7363 71.0909 43.4398 71.5397 42.7232 71.623L42.3738 71.6637ZM41.8333 72.1994L42.7962 72.0874C43.9204 71.9566 44.3846 71.2361 44.2753 70.3122L44.2706 70.2722C44.1613 69.3482 43.5448 68.7805 42.4296 68.9102L41.4578 69.0232L41.8333 72.1994Z" fill="white"/>
<path d="M45.5681 71.7119L47.6237 71.3249L47.5355 70.8635L46.0691 71.1396L45.8933 70.2212L47.0097 70.011L46.9257 69.5716L45.8092 69.7818L45.6444 68.9205L47.0355 68.6587L46.9472 68.1973L44.9669 68.5701L45.5681 71.7119Z" fill="white"/>
<path d="M50.5257 40.9774C45.7216 48.7122 37.5746 52.3179 32.3291 49.0309C27.0836 45.744 26.7258 36.8091 31.53 29.0743C36.3342 21.3395 44.4811 17.7338 49.7266 21.0207C54.9722 24.3077 55.3299 33.2426 50.5257 40.9774Z" fill="#2E3337"/>
<path d="M40.6043 46.1805C35.7516 53.9153 27.5224 57.521 22.2239 54.2341C16.9254 50.9471 16.564 42.0122 21.4167 34.2774C26.2694 26.5426 34.4986 22.9369 39.7971 26.2239C45.0956 29.5108 45.457 38.4457 40.6043 46.1805Z" fill="white"/>
</svg>
