<svg width="499" height="601" viewBox="0 0 499 601" fill="none" xmlns="http://www.w3.org/2000/svg">
<path d="M498.247 0H0.0498047V372.645C0.0487869 505.642 119.343 600.677 248.521 600.999C378.067 601.323 498.247 504.388 498.247 372.645V0Z" fill="url(#paint0_linear_41_17108)"/>
<path d="M498.247 0H0L21.4194 23.7126L478.975 23.462L498.247 0Z" fill="url(#paint1_linear_41_17108)"/>
<path d="M21.7119 366.13V23.9043H478.37V366.13C478.37 486.804 368.299 575.753 249.466 575.456C130.965 575.16 21.711 487.958 21.7119 366.13Z" fill="url(#paint2_linear_41_17108)" stroke="url(#paint3_linear_41_17108)" stroke-width="2"/>
<path d="M458.502 46.1816H41.1514V362.713C41.1505 474.612 141.086 554.57 249.301 554.841C357.825 555.113 458.502 473.556 458.502 362.713V46.1816Z" fill="#47110A"/>
<path d="M477.367 24.9043H22.7109L41.1392 46.302L458.491 46.2478L477.367 24.9043Z" fill="url(#paint4_linear_41_17108)"/>
<path d="M168.996 151.332H174.196L177.676 144.012H186.956V151.332H205.436V147.132H192.276V138.772H202.276V134.772H192.276V126.932H204.756V122.732H183.036L168.996 151.332ZM185.876 126.932H186.956V140.212H179.516L185.876 126.932ZM216.544 151.692C218.024 151.692 219.064 151.452 219.824 151.172V147.332C219.144 147.612 218.424 147.732 217.464 147.732C215.944 147.732 215.064 146.892 215.064 145.052V134.052H219.664V130.412H215.064V125.812H210.224V130.412H207.424V134.052H210.224V145.492C210.224 149.452 212.384 151.692 216.544 151.692ZM232.99 151.732C238.35 151.732 241.91 149.332 242.59 144.932H237.91C237.55 146.972 236.03 148.132 233.11 148.132C229.51 148.132 227.51 145.892 227.35 141.932H242.67V140.532C242.67 133.052 237.99 129.972 232.79 129.972C226.83 129.972 222.39 134.292 222.39 140.772V141.092C222.39 147.692 226.83 151.732 232.99 151.732ZM227.43 138.692C227.91 135.452 229.87 133.492 232.79 133.492C235.79 133.492 237.63 135.092 237.87 138.692H227.43ZM246.593 151.332H251.433V140.452C251.433 136.012 253.993 134.652 258.233 134.612V130.092C254.713 130.132 252.753 131.692 251.433 134.332V130.412H246.593V151.332ZM262.091 151.332H266.931V139.012C266.931 135.692 269.131 134.012 271.851 134.012C274.731 134.012 276.011 135.452 276.011 138.612V151.332H280.851V138.172C280.851 132.412 277.891 129.972 273.691 129.972C270.251 129.972 267.931 131.692 266.931 133.732V130.412H262.091V151.332ZM286.147 151.332H290.987V130.412H286.147V151.332ZM288.507 126.972C290.107 126.972 291.387 125.772 291.387 124.212C291.387 122.612 290.107 121.412 288.507 121.412C286.907 121.412 285.627 122.612 285.627 124.212C285.627 125.772 286.907 126.972 288.507 126.972ZM303.606 151.692C305.086 151.692 306.126 151.452 306.886 151.172V147.332C306.206 147.612 305.486 147.732 304.526 147.732C303.006 147.732 302.126 146.892 302.126 145.052V134.052H306.726V130.412H302.126V125.812H297.286V130.412H294.486V134.052H297.286V145.492C297.286 149.452 299.446 151.692 303.606 151.692ZM313.172 158.492H317.932L329.332 130.412H324.612L319.492 143.892L313.932 130.412H308.692L316.972 149.212L313.172 158.492ZM97.1002 191.132V170.932H100.18C106.9 170.932 109.7 174.652 109.7 180.812V181.132C109.7 187.452 106.62 191.132 100.22 191.132H97.1002ZM91.7802 195.332H100.38C110.42 195.332 115.26 189.412 115.26 181.092V180.732C115.26 172.412 110.42 166.732 100.46 166.732H91.7802V195.332ZM128.735 195.732C134.095 195.732 137.655 193.332 138.335 188.932H133.655C133.295 190.972 131.775 192.132 128.855 192.132C125.255 192.132 123.255 189.892 123.095 185.932H138.415V184.532C138.415 177.052 133.735 173.972 128.535 173.972C122.575 173.972 118.135 178.292 118.135 184.772V185.092C118.135 191.692 122.575 195.732 128.735 195.732ZM123.175 182.692C123.655 179.452 125.615 177.492 128.535 177.492C131.535 177.492 133.375 179.092 133.615 182.692H123.175ZM147.427 195.332H153.067L160.627 174.412H155.867L150.467 190.372L144.987 174.412H139.787L147.427 195.332ZM172.232 195.732C177.592 195.732 181.152 193.332 181.832 188.932H177.152C176.792 190.972 175.272 192.132 172.352 192.132C168.752 192.132 166.752 189.892 166.592 185.932H181.912V184.532C181.912 177.052 177.232 173.972 172.032 173.972C166.072 173.972 161.632 178.292 161.632 184.772V185.092C161.632 191.692 166.072 195.732 172.232 195.732ZM166.672 182.692C167.152 179.452 169.112 177.492 172.032 177.492C175.032 177.492 176.872 179.092 177.112 182.692H166.672ZM185.955 195.332H190.795V164.732H185.955V195.332ZM205.654 191.972C201.974 191.972 199.854 189.292 199.854 185.012V184.692C199.854 180.372 202.054 177.772 205.654 177.772C209.254 177.772 211.414 180.412 211.414 184.732V185.012C211.414 189.292 209.254 191.972 205.654 191.972ZM205.614 195.732C211.774 195.732 216.374 191.492 216.374 184.972V184.652C216.374 178.252 211.774 173.972 205.654 173.972C199.494 173.972 194.894 178.292 194.894 184.772V185.092C194.894 191.452 199.454 195.732 205.614 195.732ZM220.347 202.492H225.187V192.052C226.307 194.092 228.707 195.732 232.027 195.732C237.427 195.732 241.307 191.652 241.307 184.932V184.612C241.307 177.852 237.267 173.972 232.027 173.972C228.947 173.972 226.347 175.772 225.187 177.772V174.412H220.347V202.492ZM230.827 191.892C227.307 191.892 225.027 189.692 225.027 185.012V184.692C225.027 180.052 227.427 177.772 230.787 177.772C233.947 177.772 236.347 180.052 236.347 184.692V185.012C236.347 189.492 234.387 191.892 230.827 191.892ZM245.26 195.332H250.1V182.812C250.1 179.612 252.3 178.012 254.7 178.012C257.06 178.012 258.42 179.332 258.42 182.412V195.332H263.26V182.812C263.26 179.612 265.46 178.012 267.86 178.012C270.26 178.012 271.58 179.332 271.58 182.412V195.332H276.42V182.092C276.42 176.332 273.3 173.972 269.46 173.972C266.86 173.972 263.98 175.132 262.38 177.732C261.34 175.132 259.18 173.972 256.46 173.972C253.38 173.972 251.1 175.652 250.1 177.612V174.412H245.26V195.332ZM290.779 195.732C296.139 195.732 299.699 193.332 300.379 188.932H295.699C295.339 190.972 293.819 192.132 290.899 192.132C287.299 192.132 285.299 189.892 285.139 185.932H300.459V184.532C300.459 177.052 295.779 173.972 290.579 173.972C284.619 173.972 280.179 178.292 280.179 184.772V185.092C280.179 191.692 284.619 195.732 290.779 195.732ZM285.219 182.692C285.699 179.452 287.659 177.492 290.579 177.492C293.579 177.492 295.419 179.092 295.659 182.692H285.219ZM304.382 195.332H309.222V183.012C309.222 179.692 311.422 178.012 314.142 178.012C317.022 178.012 318.302 179.452 318.302 182.612V195.332H323.142V182.172C323.142 176.412 320.182 173.972 315.982 173.972C312.542 173.972 310.222 175.692 309.222 177.732V174.412H304.382V195.332ZM335.438 195.692C336.918 195.692 337.958 195.452 338.718 195.172V191.332C338.038 191.612 337.318 191.732 336.358 191.732C334.838 191.732 333.958 190.892 333.958 189.052V178.052H338.558V174.412H333.958V169.812H329.118V174.412H326.318V178.052H329.118V189.492C329.118 193.452 331.278 195.692 335.438 195.692ZM356.255 195.332H361.615V166.732H356.855L350.215 171.452V176.132L356.255 172.012V195.332ZM379.452 191.492C375.172 191.492 372.692 188.212 372.692 181.732V180.292C372.692 173.932 375.052 170.492 379.372 170.492C383.652 170.492 385.972 174.172 385.972 180.252V181.652C385.972 188.132 383.852 191.492 379.452 191.492ZM379.332 195.732C386.812 195.732 391.292 190.252 391.292 181.652V180.212C391.292 171.612 386.572 166.332 379.332 166.332C372.132 166.332 367.332 171.652 367.332 180.332V181.772C367.332 190.372 372.052 195.732 379.332 195.732ZM400.259 195.332H405.619V166.732H400.859L394.219 171.452V176.132L400.259 172.012V195.332Z" fill="white"/>
<path d="M214.184 88.337V78.742H215.647C218.839 78.742 220.169 80.509 220.169 83.435V83.587C220.169 86.589 218.706 88.337 215.666 88.337H214.184ZM211.657 90.332H215.742C220.511 90.332 222.81 87.52 222.81 83.568V83.397C222.81 79.445 220.511 76.747 215.78 76.747H211.657V90.332ZM223.414 90.332H225.789L226.853 86.969H232.04L233.123 90.332H235.745L231.261 76.747H227.955L223.414 90.332ZM229.456 78.818L231.451 85.126H227.442L229.456 78.818ZM243.005 90.522C246.235 90.522 248.553 88.869 248.952 85.601H246.482C246.216 87.52 244.886 88.47 243.005 88.47C240.497 88.47 239.034 86.665 239.034 83.606V83.454C239.034 80.414 240.592 78.552 242.986 78.552C244.943 78.552 245.95 79.483 246.235 81.288H248.8C248.496 78.096 246.083 76.538 242.967 76.538C239.186 76.538 236.374 79.388 236.374 83.473V83.625C236.374 87.805 238.749 90.522 243.005 90.522ZM249.818 90.332H252.193L253.257 86.969H258.444L259.527 90.332H262.149L257.665 76.747H254.359L249.818 90.332ZM255.86 78.818L257.855 85.126H253.846L255.86 78.818ZM266.749 88.337V78.742H268.212C271.404 78.742 272.734 80.509 272.734 83.435V83.587C272.734 86.589 271.271 88.337 268.231 88.337H266.749ZM264.222 90.332H268.307C273.076 90.332 275.375 87.52 275.375 83.568V83.397C275.375 79.445 273.076 76.747 268.345 76.747H264.222V90.332ZM277.786 90.332H286.602V88.337H280.313V84.366H285.101V82.466H280.313V78.742H286.279V76.747H277.786V90.332Z" fill="#D4D4D8"/>
<line opacity="0.4" x1="154.099" y1="107.916" x2="344.099" y2="107.916" stroke="#9CA3AF" stroke-width="2"/>
<g clip-path="url(#clip0_41_17108)">
<path d="M354.044 356.685C354.044 297.718 306.353 249.916 247.522 249.916C188.691 249.916 140.999 297.718 140.999 356.685C140.999 415.651 188.691 463.453 247.522 463.453C306.353 463.453 354.044 415.651 354.044 356.685Z" fill="#FF3A00"/>
<path d="M359 433.658C359 414.46 343.473 398.896 324.319 398.896C305.164 398.896 289.637 414.46 289.637 433.658C289.637 452.857 305.164 468.42 324.319 468.42C343.473 468.42 359 452.857 359 433.658Z" fill="white"/>
</g>
<defs>
<linearGradient id="paint0_linear_41_17108" x1="249.149" y1="37.8876" x2="249.149" y2="632.959" gradientUnits="userSpaceOnUse">
<stop offset="0.000572331" stop-color="#47110A"/>
<stop offset="0.463203" stop-color="#FF3A02"/>
<stop offset="0.961881" stop-color="#47110A"/>
</linearGradient>
<linearGradient id="paint1_linear_41_17108" x1="498.745" y1="6.42815" x2="-22.3987" y2="5.42605" gradientUnits="userSpaceOnUse">
<stop offset="0.015768" stop-color="#FF3A02"/>
<stop offset="0.480532" stop-color="#47110A"/>
<stop offset="0.950573" stop-color="#FF3A02"/>
</linearGradient>
<linearGradient id="paint2_linear_41_17108" x1="20.7119" y1="611.065" x2="8.06334" y2="22.9972" gradientUnits="userSpaceOnUse">
<stop offset="0.0396479" stop-color="#FF3A02"/>
<stop offset="0.451723" stop-color="#47110A"/>
<stop offset="0.998103" stop-color="#FF3A02"/>
</linearGradient>
<linearGradient id="paint3_linear_41_17108" x1="250.041" y1="-73.1322" x2="250.041" y2="556.567" gradientUnits="userSpaceOnUse">
<stop offset="0.074236" stop-color="#47110A"/>
<stop offset="0.218297" stop-color="#FF3A02"/>
<stop offset="0.549386" stop-color="#47110A"/>
<stop offset="1" stop-color="#FF3A02"/>
</linearGradient>
<linearGradient id="paint4_linear_41_17108" x1="478.242" y1="30.4364" x2="0.613862" y2="29.4583" gradientUnits="userSpaceOnUse">
<stop offset="0.00582305" stop-color="#47110A"/>
<stop offset="0.471312" stop-color="#FF3A02"/>
<stop offset="0.924755" stop-color="#47110A"/>
</linearGradient>
<clipPath id="clip0_41_17108">
<rect width="218" height="218.503" fill="white" transform="translate(140.999 249.916)"/>
</clipPath>
</defs>
</svg>
