<svg width="499" height="601" viewBox="0 0 499 601" fill="none" xmlns="http://www.w3.org/2000/svg">
<path d="M498.427 0H0.229492V372.645C0.228474 505.642 119.523 600.677 248.701 600.999C378.247 601.323 498.427 504.388 498.427 372.645V0Z" fill="url(#paint0_linear_14158_15736)"/>
<path d="M498.427 0H0.179688L21.599 23.7126L479.154 23.462L498.427 0Z" fill="url(#paint1_linear_14158_15736)"/>
<path d="M21.8916 23.9043H478.549V366.13C478.549 486.804 368.479 575.753 249.645 575.456C131.145 575.16 21.8907 487.958 21.8916 366.13V23.9043Z" fill="url(#paint2_linear_14158_15736)" stroke="url(#paint3_linear_14158_15736)" stroke-width="2"/>
<path d="M458.682 46.1816H41.3311V362.713C41.3302 474.612 141.266 554.57 249.481 554.841C358.004 555.113 458.682 473.556 458.682 362.713V46.1816Z" fill="#47110A"/>
<path d="M477.547 24.9043H22.8905L41.3188 46.302L458.671 46.2478L477.547 24.9043Z" fill="url(#paint4_linear_14158_15736)"/>
<path d="M169.176 151.332H174.376L177.856 144.012H187.136V151.332H205.616V147.132H192.456V138.772H202.456V134.772H192.456V126.932H204.936V122.732H183.216L169.176 151.332ZM186.056 126.932H187.136V140.212H179.696L186.056 126.932ZM216.724 151.692C218.204 151.692 219.244 151.452 220.004 151.172V147.332C219.324 147.612 218.604 147.732 217.644 147.732C216.124 147.732 215.244 146.892 215.244 145.052V134.052H219.844V130.412H215.244V125.812H210.404V130.412H207.604V134.052H210.404V145.492C210.404 149.452 212.564 151.692 216.724 151.692ZM233.169 151.732C238.529 151.732 242.089 149.332 242.769 144.932H238.089C237.729 146.972 236.209 148.132 233.289 148.132C229.689 148.132 227.689 145.892 227.529 141.932H242.849V140.532C242.849 133.052 238.169 129.972 232.969 129.972C227.009 129.972 222.569 134.292 222.569 140.772V141.092C222.569 147.692 227.009 151.732 233.169 151.732ZM227.609 138.692C228.089 135.452 230.049 133.492 232.969 133.492C235.969 133.492 237.809 135.092 238.049 138.692H227.609ZM246.772 151.332H251.612V140.452C251.612 136.012 254.172 134.652 258.412 134.612V130.092C254.892 130.132 252.932 131.692 251.612 134.332V130.412H246.772V151.332ZM262.271 151.332H267.111V139.012C267.111 135.692 269.311 134.012 272.031 134.012C274.911 134.012 276.191 135.452 276.191 138.612V151.332H281.031V138.172C281.031 132.412 278.071 129.972 273.871 129.972C270.431 129.972 268.111 131.692 267.111 133.732V130.412H262.271V151.332ZM286.327 151.332H291.167V130.412H286.327V151.332ZM288.687 126.972C290.287 126.972 291.567 125.772 291.567 124.212C291.567 122.612 290.287 121.412 288.687 121.412C287.087 121.412 285.807 122.612 285.807 124.212C285.807 125.772 287.087 126.972 288.687 126.972ZM303.786 151.692C305.266 151.692 306.306 151.452 307.066 151.172V147.332C306.386 147.612 305.666 147.732 304.706 147.732C303.186 147.732 302.306 146.892 302.306 145.052V134.052H306.906V130.412H302.306V125.812H297.466V130.412H294.666V134.052H297.466V145.492C297.466 149.452 299.626 151.692 303.786 151.692ZM313.352 158.492H318.112L329.512 130.412H324.792L319.672 143.892L314.112 130.412H308.872L317.152 149.212L313.352 158.492ZM97.2799 191.132V170.932H100.36C107.08 170.932 109.88 174.652 109.88 180.812V181.132C109.88 187.452 106.8 191.132 100.4 191.132H97.2799ZM91.9599 195.332H100.56C110.6 195.332 115.44 189.412 115.44 181.092V180.732C115.44 172.412 110.6 166.732 100.64 166.732H91.9599V195.332ZM128.915 195.732C134.275 195.732 137.835 193.332 138.515 188.932H133.835C133.475 190.972 131.955 192.132 129.035 192.132C125.435 192.132 123.435 189.892 123.275 185.932H138.595V184.532C138.595 177.052 133.915 173.972 128.715 173.972C122.755 173.972 118.315 178.292 118.315 184.772V185.092C118.315 191.692 122.755 195.732 128.915 195.732ZM123.355 182.692C123.835 179.452 125.795 177.492 128.715 177.492C131.715 177.492 133.555 179.092 133.795 182.692H123.355ZM147.607 195.332H153.247L160.807 174.412H156.047L150.647 190.372L145.167 174.412H139.967L147.607 195.332ZM172.411 195.732C177.771 195.732 181.331 193.332 182.011 188.932H177.331C176.971 190.972 175.451 192.132 172.531 192.132C168.931 192.132 166.931 189.892 166.771 185.932H182.091V184.532C182.091 177.052 177.411 173.972 172.211 173.972C166.251 173.972 161.811 178.292 161.811 184.772V185.092C161.811 191.692 166.251 195.732 172.411 195.732ZM166.851 182.692C167.331 179.452 169.291 177.492 172.211 177.492C175.211 177.492 177.051 179.092 177.291 182.692H166.851ZM186.135 195.332H190.975V164.732H186.135V195.332ZM205.834 191.972C202.154 191.972 200.034 189.292 200.034 185.012V184.692C200.034 180.372 202.234 177.772 205.834 177.772C209.434 177.772 211.594 180.412 211.594 184.732V185.012C211.594 189.292 209.434 191.972 205.834 191.972ZM205.794 195.732C211.954 195.732 216.554 191.492 216.554 184.972V184.652C216.554 178.252 211.954 173.972 205.834 173.972C199.674 173.972 195.074 178.292 195.074 184.772V185.092C195.074 191.452 199.634 195.732 205.794 195.732ZM220.527 202.492H225.367V192.052C226.487 194.092 228.887 195.732 232.207 195.732C237.607 195.732 241.487 191.652 241.487 184.932V184.612C241.487 177.852 237.447 173.972 232.207 173.972C229.127 173.972 226.527 175.772 225.367 177.772V174.412H220.527V202.492ZM231.007 191.892C227.487 191.892 225.207 189.692 225.207 185.012V184.692C225.207 180.052 227.607 177.772 230.967 177.772C234.127 177.772 236.527 180.052 236.527 184.692V185.012C236.527 189.492 234.567 191.892 231.007 191.892ZM245.44 195.332H250.28V182.812C250.28 179.612 252.48 178.012 254.88 178.012C257.24 178.012 258.6 179.332 258.6 182.412V195.332H263.44V182.812C263.44 179.612 265.64 178.012 268.04 178.012C270.44 178.012 271.76 179.332 271.76 182.412V195.332H276.6V182.092C276.6 176.332 273.48 173.972 269.64 173.972C267.04 173.972 264.16 175.132 262.56 177.732C261.52 175.132 259.36 173.972 256.64 173.972C253.56 173.972 251.28 175.652 250.28 177.612V174.412H245.44V195.332ZM290.958 195.732C296.318 195.732 299.878 193.332 300.558 188.932H295.878C295.518 190.972 293.998 192.132 291.078 192.132C287.478 192.132 285.478 189.892 285.318 185.932H300.638V184.532C300.638 177.052 295.958 173.972 290.758 173.972C284.798 173.972 280.358 178.292 280.358 184.772V185.092C280.358 191.692 284.798 195.732 290.958 195.732ZM285.398 182.692C285.878 179.452 287.838 177.492 290.758 177.492C293.758 177.492 295.598 179.092 295.838 182.692H285.398ZM304.561 195.332H309.401V183.012C309.401 179.692 311.601 178.012 314.321 178.012C317.201 178.012 318.481 179.452 318.481 182.612V195.332H323.321V182.172C323.321 176.412 320.361 173.972 316.161 173.972C312.721 173.972 310.401 175.692 309.401 177.732V174.412H304.561V195.332ZM335.617 195.692C337.097 195.692 338.137 195.452 338.897 195.172V191.332C338.217 191.612 337.497 191.732 336.537 191.732C335.017 191.732 334.137 190.892 334.137 189.052V178.052H338.737V174.412H334.137V169.812H329.297V174.412H326.497V178.052H329.297V189.492C329.297 193.452 331.457 195.692 335.617 195.692ZM356.434 195.332H361.794V166.732H357.034L350.394 171.452V176.132L356.434 172.012V195.332ZM379.632 191.492C375.352 191.492 372.872 188.212 372.872 181.732V180.292C372.872 173.932 375.232 170.492 379.552 170.492C383.832 170.492 386.152 174.172 386.152 180.252V181.652C386.152 188.132 384.032 191.492 379.632 191.492ZM379.512 195.732C386.992 195.732 391.472 190.252 391.472 181.652V180.212C391.472 171.612 386.752 166.332 379.512 166.332C372.312 166.332 367.512 171.652 367.512 180.332V181.772C367.512 190.372 372.232 195.732 379.512 195.732ZM400.439 195.332H405.799V166.732H401.039L394.399 171.452V176.132L400.439 172.012V195.332Z" fill="white"/>
<path d="M214.363 88.337V78.742H215.826C219.018 78.742 220.348 80.509 220.348 83.435V83.587C220.348 86.589 218.885 88.337 215.845 88.337H214.363ZM211.836 90.332H215.921C220.69 90.332 222.989 87.52 222.989 83.568V83.397C222.989 79.445 220.69 76.747 215.959 76.747H211.836V90.332ZM223.594 90.332H225.969L227.033 86.969H232.22L233.303 90.332H235.925L231.441 76.747H228.135L223.594 90.332ZM229.636 78.818L231.631 85.126H227.622L229.636 78.818ZM243.185 90.522C246.415 90.522 248.733 88.869 249.132 85.601H246.662C246.396 87.52 245.066 88.47 243.185 88.47C240.677 88.47 239.214 86.665 239.214 83.606V83.454C239.214 80.414 240.772 78.552 243.166 78.552C245.123 78.552 246.13 79.483 246.415 81.288H248.98C248.676 78.096 246.263 76.538 243.147 76.538C239.366 76.538 236.554 79.388 236.554 83.473V83.625C236.554 87.805 238.929 90.522 243.185 90.522ZM249.997 90.332H252.372L253.436 86.969H258.623L259.706 90.332H262.328L257.844 76.747H254.538L249.997 90.332ZM256.039 78.818L258.034 85.126H254.025L256.039 78.818ZM266.929 88.337V78.742H268.392C271.584 78.742 272.914 80.509 272.914 83.435V83.587C272.914 86.589 271.451 88.337 268.411 88.337H266.929ZM264.402 90.332H268.487C273.256 90.332 275.555 87.52 275.555 83.568V83.397C275.555 79.445 273.256 76.747 268.525 76.747H264.402V90.332ZM277.965 90.332H286.781V88.337H280.492V84.366H285.28V82.466H280.492V78.742H286.458V76.747H277.965V90.332Z" fill="#D4D4D8"/>
<line opacity="0.4" x1="154.278" y1="107.916" x2="344.278" y2="107.916" stroke="#9CA3AF" stroke-width="2"/>
<g clip-path="url(#clip0_14158_15736)">
<path d="M354.224 356.685C354.224 297.718 306.532 249.916 247.701 249.916C188.871 249.916 141.179 297.718 141.179 356.685C141.179 415.651 188.871 463.453 247.701 463.453C306.532 463.453 354.224 415.651 354.224 356.685Z" fill="#FF3A00"/>
<path d="M359.18 433.658C359.18 414.46 343.652 398.896 324.498 398.896C305.344 398.896 289.816 414.46 289.816 433.658C289.816 452.857 305.344 468.42 324.498 468.42C343.652 468.42 359.18 452.857 359.18 433.658Z" fill="white"/>
</g>
<defs>
<linearGradient id="paint0_linear_14158_15736" x1="249.329" y1="37.8876" x2="249.329" y2="632.959" gradientUnits="userSpaceOnUse">
<stop offset="0.000572331" stop-color="#47110A"/>
<stop offset="0.463203" stop-color="#FF3A02"/>
<stop offset="0.961881" stop-color="#47110A"/>
</linearGradient>
<linearGradient id="paint1_linear_14158_15736" x1="498.924" y1="6.42815" x2="-22.219" y2="5.42605" gradientUnits="userSpaceOnUse">
<stop offset="0.015768" stop-color="#FF3A02"/>
<stop offset="0.480532" stop-color="#47110A"/>
<stop offset="0.950573" stop-color="#FF3A02"/>
</linearGradient>
<linearGradient id="paint2_linear_14158_15736" x1="20.8916" y1="611.065" x2="8.24303" y2="22.9972" gradientUnits="userSpaceOnUse">
<stop offset="0.0396479" stop-color="#FF3A02"/>
<stop offset="0.451723" stop-color="#47110A"/>
<stop offset="0.998103" stop-color="#FF3A02"/>
</linearGradient>
<linearGradient id="paint3_linear_14158_15736" x1="250.221" y1="-73.1322" x2="250.221" y2="556.567" gradientUnits="userSpaceOnUse">
<stop offset="0.074236" stop-color="#47110A"/>
<stop offset="0.218297" stop-color="#FF3A02"/>
<stop offset="0.549386" stop-color="#47110A"/>
<stop offset="1" stop-color="#FF3A02"/>
</linearGradient>
<linearGradient id="paint4_linear_14158_15736" x1="478.422" y1="30.4364" x2="0.793427" y2="29.4583" gradientUnits="userSpaceOnUse">
<stop offset="0.00582305" stop-color="#47110A"/>
<stop offset="0.471312" stop-color="#FF3A02"/>
<stop offset="0.924755" stop-color="#47110A"/>
</linearGradient>
<clipPath id="clip0_14158_15736">
<rect width="218" height="218.503" fill="white" transform="translate(141.179 249.916)"/>
</clipPath>
</defs>
</svg>
