<svg width="499" height="601" viewBox="0 0 499 601" fill="none" xmlns="http://www.w3.org/2000/svg">
<path d="M498.248 0H0.0507812V372.645C0.0497634 505.642 119.344 600.677 248.522 600.999C378.068 601.323 498.248 504.388 498.248 372.645V0Z" fill="url(#paint0_linear_16950_19327)"/>
<path d="M498.247 0H0L21.4194 23.7126L478.975 23.462L498.247 0Z" fill="url(#paint1_linear_16950_19327)"/>
<path d="M21.7109 366.13V23.9043H478.369V366.13C478.369 486.804 368.298 575.753 249.465 575.456C130.964 575.16 21.71 487.958 21.7109 366.13Z" fill="url(#paint2_linear_16950_19327)" stroke="url(#paint3_linear_16950_19327)" stroke-width="2"/>
<path d="M458.503 46.1816H41.1523V362.713C41.1515 474.612 141.087 554.57 249.302 554.841C357.826 555.113 458.503 473.556 458.503 362.713V46.1816Z" fill="#01464C"/>
<path d="M477.367 24.9043H22.7109L41.1392 46.302L458.491 46.2478L477.367 24.9043Z" fill="url(#paint4_linear_16950_19327)"/>
<path d="M171.475 151L181.035 122.4H187.995L197.435 151H191.915L189.635 143.92H178.715L176.475 151H171.475ZM184.195 126.76L179.955 140.04H188.395L184.195 126.76ZM201 151V130.08H205.84V134C207.16 131.36 209.12 129.8 212.64 129.76V134.28C208.4 134.32 205.84 135.68 205.84 140.12V151H201ZM223.813 151.36C219.653 151.36 217.493 149.12 217.493 145.16V133.72H214.693V130.08H217.493V125.48H222.333V130.08H226.933V133.72H222.333V144.72C222.333 146.56 223.213 147.4 224.733 147.4C225.693 147.4 226.413 147.28 227.093 147V150.84C226.333 151.12 225.293 151.36 223.813 151.36ZM231.179 151V130.08H236.019V151H231.179ZM233.539 126.64C231.939 126.64 230.659 125.44 230.659 123.88C230.659 122.28 231.939 121.08 233.539 121.08C235.139 121.08 236.419 122.28 236.419 123.88C236.419 125.44 235.139 126.64 233.539 126.64ZM242.358 151V133.72H239.518V130.08H242.358V127.28C242.358 122.68 244.878 120.2 249.318 120.2C250.518 120.2 251.198 120.32 251.958 120.56V124.32C251.398 124.08 250.798 124 249.918 124C247.998 124 247.198 125.28 247.198 127.08V130.08H251.958V133.72H247.198V151H242.358ZM255.184 151V130.08H260.024V151H255.184ZM257.544 126.64C255.944 126.64 254.664 125.44 254.664 123.88C254.664 122.28 255.944 121.08 257.544 121.08C259.144 121.08 260.424 122.28 260.424 123.88C260.424 125.44 259.144 126.64 257.544 126.64ZM274.683 151.4C268.683 151.4 264.123 147.48 264.123 140.8V140.48C264.123 133.84 268.843 129.64 274.683 129.64C279.323 129.64 283.683 131.72 284.243 137.48H279.563C279.163 134.68 277.323 133.52 274.763 133.52C271.443 133.52 269.083 136.08 269.083 140.4V140.72C269.083 145.28 271.323 147.68 274.883 147.68C277.443 147.68 279.643 146.16 279.923 143.2H284.363C284.003 148 280.363 151.4 274.683 151.4ZM288.251 151V130.08H293.091V151H288.251ZM290.611 126.64C289.011 126.64 287.731 125.44 287.731 123.88C287.731 122.28 289.011 121.08 290.611 121.08C292.211 121.08 293.491 122.28 293.491 123.88C293.491 125.44 292.211 126.64 290.611 126.64ZM304.07 151.4C300.23 151.4 297.07 149.56 297.07 145.2C297.07 140.32 301.79 138.56 307.79 138.56H310.39V137.48C310.39 134.68 309.43 133.28 306.59 133.28C304.07 133.28 302.83 134.48 302.59 136.56H297.91C298.31 131.68 302.19 129.64 306.87 129.64C311.55 129.64 315.23 131.56 315.23 137.28V151H310.47V148.44C309.11 150.24 307.27 151.4 304.07 151.4ZM305.23 147.92C308.19 147.92 310.39 146.36 310.39 143.68V141.6H307.91C304.23 141.6 301.87 142.44 301.87 145C301.87 146.76 302.83 147.92 305.23 147.92ZM320.498 151V120.4H325.338V151H320.498ZM107.164 195V166.4H112.524V195H107.164ZM118.469 195V174.08H123.309V177.4C124.309 175.36 126.629 173.64 130.069 173.64C134.269 173.64 137.229 176.08 137.229 181.84V195H132.389V182.28C132.389 179.12 131.109 177.68 128.229 177.68C125.509 177.68 123.309 179.36 123.309 182.68V195H118.469ZM149.525 195.36C145.365 195.36 143.205 193.12 143.205 189.16V177.72H140.405V174.08H143.205V169.48H148.045V174.08H152.645V177.72H148.045V188.72C148.045 190.56 148.925 191.4 150.445 191.4C151.405 191.4 152.125 191.28 152.805 191V194.84C152.045 195.12 151.005 195.36 149.525 195.36ZM165.971 195.4C159.811 195.4 155.371 191.36 155.371 184.76V184.44C155.371 177.96 159.811 173.64 165.771 173.64C170.971 173.64 175.651 176.72 175.651 184.2V185.6H160.331C160.491 189.56 162.491 191.8 166.091 191.8C169.011 191.8 170.531 190.64 170.891 188.6H175.571C174.891 193 171.331 195.4 165.971 195.4ZM160.411 182.36H170.851C170.611 178.76 168.771 177.16 165.771 177.16C162.851 177.16 160.891 179.12 160.411 182.36ZM179.694 195V164.4H184.534V195H179.694ZM190.153 195V164.4H194.993V195H190.153ZM200.613 195V174.08H205.453V195H200.613ZM202.973 170.64C201.373 170.64 200.093 169.44 200.093 167.88C200.093 166.28 201.373 165.08 202.973 165.08C204.573 165.08 205.853 166.28 205.853 167.88C205.853 169.44 204.573 170.64 202.973 170.64ZM219.872 202.68C213.312 202.68 210.352 199.72 209.792 195.72H214.672C215.072 197.8 216.672 199 219.832 199C223.592 199 225.672 197.12 225.672 193.36V190.28C224.512 192.28 221.912 194.16 218.832 194.16C213.592 194.16 209.552 190.24 209.552 184.2V183.92C209.552 178.04 213.552 173.64 218.952 173.64C222.392 173.64 224.472 175.2 225.672 177.28V174.08H230.512V193.44C230.472 199.6 226.352 202.68 219.872 202.68ZM220.032 190.44C223.392 190.44 225.832 188.04 225.832 184.04V183.76C225.832 179.8 223.672 177.44 220.192 177.44C216.592 177.44 214.512 180.04 214.512 183.84V184.16C214.512 188.04 216.912 190.44 220.032 190.44ZM245.065 195.4C238.905 195.4 234.465 191.36 234.465 184.76V184.44C234.465 177.96 238.905 173.64 244.865 173.64C250.065 173.64 254.745 176.72 254.745 184.2V185.6H239.425C239.585 189.56 241.585 191.8 245.185 191.8C248.105 191.8 249.625 190.64 249.985 188.6H254.665C253.985 193 250.425 195.4 245.065 195.4ZM239.505 182.36H249.945C249.705 178.76 247.865 177.16 244.865 177.16C241.945 177.16 239.985 179.12 239.505 182.36ZM258.668 195V174.08H263.508V177.4C264.508 175.36 266.828 173.64 270.268 173.64C274.468 173.64 277.428 176.08 277.428 181.84V195H272.588V182.28C272.588 179.12 271.308 177.68 268.428 177.68C265.708 177.68 263.508 179.36 263.508 182.68V195H258.668ZM291.764 195.4C285.764 195.4 281.204 191.48 281.204 184.8V184.48C281.204 177.84 285.924 173.64 291.764 173.64C296.404 173.64 300.764 175.72 301.324 181.48H296.644C296.244 178.68 294.404 177.52 291.844 177.52C288.524 177.52 286.164 180.08 286.164 184.4V184.72C286.164 189.28 288.404 191.68 291.964 191.68C294.524 191.68 296.724 190.16 297.004 187.2H301.444C301.084 192 297.444 195.4 291.764 195.4ZM314.411 195.4C308.251 195.4 303.811 191.36 303.811 184.76V184.44C303.811 177.96 308.251 173.64 314.211 173.64C319.411 173.64 324.091 176.72 324.091 184.2V185.6H308.771C308.931 189.56 310.931 191.8 314.531 191.8C317.451 191.8 318.971 190.64 319.331 188.6H324.011C323.331 193 319.771 195.4 314.411 195.4ZM308.851 182.36H319.291C319.051 178.76 317.211 177.16 314.211 177.16C311.291 177.16 309.331 179.12 308.851 182.36ZM341.586 195V171.68L335.546 175.8V171.12L342.186 166.4H346.946V195H341.586ZM364.784 191.16C369.184 191.16 371.304 187.8 371.304 181.32V179.92C371.304 173.84 368.984 170.16 364.704 170.16C360.384 170.16 358.024 173.6 358.024 179.96V181.4C358.024 187.88 360.504 191.16 364.784 191.16ZM364.664 195.4C357.384 195.4 352.664 190.04 352.664 181.44V180C352.664 171.32 357.464 166 364.664 166C371.904 166 376.624 171.28 376.624 179.88V181.32C376.624 189.92 372.144 195.4 364.664 195.4ZM385.591 195V171.68L379.551 175.8V171.12L386.191 166.4H390.951V195H385.591Z" fill="white"/>
<path d="M214.577 88.005V78.41H216.04C219.232 78.41 220.562 80.177 220.562 83.103V83.255C220.562 86.257 219.099 88.005 216.059 88.005H214.577ZM212.05 90H216.135C220.904 90 223.203 87.188 223.203 83.236V83.065C223.203 79.113 220.904 76.415 216.173 76.415H212.05V90ZM223.808 90H226.183L227.247 86.637H232.434L233.517 90H236.139L231.655 76.415H228.349L223.808 90ZM229.85 78.486L231.845 84.794H227.836L229.85 78.486ZM243.399 90.19C246.629 90.19 248.947 88.537 249.346 85.269H246.876C246.61 87.188 245.28 88.138 243.399 88.138C240.891 88.138 239.428 86.333 239.428 83.274V83.122C239.428 80.082 240.986 78.22 243.38 78.22C245.337 78.22 246.344 79.151 246.629 80.956H249.194C248.89 77.764 246.477 76.206 243.361 76.206C239.58 76.206 236.768 79.056 236.768 83.141V83.293C236.768 87.473 239.143 90.19 243.399 90.19ZM250.211 90H252.586L253.65 86.637H258.837L259.92 90H262.542L258.058 76.415H254.752L250.211 90ZM256.253 78.486L258.248 84.794H254.239L256.253 78.486ZM267.143 88.005V78.41H268.606C271.798 78.41 273.128 80.177 273.128 83.103V83.255C273.128 86.257 271.665 88.005 268.625 88.005H267.143ZM264.616 90H268.701C273.47 90 275.769 87.188 275.769 83.236V83.065C275.769 79.113 273.47 76.415 268.739 76.415H264.616V90ZM278.179 90H286.995V88.005H280.706V84.034H285.494V82.134H280.706V78.41H286.672V76.415H278.179V90Z" fill="#D4D4D8"/>
<line opacity="0.2" x1="154.492" y1="105" x2="344.492" y2="105" stroke="#D4D4D8" stroke-width="2"/>
<path d="M284.132 363.163C284.132 344.295 268.836 328.999 249.968 328.999C231.1 328.999 215.804 344.295 215.804 363.163C215.804 382.032 231.1 397.327 249.968 397.327C268.836 397.327 284.132 382.032 284.132 363.163Z" fill="white"/>
<path d="M306.249 306.518L289.181 322.013L306.249 306.518ZM257.747 281.76L260.284 258.848L257.747 281.76ZM152.014 335.02C149.058 347.404 156.7 359.839 169.083 362.794C181.466 365.75 193.901 358.108 196.857 345.725L152.014 335.02ZM349.266 356.864C348.931 332.488 339.703 309.074 323.317 291.024L289.181 322.013C298.012 331.741 302.986 344.36 303.166 357.498L349.266 356.864ZM323.317 291.024C306.93 272.974 284.515 261.532 260.284 258.848L255.21 304.672C268.269 306.118 280.35 312.285 289.181 322.013L323.317 291.024ZM260.284 258.848C236.054 256.165 211.678 262.426 191.74 276.453L218.268 314.16C229.014 306.6 242.151 303.226 255.21 304.672L260.284 258.848ZM191.74 276.453C171.801 290.48 157.674 311.308 152.014 335.02L196.857 345.725C199.908 332.945 207.522 321.72 218.268 314.16L191.74 276.453Z" fill="#34E256"/>
<path d="M192.471 416.48L175.403 431.974L175.403 431.974L192.471 416.48ZM240.973 441.238L238.435 464.15L240.973 441.238ZM293.716 427.692L280.452 408.838L280.452 408.838L293.716 427.692ZM346.706 387.978C349.662 375.594 342.02 363.16 329.637 360.204C317.253 357.248 304.818 364.89 301.862 377.273L346.706 387.978ZM149.454 366.134C149.789 390.51 159.017 413.924 175.403 431.974L209.539 400.985C200.707 391.257 195.734 378.638 195.553 365.5L149.454 366.134ZM175.403 431.974C191.789 450.024 214.205 461.466 238.435 464.15L243.51 418.326C230.451 416.88 218.37 410.713 209.539 400.985L175.403 431.974ZM238.435 464.15C262.666 466.833 287.042 460.572 306.98 446.545L280.452 408.838C269.706 416.398 256.569 419.772 243.51 418.326L238.435 464.15ZM306.98 446.545C326.918 432.518 341.046 411.69 346.706 387.978L301.862 377.273C298.812 390.053 291.198 401.278 280.452 408.838L306.98 446.545Z" fill="#34E256"/>
<defs>
<linearGradient id="paint0_linear_16950_19327" x1="249.149" y1="0" x2="249.149" y2="652" gradientUnits="userSpaceOnUse">
<stop offset="0.000572331" stop-color="#01464C"/>
<stop offset="0.462127" stop-color="#34E256"/>
<stop offset="0.961881" stop-color="#01464C"/>
</linearGradient>
<linearGradient id="paint1_linear_16950_19327" x1="498.745" y1="6.42815" x2="-22.3987" y2="5.42605" gradientUnits="userSpaceOnUse">
<stop offset="0.015768" stop-color="#34E256"/>
<stop offset="0.480532" stop-color="#01464C"/>
<stop offset="0.950573" stop-color="#34E256"/>
</linearGradient>
<linearGradient id="paint2_linear_16950_19327" x1="20.7109" y1="611.065" x2="8.06237" y2="22.9972" gradientUnits="userSpaceOnUse">
<stop offset="0.0396479" stop-color="#34E256"/>
<stop offset="0.451723" stop-color="#01464C"/>
<stop offset="0.998103" stop-color="#34E256"/>
</linearGradient>
<linearGradient id="paint3_linear_16950_19327" x1="250.04" y1="-73.1322" x2="250.04" y2="556.567" gradientUnits="userSpaceOnUse">
<stop offset="0.074236" stop-color="#34E256"/>
<stop offset="0.218297" stop-color="#486D36"/>
<stop offset="0.549386" stop-color="#34E256"/>
<stop offset="1" stop-color="#01464C"/>
</linearGradient>
<linearGradient id="paint4_linear_16950_19327" x1="478.242" y1="30.4364" x2="0.613862" y2="29.4583" gradientUnits="userSpaceOnUse">
<stop offset="0.00582305" stop-color="#01464C"/>
<stop offset="0.471312" stop-color="#34E256"/>
<stop offset="0.924755" stop-color="#01464C"/>
</linearGradient>
</defs>
</svg>
