<svg width="499" height="601" viewBox="0 0 499 601" fill="none" xmlns="http://www.w3.org/2000/svg">
<path d="M498.756 0H0.558594V372.645C0.557576 505.642 119.852 600.677 249.03 600.999C378.576 601.323 498.756 504.388 498.756 372.645V0Z" fill="url(#paint0_linear_14158_15680)"/>
<path d="M498.755 0H0.507812L21.9272 23.7126L479.482 23.462L498.755 0Z" fill="url(#paint1_linear_14158_15680)"/>
<path d="M22.2188 23.9043H478.877V366.13C478.877 486.804 368.806 575.753 249.973 575.456C131.472 575.16 22.2178 487.958 22.2188 366.13V23.9043Z" fill="url(#paint2_linear_14158_15680)" stroke="url(#paint3_linear_14158_15680)" stroke-width="2"/>
<path d="M459.011 46.1816H41.6602V362.713C41.6593 474.612 141.595 554.57 249.81 554.841C358.333 555.113 459.011 473.556 459.011 362.713V46.1816Z" fill="black"/>
<path d="M477.875 24.9043H23.2186L41.6469 46.302L458.999 46.2478L477.875 24.9043Z" fill="url(#paint4_linear_14158_15680)"/>
<path d="M164.317 151H169.317L171.557 143.92H182.477L184.757 151H190.277L180.837 122.4H173.877L164.317 151ZM177.037 126.76L181.237 140.04H172.797L177.037 126.76ZM193.962 151H198.802V120.4H193.962V151ZM213.221 158.68C219.701 158.68 223.821 155.6 223.861 149.44V130.08H219.021V133.28C217.821 131.2 215.741 129.64 212.301 129.64C206.901 129.64 202.901 134.04 202.901 139.92V140.2C202.901 146.24 206.941 150.16 212.181 150.16C215.261 150.16 217.861 148.28 219.021 146.28V149.36C219.021 153.12 216.941 155 213.181 155C210.021 155 208.421 153.8 208.021 151.72H203.141C203.701 155.72 206.661 158.68 213.221 158.68ZM213.381 146.44C210.261 146.44 207.861 144.04 207.861 140.16V139.84C207.861 136.04 209.941 133.44 213.541 133.44C217.021 133.44 219.181 135.8 219.181 139.76V140.04C219.181 144.04 216.741 146.44 213.381 146.44ZM238.574 147.64C234.894 147.64 232.774 144.96 232.774 140.68V140.36C232.774 136.04 234.974 133.44 238.574 133.44C242.174 133.44 244.334 136.08 244.334 140.4V140.68C244.334 144.96 242.174 147.64 238.574 147.64ZM238.534 151.4C244.694 151.4 249.294 147.16 249.294 140.64V140.32C249.294 133.92 244.694 129.64 238.574 129.64C232.414 129.64 227.814 133.96 227.814 140.44V140.76C227.814 147.12 232.374 151.4 238.534 151.4ZM253.267 151H258.107V140.12C258.107 135.68 260.667 134.32 264.907 134.28V129.76C261.387 129.8 259.427 131.36 258.107 134V130.08H253.267V151ZM273.855 151.4C277.055 151.4 278.895 150.24 280.255 148.44V151H285.015V137.28C285.015 131.56 281.335 129.64 276.655 129.64C271.975 129.64 268.095 131.68 267.695 136.56H272.375C272.615 134.48 273.855 133.28 276.375 133.28C279.215 133.28 280.175 134.68 280.175 137.48V138.56H277.575C271.575 138.56 266.855 140.32 266.855 145.2C266.855 149.56 270.015 151.4 273.855 151.4ZM275.015 147.92C272.615 147.92 271.655 146.76 271.655 145C271.655 142.44 274.015 141.6 277.695 141.6H280.175V143.68C280.175 146.36 277.975 147.92 275.015 147.92ZM290.162 151H295.002V138.68C295.002 135.36 297.202 133.68 299.922 133.68C302.802 133.68 304.082 135.12 304.082 138.28V151H308.922V137.84C308.922 132.08 305.962 129.64 301.762 129.64C298.322 129.64 296.002 131.36 295.002 133.4V130.08H290.162V151ZM321.938 151.4C325.018 151.4 327.698 149.56 328.818 147.48V151H333.658V120.4H328.818V133.28C327.658 131.2 325.538 129.64 322.138 129.64C316.698 129.64 312.738 133.88 312.738 140.56V140.88C312.738 147.68 316.698 151.4 321.938 151.4ZM323.138 147.56C320.018 147.56 317.698 145.36 317.698 140.76V140.44C317.698 135.92 319.778 133.44 323.338 133.44C326.858 133.44 328.978 135.72 328.978 140.32V140.64C328.978 145.32 326.498 147.56 323.138 147.56ZM97.8854 190.8V170.6H100.965C107.685 170.6 110.485 174.32 110.485 180.48V180.8C110.485 187.12 107.405 190.8 101.005 190.8H97.8854ZM92.5654 195H101.165C111.205 195 116.045 189.08 116.045 180.76V180.4C116.045 172.08 111.205 166.4 101.245 166.4H92.5654V195ZM129.52 195.4C134.88 195.4 138.44 193 139.12 188.6H134.44C134.08 190.64 132.56 191.8 129.64 191.8C126.04 191.8 124.04 189.56 123.88 185.6H139.2V184.2C139.2 176.72 134.52 173.64 129.32 173.64C123.36 173.64 118.92 177.96 118.92 184.44V184.76C118.92 191.36 123.36 195.4 129.52 195.4ZM123.96 182.36C124.44 179.12 126.4 177.16 129.32 177.16C132.32 177.16 134.16 178.76 134.4 182.36H123.96ZM148.213 195H153.853L161.413 174.08H156.653L151.253 190.04L145.773 174.08H140.573L148.213 195ZM173.017 195.4C178.377 195.4 181.937 193 182.617 188.6H177.937C177.577 190.64 176.057 191.8 173.137 191.8C169.537 191.8 167.537 189.56 167.377 185.6H182.697V184.2C182.697 176.72 178.017 173.64 172.817 173.64C166.857 173.64 162.417 177.96 162.417 184.44V184.76C162.417 191.36 166.857 195.4 173.017 195.4ZM167.457 182.36C167.937 179.12 169.897 177.16 172.817 177.16C175.817 177.16 177.657 178.76 177.897 182.36H167.457ZM186.74 195H191.58V164.4H186.74V195ZM206.439 191.64C202.759 191.64 200.639 188.96 200.639 184.68V184.36C200.639 180.04 202.839 177.44 206.439 177.44C210.039 177.44 212.199 180.08 212.199 184.4V184.68C212.199 188.96 210.039 191.64 206.439 191.64ZM206.399 195.4C212.559 195.4 217.159 191.16 217.159 184.64V184.32C217.159 177.92 212.559 173.64 206.439 173.64C200.279 173.64 195.679 177.96 195.679 184.44V184.76C195.679 191.12 200.239 195.4 206.399 195.4ZM221.133 202.16H225.973V191.72C227.093 193.76 229.493 195.4 232.813 195.4C238.213 195.4 242.093 191.32 242.093 184.6V184.28C242.093 177.52 238.053 173.64 232.813 173.64C229.733 173.64 227.133 175.44 225.973 177.44V174.08H221.133V202.16ZM231.613 191.56C228.093 191.56 225.813 189.36 225.813 184.68V184.36C225.813 179.72 228.213 177.44 231.573 177.44C234.733 177.44 237.133 179.72 237.133 184.36V184.68C237.133 189.16 235.173 191.56 231.613 191.56ZM246.045 195H250.885V182.48C250.885 179.28 253.085 177.68 255.485 177.68C257.845 177.68 259.205 179 259.205 182.08V195H264.045V182.48C264.045 179.28 266.245 177.68 268.645 177.68C271.045 177.68 272.365 179 272.365 182.08V195H277.205V181.76C277.205 176 274.085 173.64 270.245 173.64C267.645 173.64 264.765 174.8 263.165 177.4C262.125 174.8 259.965 173.64 257.245 173.64C254.165 173.64 251.885 175.32 250.885 177.28V174.08H246.045V195ZM291.564 195.4C296.924 195.4 300.484 193 301.164 188.6H296.484C296.124 190.64 294.604 191.8 291.684 191.8C288.084 191.8 286.084 189.56 285.924 185.6H301.244V184.2C301.244 176.72 296.564 173.64 291.364 173.64C285.404 173.64 280.964 177.96 280.964 184.44V184.76C280.964 191.36 285.404 195.4 291.564 195.4ZM286.004 182.36C286.484 179.12 288.444 177.16 291.364 177.16C294.364 177.16 296.204 178.76 296.444 182.36H286.004ZM305.167 195H310.007V182.68C310.007 179.36 312.207 177.68 314.927 177.68C317.807 177.68 319.087 179.12 319.087 182.28V195H323.927V181.84C323.927 176.08 320.967 173.64 316.767 173.64C313.327 173.64 311.007 175.36 310.007 177.4V174.08H305.167V195ZM336.223 195.36C337.703 195.36 338.743 195.12 339.503 194.84V191C338.823 191.28 338.103 191.4 337.143 191.4C335.623 191.4 334.743 190.56 334.743 188.72V177.72H339.343V174.08H334.743V169.48H329.903V174.08H327.103V177.72H329.903V189.16C329.903 193.12 332.063 195.36 336.223 195.36ZM357.04 195H362.4V166.4H357.64L351 171.12V175.8L357.04 171.68V195ZM380.238 191.16C375.958 191.16 373.478 187.88 373.478 181.4V179.96C373.478 173.6 375.838 170.16 380.158 170.16C384.438 170.16 386.758 173.84 386.758 179.92V181.32C386.758 187.8 384.638 191.16 380.238 191.16ZM380.118 195.4C387.598 195.4 392.078 189.92 392.078 181.32V179.88C392.078 171.28 387.358 166 380.118 166C372.918 166 368.118 171.32 368.118 180V181.44C368.118 190.04 372.838 195.4 380.118 195.4ZM401.044 195H406.404V166.4H401.644L395.004 171.12V175.8L401.044 171.68V195Z" fill="white"/>
<path d="M215.085 88.005V78.41H216.548C219.74 78.41 221.07 80.177 221.07 83.103V83.255C221.07 86.257 219.607 88.005 216.567 88.005H215.085ZM212.558 90H216.643C221.412 90 223.711 87.188 223.711 83.236V83.065C223.711 79.113 221.412 76.415 216.681 76.415H212.558V90ZM224.316 90H226.691L227.755 86.637H232.942L234.025 90H236.647L232.163 76.415H228.857L224.316 90ZM230.358 78.486L232.353 84.794H228.344L230.358 78.486ZM243.906 90.19C247.136 90.19 249.454 88.537 249.853 85.269H247.383C247.117 87.188 245.787 88.138 243.906 88.138C241.398 88.138 239.935 86.333 239.935 83.274V83.122C239.935 80.082 241.493 78.22 243.887 78.22C245.844 78.22 246.851 79.151 247.136 80.956H249.701C249.397 77.764 246.984 76.206 243.868 76.206C240.087 76.206 237.275 79.056 237.275 83.141V83.293C237.275 87.473 239.65 90.19 243.906 90.19ZM250.719 90H253.094L254.158 86.637H259.345L260.428 90H263.05L258.566 76.415H255.26L250.719 90ZM256.761 78.486L258.756 84.794H254.747L256.761 78.486ZM267.65 88.005V78.41H269.113C272.305 78.41 273.635 80.177 273.635 83.103V83.255C273.635 86.257 272.172 88.005 269.132 88.005H267.65ZM265.123 90H269.208C273.977 90 276.276 87.188 276.276 83.236V83.065C276.276 79.113 273.977 76.415 269.246 76.415H265.123V90ZM278.687 90H287.503V88.005H281.214V84.034H286.002V82.134H281.214V78.41H287.18V76.415H278.687V90Z" fill="#D4D4D8"/>
<line opacity="0.2" x1="155" y1="105" x2="345" y2="105" stroke="#D4D4D8" stroke-width="2"/>
<path d="M250.459 255C242.311 255 235.122 259.115 230.808 265.336L143.575 424.397C141.658 427.842 140.508 431.766 140.508 435.977C140.508 449.184 151.244 459.808 164.377 459.808C173.004 459.808 180.482 455.214 184.699 448.419C185.083 447.749 185.562 446.983 185.85 446.218L270.59 291.368C272.891 287.731 274.233 283.329 274.233 278.735C274.329 265.719 263.592 255 250.459 255Z" fill="#A6FA7C"/>
<path d="M347.758 415.018C347.758 415.018 305.291 390.23 250.459 390.23C195.627 390.23 153.161 415.018 153.161 415.018C145.684 418.942 140.508 426.885 140.508 436.073C140.508 449.28 151.244 459.903 164.377 459.903C168.02 459.903 171.471 459.042 174.634 457.606C174.634 457.606 210.39 438.753 250.459 438.753C290.529 438.753 324.943 456.936 324.943 456.936C328.394 458.851 332.324 459.999 336.542 459.999C349.771 459.999 360.411 449.28 360.411 436.169C360.507 426.885 355.331 418.942 347.758 415.018Z" fill="white"/>
<path d="M357.536 424.589C355.331 420.57 351.88 417.22 347.758 415.019C347.758 415.019 322.643 400.376 286.216 393.581L315.166 446.41C315.549 447.176 315.933 447.846 316.316 448.611C320.534 455.406 328.011 460 336.639 460C349.867 460 360.508 449.281 360.508 436.17C360.508 431.863 359.453 427.939 357.536 424.589Z" fill="white"/>
<defs>
<linearGradient id="paint0_linear_14158_15680" x1="249.657" y1="0" x2="249.657" y2="652" gradientUnits="userSpaceOnUse">
<stop offset="0.000572331"/>
<stop offset="0.462127" stop-color="#B0F77E"/>
<stop offset="0.961881"/>
</linearGradient>
<linearGradient id="paint1_linear_14158_15680" x1="499.253" y1="6.42815" x2="-21.8909" y2="5.42605" gradientUnits="userSpaceOnUse">
<stop offset="0.015768" stop-color="#A6FA7C"/>
<stop offset="0.480532"/>
<stop offset="0.950573" stop-color="#A6FA7C"/>
</linearGradient>
<linearGradient id="paint2_linear_14158_15680" x1="21.2188" y1="611.065" x2="8.57018" y2="22.9972" gradientUnits="userSpaceOnUse">
<stop offset="0.0396479" stop-color="#A6FA7C"/>
<stop offset="0.451723"/>
<stop offset="0.998103" stop-color="#A6FA7C"/>
</linearGradient>
<linearGradient id="paint3_linear_14158_15680" x1="250.548" y1="-73.1322" x2="250.548" y2="556.567" gradientUnits="userSpaceOnUse">
<stop offset="0.074236" stop-color="#A6FA7C"/>
<stop offset="0.218297" stop-color="#486D36"/>
<stop offset="0.549386" stop-color="#A6FA7C"/>
<stop offset="1"/>
</linearGradient>
<linearGradient id="paint4_linear_14158_15680" x1="478.75" y1="30.4364" x2="1.12155" y2="29.4583" gradientUnits="userSpaceOnUse">
<stop offset="0.00582305"/>
<stop offset="0.471312" stop-color="#A6FA7C"/>
<stop offset="0.924755"/>
</linearGradient>
</defs>
</svg>
