<svg width="499" height="601" viewBox="0 0 499 601" fill="none" xmlns="http://www.w3.org/2000/svg">
<path d="M498.989 0H0.791504V372.645C0.790486 505.642 120.085 600.677 249.263 600.999C378.809 601.323 498.989 504.388 498.989 372.645V0Z" fill="url(#paint0_linear_41_17110)"/>
<path d="M498.989 0H0.741699L22.1611 23.7126L479.716 23.462L498.989 0Z" fill="url(#paint1_linear_41_17110)"/>
<path d="M22.4536 366.13V23.9043H479.112V366.13C479.112 486.804 369.041 575.753 250.207 575.456C131.707 575.16 22.4527 487.958 22.4536 366.13Z" fill="url(#paint2_linear_41_17110)" stroke="url(#paint3_linear_41_17110)" stroke-width="2"/>
<path d="M459.244 46.1816H41.8931V362.713C41.8922 474.612 141.828 554.57 250.043 554.841C358.566 555.113 459.244 473.556 459.244 362.713V46.1816Z" fill="#FCFF52"/>
<path d="M478.109 24.9043H23.4526L41.8809 46.302L459.233 46.2478L478.109 24.9043Z" fill="url(#paint4_linear_41_17110)"/>
<path d="M222.09 151.732C228.89 151.732 233.77 148.252 234.61 141.372H229.41C228.85 145.412 226.05 147.412 222.09 147.412C216.81 147.412 213.73 143.612 213.73 137.172V136.852C213.73 130.452 217.01 126.532 222.05 126.532C226.17 126.532 228.29 128.492 228.89 132.292H234.29C233.65 125.572 228.57 122.292 222.01 122.292C214.05 122.292 208.13 128.292 208.13 136.892V137.212C208.13 146.012 213.13 151.732 222.09 151.732ZM247.618 151.732C252.978 151.732 256.538 149.332 257.218 144.932H252.538C252.178 146.972 250.658 148.132 247.738 148.132C244.138 148.132 242.138 145.892 241.978 141.932H257.298V140.532C257.298 133.052 252.618 129.972 247.418 129.972C241.458 129.972 237.018 134.292 237.018 140.772V141.092C237.018 147.692 241.458 151.732 247.618 151.732ZM242.058 138.692C242.538 135.452 244.498 133.492 247.418 133.492C250.418 133.492 252.258 135.092 252.498 138.692H242.058ZM261.342 151.332H266.182V120.732H261.342V151.332ZM281.041 147.972C277.361 147.972 275.241 145.292 275.241 141.012V140.692C275.241 136.372 277.441 133.772 281.041 133.772C284.641 133.772 286.801 136.412 286.801 140.732V141.012C286.801 145.292 284.641 147.972 281.041 147.972ZM281.001 151.732C287.161 151.732 291.761 147.492 291.761 140.972V140.652C291.761 134.252 287.161 129.972 281.041 129.972C274.881 129.972 270.281 134.292 270.281 140.772V141.092C270.281 147.452 274.841 151.732 281.001 151.732ZM97.7735 191.132V170.932H100.854C107.574 170.932 110.374 174.652 110.374 180.812V181.132C110.374 187.452 107.294 191.132 100.894 191.132H97.7735ZM92.4535 195.332H101.054C111.094 195.332 115.934 189.412 115.934 181.092V180.732C115.934 172.412 111.094 166.732 101.134 166.732H92.4535V195.332ZM129.408 195.732C134.768 195.732 138.328 193.332 139.008 188.932H134.328C133.968 190.972 132.448 192.132 129.528 192.132C125.928 192.132 123.928 189.892 123.768 185.932H139.088V184.532C139.088 177.052 134.408 173.972 129.208 173.972C123.248 173.972 118.808 178.292 118.808 184.772V185.092C118.808 191.692 123.248 195.732 129.408 195.732ZM123.848 182.692C124.328 179.452 126.288 177.492 129.208 177.492C132.208 177.492 134.048 179.092 134.288 182.692H123.848ZM148.101 195.332H153.741L161.301 174.412H156.541L151.141 190.372L145.661 174.412H140.461L148.101 195.332ZM172.905 195.732C178.265 195.732 181.825 193.332 182.505 188.932H177.825C177.465 190.972 175.945 192.132 173.025 192.132C169.425 192.132 167.425 189.892 167.265 185.932H182.585V184.532C182.585 177.052 177.905 173.972 172.705 173.972C166.745 173.972 162.305 178.292 162.305 184.772V185.092C162.305 191.692 166.745 195.732 172.905 195.732ZM167.345 182.692C167.825 179.452 169.785 177.492 172.705 177.492C175.705 177.492 177.545 179.092 177.785 182.692H167.345ZM186.628 195.332H191.468V164.732H186.628V195.332ZM206.328 191.972C202.648 191.972 200.528 189.292 200.528 185.012V184.692C200.528 180.372 202.728 177.772 206.328 177.772C209.928 177.772 212.088 180.412 212.088 184.732V185.012C212.088 189.292 209.928 191.972 206.328 191.972ZM206.288 195.732C212.448 195.732 217.048 191.492 217.048 184.972V184.652C217.048 178.252 212.448 173.972 206.328 173.972C200.168 173.972 195.568 178.292 195.568 184.772V185.092C195.568 191.452 200.128 195.732 206.288 195.732ZM221.021 202.492H225.861V192.052C226.981 194.092 229.381 195.732 232.701 195.732C238.101 195.732 241.981 191.652 241.981 184.932V184.612C241.981 177.852 237.941 173.972 232.701 173.972C229.621 173.972 227.021 175.772 225.861 177.772V174.412H221.021V202.492ZM231.501 191.892C227.981 191.892 225.701 189.692 225.701 185.012V184.692C225.701 180.052 228.101 177.772 231.461 177.772C234.621 177.772 237.021 180.052 237.021 184.692V185.012C237.021 189.492 235.061 191.892 231.501 191.892ZM245.933 195.332H250.773V182.812C250.773 179.612 252.973 178.012 255.373 178.012C257.733 178.012 259.093 179.332 259.093 182.412V195.332H263.933V182.812C263.933 179.612 266.133 178.012 268.533 178.012C270.933 178.012 272.253 179.332 272.253 182.412V195.332H277.093V182.092C277.093 176.332 273.973 173.972 270.133 173.972C267.533 173.972 264.653 175.132 263.053 177.732C262.013 175.132 259.853 173.972 257.133 173.972C254.053 173.972 251.773 175.652 250.773 177.612V174.412H245.933V195.332ZM291.452 195.732C296.812 195.732 300.372 193.332 301.052 188.932H296.372C296.012 190.972 294.492 192.132 291.572 192.132C287.972 192.132 285.972 189.892 285.812 185.932H301.132V184.532C301.132 177.052 296.452 173.972 291.252 173.972C285.292 173.972 280.852 178.292 280.852 184.772V185.092C280.852 191.692 285.292 195.732 291.452 195.732ZM285.892 182.692C286.372 179.452 288.332 177.492 291.252 177.492C294.252 177.492 296.092 179.092 296.332 182.692H285.892ZM305.055 195.332H309.895V183.012C309.895 179.692 312.095 178.012 314.815 178.012C317.695 178.012 318.975 179.452 318.975 182.612V195.332H323.815V182.172C323.815 176.412 320.855 173.972 316.655 173.972C313.215 173.972 310.895 175.692 309.895 177.732V174.412H305.055V195.332ZM336.111 195.692C337.591 195.692 338.631 195.452 339.391 195.172V191.332C338.711 191.612 337.991 191.732 337.031 191.732C335.511 191.732 334.631 190.892 334.631 189.052V178.052H339.231V174.412H334.631V169.812H329.791V174.412H326.991V178.052H329.791V189.492C329.791 193.452 331.951 195.692 336.111 195.692ZM356.928 195.332H362.288V166.732H357.528L350.888 171.452V176.132L356.928 172.012V195.332ZM380.126 191.492C375.846 191.492 373.366 188.212 373.366 181.732V180.292C373.366 173.932 375.726 170.492 380.046 170.492C384.326 170.492 386.646 174.172 386.646 180.252V181.652C386.646 188.132 384.526 191.492 380.126 191.492ZM380.006 195.732C387.486 195.732 391.966 190.252 391.966 181.652V180.212C391.966 171.612 387.246 166.332 380.006 166.332C372.806 166.332 368.006 171.652 368.006 180.332V181.772C368.006 190.372 372.726 195.732 380.006 195.732ZM400.933 195.332H406.293V166.732H401.533L394.893 171.452V176.132L400.933 172.012V195.332Z" fill="black"/>
<path d="M214.973 88.337V78.742H216.436C219.628 78.742 220.958 80.509 220.958 83.435V83.587C220.958 86.589 219.495 88.337 216.455 88.337H214.973ZM212.446 90.332H216.531C221.3 90.332 223.599 87.52 223.599 83.568V83.397C223.599 79.445 221.3 76.747 216.569 76.747H212.446V90.332ZM224.204 90.332H226.579L227.643 86.969H232.83L233.913 90.332H236.535L232.051 76.747H228.745L224.204 90.332ZM230.246 78.818L232.241 85.126H228.232L230.246 78.818ZM243.795 90.522C247.025 90.522 249.343 88.869 249.742 85.601H247.272C247.006 87.52 245.676 88.47 243.795 88.47C241.287 88.47 239.824 86.665 239.824 83.606V83.454C239.824 80.414 241.382 78.552 243.776 78.552C245.733 78.552 246.74 79.483 247.025 81.288H249.59C249.286 78.096 246.873 76.538 243.757 76.538C239.976 76.538 237.164 79.388 237.164 83.473V83.625C237.164 87.805 239.539 90.522 243.795 90.522ZM250.607 90.332H252.982L254.046 86.969H259.233L260.316 90.332H262.938L258.454 76.747H255.148L250.607 90.332ZM256.649 78.818L258.644 85.126H254.635L256.649 78.818ZM267.539 88.337V78.742H269.002C272.194 78.742 273.524 80.509 273.524 83.435V83.587C273.524 86.589 272.061 88.337 269.021 88.337H267.539ZM265.012 90.332H269.097C273.866 90.332 276.165 87.52 276.165 83.568V83.397C276.165 79.445 273.866 76.747 269.135 76.747H265.012V90.332ZM278.575 90.332H287.391V88.337H281.102V84.366H285.89V82.466H281.102V78.742H287.068V76.747H278.575V90.332Z" fill="#3F3F46"/>
<line opacity="0.1" x1="154.888" y1="104.916" x2="344.888" y2="104.916" stroke="#52531B" stroke-width="2"/>
<path d="M361.067 247.916H142.067V466.916H361.067V390.507H324.767C312.233 418.383 284.056 437.836 251.767 437.836C207.245 437.836 171.247 401.537 171.247 357.316C171.247 313.095 207.245 277.096 251.767 277.096C284.658 277.096 312.835 297.151 325.369 325.629H361.067V247.916Z" fill="black"/>
<defs>
<linearGradient id="paint0_linear_41_17110" x1="249.891" y1="37.8876" x2="249.891" y2="632.959" gradientUnits="userSpaceOnUse">
<stop offset="0.000572331"/>
<stop offset="0.463203" stop-color="#FCFF52"/>
<stop offset="0.961881"/>
</linearGradient>
<linearGradient id="paint1_linear_41_17110" x1="499.486" y1="6.42815" x2="-21.657" y2="5.42605" gradientUnits="userSpaceOnUse">
<stop offset="0.015768" stop-color="#FCFF52"/>
<stop offset="0.480532"/>
<stop offset="0.950573" stop-color="#FCFF52"/>
</linearGradient>
<linearGradient id="paint2_linear_41_17110" x1="21.4536" y1="611.065" x2="8.80504" y2="22.9972" gradientUnits="userSpaceOnUse">
<stop offset="0.0396479" stop-color="#FCFF52"/>
<stop offset="0.451723"/>
<stop offset="0.998103" stop-color="#FDFF67"/>
</linearGradient>
<linearGradient id="paint3_linear_41_17110" x1="250.783" y1="-73.1322" x2="250.783" y2="556.567" gradientUnits="userSpaceOnUse">
<stop offset="0.074236"/>
<stop offset="0.218297" stop-color="#FCFF52"/>
<stop offset="0.549386"/>
<stop offset="1" stop-color="#FCFF52"/>
</linearGradient>
<linearGradient id="paint4_linear_41_17110" x1="478.984" y1="30.4364" x2="1.35556" y2="29.4583" gradientUnits="userSpaceOnUse">
<stop offset="0.00582305"/>
<stop offset="0.471312" stop-color="#FCFF52"/>
<stop offset="0.924755"/>
</linearGradient>
</defs>
</svg>
