<svg width="500" height="601" viewBox="0 0 500 601" fill="none" xmlns="http://www.w3.org/2000/svg">
<path d="M499.052 0H0.854492V372.645C0.853474 505.642 120.148 600.677 249.326 600.999C378.872 601.323 499.052 504.388 499.052 372.645V0Z" fill="url(#paint0_linear_14158_15816)"/>
<path d="M499.052 0H0.804688L22.224 23.7126L479.779 23.462L499.052 0Z" fill="url(#paint1_linear_14158_15816)"/>
<path d="M22.5166 23.9043H479.174V366.13C479.174 486.804 369.104 575.753 250.27 575.456C131.77 575.16 22.5157 487.958 22.5166 366.13V23.9043Z" fill="url(#paint2_linear_14158_15816)" stroke="url(#paint3_linear_14158_15816)" stroke-width="2"/>
<path d="M459.307 46.1816H41.9561V362.713C41.9552 474.612 141.891 554.57 250.106 554.841C358.629 555.113 459.307 473.556 459.307 362.713V46.1816Z" fill="#FCFF52"/>
<path d="M478.172 24.9043H23.5155L41.9438 46.302L459.296 46.2478L478.172 24.9043Z" fill="url(#paint4_linear_14158_15816)"/>
<path d="M222.221 151.732C229.021 151.732 233.901 148.252 234.741 141.372H229.541C228.981 145.412 226.181 147.412 222.221 147.412C216.941 147.412 213.861 143.612 213.861 137.172V136.852C213.861 130.452 217.141 126.532 222.181 126.532C226.301 126.532 228.421 128.492 229.021 132.292H234.421C233.781 125.572 228.701 122.292 222.141 122.292C214.181 122.292 208.261 128.292 208.261 136.892V137.212C208.261 146.012 213.261 151.732 222.221 151.732ZM247.75 151.732C253.11 151.732 256.67 149.332 257.35 144.932H252.67C252.31 146.972 250.79 148.132 247.87 148.132C244.27 148.132 242.27 145.892 242.11 141.932H257.43V140.532C257.43 133.052 252.75 129.972 247.55 129.972C241.59 129.972 237.15 134.292 237.15 140.772V141.092C237.15 147.692 241.59 151.732 247.75 151.732ZM242.19 138.692C242.67 135.452 244.63 133.492 247.55 133.492C250.55 133.492 252.39 135.092 252.63 138.692H242.19ZM261.473 151.332H266.313V120.732H261.473V151.332ZM281.172 147.972C277.492 147.972 275.372 145.292 275.372 141.012V140.692C275.372 136.372 277.572 133.772 281.172 133.772C284.772 133.772 286.932 136.412 286.932 140.732V141.012C286.932 145.292 284.772 147.972 281.172 147.972ZM281.132 151.732C287.292 151.732 291.892 147.492 291.892 140.972V140.652C291.892 134.252 287.292 129.972 281.172 129.972C275.012 129.972 270.412 134.292 270.412 140.772V141.092C270.412 147.452 274.972 151.732 281.132 151.732ZM115.529 195.332H126.529C132.809 195.332 136.329 192.652 136.329 187.332V187.172C136.329 183.372 134.489 181.252 130.609 180.412C133.849 179.412 135.129 177.172 135.129 174.332V174.172C135.129 168.972 131.649 166.732 125.769 166.732H115.529V195.332ZM120.729 191.532V182.372H125.529C129.449 182.372 131.089 183.852 131.089 186.812V186.972C131.089 189.932 129.449 191.532 125.889 191.532H120.729ZM120.729 178.772V170.532H125.049C128.449 170.532 130.009 171.692 130.009 174.412V174.572C130.009 177.492 128.649 178.772 125.129 178.772H120.729ZM140.631 195.332H145.471V164.732H140.631V195.332ZM160.33 191.972C156.65 191.972 154.53 189.292 154.53 185.012V184.692C154.53 180.372 156.73 177.772 160.33 177.772C163.93 177.772 166.09 180.412 166.09 184.732V185.012C166.09 189.292 163.93 191.972 160.33 191.972ZM160.29 195.732C166.45 195.732 171.05 191.492 171.05 184.972V184.652C171.05 178.252 166.45 173.972 160.33 173.972C154.17 173.972 149.57 178.292 149.57 184.772V185.092C149.57 191.452 154.13 195.732 160.29 195.732ZM184.183 195.732C189.863 195.732 193.503 192.332 193.863 187.532H189.423C189.143 190.492 186.943 192.012 184.383 192.012C180.823 192.012 178.583 189.612 178.583 185.052V184.732C178.583 180.412 180.943 177.852 184.263 177.852C186.823 177.852 188.663 179.012 189.063 181.812H193.743C193.183 176.052 188.823 173.972 184.183 173.972C178.343 173.972 173.623 178.172 173.623 184.812V185.132C173.623 191.812 178.183 195.732 184.183 195.732ZM197.631 195.332H202.471V185.052L210.311 195.332H215.911L207.111 184.012L215.231 174.412H209.951L202.471 183.612V164.732H197.631V195.332ZM226.977 195.732C232.657 195.732 236.297 192.332 236.657 187.532H232.217C231.937 190.492 229.737 192.012 227.177 192.012C223.617 192.012 221.377 189.612 221.377 185.052V184.732C221.377 180.412 223.737 177.852 227.057 177.852C229.617 177.852 231.457 179.012 231.857 181.812H236.537C235.977 176.052 231.617 173.972 226.977 173.972C221.137 173.972 216.417 178.172 216.417 184.812V185.132C216.417 191.812 220.977 195.732 226.977 195.732ZM240.425 195.332H245.265V183.012C245.265 179.692 247.465 178.012 250.185 178.012C253.065 178.012 254.345 179.452 254.345 182.612V195.332H259.185V182.172C259.185 176.412 256.225 173.972 252.025 173.972C248.585 173.972 246.265 175.692 245.265 177.732V164.732H240.425V195.332ZM269.841 195.732C273.041 195.732 274.881 194.572 276.241 192.772V195.332H281.001V181.612C281.001 175.892 277.321 173.972 272.641 173.972C267.961 173.972 264.081 176.012 263.681 180.892H268.361C268.601 178.812 269.841 177.612 272.361 177.612C275.201 177.612 276.161 179.012 276.161 181.812V182.892H273.561C267.561 182.892 262.841 184.652 262.841 189.532C262.841 193.892 266.001 195.732 269.841 195.732ZM271.001 192.252C268.601 192.252 267.641 191.092 267.641 189.332C267.641 186.772 270.001 185.932 273.681 185.932H276.161V188.012C276.161 190.692 273.961 192.252 271.001 192.252ZM286.268 195.332H291.108V174.412H286.268V195.332ZM288.628 170.972C290.228 170.972 291.508 169.772 291.508 168.212C291.508 166.612 290.228 165.412 288.628 165.412C287.028 165.412 285.748 166.612 285.748 168.212C285.748 169.772 287.028 170.972 288.628 170.972ZM296.608 195.332H301.448V183.012C301.448 179.692 303.648 178.012 306.368 178.012C309.248 178.012 310.528 179.452 310.528 182.612V195.332H315.368V182.172C315.368 176.412 312.408 173.972 308.208 173.972C304.768 173.972 302.448 175.692 301.448 177.732V174.412H296.608V195.332ZM334.115 195.332H339.475V166.732H334.715L328.075 171.452V176.132L334.115 172.012V195.332ZM357.313 191.492C353.033 191.492 350.553 188.212 350.553 181.732V180.292C350.553 173.932 352.913 170.492 357.233 170.492C361.513 170.492 363.833 174.172 363.833 180.252V181.652C363.833 188.132 361.713 191.492 357.313 191.492ZM357.193 195.732C364.673 195.732 369.153 190.252 369.153 181.652V180.212C369.153 171.612 364.433 166.332 357.193 166.332C349.993 166.332 345.193 171.652 345.193 180.332V181.772C345.193 190.372 349.913 195.732 357.193 195.732ZM378.119 195.332H383.479V166.732H378.719L372.079 171.452V176.132L378.119 172.012V195.332Z" fill="black"/>
<path d="M214.988 88.337V78.742H216.451C219.643 78.742 220.973 80.509 220.973 83.435V83.587C220.973 86.589 219.51 88.337 216.47 88.337H214.988ZM212.461 90.332H216.546C221.315 90.332 223.614 87.52 223.614 83.568V83.397C223.614 79.445 221.315 76.747 216.584 76.747H212.461V90.332ZM224.219 90.332H226.594L227.658 86.969H232.845L233.928 90.332H236.55L232.066 76.747H228.76L224.219 90.332ZM230.261 78.818L232.256 85.126H228.247L230.261 78.818ZM243.81 90.522C247.04 90.522 249.358 88.869 249.757 85.601H247.287C247.021 87.52 245.691 88.47 243.81 88.47C241.302 88.47 239.839 86.665 239.839 83.606V83.454C239.839 80.414 241.397 78.552 243.791 78.552C245.748 78.552 246.755 79.483 247.04 81.288H249.605C249.301 78.096 246.888 76.538 243.772 76.538C239.991 76.538 237.179 79.388 237.179 83.473V83.625C237.179 87.805 239.554 90.522 243.81 90.522ZM250.622 90.332H252.997L254.061 86.969H259.248L260.331 90.332H262.953L258.469 76.747H255.163L250.622 90.332ZM256.664 78.818L258.659 85.126H254.65L256.664 78.818ZM267.554 88.337V78.742H269.017C272.209 78.742 273.539 80.509 273.539 83.435V83.587C273.539 86.589 272.076 88.337 269.036 88.337H267.554ZM265.027 90.332H269.112C273.881 90.332 276.18 87.52 276.18 83.568V83.397C276.18 79.445 273.881 76.747 269.15 76.747H265.027V90.332ZM278.59 90.332H287.406V88.337H281.117V84.366H285.905V82.466H281.117V78.742H287.083V76.747H278.59V90.332Z" fill="#3F3F46"/>
<line opacity="0.1" x1="154.903" y1="104.916" x2="344.903" y2="104.916" stroke="#52531B" stroke-width="2"/>
<path d="M361.13 247.916H142.13V466.916H361.13V390.507H324.83C312.296 418.383 284.119 437.836 251.83 437.836C207.308 437.836 171.31 401.537 171.31 357.316C171.31 313.095 207.308 277.096 251.83 277.096C284.721 277.096 312.898 297.151 325.432 325.629H361.13V247.916Z" fill="black"/>
<defs>
<linearGradient id="paint0_linear_14158_15816" x1="249.954" y1="37.8876" x2="249.954" y2="632.959" gradientUnits="userSpaceOnUse">
<stop offset="0.000572331"/>
<stop offset="0.463203" stop-color="#FCFF52"/>
<stop offset="0.961881"/>
</linearGradient>
<linearGradient id="paint1_linear_14158_15816" x1="499.549" y1="6.42815" x2="-21.594" y2="5.42605" gradientUnits="userSpaceOnUse">
<stop offset="0.015768" stop-color="#FCFF52"/>
<stop offset="0.480532"/>
<stop offset="0.950573" stop-color="#FCFF52"/>
</linearGradient>
<linearGradient id="paint2_linear_14158_15816" x1="21.5166" y1="611.065" x2="8.86803" y2="22.9972" gradientUnits="userSpaceOnUse">
<stop offset="0.0396479" stop-color="#FCFF52"/>
<stop offset="0.451723"/>
<stop offset="0.998103" stop-color="#FDFF67"/>
</linearGradient>
<linearGradient id="paint3_linear_14158_15816" x1="250.846" y1="-73.1322" x2="250.846" y2="556.567" gradientUnits="userSpaceOnUse">
<stop offset="0.074236"/>
<stop offset="0.218297" stop-color="#FCFF52"/>
<stop offset="0.549386"/>
<stop offset="1" stop-color="#FCFF52"/>
</linearGradient>
<linearGradient id="paint4_linear_14158_15816" x1="479.047" y1="30.4364" x2="1.41843" y2="29.4583" gradientUnits="userSpaceOnUse">
<stop offset="0.00582305"/>
<stop offset="0.471312" stop-color="#FCFF52"/>
<stop offset="0.924755"/>
</linearGradient>
</defs>
</svg>
