<svg width="500" height="602" viewBox="0 0 500 602" fill="none" xmlns="http://www.w3.org/2000/svg">
    <path
        d="M499.197 1H1V373.645C0.998982 506.642 120.294 601.677 249.471 601.999C379.017 602.323 499.197 505.388 499.197 373.645V1Z"
        fill="url(#paint0_angular_15810_17638)" />
    <path
        d="M480.218 24.7227H21.5605V367.948C21.5596 490.446 131.386 577.977 250.312 578.275C369.577 578.572 480.218 489.29 480.218 367.948V24.7227Z"
        fill="url(#paint1_angular_15810_17638)" />
    <path
        d="M459.351 48H42V364.531C41.9991 476.43 141.935 556.388 250.15 556.66C358.673 556.932 459.351 475.375 459.351 364.531V48Z"
        fill="#FCFF52" />
    <path d="M500 0H0L21.5577 24.7236H480.199L500 0Z" fill="url(#paint2_linear_15810_17638)" />
    <path d="M478.219 26.7227H23.5838L42.0536 48H459.532L478.219 26.7227Z"
        fill="url(#paint3_linear_15810_17638)" />
    <path
        d="M223.202 151.816C214.242 151.816 209.242 146.096 209.242 137.296V136.976C209.242 128.376 215.162 122.376 223.122 122.376C229.682 122.376 234.762 125.656 235.402 132.376H230.002C229.402 128.576 227.282 126.616 223.162 126.616C218.122 126.616 214.842 130.536 214.842 136.936V137.256C214.842 143.696 217.922 147.496 223.202 147.496C227.162 147.496 229.962 145.496 230.522 141.456H235.722C234.882 148.336 230.002 151.816 223.202 151.816ZM248.73 151.816C242.57 151.816 238.13 147.776 238.13 141.176V140.856C238.13 134.376 242.57 130.056 248.53 130.056C253.73 130.056 258.41 133.136 258.41 140.616V142.016H243.09C243.25 145.976 245.25 148.216 248.85 148.216C251.77 148.216 253.29 147.056 253.65 145.016H258.33C257.65 149.416 254.09 151.816 248.73 151.816ZM243.17 138.776H253.61C253.37 135.176 251.53 133.576 248.53 133.576C245.61 133.576 243.65 135.536 243.17 138.776ZM262.453 151.416V120.816H267.293V151.416H262.453ZM282.153 148.056C285.753 148.056 287.913 145.376 287.913 141.096V140.816C287.913 136.496 285.753 133.856 282.153 133.856C278.553 133.856 276.353 136.456 276.353 140.776V141.096C276.353 145.376 278.473 148.056 282.153 148.056ZM282.113 151.816C275.953 151.816 271.393 147.536 271.393 141.176V140.856C271.393 134.376 275.993 130.056 282.153 130.056C288.273 130.056 292.873 134.336 292.873 140.736V141.056C292.873 147.576 288.273 151.816 282.113 151.816ZM134.079 195.416V166.816H151.799V171.056H139.399V179.576H149.159V183.696H139.399V195.416H134.079ZM154.841 195.416V174.496H159.681V178.416C161.001 175.776 162.961 174.216 166.481 174.176V178.696C162.241 178.736 159.681 180.096 159.681 184.536V195.416H154.841ZM179.309 192.056C182.909 192.056 185.069 189.376 185.069 185.096V184.816C185.069 180.496 182.909 177.856 179.309 177.856C175.709 177.856 173.509 180.456 173.509 184.776V185.096C173.509 189.376 175.629 192.056 179.309 192.056ZM179.269 195.816C173.109 195.816 168.549 191.536 168.549 185.176V184.856C168.549 178.376 173.149 174.056 179.309 174.056C185.429 174.056 190.029 178.336 190.029 184.736V185.056C190.029 191.576 185.429 195.816 179.269 195.816ZM194.002 195.416V174.496H198.842V177.816C199.842 175.776 202.162 174.056 205.602 174.056C209.802 174.056 212.762 176.496 212.762 182.256V195.416H207.922V182.696C207.922 179.536 206.642 178.096 203.762 178.096C201.042 178.096 198.842 179.776 198.842 183.096V195.416H194.002ZM225.058 195.776C220.898 195.776 218.738 193.536 218.738 189.576V178.136H215.938V174.496H218.738V169.896H223.578V174.496H228.178V178.136H223.578V189.136C223.578 190.976 224.458 191.816 225.978 191.816C226.938 191.816 227.658 191.696 228.338 191.416V195.256C227.578 195.536 226.538 195.776 225.058 195.776ZM241.504 195.816C235.344 195.816 230.904 191.776 230.904 185.176V184.856C230.904 178.376 235.344 174.056 241.304 174.056C246.504 174.056 251.184 177.136 251.184 184.616V186.016H235.864C236.024 189.976 238.024 192.216 241.624 192.216C244.544 192.216 246.064 191.056 246.424 189.016H251.104C250.424 193.416 246.864 195.816 241.504 195.816ZM235.944 182.776H246.384C246.144 179.176 244.304 177.576 241.304 177.576C238.384 177.576 236.424 179.536 235.944 182.776ZM255.107 195.416V174.496H259.947V177.816C260.947 175.776 263.267 174.056 266.707 174.056C270.907 174.056 273.867 176.496 273.867 182.256V195.416H269.027V182.696C269.027 179.536 267.747 178.096 264.867 178.096C262.147 178.096 259.947 179.776 259.947 183.096V195.416H255.107ZM286.883 195.816C281.643 195.816 277.683 192.096 277.683 185.296V184.976C277.683 178.296 281.643 174.056 287.083 174.056C290.483 174.056 292.603 175.616 293.763 177.696V164.816H298.603V195.416H293.763V191.896C292.643 193.976 289.963 195.816 286.883 195.816ZM288.083 191.976C291.443 191.976 293.923 189.736 293.923 185.056V184.736C293.923 180.136 291.803 177.856 288.283 177.856C284.723 177.856 282.643 180.336 282.643 184.856V185.176C282.643 189.776 284.963 191.976 288.083 191.976ZM317.526 195.416V172.096L311.486 176.216V171.536L318.126 166.816H322.886V195.416H317.526ZM340.724 191.576C345.124 191.576 347.244 188.216 347.244 181.736V180.336C347.244 174.256 344.924 170.576 340.644 170.576C336.324 170.576 333.964 174.016 333.964 180.376V181.816C333.964 188.296 336.444 191.576 340.724 191.576ZM340.604 195.816C333.324 195.816 328.604 190.456 328.604 181.856V180.416C328.604 171.736 333.404 166.416 340.604 166.416C347.844 166.416 352.564 171.696 352.564 180.296V181.736C352.564 190.336 348.084 195.816 340.604 195.816ZM361.531 195.416V172.096L355.491 176.216V171.536L362.131 166.816H366.891V195.416H361.531Z"
        fill="black" />
    <path
        d="M216.085 88.421V78.826H217.548C220.74 78.826 222.07 80.593 222.07 83.519V83.671C222.07 86.673 220.607 88.421 217.567 88.421H216.085ZM213.558 90.416H217.643C222.412 90.416 224.711 87.604 224.711 83.652V83.481C224.711 79.529 222.412 76.831 217.681 76.831H213.558V90.416ZM225.316 90.416H227.691L228.755 87.053H233.942L235.025 90.416H237.647L233.163 76.831H229.857L225.316 90.416ZM231.358 78.902L233.353 85.21H229.344L231.358 78.902ZM244.906 90.606C248.136 90.606 250.454 88.953 250.853 85.685H248.383C248.117 87.604 246.787 88.554 244.906 88.554C242.398 88.554 240.935 86.749 240.935 83.69V83.538C240.935 80.498 242.493 78.636 244.887 78.636C246.844 78.636 247.851 79.567 248.136 81.372H250.701C250.397 78.18 247.984 76.622 244.868 76.622C241.087 76.622 238.275 79.472 238.275 83.557V83.709C238.275 87.889 240.65 90.606 244.906 90.606ZM251.719 90.416H254.094L255.158 87.053H260.345L261.428 90.416H264.05L259.566 76.831H256.26L251.719 90.416ZM257.761 78.902L259.756 85.21H255.747L257.761 78.902ZM268.65 88.421V78.826H270.113C273.305 78.826 274.635 80.593 274.635 83.519V83.671C274.635 86.673 273.172 88.421 270.132 88.421H268.65ZM266.123 90.416H270.208C274.977 90.416 277.276 87.604 277.276 83.652V83.481C277.276 79.529 274.977 76.831 270.246 76.831H266.123V90.416ZM279.687 90.416H288.503V88.421H282.214V84.45H287.002V82.55H282.214V78.826H288.18V76.831H279.687V90.416Z"
        fill="#3F3F46" />
    <line opacity="0.1" x1="156" y1="105" x2="346" y2="105" stroke="#52531B" stroke-width="2" />
    <path
        d="M360 248H141V467H360V390.591H323.701C311.166 418.467 282.989 437.92 250.701 437.92C206.179 437.92 170.18 401.621 170.18 357.4C170.18 313.179 206.179 277.18 250.701 277.18C283.591 277.18 311.768 297.235 324.302 325.713H360V248Z"
        fill="black" />
    <path
        d="M22.5605 367.948V25.7227H479.218V367.948C479.218 488.622 369.148 577.571 250.314 577.275C131.814 576.979 22.5596 489.776 22.5605 367.948Z"
        stroke="url(#paint4_angular_15810_17638)" stroke-width="2" />
    <defs>
        <radialGradient id="paint0_angular_15810_17638" cx="0" cy="0" r="1"
            gradientUnits="userSpaceOnUse"
            gradientTransform="translate(241.147 301.497) rotate(-127.68) scale(426.52 426.52)">
            <stop offset="0.213774" />
            <stop offset="0.39014" stop-color="#FCFF52" />
            <stop offset="0.488984" />
            <stop offset="0.708009" />
            <stop offset="0.804722" stop-color="#FCFF52" />
            <stop offset="0.996679" />
        </radialGradient>
        <radialGradient id="paint1_angular_15810_17638" cx="0" cy="0" r="1"
            gradientUnits="userSpaceOnUse"
            gradientTransform="translate(242.649 301.496) rotate(-127.667) scale(392.781 634.866)">
            <stop offset="0.150997" />
            <stop offset="0.425602" stop-color="#FCFF52" />
            <stop offset="0.572579" />
            <stop offset="0.805107" stop-color="#FCFF52" />
            <stop offset="0.92627" />
            <stop offset="0.998103" stop-color="#FCFF52" />
        </radialGradient>
        <linearGradient id="paint2_linear_15810_17638" x1="500.499" y1="6.42815" x2="-22.4775"
            y2="5.41899" gradientUnits="userSpaceOnUse">
            <stop offset="0.015768" stop-color="#FCFF52" />
            <stop offset="0.480532" />
            <stop offset="0.950573" stop-color="#FCFF52" />
        </linearGradient>
        <linearGradient id="paint3_linear_15810_17638" x1="478.674" y1="32.2548" x2="1.4909"
            y2="31.2785" gradientUnits="userSpaceOnUse">
            <stop offset="0.00582305" />
            <stop offset="0.471312" stop-color="#FCFF52" />
            <stop offset="0.924755" />
        </linearGradient>
        <radialGradient id="paint4_angular_15810_17638" cx="0" cy="0" r="1"
            gradientUnits="userSpaceOnUse"
            gradientTransform="translate(244.01 301.499) rotate(45) scale(381.824 381.824)">
            <stop offset="0.0179629" />
            <stop offset="0.276042" stop-color="#494918" />
            <stop offset="0.515863" stop-color="#FCFF52" />
            <stop offset="0.749146" stop-color="#FCFF52" />
        </radialGradient>
    </defs>
</svg>