<svg width="499" height="601" viewBox="0 0 499 601" fill="none" xmlns="http://www.w3.org/2000/svg">
<path d="M498.247 0H0.0498047V372.645C0.0487869 505.642 119.343 600.677 248.521 600.999C378.067 601.323 498.247 504.388 498.247 372.645V0Z" fill="url(#paint0_linear_14158_15794)"/>
<path d="M498.247 0H0L21.4194 23.7126L478.975 23.462L498.247 0Z" fill="url(#paint1_linear_14158_15794)"/>
<path d="M21.7119 23.9043H478.37V366.13C478.37 486.804 368.299 575.753 249.466 575.456C130.965 575.16 21.711 487.958 21.7119 366.13V23.9043Z" fill="url(#paint2_linear_14158_15794)" stroke="url(#paint3_linear_14158_15794)" stroke-width="2"/>
<path d="M458.502 46.1816H41.1514V362.713C41.1505 474.612 141.086 554.57 249.301 554.841C357.825 555.113 458.502 473.556 458.502 362.713V46.1816Z" fill="#FCFF52"/>
<path d="M477.367 24.9043H22.7108L41.1391 46.302L458.491 46.2478L477.367 24.9043Z" fill="url(#paint4_linear_14158_15794)"/>
<path d="M221.417 151.732C228.217 151.732 233.097 148.252 233.937 141.372H228.737C228.177 145.412 225.377 147.412 221.417 147.412C216.137 147.412 213.057 143.612 213.057 137.172V136.852C213.057 130.452 216.337 126.532 221.377 126.532C225.497 126.532 227.617 128.492 228.217 132.292H233.617C232.977 125.572 227.897 122.292 221.337 122.292C213.377 122.292 207.457 128.292 207.457 136.892V137.212C207.457 146.012 212.457 151.732 221.417 151.732ZM246.945 151.732C252.305 151.732 255.865 149.332 256.545 144.932H251.865C251.505 146.972 249.985 148.132 247.065 148.132C243.465 148.132 241.465 145.892 241.305 141.932H256.625V140.532C256.625 133.052 251.945 129.972 246.745 129.972C240.785 129.972 236.345 134.292 236.345 140.772V141.092C236.345 147.692 240.785 151.732 246.945 151.732ZM241.385 138.692C241.865 135.452 243.825 133.492 246.745 133.492C249.745 133.492 251.585 135.092 251.825 138.692H241.385ZM260.668 151.332H265.508V120.732H260.668V151.332ZM280.368 147.972C276.688 147.972 274.568 145.292 274.568 141.012V140.692C274.568 136.372 276.768 133.772 280.368 133.772C283.968 133.772 286.128 136.412 286.128 140.732V141.012C286.128 145.292 283.968 147.972 280.368 147.972ZM280.328 151.732C286.488 151.732 291.088 147.492 291.088 140.972V140.652C291.088 134.252 286.488 129.972 280.368 129.972C274.208 129.972 269.608 134.292 269.608 140.772V141.092C269.608 147.452 274.168 151.732 280.328 151.732ZM142.882 195.332H148.242V170.932H156.202V166.732H134.922V170.932H142.882V195.332ZM164.494 195.732C167.894 195.732 170.094 194.092 171.134 192.052V195.332H175.974V174.412H171.134V186.852C171.134 190.172 168.854 191.852 166.254 191.852C163.454 191.852 162.134 190.412 162.134 187.252V174.412H157.294V187.812C157.294 193.372 160.374 195.732 164.494 195.732ZM188.433 195.692C189.913 195.692 190.953 195.452 191.713 195.172V191.332C191.033 191.612 190.313 191.732 189.353 191.732C187.833 191.732 186.953 190.892 186.953 189.052V178.052H191.553V174.412H186.953V169.812H182.113V174.412H179.313V178.052H182.113V189.492C182.113 193.452 184.273 195.692 188.433 195.692ZM205.039 191.972C201.359 191.972 199.239 189.292 199.239 185.012V184.692C199.239 180.372 201.439 177.772 205.039 177.772C208.639 177.772 210.799 180.412 210.799 184.732V185.012C210.799 189.292 208.639 191.972 205.039 191.972ZM204.999 195.732C211.159 195.732 215.759 191.492 215.759 184.972V184.652C215.759 178.252 211.159 173.972 205.039 173.972C198.879 173.972 194.279 178.292 194.279 184.772V185.092C194.279 191.452 198.839 195.732 204.999 195.732ZM219.732 195.332H224.572V184.452C224.572 180.012 227.132 178.652 231.372 178.612V174.092C227.852 174.132 225.892 175.692 224.572 178.332V174.412H219.732V195.332ZM235.35 195.332H240.19V174.412H235.35V195.332ZM237.71 170.972C239.31 170.972 240.59 169.772 240.59 168.212C240.59 166.612 239.31 165.412 237.71 165.412C236.11 165.412 234.83 166.612 234.83 168.212C234.83 169.772 236.11 170.972 237.71 170.972ZM251.17 195.732C254.37 195.732 256.21 194.572 257.57 192.772V195.332H262.33V181.612C262.33 175.892 258.65 173.972 253.97 173.972C249.29 173.972 245.41 176.012 245.01 180.892H249.69C249.93 178.812 251.17 177.612 253.69 177.612C256.53 177.612 257.49 179.012 257.49 181.812V182.892H254.89C248.89 182.892 244.17 184.652 244.17 189.532C244.17 193.892 247.33 195.732 251.17 195.732ZM252.33 192.252C249.93 192.252 248.97 191.092 248.97 189.332C248.97 186.772 251.33 185.932 255.01 185.932H257.49V188.012C257.49 190.692 255.29 192.252 252.33 192.252ZM267.597 195.332H272.437V164.732H267.597V195.332ZM285.097 195.732C290.457 195.732 293.457 193.292 293.457 189.052C293.457 184.612 290.537 183.412 285.617 182.652C282.297 182.092 281.297 181.492 281.297 179.972C281.297 178.492 282.537 177.492 284.617 177.492C286.857 177.492 287.937 178.372 288.337 180.292H292.817C292.297 175.572 288.897 173.972 284.617 173.972C280.697 173.972 276.777 176.052 276.777 180.252C276.777 184.172 278.817 185.732 284.337 186.612C287.417 187.132 288.817 187.772 288.817 189.492C288.817 191.252 287.657 192.172 285.057 192.172C282.217 192.172 281.137 190.932 280.897 188.812H276.337C276.537 193.252 279.697 195.732 285.097 195.732ZM310.873 195.332H316.233V166.732H311.473L304.833 171.452V176.132L310.873 172.012V195.332ZM334.071 191.492C329.791 191.492 327.311 188.212 327.311 181.732V180.292C327.311 173.932 329.671 170.492 333.991 170.492C338.271 170.492 340.591 174.172 340.591 180.252V181.652C340.591 188.132 338.471 191.492 334.071 191.492ZM333.951 195.732C341.431 195.732 345.911 190.252 345.911 181.652V180.212C345.911 171.612 341.191 166.332 333.951 166.332C326.751 166.332 321.951 171.652 321.951 180.332V181.772C321.951 190.372 326.671 195.732 333.951 195.732ZM354.878 195.332H360.238V166.732H355.478L348.838 171.452V176.132L354.878 172.012V195.332Z" fill="black"/>
<path d="M214.184 88.337V78.742H215.647C218.839 78.742 220.169 80.509 220.169 83.435V83.587C220.169 86.589 218.706 88.337 215.666 88.337H214.184ZM211.657 90.332H215.742C220.511 90.332 222.81 87.52 222.81 83.568V83.397C222.81 79.445 220.511 76.747 215.78 76.747H211.657V90.332ZM223.414 90.332H225.789L226.853 86.969H232.04L233.123 90.332H235.745L231.261 76.747H227.955L223.414 90.332ZM229.456 78.818L231.451 85.126H227.442L229.456 78.818ZM243.005 90.522C246.235 90.522 248.553 88.869 248.952 85.601H246.482C246.216 87.52 244.886 88.47 243.005 88.47C240.497 88.47 239.034 86.665 239.034 83.606V83.454C239.034 80.414 240.592 78.552 242.986 78.552C244.943 78.552 245.95 79.483 246.235 81.288H248.8C248.496 78.096 246.083 76.538 242.967 76.538C239.186 76.538 236.374 79.388 236.374 83.473V83.625C236.374 87.805 238.749 90.522 243.005 90.522ZM249.818 90.332H252.193L253.257 86.969H258.444L259.527 90.332H262.149L257.665 76.747H254.359L249.818 90.332ZM255.86 78.818L257.855 85.126H253.846L255.86 78.818ZM266.749 88.337V78.742H268.212C271.404 78.742 272.734 80.509 272.734 83.435V83.587C272.734 86.589 271.271 88.337 268.231 88.337H266.749ZM264.222 90.332H268.307C273.076 90.332 275.375 87.52 275.375 83.568V83.397C275.375 79.445 273.076 76.747 268.345 76.747H264.222V90.332ZM277.786 90.332H286.602V88.337H280.313V84.366H285.101V82.466H280.313V78.742H286.279V76.747H277.786V90.332Z" fill="#3F3F46"/>
<line opacity="0.1" x1="154.099" y1="104.916" x2="344.099" y2="104.916" stroke="#52531B" stroke-width="2"/>
<path d="M360.325 247.916H141.325V466.916H360.325V390.507H324.026C311.491 418.383 283.314 437.836 251.026 437.836C206.504 437.836 170.505 401.537 170.505 357.316C170.505 313.095 206.504 277.096 251.026 277.096C283.916 277.096 312.093 297.151 324.627 325.629H360.325V247.916Z" fill="black"/>
<defs>
<linearGradient id="paint0_linear_14158_15794" x1="249.149" y1="37.8876" x2="249.149" y2="632.959" gradientUnits="userSpaceOnUse">
<stop offset="0.000572331"/>
<stop offset="0.463203" stop-color="#FCFF52"/>
<stop offset="0.961881"/>
</linearGradient>
<linearGradient id="paint1_linear_14158_15794" x1="498.745" y1="6.42815" x2="-22.3987" y2="5.42605" gradientUnits="userSpaceOnUse">
<stop offset="0.015768" stop-color="#FCFF52"/>
<stop offset="0.480532"/>
<stop offset="0.950573" stop-color="#FCFF52"/>
</linearGradient>
<linearGradient id="paint2_linear_14158_15794" x1="20.7119" y1="611.065" x2="8.06334" y2="22.9972" gradientUnits="userSpaceOnUse">
<stop offset="0.0396479" stop-color="#FCFF52"/>
<stop offset="0.451723"/>
<stop offset="0.998103" stop-color="#FDFF67"/>
</linearGradient>
<linearGradient id="paint3_linear_14158_15794" x1="250.041" y1="-73.1322" x2="250.041" y2="556.567" gradientUnits="userSpaceOnUse">
<stop offset="0.074236"/>
<stop offset="0.218297" stop-color="#FCFF52"/>
<stop offset="0.549386"/>
<stop offset="1" stop-color="#FCFF52"/>
</linearGradient>
<linearGradient id="paint4_linear_14158_15794" x1="478.242" y1="30.4364" x2="0.613717" y2="29.4583" gradientUnits="userSpaceOnUse">
<stop offset="0.00582305"/>
<stop offset="0.471312" stop-color="#FCFF52"/>
<stop offset="0.924755"/>
</linearGradient>
</defs>
</svg>
