<svg width="499" height="601" viewBox="0 0 499 601" fill="none" xmlns="http://www.w3.org/2000/svg">
<path d="M498.247 0H0.0498047V372.645C0.0487869 505.642 119.343 600.677 248.521 600.999C378.067 601.323 498.247 504.388 498.247 372.645V0Z" fill="url(#paint0_linear_14158_15783)"/>
<path d="M498.247 0H0L21.4194 23.7126L478.975 23.462L498.247 0Z" fill="url(#paint1_linear_14158_15783)"/>
<path d="M21.7119 23.9043H478.37V366.13C478.37 486.804 368.299 575.753 249.466 575.456C130.965 575.16 21.711 487.958 21.7119 366.13V23.9043Z" fill="url(#paint2_linear_14158_15783)" stroke="url(#paint3_linear_14158_15783)" stroke-width="2"/>
<path d="M458.502 46.1816H41.1514V362.713C41.1505 474.612 141.086 554.57 249.301 554.841C357.825 555.113 458.502 473.556 458.502 362.713V46.1816Z" fill="#FCFF52"/>
<path d="M477.367 24.9043H22.7108L41.1391 46.302L458.491 46.2478L477.367 24.9043Z" fill="url(#paint4_linear_14158_15783)"/>
<path d="M221.125 151.732C227.925 151.732 232.805 148.252 233.645 141.372H228.445C227.885 145.412 225.085 147.412 221.125 147.412C215.845 147.412 212.765 143.612 212.765 137.172V136.852C212.765 130.452 216.045 126.532 221.085 126.532C225.205 126.532 227.325 128.492 227.925 132.292H233.325C232.685 125.572 227.605 122.292 221.045 122.292C213.085 122.292 207.165 128.292 207.165 136.892V137.212C207.165 146.012 212.165 151.732 221.125 151.732ZM246.653 151.732C252.013 151.732 255.573 149.332 256.253 144.932H251.573C251.213 146.972 249.693 148.132 246.773 148.132C243.173 148.132 241.173 145.892 241.013 141.932H256.333V140.532C256.333 133.052 251.653 129.972 246.453 129.972C240.493 129.972 236.053 134.292 236.053 140.772V141.092C236.053 147.692 240.493 151.732 246.653 151.732ZM241.093 138.692C241.573 135.452 243.533 133.492 246.453 133.492C249.453 133.492 251.293 135.092 251.533 138.692H241.093ZM260.376 151.332H265.216V120.732H260.376V151.332ZM280.076 147.972C276.396 147.972 274.276 145.292 274.276 141.012V140.692C274.276 136.372 276.476 133.772 280.076 133.772C283.676 133.772 285.836 136.412 285.836 140.732V141.012C285.836 145.292 283.676 147.972 280.076 147.972ZM280.036 151.732C286.196 151.732 290.796 147.492 290.796 140.972V140.652C290.796 134.252 286.196 129.972 280.076 129.972C273.916 129.972 269.316 134.292 269.316 140.772V141.092C269.316 147.452 273.876 151.732 280.036 151.732ZM93.7223 191.132V170.932H96.8023C103.522 170.932 106.322 174.652 106.322 180.812V181.132C106.322 187.452 103.242 191.132 96.8423 191.132H93.7223ZM88.4023 195.332H97.0023C107.042 195.332 111.882 189.412 111.882 181.092V180.732C111.882 172.412 107.042 166.732 97.0823 166.732H88.4023V195.332ZM125.357 195.732C130.717 195.732 134.277 193.332 134.957 188.932H130.277C129.917 190.972 128.397 192.132 125.477 192.132C121.877 192.132 119.877 189.892 119.717 185.932H135.037V184.532C135.037 177.052 130.357 173.972 125.157 173.972C119.197 173.972 114.757 178.292 114.757 184.772V185.092C114.757 191.692 119.197 195.732 125.357 195.732ZM119.797 182.692C120.277 179.452 122.237 177.492 125.157 177.492C128.157 177.492 129.997 179.092 130.237 182.692H119.797ZM144.049 195.332H149.689L157.249 174.412H152.489L147.089 190.372L141.609 174.412H136.409L144.049 195.332ZM168.854 195.732C174.214 195.732 177.774 193.332 178.454 188.932H173.774C173.414 190.972 171.894 192.132 168.974 192.132C165.374 192.132 163.374 189.892 163.214 185.932H178.534V184.532C178.534 177.052 173.854 173.972 168.654 173.972C162.694 173.972 158.254 178.292 158.254 184.772V185.092C158.254 191.692 162.694 195.732 168.854 195.732ZM163.294 182.692C163.774 179.452 165.734 177.492 168.654 177.492C171.654 177.492 173.494 179.092 173.734 182.692H163.294ZM182.577 195.332H187.417V164.732H182.577V195.332ZM202.276 191.972C198.596 191.972 196.476 189.292 196.476 185.012V184.692C196.476 180.372 198.676 177.772 202.276 177.772C205.876 177.772 208.036 180.412 208.036 184.732V185.012C208.036 189.292 205.876 191.972 202.276 191.972ZM202.236 195.732C208.396 195.732 212.996 191.492 212.996 184.972V184.652C212.996 178.252 208.396 173.972 202.276 173.972C196.116 173.972 191.516 178.292 191.516 184.772V185.092C191.516 191.452 196.076 195.732 202.236 195.732ZM216.969 202.492H221.809V192.052C222.929 194.092 225.329 195.732 228.649 195.732C234.049 195.732 237.929 191.652 237.929 184.932V184.612C237.929 177.852 233.889 173.972 228.649 173.972C225.569 173.972 222.969 175.772 221.809 177.772V174.412H216.969V202.492ZM227.449 191.892C223.929 191.892 221.649 189.692 221.649 185.012V184.692C221.649 180.052 224.049 177.772 227.409 177.772C230.569 177.772 232.969 180.052 232.969 184.692V185.012C232.969 189.492 231.009 191.892 227.449 191.892ZM241.882 195.332H246.722V182.812C246.722 179.612 248.922 178.012 251.322 178.012C253.682 178.012 255.042 179.332 255.042 182.412V195.332H259.882V182.812C259.882 179.612 262.082 178.012 264.482 178.012C266.882 178.012 268.202 179.332 268.202 182.412V195.332H273.042V182.092C273.042 176.332 269.922 173.972 266.082 173.972C263.482 173.972 260.602 175.132 259.002 177.732C257.962 175.132 255.802 173.972 253.082 173.972C250.002 173.972 247.722 175.652 246.722 177.612V174.412H241.882V195.332ZM287.401 195.732C292.761 195.732 296.321 193.332 297.001 188.932H292.321C291.961 190.972 290.441 192.132 287.521 192.132C283.921 192.132 281.921 189.892 281.761 185.932H297.081V184.532C297.081 177.052 292.401 173.972 287.201 173.972C281.241 173.972 276.801 178.292 276.801 184.772V185.092C276.801 191.692 281.241 195.732 287.401 195.732ZM281.841 182.692C282.321 179.452 284.281 177.492 287.201 177.492C290.201 177.492 292.041 179.092 292.281 182.692H281.841ZM301.004 195.332H305.844V183.012C305.844 179.692 308.044 178.012 310.764 178.012C313.644 178.012 314.924 179.452 314.924 182.612V195.332H319.764V182.172C319.764 176.412 316.804 173.972 312.604 173.972C309.164 173.972 306.844 175.692 305.844 177.732V174.412H301.004V195.332ZM332.06 195.692C333.54 195.692 334.58 195.452 335.34 195.172V191.332C334.66 191.612 333.94 191.732 332.98 191.732C331.46 191.732 330.58 190.892 330.58 189.052V178.052H335.18V174.412H330.58V169.812H325.74V174.412H322.94V178.052H325.74V189.492C325.74 193.452 327.9 195.692 332.06 195.692ZM346.157 195.332H366.837V191.212H354.677L361.037 185.012C364.437 181.732 366.637 178.492 366.637 174.772C366.637 169.732 363.117 166.332 357.197 166.332C351.157 166.332 347.397 169.932 347.037 176.172H351.917C352.397 172.132 354.197 170.492 357.037 170.492C359.797 170.492 361.317 172.172 361.317 174.852C361.317 177.572 359.677 180.092 356.957 182.972L346.157 194.372V195.332ZM382.246 191.492C377.966 191.492 375.486 188.212 375.486 181.732V180.292C375.486 173.932 377.846 170.492 382.166 170.492C386.446 170.492 388.766 174.172 388.766 180.252V181.652C388.766 188.132 386.646 191.492 382.246 191.492ZM382.126 195.732C389.606 195.732 394.086 190.252 394.086 181.652V180.212C394.086 171.612 389.366 166.332 382.126 166.332C374.926 166.332 370.126 171.652 370.126 180.332V181.772C370.126 190.372 374.846 195.732 382.126 195.732ZM403.053 195.332H408.413V166.732H403.653L397.013 171.452V176.132L403.053 172.012V195.332Z" fill="black"/>
<path d="M214.008 88.337V78.742H215.471C218.663 78.742 219.993 80.509 219.993 83.435V83.587C219.993 86.589 218.53 88.337 215.49 88.337H214.008ZM211.481 90.332H215.566C220.335 90.332 222.634 87.52 222.634 83.568V83.397C222.634 79.445 220.335 76.747 215.604 76.747H211.481V90.332ZM223.239 90.332H225.614L226.678 86.969H231.865L232.948 90.332H235.57L231.086 76.747H227.78L223.239 90.332ZM229.281 78.818L231.276 85.126H227.267L229.281 78.818ZM242.829 90.522C246.059 90.522 248.377 88.869 248.776 85.601H246.306C246.04 87.52 244.71 88.47 242.829 88.47C240.321 88.47 238.858 86.665 238.858 83.606V83.454C238.858 80.414 240.416 78.552 242.81 78.552C244.767 78.552 245.774 79.483 246.059 81.288H248.624C248.32 78.096 245.907 76.538 242.791 76.538C239.01 76.538 236.198 79.388 236.198 83.473V83.625C236.198 87.805 238.573 90.522 242.829 90.522ZM249.642 90.332H252.017L253.081 86.969H258.268L259.351 90.332H261.973L257.489 76.747H254.183L249.642 90.332ZM255.684 78.818L257.679 85.126H253.67L255.684 78.818ZM266.573 88.337V78.742H268.036C271.228 78.742 272.558 80.509 272.558 83.435V83.587C272.558 86.589 271.095 88.337 268.055 88.337H266.573ZM264.046 90.332H268.131C272.9 90.332 275.199 87.52 275.199 83.568V83.397C275.199 79.445 272.9 76.747 268.169 76.747H264.046V90.332ZM277.61 90.332H286.426V88.337H280.137V84.366H284.925V82.466H280.137V78.742H286.103V76.747H277.61V90.332Z" fill="#3F3F46"/>
<line opacity="0.1" x1="153.923" y1="104.916" x2="343.923" y2="104.916" stroke="#52531B" stroke-width="2"/>
<path d="M360.325 247.916H141.325V466.916H360.325V390.507H324.026C311.491 418.383 283.314 437.836 251.026 437.836C206.504 437.836 170.505 401.537 170.505 357.316C170.505 313.095 206.504 277.096 251.026 277.096C283.916 277.096 312.093 297.151 324.627 325.629H360.325V247.916Z" fill="black"/>
<defs>
<linearGradient id="paint0_linear_14158_15783" x1="249.149" y1="37.8876" x2="249.149" y2="632.959" gradientUnits="userSpaceOnUse">
<stop offset="0.000572331"/>
<stop offset="0.463203" stop-color="#FCFF52"/>
<stop offset="0.961881"/>
</linearGradient>
<linearGradient id="paint1_linear_14158_15783" x1="498.745" y1="6.42815" x2="-22.3987" y2="5.42605" gradientUnits="userSpaceOnUse">
<stop offset="0.015768" stop-color="#FCFF52"/>
<stop offset="0.480532"/>
<stop offset="0.950573" stop-color="#FCFF52"/>
</linearGradient>
<linearGradient id="paint2_linear_14158_15783" x1="20.7119" y1="611.065" x2="8.06334" y2="22.9972" gradientUnits="userSpaceOnUse">
<stop offset="0.0396479" stop-color="#FCFF52"/>
<stop offset="0.451723"/>
<stop offset="0.998103" stop-color="#FDFF67"/>
</linearGradient>
<linearGradient id="paint3_linear_14158_15783" x1="250.041" y1="-73.1322" x2="250.041" y2="556.567" gradientUnits="userSpaceOnUse">
<stop offset="0.074236"/>
<stop offset="0.218297" stop-color="#FCFF52"/>
<stop offset="0.549386"/>
<stop offset="1" stop-color="#FCFF52"/>
</linearGradient>
<linearGradient id="paint4_linear_14158_15783" x1="478.242" y1="30.4364" x2="0.61374" y2="29.4583" gradientUnits="userSpaceOnUse">
<stop offset="0.00582305"/>
<stop offset="0.471312" stop-color="#FCFF52"/>
<stop offset="0.924755"/>
</linearGradient>
</defs>
</svg>
