<svg width="499" height="601" viewBox="0 0 499 601" fill="none" xmlns="http://www.w3.org/2000/svg">
<path d="M498.247 0H0.0498047V372.645C0.0487869 505.642 119.343 600.677 248.521 600.999C378.067 601.323 498.247 504.388 498.247 372.645V0Z" fill="url(#paint0_linear_14158_15805)"/>
<path d="M498.247 0H0L21.4194 23.7126L478.975 23.462L498.247 0Z" fill="url(#paint1_linear_14158_15805)"/>
<path d="M21.7119 23.9043H478.37V366.13C478.37 486.804 368.299 575.753 249.466 575.456C130.965 575.16 21.711 487.958 21.7119 366.13V23.9043Z" fill="url(#paint2_linear_14158_15805)" stroke="url(#paint3_linear_14158_15805)" stroke-width="2"/>
<path d="M458.502 46.1816H41.1514V362.713C41.1505 474.612 141.086 554.57 249.301 554.841C357.825 555.113 458.502 473.556 458.502 362.713V46.1816Z" fill="#FCFF52"/>
<path d="M477.367 24.9043H22.7108L41.1391 46.302L458.491 46.2478L477.367 24.9043Z" fill="url(#paint4_linear_14158_15805)"/>
<path d="M221.417 151.732C228.217 151.732 233.097 148.252 233.937 141.372H228.737C228.177 145.412 225.377 147.412 221.417 147.412C216.137 147.412 213.057 143.612 213.057 137.172V136.852C213.057 130.452 216.337 126.532 221.377 126.532C225.497 126.532 227.617 128.492 228.217 132.292H233.617C232.977 125.572 227.897 122.292 221.337 122.292C213.377 122.292 207.457 128.292 207.457 136.892V137.212C207.457 146.012 212.457 151.732 221.417 151.732ZM246.945 151.732C252.305 151.732 255.865 149.332 256.545 144.932H251.865C251.505 146.972 249.985 148.132 247.065 148.132C243.465 148.132 241.465 145.892 241.305 141.932H256.625V140.532C256.625 133.052 251.945 129.972 246.745 129.972C240.785 129.972 236.345 134.292 236.345 140.772V141.092C236.345 147.692 240.785 151.732 246.945 151.732ZM241.385 138.692C241.865 135.452 243.825 133.492 246.745 133.492C249.745 133.492 251.585 135.092 251.825 138.692H241.385ZM260.668 151.332H265.508V120.732H260.668V151.332ZM280.368 147.972C276.688 147.972 274.568 145.292 274.568 141.012V140.692C274.568 136.372 276.768 133.772 280.368 133.772C283.968 133.772 286.128 136.412 286.128 140.732V141.012C286.128 145.292 283.968 147.972 280.368 147.972ZM280.328 151.732C286.488 151.732 291.088 147.492 291.088 140.972V140.652C291.088 134.252 286.488 129.972 280.368 129.972C274.208 129.972 269.608 134.292 269.608 140.772V141.092C269.608 147.452 274.168 151.732 280.328 151.732ZM97.1002 191.132V170.932H100.18C106.9 170.932 109.7 174.652 109.7 180.812V181.132C109.7 187.452 106.62 191.132 100.22 191.132H97.1002ZM91.7802 195.332H100.38C110.42 195.332 115.26 189.412 115.26 181.092V180.732C115.26 172.412 110.42 166.732 100.46 166.732H91.7802V195.332ZM128.735 195.732C134.095 195.732 137.655 193.332 138.335 188.932H133.655C133.295 190.972 131.775 192.132 128.855 192.132C125.255 192.132 123.255 189.892 123.095 185.932H138.415V184.532C138.415 177.052 133.735 173.972 128.535 173.972C122.575 173.972 118.135 178.292 118.135 184.772V185.092C118.135 191.692 122.575 195.732 128.735 195.732ZM123.175 182.692C123.655 179.452 125.615 177.492 128.535 177.492C131.535 177.492 133.375 179.092 133.615 182.692H123.175ZM147.427 195.332H153.067L160.627 174.412H155.867L150.467 190.372L144.987 174.412H139.787L147.427 195.332ZM172.232 195.732C177.592 195.732 181.152 193.332 181.832 188.932H177.152C176.792 190.972 175.272 192.132 172.352 192.132C168.752 192.132 166.752 189.892 166.592 185.932H181.912V184.532C181.912 177.052 177.232 173.972 172.032 173.972C166.072 173.972 161.632 178.292 161.632 184.772V185.092C161.632 191.692 166.072 195.732 172.232 195.732ZM166.672 182.692C167.152 179.452 169.112 177.492 172.032 177.492C175.032 177.492 176.872 179.092 177.112 182.692H166.672ZM185.955 195.332H190.795V164.732H185.955V195.332ZM205.654 191.972C201.974 191.972 199.854 189.292 199.854 185.012V184.692C199.854 180.372 202.054 177.772 205.654 177.772C209.254 177.772 211.414 180.412 211.414 184.732V185.012C211.414 189.292 209.254 191.972 205.654 191.972ZM205.614 195.732C211.774 195.732 216.374 191.492 216.374 184.972V184.652C216.374 178.252 211.774 173.972 205.654 173.972C199.494 173.972 194.894 178.292 194.894 184.772V185.092C194.894 191.452 199.454 195.732 205.614 195.732ZM220.347 202.492H225.187V192.052C226.307 194.092 228.707 195.732 232.027 195.732C237.427 195.732 241.307 191.652 241.307 184.932V184.612C241.307 177.852 237.267 173.972 232.027 173.972C228.947 173.972 226.347 175.772 225.187 177.772V174.412H220.347V202.492ZM230.827 191.892C227.307 191.892 225.027 189.692 225.027 185.012V184.692C225.027 180.052 227.427 177.772 230.787 177.772C233.947 177.772 236.347 180.052 236.347 184.692V185.012C236.347 189.492 234.387 191.892 230.827 191.892ZM245.26 195.332H250.1V182.812C250.1 179.612 252.3 178.012 254.7 178.012C257.06 178.012 258.42 179.332 258.42 182.412V195.332H263.26V182.812C263.26 179.612 265.46 178.012 267.86 178.012C270.26 178.012 271.58 179.332 271.58 182.412V195.332H276.42V182.092C276.42 176.332 273.3 173.972 269.46 173.972C266.86 173.972 263.98 175.132 262.38 177.732C261.34 175.132 259.18 173.972 256.46 173.972C253.38 173.972 251.1 175.652 250.1 177.612V174.412H245.26V195.332ZM290.779 195.732C296.139 195.732 299.699 193.332 300.379 188.932H295.699C295.339 190.972 293.819 192.132 290.899 192.132C287.299 192.132 285.299 189.892 285.139 185.932H300.459V184.532C300.459 177.052 295.779 173.972 290.579 173.972C284.619 173.972 280.179 178.292 280.179 184.772V185.092C280.179 191.692 284.619 195.732 290.779 195.732ZM285.219 182.692C285.699 179.452 287.659 177.492 290.579 177.492C293.579 177.492 295.419 179.092 295.659 182.692H285.219ZM304.382 195.332H309.222V183.012C309.222 179.692 311.422 178.012 314.142 178.012C317.022 178.012 318.302 179.452 318.302 182.612V195.332H323.142V182.172C323.142 176.412 320.182 173.972 315.982 173.972C312.542 173.972 310.222 175.692 309.222 177.732V174.412H304.382V195.332ZM335.438 195.692C336.918 195.692 337.958 195.452 338.718 195.172V191.332C338.038 191.612 337.318 191.732 336.358 191.732C334.838 191.732 333.958 190.892 333.958 189.052V178.052H338.558V174.412H333.958V169.812H329.118V174.412H326.318V178.052H329.118V189.492C329.118 193.452 331.278 195.692 335.438 195.692ZM356.255 195.332H361.615V166.732H356.855L350.215 171.452V176.132L356.255 172.012V195.332ZM379.452 191.492C375.172 191.492 372.692 188.212 372.692 181.732V180.292C372.692 173.932 375.052 170.492 379.372 170.492C383.652 170.492 385.972 174.172 385.972 180.252V181.652C385.972 188.132 383.852 191.492 379.452 191.492ZM379.332 195.732C386.812 195.732 391.292 190.252 391.292 181.652V180.212C391.292 171.612 386.572 166.332 379.332 166.332C372.132 166.332 367.332 171.652 367.332 180.332V181.772C367.332 190.372 372.052 195.732 379.332 195.732ZM400.259 195.332H405.619V166.732H400.859L394.219 171.452V176.132L400.259 172.012V195.332Z" fill="black"/>
<path d="M214.184 88.337V78.742H215.647C218.839 78.742 220.169 80.509 220.169 83.435V83.587C220.169 86.589 218.706 88.337 215.666 88.337H214.184ZM211.657 90.332H215.742C220.511 90.332 222.81 87.52 222.81 83.568V83.397C222.81 79.445 220.511 76.747 215.78 76.747H211.657V90.332ZM223.414 90.332H225.789L226.853 86.969H232.04L233.123 90.332H235.745L231.261 76.747H227.955L223.414 90.332ZM229.456 78.818L231.451 85.126H227.442L229.456 78.818ZM243.005 90.522C246.235 90.522 248.553 88.869 248.952 85.601H246.482C246.216 87.52 244.886 88.47 243.005 88.47C240.497 88.47 239.034 86.665 239.034 83.606V83.454C239.034 80.414 240.592 78.552 242.986 78.552C244.943 78.552 245.95 79.483 246.235 81.288H248.8C248.496 78.096 246.083 76.538 242.967 76.538C239.186 76.538 236.374 79.388 236.374 83.473V83.625C236.374 87.805 238.749 90.522 243.005 90.522ZM249.818 90.332H252.193L253.257 86.969H258.444L259.527 90.332H262.149L257.665 76.747H254.359L249.818 90.332ZM255.86 78.818L257.855 85.126H253.846L255.86 78.818ZM266.749 88.337V78.742H268.212C271.404 78.742 272.734 80.509 272.734 83.435V83.587C272.734 86.589 271.271 88.337 268.231 88.337H266.749ZM264.222 90.332H268.307C273.076 90.332 275.375 87.52 275.375 83.568V83.397C275.375 79.445 273.076 76.747 268.345 76.747H264.222V90.332ZM277.786 90.332H286.602V88.337H280.313V84.366H285.101V82.466H280.313V78.742H286.279V76.747H277.786V90.332Z" fill="#3F3F46"/>
<line opacity="0.1" x1="154.099" y1="104.916" x2="344.099" y2="104.916" stroke="#52531B" stroke-width="2"/>
<path d="M360.325 247.916H141.325V466.916H360.325V390.507H324.026C311.491 418.383 283.314 437.836 251.026 437.836C206.504 437.836 170.505 401.537 170.505 357.316C170.505 313.095 206.504 277.096 251.026 277.096C283.916 277.096 312.093 297.151 324.627 325.629H360.325V247.916Z" fill="black"/>
<defs>
<linearGradient id="paint0_linear_14158_15805" x1="249.149" y1="37.8876" x2="249.149" y2="632.959" gradientUnits="userSpaceOnUse">
<stop offset="0.000572331"/>
<stop offset="0.463203" stop-color="#FCFF52"/>
<stop offset="0.961881"/>
</linearGradient>
<linearGradient id="paint1_linear_14158_15805" x1="498.745" y1="6.42815" x2="-22.3987" y2="5.42605" gradientUnits="userSpaceOnUse">
<stop offset="0.015768" stop-color="#FCFF52"/>
<stop offset="0.480532"/>
<stop offset="0.950573" stop-color="#FCFF52"/>
</linearGradient>
<linearGradient id="paint2_linear_14158_15805" x1="20.7119" y1="611.065" x2="8.06334" y2="22.9972" gradientUnits="userSpaceOnUse">
<stop offset="0.0396479" stop-color="#FCFF52"/>
<stop offset="0.451723"/>
<stop offset="0.998103" stop-color="#FDFF67"/>
</linearGradient>
<linearGradient id="paint3_linear_14158_15805" x1="250.041" y1="-73.1322" x2="250.041" y2="556.567" gradientUnits="userSpaceOnUse">
<stop offset="0.074236"/>
<stop offset="0.218297" stop-color="#FCFF52"/>
<stop offset="0.549386"/>
<stop offset="1" stop-color="#FCFF52"/>
</linearGradient>
<linearGradient id="paint4_linear_14158_15805" x1="478.242" y1="30.4364" x2="0.61374" y2="29.4583" gradientUnits="userSpaceOnUse">
<stop offset="0.00582305"/>
<stop offset="0.471312" stop-color="#FCFF52"/>
<stop offset="0.924755"/>
</linearGradient>
</defs>
</svg>
