<svg width="499" height="601" viewBox="0 0 499 601" fill="none" xmlns="http://www.w3.org/2000/svg">
<path d="M498.247 0H0.0498047V372.645C0.0487869 505.642 119.343 600.677 248.521 600.999C378.067 601.323 498.247 504.388 498.247 372.645V0Z" fill="url(#paint0_linear_20193_2843)"/>
<path d="M498.247 0H0L21.4194 23.7126L478.975 23.462L498.247 0Z" fill="url(#paint1_linear_20193_2843)"/>
<path d="M21.7119 366.13V23.9043H478.37V366.13C478.37 486.804 368.299 575.753 249.466 575.456C130.965 575.16 21.711 487.958 21.7119 366.13Z" fill="url(#paint2_linear_20193_2843)" stroke="url(#paint3_linear_20193_2843)" stroke-width="2"/>
<path d="M458.502 46.1816H41.1514V362.713C41.1505 474.612 141.086 554.57 249.301 554.841C357.825 555.113 458.502 473.556 458.502 362.713V46.1816Z" fill="#F15A24"/>
<path d="M477.367 24.9043H22.7109L41.1392 46.302L458.491 46.2478L477.367 24.9043Z" fill="url(#paint4_linear_20193_2843)"/>
<path d="M156.603 151.332V126.932H148.643V122.732H169.923V126.932H161.963V151.332H156.603ZM173.535 158.492L177.335 149.212L169.055 130.412H174.295L179.855 143.892L184.975 130.412H189.695L178.295 158.492H173.535ZM192.925 158.492V130.412H197.765V133.772C198.925 131.772 201.525 129.972 204.605 129.972C209.845 129.972 213.885 133.852 213.885 140.612V140.932C213.885 147.652 210.005 151.732 204.605 151.732C201.285 151.732 198.885 150.092 197.765 148.052V158.492H192.925ZM203.405 147.892C206.965 147.892 208.925 145.492 208.925 141.012V140.692C208.925 136.052 206.525 133.772 203.365 133.772C200.005 133.772 197.605 136.052 197.605 140.692V141.012C197.605 145.692 199.885 147.892 203.405 147.892ZM227.037 151.732C220.877 151.732 216.437 147.692 216.437 141.092V140.772C216.437 134.292 220.877 129.972 226.837 129.972C232.037 129.972 236.717 133.052 236.717 140.532V141.932H221.397C221.557 145.892 223.557 148.132 227.157 148.132C230.077 148.132 231.597 146.972 231.957 144.932H236.637C235.957 149.332 232.397 151.732 227.037 151.732ZM221.477 138.692H231.917C231.677 135.092 229.837 133.492 226.837 133.492C223.917 133.492 221.957 135.452 221.477 138.692ZM250.76 151.732C242.96 151.732 239.68 147.852 239.28 142.452H244.4C244.76 145.332 245.92 147.732 250.76 147.732C253.92 147.732 256.16 145.972 256.16 143.332C256.16 140.692 254.84 139.692 250.2 138.932C243.36 138.012 240.12 135.932 240.12 130.572C240.12 125.892 244.12 122.372 250.08 122.372C256.24 122.372 259.92 125.172 260.48 130.652H255.6C255.08 127.652 253.36 126.372 250.08 126.372C246.84 126.372 245.16 127.932 245.16 130.132C245.16 132.452 246.12 133.612 251.08 134.332C257.8 135.252 261.28 137.172 261.28 142.892C261.28 147.852 257.08 151.732 250.76 151.732ZM274.791 151.732C268.791 151.732 264.231 147.812 264.231 141.132V140.812C264.231 134.172 268.951 129.972 274.791 129.972C279.431 129.972 283.791 132.052 284.351 137.812H279.671C279.271 135.012 277.431 133.852 274.871 133.852C271.551 133.852 269.191 136.412 269.191 140.732V141.052C269.191 145.612 271.431 148.012 274.991 148.012C277.551 148.012 279.751 146.492 280.031 143.532H284.471C284.111 148.332 280.471 151.732 274.791 151.732ZM288.239 151.332V130.412H293.079V134.332C294.399 131.692 296.359 130.132 299.879 130.092V134.612C295.639 134.652 293.079 136.012 293.079 140.452V151.332H288.239ZM303.857 151.332V130.412H308.697V151.332H303.857ZM306.217 126.972C304.617 126.972 303.337 125.772 303.337 124.212C303.337 122.612 304.617 121.412 306.217 121.412C307.817 121.412 309.097 122.612 309.097 124.212C309.097 125.772 307.817 126.972 306.217 126.972ZM314.197 158.492V130.412H319.037V133.772C320.197 131.772 322.797 129.972 325.877 129.972C331.117 129.972 335.157 133.852 335.157 140.612V140.932C335.157 147.652 331.277 151.732 325.877 151.732C322.557 151.732 320.157 150.092 319.037 148.052V158.492H314.197ZM324.677 147.892C328.237 147.892 330.197 145.492 330.197 141.012V140.692C330.197 136.052 327.797 133.772 324.637 133.772C321.277 133.772 318.877 136.052 318.877 140.692V141.012C318.877 145.692 321.157 147.892 324.677 147.892ZM346.229 151.692C342.069 151.692 339.909 149.452 339.909 145.492V134.052H337.109V130.412H339.909V125.812H344.749V130.412H349.349V134.052H344.749V145.052C344.749 146.892 345.629 147.732 347.149 147.732C348.109 147.732 348.829 147.612 349.509 147.332V151.172C348.749 151.452 347.709 151.692 346.229 151.692ZM94.0143 191.132H97.1343C103.534 191.132 106.614 187.452 106.614 181.132V180.812C106.614 174.652 103.814 170.932 97.0943 170.932H94.0143V191.132ZM88.6943 195.332V166.732H97.3743C107.334 166.732 112.174 172.412 112.174 180.732V181.092C112.174 189.412 107.334 195.332 97.2943 195.332H88.6943ZM125.649 195.732C119.489 195.732 115.049 191.692 115.049 185.092V184.772C115.049 178.292 119.489 173.972 125.449 173.972C130.649 173.972 135.329 177.052 135.329 184.532V185.932H120.009C120.169 189.892 122.169 192.132 125.769 192.132C128.689 192.132 130.209 190.972 130.569 188.932H135.249C134.569 193.332 131.009 195.732 125.649 195.732ZM120.089 182.692H130.529C130.289 179.092 128.449 177.492 125.449 177.492C122.529 177.492 120.569 179.452 120.089 182.692ZM144.341 195.332L136.701 174.412H141.901L147.381 190.372L152.781 174.412H157.541L149.981 195.332H144.341ZM169.146 195.732C162.986 195.732 158.546 191.692 158.546 185.092V184.772C158.546 178.292 162.986 173.972 168.946 173.972C174.146 173.972 178.826 177.052 178.826 184.532V185.932H163.506C163.666 189.892 165.666 192.132 169.266 192.132C172.186 192.132 173.706 190.972 174.066 188.932H178.746C178.066 193.332 174.506 195.732 169.146 195.732ZM163.586 182.692H174.026C173.786 179.092 171.946 177.492 168.946 177.492C166.026 177.492 164.066 179.452 163.586 182.692ZM182.869 195.332V164.732H187.709V195.332H182.869ZM202.568 191.972C206.168 191.972 208.328 189.292 208.328 185.012V184.732C208.328 180.412 206.168 177.772 202.568 177.772C198.968 177.772 196.768 180.372 196.768 184.692V185.012C196.768 189.292 198.888 191.972 202.568 191.972ZM202.528 195.732C196.368 195.732 191.808 191.452 191.808 185.092V184.772C191.808 178.292 196.408 173.972 202.568 173.972C208.688 173.972 213.288 178.252 213.288 184.652V184.972C213.288 191.492 208.688 195.732 202.528 195.732ZM217.261 202.492V174.412H222.101V177.772C223.261 175.772 225.861 173.972 228.941 173.972C234.181 173.972 238.221 177.852 238.221 184.612V184.932C238.221 191.652 234.341 195.732 228.941 195.732C225.621 195.732 223.221 194.092 222.101 192.052V202.492H217.261ZM227.741 191.892C231.301 191.892 233.261 189.492 233.261 185.012V184.692C233.261 180.052 230.861 177.772 227.701 177.772C224.341 177.772 221.941 180.052 221.941 184.692V185.012C221.941 189.692 224.221 191.892 227.741 191.892ZM242.174 195.332V174.412H247.014V177.612C248.014 175.652 250.294 173.972 253.374 173.972C256.094 173.972 258.254 175.132 259.294 177.732C260.894 175.132 263.774 173.972 266.374 173.972C270.214 173.972 273.334 176.332 273.334 182.092V195.332H268.494V182.412C268.494 179.332 267.174 178.012 264.774 178.012C262.374 178.012 260.174 179.612 260.174 182.812V195.332H255.334V182.412C255.334 179.332 253.974 178.012 251.614 178.012C249.214 178.012 247.014 179.612 247.014 182.812V195.332H242.174ZM287.693 195.732C281.533 195.732 277.093 191.692 277.093 185.092V184.772C277.093 178.292 281.533 173.972 287.493 173.972C292.693 173.972 297.373 177.052 297.373 184.532V185.932H282.053C282.213 189.892 284.213 192.132 287.813 192.132C290.733 192.132 292.253 190.972 292.613 188.932H297.293C296.613 193.332 293.053 195.732 287.693 195.732ZM282.133 182.692H292.573C292.333 179.092 290.493 177.492 287.493 177.492C284.573 177.492 282.613 179.452 282.133 182.692ZM301.296 195.332V174.412H306.136V177.732C307.136 175.692 309.456 173.972 312.896 173.972C317.096 173.972 320.056 176.412 320.056 182.172V195.332H315.216V182.612C315.216 179.452 313.936 178.012 311.056 178.012C308.336 178.012 306.136 179.692 306.136 183.012V195.332H301.296ZM332.352 195.692C328.192 195.692 326.032 193.452 326.032 189.492V178.052H323.232V174.412H326.032V169.812H330.872V174.412H335.472V178.052H330.872V189.052C330.872 190.892 331.752 191.732 333.272 191.732C334.232 191.732 334.952 191.612 335.632 191.332V195.172C334.872 195.452 333.832 195.692 332.352 195.692ZM346.449 195.332V194.372L357.249 182.972C359.969 180.092 361.609 177.572 361.609 174.852C361.609 172.172 360.089 170.492 357.329 170.492C354.489 170.492 352.689 172.132 352.209 176.172H347.329C347.689 169.932 351.449 166.332 357.489 166.332C363.409 166.332 366.929 169.732 366.929 174.772C366.929 178.492 364.729 181.732 361.329 185.012L354.969 191.212H367.129V195.332H346.449ZM382.538 191.492C386.938 191.492 389.058 188.132 389.058 181.652V180.252C389.058 174.172 386.738 170.492 382.458 170.492C378.138 170.492 375.778 173.932 375.778 180.292V181.732C375.778 188.212 378.258 191.492 382.538 191.492ZM382.418 195.732C375.138 195.732 370.418 190.372 370.418 181.772V180.332C370.418 171.652 375.218 166.332 382.418 166.332C389.658 166.332 394.378 171.612 394.378 180.212V181.652C394.378 190.252 389.898 195.732 382.418 195.732ZM403.345 195.332V172.012L397.305 176.132V171.452L403.945 166.732H408.705V195.332H403.345Z" fill="white"/>
<path d="M214.184 88.337H215.666C218.706 88.337 220.169 86.589 220.169 83.587V83.435C220.169 80.509 218.839 78.742 215.647 78.742H214.184V88.337ZM211.657 90.332V76.747H215.78C220.511 76.747 222.81 79.445 222.81 83.397V83.568C222.81 87.52 220.511 90.332 215.742 90.332H211.657ZM223.414 90.332L227.955 76.747H231.261L235.745 90.332H233.123L232.04 86.969H226.853L225.789 90.332H223.414ZM229.456 78.818L227.442 85.126H231.451L229.456 78.818ZM243.005 90.522C238.749 90.522 236.374 87.805 236.374 83.625V83.473C236.374 79.388 239.186 76.538 242.967 76.538C246.083 76.538 248.496 78.096 248.8 81.288H246.235C245.95 79.483 244.943 78.552 242.986 78.552C240.592 78.552 239.034 80.414 239.034 83.454V83.606C239.034 86.665 240.497 88.47 243.005 88.47C244.886 88.47 246.216 87.52 246.482 85.601H248.952C248.553 88.869 246.235 90.522 243.005 90.522ZM249.818 90.332L254.359 76.747H257.665L262.149 90.332H259.527L258.444 86.969H253.257L252.193 90.332H249.818ZM255.86 78.818L253.846 85.126H257.855L255.86 78.818ZM266.749 88.337H268.231C271.271 88.337 272.734 86.589 272.734 83.587V83.435C272.734 80.509 271.404 78.742 268.212 78.742H266.749V88.337ZM264.222 90.332V76.747H268.345C273.076 76.747 275.375 79.445 275.375 83.397V83.568C275.375 87.52 273.076 90.332 268.307 90.332H264.222ZM277.786 90.332V76.747H286.279V78.742H280.313V82.466H285.101V84.366H280.313V88.337H286.602V90.332H277.786Z" fill="#FAFAFA"/>
<line opacity="0.4" x1="154.099" y1="107.916" x2="344.099" y2="107.916" stroke="#9CA3AF" stroke-width="2"/>
<g clip-path="url(#clip0_20193_2843)">
<path d="M354.044 356.685C354.044 297.718 306.353 249.916 247.522 249.916C188.691 249.916 140.999 297.718 140.999 356.685C140.999 415.651 188.691 463.453 247.522 463.453C306.353 463.453 354.044 415.651 354.044 356.685Z" fill="#522785"/>
<path d="M359 433.658C359 414.46 343.473 398.896 324.319 398.896C305.164 398.896 289.637 414.46 289.637 433.658C289.637 452.857 305.164 468.42 324.319 468.42C343.473 468.42 359 452.857 359 433.658Z" fill="white"/>
</g>
<defs>
<linearGradient id="paint0_linear_20193_2843" x1="249.149" y1="37.8876" x2="249.149" y2="632.959" gradientUnits="userSpaceOnUse">
<stop offset="0.000572331" stop-color="#F15A24"/>
<stop offset="0.463203" stop-color="#47110A"/>
<stop offset="0.961881" stop-color="#F15A24"/>
</linearGradient>
<linearGradient id="paint1_linear_20193_2843" x1="498.745" y1="6.42815" x2="-22.3987" y2="5.42605" gradientUnits="userSpaceOnUse">
<stop offset="0.015668" stop-color="#47110A"/>
<stop offset="0.015768" stop-color="#47110A"/>
<stop offset="0.480532" stop-color="#F15A24"/>
<stop offset="0.950573" stop-color="#47110A"/>
</linearGradient>
<linearGradient id="paint2_linear_20193_2843" x1="20.7119" y1="611.065" x2="8.06334" y2="22.9972" gradientUnits="userSpaceOnUse">
<stop offset="0.0396479" stop-color="#47110A"/>
<stop offset="0.451723" stop-color="#F15A24"/>
<stop offset="0.998103" stop-color="#47110A"/>
</linearGradient>
<linearGradient id="paint3_linear_20193_2843" x1="250.041" y1="-73.1322" x2="250.041" y2="556.567" gradientUnits="userSpaceOnUse">
<stop offset="0.074236" stop-color="#F15A24"/>
<stop offset="0.218297" stop-color="#47110A"/>
<stop offset="0.549386" stop-color="#F15A24"/>
<stop offset="1" stop-color="#47110A"/>
</linearGradient>
<linearGradient id="paint4_linear_20193_2843" x1="478.242" y1="30.4364" x2="0.613862" y2="29.4583" gradientUnits="userSpaceOnUse">
<stop offset="0.00582305" stop-color="#F15A24"/>
<stop offset="0.471312" stop-color="#47110A"/>
<stop offset="0.924755" stop-color="#F15A24"/>
</linearGradient>
<clipPath id="clip0_20193_2843">
<rect width="218" height="218.503" fill="white" transform="translate(140.999 249.916)"/>
</clipPath>
</defs>
</svg>
