<svg width="499" height="601" viewBox="0 0 499 601" fill="none" xmlns="http://www.w3.org/2000/svg">
<path d="M498.247 0H0.0498047V372.645C0.0487869 505.642 119.343 600.677 248.521 600.999C378.067 601.323 498.247 504.388 498.247 372.645V0Z" fill="url(#paint0_linear_20227_471)"/>
<path d="M498.247 0H0L21.4194 23.7126L478.975 23.462L498.247 0Z" fill="url(#paint1_linear_20227_471)"/>
<path d="M21.7119 366.13V23.9043H478.37V366.13C478.37 486.804 368.299 575.753 249.466 575.456C130.965 575.16 21.711 487.958 21.7119 366.13Z" fill="url(#paint2_linear_20227_471)" stroke="url(#paint3_linear_20227_471)" stroke-width="2"/>
<path d="M458.502 46.1816H41.1514V362.713C41.1505 474.612 141.086 554.57 249.301 554.841C357.825 555.113 458.502 473.556 458.502 362.713V46.1816Z" fill="#F15A24"/>
<path d="M477.367 24.9043H22.7109L41.1392 46.302L458.491 46.2478L477.367 24.9043Z" fill="url(#paint4_linear_20227_471)"/>
<path d="M87.5416 151.732C78.5816 151.732 73.5816 146.012 73.5816 137.212V136.892C73.5816 128.292 79.5016 122.292 87.4616 122.292C94.0216 122.292 99.1016 125.572 99.7416 132.292H94.3416C93.7416 128.492 91.6216 126.532 87.5016 126.532C82.4616 126.532 79.1816 130.452 79.1816 136.852V137.172C79.1816 143.612 82.2616 147.412 87.5416 147.412C91.5016 147.412 94.3016 145.412 94.8616 141.372H100.062C99.2216 148.252 94.3416 151.732 87.5416 151.732ZM113.07 151.732C106.91 151.732 102.47 147.692 102.47 141.092V140.772C102.47 134.292 106.91 129.972 112.87 129.972C118.07 129.972 122.75 133.052 122.75 140.532V141.932H107.43C107.59 145.892 109.59 148.132 113.19 148.132C116.11 148.132 117.63 146.972 117.99 144.932H122.67C121.99 149.332 118.43 151.732 113.07 151.732ZM107.51 138.692H117.95C117.71 135.092 115.87 133.492 112.87 133.492C109.95 133.492 107.99 135.452 107.51 138.692ZM126.673 151.332V130.412H131.513V133.732C132.513 131.692 134.833 129.972 138.273 129.972C142.473 129.972 145.433 132.412 145.433 138.172V151.332H140.593V138.612C140.593 135.452 139.313 134.012 136.433 134.012C133.713 134.012 131.513 135.692 131.513 139.012V151.332H126.673ZM157.729 151.692C153.569 151.692 151.409 149.452 151.409 145.492V134.052H148.609V130.412H151.409V125.812H156.249V130.412H160.849V134.052H156.249V145.052C156.249 146.892 157.129 147.732 158.649 147.732C159.609 147.732 160.329 147.612 161.009 147.332V151.172C160.249 151.452 159.209 151.692 157.729 151.692ZM164.975 151.332V130.412H169.815V134.332C171.135 131.692 173.095 130.132 176.615 130.092V134.612C172.375 134.652 169.815 136.012 169.815 140.452V151.332H164.975ZM185.563 151.732C181.723 151.732 178.563 149.892 178.563 145.532C178.563 140.652 183.283 138.892 189.283 138.892H191.883V137.812C191.883 135.012 190.923 133.612 188.083 133.612C185.563 133.612 184.323 134.812 184.083 136.892H179.403C179.803 132.012 183.683 129.972 188.363 129.972C193.043 129.972 196.723 131.892 196.723 137.612V151.332H191.963V148.772C190.603 150.572 188.763 151.732 185.563 151.732ZM186.723 148.252C189.683 148.252 191.883 146.692 191.883 144.012V141.932H189.403C185.723 141.932 183.363 142.772 183.363 145.332C183.363 147.092 184.323 148.252 186.723 148.252ZM201.99 151.332V120.732H206.83V151.332H201.99ZM221.861 151.332V122.732H239.741V126.932H227.181V134.772H237.261V138.772H227.181V147.132H240.421V151.332H221.861ZM251.42 151.732C247.3 151.732 244.22 149.372 244.22 143.812V130.412H249.06V143.252C249.06 146.412 250.38 147.852 253.18 147.852C255.78 147.852 258.06 146.172 258.06 142.852V130.412H262.9V151.332H258.06V148.052C257.02 150.092 254.82 151.732 251.42 151.732ZM268.239 151.332V130.412H273.079V134.332C274.399 131.692 276.359 130.132 279.879 130.092V134.612C275.639 134.652 273.079 136.012 273.079 140.452V151.332H268.239ZM292.707 147.972C296.307 147.972 298.467 145.292 298.467 141.012V140.732C298.467 136.412 296.307 133.772 292.707 133.772C289.107 133.772 286.907 136.372 286.907 140.692V141.012C286.907 145.292 289.027 147.972 292.707 147.972ZM292.667 151.732C286.507 151.732 281.947 147.452 281.947 141.092V140.772C281.947 134.292 286.547 129.972 292.707 129.972C298.827 129.972 303.427 134.252 303.427 140.652V140.972C303.427 147.492 298.827 151.732 292.667 151.732ZM307.4 158.492V130.412H312.24V133.772C313.4 131.772 316 129.972 319.08 129.972C324.32 129.972 328.36 133.852 328.36 140.612V140.932C328.36 147.652 324.48 151.732 319.08 151.732C315.76 151.732 313.36 150.092 312.24 148.052V158.492H307.4ZM317.88 147.892C321.44 147.892 323.4 145.492 323.4 141.012V140.692C323.4 136.052 321 133.772 317.84 133.772C314.48 133.772 312.08 136.052 312.08 140.692V141.012C312.08 145.692 314.36 147.892 317.88 147.892ZM341.512 151.732C335.352 151.732 330.912 147.692 330.912 141.092V140.772C330.912 134.292 335.352 129.972 341.312 129.972C346.512 129.972 351.192 133.052 351.192 140.532V141.932H335.872C336.032 145.892 338.032 148.132 341.632 148.132C344.552 148.132 346.072 146.972 346.432 144.932H351.112C350.432 149.332 346.872 151.732 341.512 151.732ZM335.952 138.692H346.392C346.152 135.092 344.312 133.492 341.312 133.492C338.392 133.492 336.432 135.452 335.952 138.692ZM364.807 151.332V122.732H370.167V151.332H364.807ZM389.032 151.732C380.072 151.732 375.072 146.012 375.072 137.212V136.892C375.072 128.292 380.992 122.292 388.952 122.292C395.512 122.292 400.592 125.572 401.232 132.292H395.832C395.232 128.492 393.112 126.532 388.992 126.532C383.952 126.532 380.672 130.452 380.672 136.852V137.172C380.672 143.612 383.752 147.412 389.032 147.412C392.992 147.412 395.792 145.412 396.352 141.372H401.552C400.712 148.252 395.832 151.732 389.032 151.732ZM405.761 151.332V122.732H414.961C421.361 122.732 425.561 125.572 425.561 131.572V131.732C425.561 137.772 421.201 140.452 415.081 140.452H411.081V151.332H405.761ZM411.081 136.612H414.961C418.481 136.612 420.361 134.892 420.361 131.732V131.572C420.361 128.172 418.361 126.852 414.961 126.852H411.081V136.612ZM90.626 195.732C82.826 195.732 79.546 191.852 79.146 186.452H84.266C84.626 189.332 85.786 191.732 90.626 191.732C93.786 191.732 96.026 189.972 96.026 187.332C96.026 184.692 94.706 183.692 90.066 182.932C83.226 182.012 79.986 179.932 79.986 174.572C79.986 169.892 83.986 166.372 89.946 166.372C96.106 166.372 99.786 169.172 100.346 174.652H95.466C94.946 171.652 93.226 170.372 89.946 170.372C86.706 170.372 85.026 171.932 85.026 174.132C85.026 176.452 85.986 177.612 90.946 178.332C97.666 179.252 101.146 181.172 101.146 186.892C101.146 191.852 96.946 195.732 90.626 195.732ZM105.497 202.492V174.412H110.337V177.772C111.497 175.772 114.097 173.972 117.177 173.972C122.417 173.972 126.457 177.852 126.457 184.612V184.932C126.457 191.652 122.577 195.732 117.177 195.732C113.857 195.732 111.457 194.092 110.337 192.052V202.492H105.497ZM115.977 191.892C119.537 191.892 121.497 189.492 121.497 185.012V184.692C121.497 180.052 119.097 177.772 115.937 177.772C112.577 177.772 110.177 180.052 110.177 184.692V185.012C110.177 189.692 112.457 191.892 115.977 191.892ZM130.529 195.332V174.412H135.369V195.332H130.529ZM132.889 170.972C131.289 170.972 130.009 169.772 130.009 168.212C130.009 166.612 131.289 165.412 132.889 165.412C134.489 165.412 135.769 166.612 135.769 168.212C135.769 169.772 134.489 170.972 132.889 170.972ZM150.028 195.732C144.028 195.732 139.468 191.812 139.468 185.132V184.812C139.468 178.172 144.188 173.972 150.028 173.972C154.668 173.972 159.028 176.052 159.588 181.812H154.908C154.508 179.012 152.668 177.852 150.108 177.852C146.788 177.852 144.428 180.412 144.428 184.732V185.052C144.428 189.612 146.668 192.012 150.228 192.012C152.788 192.012 154.988 190.492 155.268 187.532H159.708C159.348 192.332 155.708 195.732 150.028 195.732ZM172.676 195.732C166.516 195.732 162.076 191.692 162.076 185.092V184.772C162.076 178.292 166.516 173.972 172.476 173.972C177.676 173.972 182.356 177.052 182.356 184.532V185.932H167.036C167.196 189.892 169.196 192.132 172.796 192.132C175.716 192.132 177.236 190.972 177.596 188.932H182.276C181.596 193.332 178.036 195.732 172.676 195.732ZM167.116 182.692H177.556C177.316 179.092 175.476 177.492 172.476 177.492C169.556 177.492 167.596 179.452 167.116 182.692ZM194.119 195.732C188.879 195.732 184.919 192.012 184.919 185.212V184.892C184.919 178.212 188.879 173.972 194.319 173.972C197.719 173.972 199.839 175.532 200.999 177.612V164.732H205.839V195.332H200.999V191.812C199.879 193.892 197.199 195.732 194.119 195.732ZM195.319 191.892C198.679 191.892 201.159 189.652 201.159 184.972V184.652C201.159 180.052 199.039 177.772 195.519 177.772C191.959 177.772 189.879 180.252 189.879 184.772V185.092C189.879 189.692 192.199 191.892 195.319 191.892ZM220.723 195.332V166.732H226.043V178.892H238.883V166.732H244.243V195.332H238.883V183.172H226.043V195.332H220.723ZM255.247 195.732C251.407 195.732 248.247 193.892 248.247 189.532C248.247 184.652 252.967 182.892 258.967 182.892H261.567V181.812C261.567 179.012 260.607 177.612 257.767 177.612C255.247 177.612 254.007 178.812 253.767 180.892H249.087C249.487 176.012 253.367 173.972 258.047 173.972C262.727 173.972 266.407 175.892 266.407 181.612V195.332H261.647V192.772C260.287 194.572 258.447 195.732 255.247 195.732ZM256.407 192.252C259.367 192.252 261.567 190.692 261.567 188.012V185.932H259.087C255.407 185.932 253.047 186.772 253.047 189.332C253.047 191.092 254.007 192.252 256.407 192.252ZM280.714 195.732C274.714 195.732 270.154 191.812 270.154 185.132V184.812C270.154 178.172 274.874 173.972 280.714 173.972C285.354 173.972 289.714 176.052 290.274 181.812H285.594C285.194 179.012 283.354 177.852 280.794 177.852C277.474 177.852 275.114 180.412 275.114 184.732V185.052C275.114 189.612 277.354 192.012 280.914 192.012C283.474 192.012 285.674 190.492 285.954 187.532H290.394C290.034 192.332 286.394 195.732 280.714 195.732ZM294.162 195.332V164.732H299.002V183.612L306.482 174.412H311.762L303.642 184.012L312.442 195.332H306.842L299.002 185.052V195.332H294.162ZM320.453 195.732C316.613 195.732 313.453 193.892 313.453 189.532C313.453 184.652 318.173 182.892 324.173 182.892H326.773V181.812C326.773 179.012 325.813 177.612 322.973 177.612C320.453 177.612 319.213 178.812 318.973 180.892H314.293C314.693 176.012 318.573 173.972 323.253 173.972C327.933 173.972 331.613 175.892 331.613 181.612V195.332H326.853V192.772C325.493 194.572 323.653 195.732 320.453 195.732ZM321.613 192.252C324.573 192.252 326.773 190.692 326.773 188.012V185.932H324.293C320.613 185.932 318.253 186.772 318.253 189.332C318.253 191.092 319.213 192.252 321.613 192.252ZM343.881 195.692C339.721 195.692 337.561 193.452 337.561 189.492V178.052H334.761V174.412H337.561V169.812H342.401V174.412H347.001V178.052H342.401V189.052C342.401 190.892 343.281 191.732 344.801 191.732C345.761 191.732 346.481 191.612 347.161 191.332V195.172C346.401 195.452 345.361 195.692 343.881 195.692ZM351.126 195.332V164.732H355.966V177.732C356.966 175.692 359.286 173.972 362.726 173.972C366.926 173.972 369.886 176.412 369.886 182.172V195.332H365.046V182.612C365.046 179.452 363.766 178.012 360.886 178.012C358.166 178.012 355.966 179.692 355.966 183.012V195.332H351.126ZM384.422 191.972C388.022 191.972 390.182 189.292 390.182 185.012V184.732C390.182 180.412 388.022 177.772 384.422 177.772C380.822 177.772 378.622 180.372 378.622 184.692V185.012C378.622 189.292 380.742 191.972 384.422 191.972ZM384.382 195.732C378.222 195.732 373.662 191.452 373.662 185.092V184.772C373.662 178.292 378.262 173.972 384.422 173.972C390.542 173.972 395.142 178.252 395.142 184.652V184.972C395.142 191.492 390.542 195.732 384.382 195.732ZM399.115 195.332V174.412H403.955V177.732C404.955 175.692 407.275 173.972 410.715 173.972C414.915 173.972 417.875 176.412 417.875 182.172V195.332H413.035V182.612C413.035 179.452 411.755 178.012 408.875 178.012C406.155 178.012 403.955 179.692 403.955 183.012V195.332H399.115Z" fill="white"/>
<path d="M214.184 88.337H215.666C218.706 88.337 220.169 86.589 220.169 83.587V83.435C220.169 80.509 218.839 78.742 215.647 78.742H214.184V88.337ZM211.657 90.332V76.747H215.78C220.511 76.747 222.81 79.445 222.81 83.397V83.568C222.81 87.52 220.511 90.332 215.742 90.332H211.657ZM223.414 90.332L227.955 76.747H231.261L235.745 90.332H233.123L232.04 86.969H226.853L225.789 90.332H223.414ZM229.456 78.818L227.442 85.126H231.451L229.456 78.818ZM243.005 90.522C238.749 90.522 236.374 87.805 236.374 83.625V83.473C236.374 79.388 239.186 76.538 242.967 76.538C246.083 76.538 248.496 78.096 248.8 81.288H246.235C245.95 79.483 244.943 78.552 242.986 78.552C240.592 78.552 239.034 80.414 239.034 83.454V83.606C239.034 86.665 240.497 88.47 243.005 88.47C244.886 88.47 246.216 87.52 246.482 85.601H248.952C248.553 88.869 246.235 90.522 243.005 90.522ZM249.818 90.332L254.359 76.747H257.665L262.149 90.332H259.527L258.444 86.969H253.257L252.193 90.332H249.818ZM255.86 78.818L253.846 85.126H257.855L255.86 78.818ZM266.749 88.337H268.231C271.271 88.337 272.734 86.589 272.734 83.587V83.435C272.734 80.509 271.404 78.742 268.212 78.742H266.749V88.337ZM264.222 90.332V76.747H268.345C273.076 76.747 275.375 79.445 275.375 83.397V83.568C275.375 87.52 273.076 90.332 268.307 90.332H264.222ZM277.786 90.332V76.747H286.279V78.742H280.313V82.466H285.101V84.366H280.313V88.337H286.602V90.332H277.786Z" fill="#FAFAFA"/>
<line opacity="0.4" x1="154.099" y1="107.916" x2="344.099" y2="107.916" stroke="#9CA3AF" stroke-width="2"/>
<g clip-path="url(#clip0_20227_471)">
<path d="M354.044 356.685C354.044 297.718 306.353 249.916 247.522 249.916C188.691 249.916 140.999 297.718 140.999 356.685C140.999 415.651 188.691 463.453 247.522 463.453C306.353 463.453 354.044 415.651 354.044 356.685Z" fill="#522785"/>
<path d="M359 433.658C359 414.46 343.473 398.896 324.319 398.896C305.164 398.896 289.637 414.46 289.637 433.658C289.637 452.857 305.164 468.42 324.319 468.42C343.473 468.42 359 452.857 359 433.658Z" fill="white"/>
</g>
<defs>
<linearGradient id="paint0_linear_20227_471" x1="249.149" y1="37.8876" x2="249.149" y2="632.959" gradientUnits="userSpaceOnUse">
<stop offset="0.000572331" stop-color="#F15A24"/>
<stop offset="0.463203" stop-color="#47110A"/>
<stop offset="0.961881" stop-color="#F15A24"/>
</linearGradient>
<linearGradient id="paint1_linear_20227_471" x1="498.745" y1="6.42815" x2="-22.3987" y2="5.42605" gradientUnits="userSpaceOnUse">
<stop offset="0.015668" stop-color="#47110A"/>
<stop offset="0.015768" stop-color="#47110A"/>
<stop offset="0.480532" stop-color="#F15A24"/>
<stop offset="0.950573" stop-color="#47110A"/>
</linearGradient>
<linearGradient id="paint2_linear_20227_471" x1="20.7119" y1="611.065" x2="8.06334" y2="22.9972" gradientUnits="userSpaceOnUse">
<stop offset="0.0396479" stop-color="#47110A"/>
<stop offset="0.451723" stop-color="#F15A24"/>
<stop offset="0.998103" stop-color="#47110A"/>
</linearGradient>
<linearGradient id="paint3_linear_20227_471" x1="250.041" y1="-73.1322" x2="250.041" y2="556.567" gradientUnits="userSpaceOnUse">
<stop offset="0.074236" stop-color="#F15A24"/>
<stop offset="0.218297" stop-color="#47110A"/>
<stop offset="0.549386" stop-color="#F15A24"/>
<stop offset="1" stop-color="#47110A"/>
</linearGradient>
<linearGradient id="paint4_linear_20227_471" x1="478.242" y1="30.4364" x2="0.613862" y2="29.4583" gradientUnits="userSpaceOnUse">
<stop offset="0.00582305" stop-color="#F15A24"/>
<stop offset="0.471312" stop-color="#47110A"/>
<stop offset="0.924755" stop-color="#F15A24"/>
</linearGradient>
<clipPath id="clip0_20227_471">
<rect width="218" height="218.503" fill="white" transform="translate(140.999 249.916)"/>
</clipPath>
</defs>
</svg>
