<svg width="499" height="601" viewBox="0 0 499 601" fill="none" xmlns="http://www.w3.org/2000/svg">
<path d="M498.247 0H0.0498047V372.645C0.0487869 505.642 119.343 600.677 248.521 600.999C378.067 601.323 498.247 504.388 498.247 372.645V0Z" fill="url(#paint0_linear_19811_867)"/>
<path d="M498.247 0H0L21.4194 23.7126L478.975 23.462L498.247 0Z" fill="url(#paint1_linear_19811_867)"/>
<path d="M21.7119 23.9043H478.37V366.13C478.37 486.804 368.299 575.753 249.466 575.456C130.965 575.16 21.711 487.958 21.7119 366.13V23.9043Z" fill="url(#paint2_linear_19811_867)" stroke="url(#paint3_linear_19811_867)" stroke-width="2"/>
<path d="M458.502 46.1816H41.1514V362.713C41.1505 474.612 141.086 554.57 249.301 554.841C357.825 555.113 458.502 473.556 458.502 362.713V46.1816Z" fill="#F15A24"/>
<path d="M477.367 24.9043H22.7109L41.1392 46.302L458.491 46.2478L477.367 24.9043Z" fill="url(#paint4_linear_19811_867)"/>
<path d="M95.4588 151.332V126.932H87.4988V122.732H108.779V126.932H100.819V151.332H95.4588ZM112.392 158.492L116.192 149.212L107.912 130.412H113.152L118.712 143.892L123.832 130.412H128.552L117.152 158.492H112.392ZM131.781 158.492V130.412H136.621V133.772C137.781 131.772 140.381 129.972 143.461 129.972C148.701 129.972 152.741 133.852 152.741 140.612V140.932C152.741 147.652 148.861 151.732 143.461 151.732C140.141 151.732 137.741 150.092 136.621 148.052V158.492H131.781ZM142.261 147.892C145.821 147.892 147.781 145.492 147.781 141.012V140.692C147.781 136.052 145.381 133.772 142.221 133.772C138.861 133.772 136.461 136.052 136.461 140.692V141.012C136.461 145.692 138.741 147.892 142.261 147.892ZM165.893 151.732C159.733 151.732 155.293 147.692 155.293 141.092V140.772C155.293 134.292 159.733 129.972 165.693 129.972C170.893 129.972 175.573 133.052 175.573 140.532V141.932H160.253C160.413 145.892 162.413 148.132 166.013 148.132C168.933 148.132 170.453 146.972 170.813 144.932H175.493C174.813 149.332 171.253 151.732 165.893 151.732ZM160.333 138.692H170.773C170.533 135.092 168.693 133.492 165.693 133.492C162.773 133.492 160.813 135.452 160.333 138.692ZM189.617 151.732C181.817 151.732 178.537 147.852 178.137 142.452H183.257C183.617 145.332 184.777 147.732 189.617 147.732C192.777 147.732 195.017 145.972 195.017 143.332C195.017 140.692 193.697 139.692 189.057 138.932C182.217 138.012 178.977 135.932 178.977 130.572C178.977 125.892 182.977 122.372 188.937 122.372C195.097 122.372 198.777 125.172 199.337 130.652H194.457C193.937 127.652 192.217 126.372 188.937 126.372C185.697 126.372 184.017 127.932 184.017 130.132C184.017 132.452 184.977 133.612 189.937 134.332C196.657 135.252 200.137 137.172 200.137 142.892C200.137 147.852 195.937 151.732 189.617 151.732ZM213.647 151.732C207.647 151.732 203.087 147.812 203.087 141.132V140.812C203.087 134.172 207.807 129.972 213.647 129.972C218.287 129.972 222.647 132.052 223.207 137.812H218.527C218.127 135.012 216.287 133.852 213.727 133.852C210.407 133.852 208.047 136.412 208.047 140.732V141.052C208.047 145.612 210.287 148.012 213.847 148.012C216.407 148.012 218.607 146.492 218.887 143.532H223.327C222.967 148.332 219.327 151.732 213.647 151.732ZM227.095 151.332V130.412H231.935V134.332C233.255 131.692 235.215 130.132 238.735 130.092V134.612C234.495 134.652 231.935 136.012 231.935 140.452V151.332H227.095ZM242.713 151.332V130.412H247.553V151.332H242.713ZM245.073 126.972C243.473 126.972 242.193 125.772 242.193 124.212C242.193 122.612 243.473 121.412 245.073 121.412C246.673 121.412 247.953 122.612 247.953 124.212C247.953 125.772 246.673 126.972 245.073 126.972ZM253.053 158.492V130.412H257.893V133.772C259.053 131.772 261.653 129.972 264.733 129.972C269.973 129.972 274.013 133.852 274.013 140.612V140.932C274.013 147.652 270.133 151.732 264.733 151.732C261.413 151.732 259.013 150.092 257.893 148.052V158.492H253.053ZM263.533 147.892C267.093 147.892 269.053 145.492 269.053 141.012V140.692C269.053 136.052 266.653 133.772 263.493 133.772C260.133 133.772 257.733 136.052 257.733 140.692V141.012C257.733 145.692 260.013 147.892 263.533 147.892ZM285.085 151.692C280.925 151.692 278.765 149.452 278.765 145.492V134.052H275.965V130.412H278.765V125.812H283.605V130.412H288.205V134.052H283.605V145.052C283.605 146.892 284.485 147.732 286.005 147.732C286.965 147.732 287.685 147.612 288.365 147.332V151.172C287.605 151.452 286.565 151.692 285.085 151.692ZM311.582 151.732C303.782 151.732 300.502 147.852 300.102 142.452H305.222C305.582 145.332 306.742 147.732 311.582 147.732C314.742 147.732 316.982 145.972 316.982 143.332C316.982 140.692 315.662 139.692 311.022 138.932C304.182 138.012 300.942 135.932 300.942 130.572C300.942 125.892 304.942 122.372 310.902 122.372C317.062 122.372 320.742 125.172 321.302 130.652H316.422C315.902 127.652 314.182 126.372 310.902 126.372C307.662 126.372 305.982 127.932 305.982 130.132C305.982 132.452 306.942 133.612 311.902 134.332C318.622 135.252 322.102 137.172 322.102 142.892C322.102 147.852 317.902 151.732 311.582 151.732ZM326.453 151.332V130.412H331.293V133.612C332.293 131.652 334.573 129.972 337.653 129.972C340.373 129.972 342.533 131.132 343.573 133.732C345.173 131.132 348.053 129.972 350.653 129.972C354.493 129.972 357.613 132.332 357.613 138.092V151.332H352.773V138.412C352.773 135.332 351.453 134.012 349.053 134.012C346.653 134.012 344.453 135.612 344.453 138.812V151.332H339.613V138.412C339.613 135.332 338.253 134.012 335.893 134.012C333.493 134.012 331.293 135.612 331.293 138.812V151.332H326.453ZM368.252 151.732C364.412 151.732 361.252 149.892 361.252 145.532C361.252 140.652 365.972 138.892 371.972 138.892H374.572V137.812C374.572 135.012 373.612 133.612 370.772 133.612C368.252 133.612 367.012 134.812 366.772 136.892H362.092C362.492 132.012 366.372 129.972 371.052 129.972C375.732 129.972 379.412 131.892 379.412 137.612V151.332H374.652V148.772C373.292 150.572 371.452 151.732 368.252 151.732ZM369.412 148.252C372.372 148.252 374.572 146.692 374.572 144.012V141.932H372.092C368.412 141.932 366.052 142.772 366.052 145.332C366.052 147.092 367.012 148.252 369.412 148.252ZM384.559 151.332V130.412H389.399V134.332C390.719 131.692 392.679 130.132 396.199 130.092V134.612C391.959 134.652 389.399 136.012 389.399 140.452V151.332H384.559ZM407.373 151.692C403.213 151.692 401.053 149.452 401.053 145.492V134.052H398.253V130.412H401.053V125.812H405.893V130.412H410.493V134.052H405.893V145.052C405.893 146.892 406.773 147.732 408.293 147.732C409.253 147.732 409.973 147.612 410.653 147.332V151.172C409.893 151.452 408.853 151.692 407.373 151.692ZM147.216 195.732C138.256 195.732 133.256 190.012 133.256 181.212V180.892C133.256 172.292 139.176 166.292 147.136 166.292C153.696 166.292 158.776 169.572 159.416 176.292H154.016C153.416 172.492 151.296 170.532 147.176 170.532C142.136 170.532 138.856 174.452 138.856 180.852V181.172C138.856 187.612 141.936 191.412 147.216 191.412C151.176 191.412 153.976 189.412 154.536 185.372H159.736C158.896 192.252 154.016 195.732 147.216 195.732ZM172.904 191.972C176.504 191.972 178.664 189.292 178.664 185.012V184.732C178.664 180.412 176.504 177.772 172.904 177.772C169.304 177.772 167.104 180.372 167.104 184.692V185.012C167.104 189.292 169.224 191.972 172.904 191.972ZM172.864 195.732C166.704 195.732 162.144 191.452 162.144 185.092V184.772C162.144 178.292 166.744 173.972 172.904 173.972C179.024 173.972 183.624 178.252 183.624 184.652V184.972C183.624 191.492 179.024 195.732 172.864 195.732ZM187.597 195.332V174.412H192.437V177.732C193.437 175.692 195.757 173.972 199.197 173.972C203.397 173.972 206.357 176.412 206.357 182.172V195.332H201.517V182.612C201.517 179.452 200.237 178.012 197.357 178.012C194.637 178.012 192.437 179.692 192.437 183.012V195.332H187.597ZM218.653 195.692C214.493 195.692 212.333 193.452 212.333 189.492V178.052H209.533V174.412H212.333V169.812H217.173V174.412H221.773V178.052H217.173V189.052C217.173 190.892 218.053 191.732 219.573 191.732C220.533 191.732 221.253 191.612 221.933 191.332V195.172C221.173 195.452 220.133 195.692 218.653 195.692ZM225.899 195.332V174.412H230.739V178.332C232.059 175.692 234.019 174.132 237.539 174.092V178.612C233.299 178.652 230.739 180.012 230.739 184.452V195.332H225.899ZM246.487 195.732C242.647 195.732 239.487 193.892 239.487 189.532C239.487 184.652 244.207 182.892 250.207 182.892H252.807V181.812C252.807 179.012 251.847 177.612 249.007 177.612C246.487 177.612 245.247 178.812 245.007 180.892H240.327C240.727 176.012 244.607 173.972 249.287 173.972C253.967 173.972 257.647 175.892 257.647 181.612V195.332H252.887V192.772C251.527 194.572 249.687 195.732 246.487 195.732ZM247.647 192.252C250.607 192.252 252.807 190.692 252.807 188.012V185.932H250.327C246.647 185.932 244.287 186.772 244.287 189.332C244.287 191.092 245.247 192.252 247.647 192.252ZM271.954 195.732C265.954 195.732 261.394 191.812 261.394 185.132V184.812C261.394 178.172 266.114 173.972 271.954 173.972C276.594 173.972 280.954 176.052 281.514 181.812H276.834C276.434 179.012 274.594 177.852 272.034 177.852C268.714 177.852 266.354 180.412 266.354 184.732V185.052C266.354 189.612 268.594 192.012 272.154 192.012C274.714 192.012 276.914 190.492 277.194 187.532H281.634C281.274 192.332 277.634 195.732 271.954 195.732ZM292.522 195.692C288.362 195.692 286.202 193.452 286.202 189.492V178.052H283.402V174.412H286.202V169.812H291.042V174.412H295.642V178.052H291.042V189.052C291.042 190.892 291.922 191.732 293.442 191.732C294.402 191.732 295.122 191.612 295.802 191.332V195.172C295.042 195.452 294.002 195.692 292.522 195.692ZM313.339 195.332V172.012L307.299 176.132V171.452L313.939 166.732H318.699V195.332H313.339ZM336.537 191.492C340.937 191.492 343.057 188.132 343.057 181.652V180.252C343.057 174.172 340.737 170.492 336.457 170.492C332.137 170.492 329.777 173.932 329.777 180.292V181.732C329.777 188.212 332.257 191.492 336.537 191.492ZM336.417 195.732C329.137 195.732 324.417 190.372 324.417 181.772V180.332C324.417 171.652 329.217 166.332 336.417 166.332C343.657 166.332 348.377 171.612 348.377 180.212V181.652C348.377 190.252 343.897 195.732 336.417 195.732ZM357.344 195.332V172.012L351.304 176.132V171.452L357.944 166.732H362.704V195.332H357.344Z" fill="white"/>
<path d="M214.184 88.337H215.666C218.706 88.337 220.169 86.589 220.169 83.587V83.435C220.169 80.509 218.839 78.742 215.647 78.742H214.184V88.337ZM211.657 90.332V76.747H215.78C220.511 76.747 222.81 79.445 222.81 83.397V83.568C222.81 87.52 220.511 90.332 215.742 90.332H211.657ZM223.414 90.332L227.955 76.747H231.261L235.745 90.332H233.123L232.04 86.969H226.853L225.789 90.332H223.414ZM229.456 78.818L227.442 85.126H231.451L229.456 78.818ZM243.005 90.522C238.749 90.522 236.374 87.805 236.374 83.625V83.473C236.374 79.388 239.186 76.538 242.967 76.538C246.083 76.538 248.496 78.096 248.8 81.288H246.235C245.95 79.483 244.943 78.552 242.986 78.552C240.592 78.552 239.034 80.414 239.034 83.454V83.606C239.034 86.665 240.497 88.47 243.005 88.47C244.886 88.47 246.216 87.52 246.482 85.601H248.952C248.553 88.869 246.235 90.522 243.005 90.522ZM249.818 90.332L254.359 76.747H257.665L262.149 90.332H259.527L258.444 86.969H253.257L252.193 90.332H249.818ZM255.86 78.818L253.846 85.126H257.855L255.86 78.818ZM266.749 88.337H268.231C271.271 88.337 272.734 86.589 272.734 83.587V83.435C272.734 80.509 271.404 78.742 268.212 78.742H266.749V88.337ZM264.222 90.332V76.747H268.345C273.076 76.747 275.375 79.445 275.375 83.397V83.568C275.375 87.52 273.076 90.332 268.307 90.332H264.222ZM277.786 90.332V76.747H286.279V78.742H280.313V82.466H285.101V84.366H280.313V88.337H286.602V90.332H277.786Z" fill="#FAFAFA"/>
<line opacity="0.4" x1="154.099" y1="107.916" x2="344.099" y2="107.916" stroke="#9CA3AF" stroke-width="2"/>
<g clip-path="url(#clip0_19811_867)">
<path d="M354.044 356.685C354.044 297.718 306.353 249.916 247.522 249.916C188.691 249.916 140.999 297.718 140.999 356.685C140.999 415.651 188.691 463.453 247.522 463.453C306.353 463.453 354.044 415.651 354.044 356.685Z" fill="#522785"/>
<path d="M359 433.658C359 414.46 343.473 398.896 324.319 398.896C305.164 398.896 289.637 414.46 289.637 433.658C289.637 452.857 305.164 468.42 324.319 468.42C343.473 468.42 359 452.857 359 433.658Z" fill="white"/>
</g>
<defs>
<linearGradient id="paint0_linear_19811_867" x1="249.149" y1="37.8876" x2="249.149" y2="632.959" gradientUnits="userSpaceOnUse">
<stop offset="0.000572331" stop-color="#F15A24"/>
<stop offset="0.463203" stop-color="#47110A"/>
<stop offset="0.961881" stop-color="#F15A24"/>
</linearGradient>
<linearGradient id="paint1_linear_19811_867" x1="498.745" y1="6.42815" x2="-22.3987" y2="5.42605" gradientUnits="userSpaceOnUse">
<stop offset="0.015668" stop-color="#47110A"/>
<stop offset="0.015768" stop-color="#47110A"/>
<stop offset="0.480532" stop-color="#F15A24"/>
<stop offset="0.950573" stop-color="#47110A"/>
</linearGradient>
<linearGradient id="paint2_linear_19811_867" x1="20.7119" y1="611.065" x2="8.06334" y2="22.9972" gradientUnits="userSpaceOnUse">
<stop offset="0.0396479" stop-color="#47110A"/>
<stop offset="0.451723" stop-color="#F15A24"/>
<stop offset="0.998103" stop-color="#47110A"/>
</linearGradient>
<linearGradient id="paint3_linear_19811_867" x1="250.041" y1="-73.1322" x2="250.041" y2="556.567" gradientUnits="userSpaceOnUse">
<stop offset="0.074236" stop-color="#F15A24"/>
<stop offset="0.218297" stop-color="#47110A"/>
<stop offset="0.549386" stop-color="#F15A24"/>
<stop offset="1" stop-color="#47110A"/>
</linearGradient>
<linearGradient id="paint4_linear_19811_867" x1="478.242" y1="30.4364" x2="0.613862" y2="29.4583" gradientUnits="userSpaceOnUse">
<stop offset="0.00582305" stop-color="#F15A24"/>
<stop offset="0.471312" stop-color="#47110A"/>
<stop offset="0.924755" stop-color="#F15A24"/>
</linearGradient>
<clipPath id="clip0_19811_867">
<rect width="218" height="218.503" fill="white" transform="translate(140.999 249.916)"/>
</clipPath>
</defs>
</svg>
