<svg width="499" height="601" viewBox="0 0 499 601" fill="none" xmlns="http://www.w3.org/2000/svg">
<path d="M498.247 0H0.0498047V372.645C0.0487869 505.642 119.343 600.677 248.521 600.999C378.067 601.323 498.247 504.388 498.247 372.645V0Z" fill="url(#paint0_linear_19811_882)"/>
<path d="M498.247 0H0L21.4194 23.7126L478.975 23.462L498.247 0Z" fill="url(#paint1_linear_19811_882)"/>
<path d="M21.7119 23.9043H478.37V366.13C478.37 486.804 368.299 575.753 249.466 575.456C130.965 575.16 21.711 487.958 21.7119 366.13V23.9043Z" fill="url(#paint2_linear_19811_882)" stroke="url(#paint3_linear_19811_882)" stroke-width="2"/>
<path d="M458.502 46.1816H41.1514V362.713C41.1505 474.612 141.086 554.57 249.301 554.841C357.825 555.113 458.502 473.556 458.502 362.713V46.1816Z" fill="#F15A24"/>
<path d="M477.367 24.9043H22.7109L41.1392 46.302L458.491 46.2478L477.367 24.9043Z" fill="url(#paint4_linear_19811_882)"/>
<path d="M149.847 151.332V122.732H159.447C165.727 122.732 170.127 125.292 170.127 131.132V131.292C170.127 135.772 167.327 138.052 163.767 138.972L171.807 151.332H166.047L158.567 139.772H155.167V151.332H149.847ZM155.167 135.972H159.447C163.007 135.972 164.887 134.452 164.887 131.412V131.252C164.887 127.972 162.847 126.852 159.447 126.852H155.167V135.972ZM181.672 151.732C177.552 151.732 174.472 149.372 174.472 143.812V130.412H179.312V143.252C179.312 146.412 180.632 147.852 183.432 147.852C186.032 147.852 188.312 146.172 188.312 142.852V130.412H193.152V151.332H188.312V148.052C187.272 150.092 185.072 151.732 181.672 151.732ZM205.651 151.732C200.251 151.732 197.091 149.252 196.891 144.812H201.451C201.691 146.932 202.771 148.172 205.611 148.172C208.211 148.172 209.371 147.252 209.371 145.492C209.371 143.772 207.971 143.132 204.891 142.612C199.371 141.732 197.331 140.172 197.331 136.252C197.331 132.052 201.251 129.972 205.171 129.972C209.451 129.972 212.851 131.572 213.371 136.292H208.891C208.491 134.372 207.411 133.492 205.171 133.492C203.091 133.492 201.851 134.492 201.851 135.972C201.851 137.492 202.851 138.092 206.171 138.652C211.091 139.412 214.011 140.612 214.011 145.052C214.011 149.292 211.011 151.732 205.651 151.732ZM224.977 151.692C220.817 151.692 218.657 149.452 218.657 145.492V134.052H215.857V130.412H218.657V125.812H223.497V130.412H228.097V134.052H223.497V145.052C223.497 146.892 224.377 147.732 225.897 147.732C226.857 147.732 227.577 147.612 228.257 147.332V151.172C227.497 151.452 226.457 151.692 224.977 151.692ZM251.474 151.732C243.674 151.732 240.394 147.852 239.994 142.452H245.114C245.474 145.332 246.634 147.732 251.474 147.732C254.634 147.732 256.874 145.972 256.874 143.332C256.874 140.692 255.554 139.692 250.914 138.932C244.074 138.012 240.834 135.932 240.834 130.572C240.834 125.892 244.834 122.372 250.794 122.372C256.954 122.372 260.634 125.172 261.194 130.652H256.314C255.794 127.652 254.074 126.372 250.794 126.372C247.554 126.372 245.874 127.932 245.874 130.132C245.874 132.452 246.834 133.612 251.794 134.332C258.514 135.252 261.994 137.172 261.994 142.892C261.994 147.852 257.794 151.732 251.474 151.732ZM266.344 151.332V130.412H271.184V133.612C272.184 131.652 274.464 129.972 277.544 129.972C280.264 129.972 282.424 131.132 283.464 133.732C285.064 131.132 287.944 129.972 290.544 129.972C294.384 129.972 297.504 132.332 297.504 138.092V151.332H292.664V138.412C292.664 135.332 291.344 134.012 288.944 134.012C286.544 134.012 284.344 135.612 284.344 138.812V151.332H279.504V138.412C279.504 135.332 278.144 134.012 275.784 134.012C273.384 134.012 271.184 135.612 271.184 138.812V151.332H266.344ZM308.143 151.732C304.303 151.732 301.143 149.892 301.143 145.532C301.143 140.652 305.863 138.892 311.863 138.892H314.463V137.812C314.463 135.012 313.503 133.612 310.663 133.612C308.143 133.612 306.903 134.812 306.663 136.892H301.983C302.383 132.012 306.263 129.972 310.943 129.972C315.623 129.972 319.303 131.892 319.303 137.612V151.332H314.543V148.772C313.183 150.572 311.343 151.732 308.143 151.732ZM309.303 148.252C312.263 148.252 314.463 146.692 314.463 144.012V141.932H311.983C308.303 141.932 305.943 142.772 305.943 145.332C305.943 147.092 306.903 148.252 309.303 148.252ZM324.451 151.332V130.412H329.291V134.332C330.611 131.692 332.571 130.132 336.091 130.092V134.612C331.851 134.652 329.291 136.012 329.291 140.452V151.332H324.451ZM347.264 151.692C343.104 151.692 340.944 149.452 340.944 145.492V134.052H338.144V130.412H340.944V125.812H345.784V130.412H350.384V134.052H345.784V145.052C345.784 146.892 346.664 147.732 348.184 147.732C349.144 147.732 349.864 147.612 350.544 147.332V151.172C349.784 151.452 348.744 151.692 347.264 151.692ZM147.216 195.732C138.256 195.732 133.256 190.012 133.256 181.212V180.892C133.256 172.292 139.176 166.292 147.136 166.292C153.696 166.292 158.776 169.572 159.416 176.292H154.016C153.416 172.492 151.296 170.532 147.176 170.532C142.136 170.532 138.856 174.452 138.856 180.852V181.172C138.856 187.612 141.936 191.412 147.216 191.412C151.176 191.412 153.976 189.412 154.536 185.372H159.736C158.896 192.252 154.016 195.732 147.216 195.732ZM172.904 191.972C176.504 191.972 178.664 189.292 178.664 185.012V184.732C178.664 180.412 176.504 177.772 172.904 177.772C169.304 177.772 167.104 180.372 167.104 184.692V185.012C167.104 189.292 169.224 191.972 172.904 191.972ZM172.864 195.732C166.704 195.732 162.144 191.452 162.144 185.092V184.772C162.144 178.292 166.744 173.972 172.904 173.972C179.024 173.972 183.624 178.252 183.624 184.652V184.972C183.624 191.492 179.024 195.732 172.864 195.732ZM187.597 195.332V174.412H192.437V177.732C193.437 175.692 195.757 173.972 199.197 173.972C203.397 173.972 206.357 176.412 206.357 182.172V195.332H201.517V182.612C201.517 179.452 200.237 178.012 197.357 178.012C194.637 178.012 192.437 179.692 192.437 183.012V195.332H187.597ZM218.653 195.692C214.493 195.692 212.333 193.452 212.333 189.492V178.052H209.533V174.412H212.333V169.812H217.173V174.412H221.773V178.052H217.173V189.052C217.173 190.892 218.053 191.732 219.573 191.732C220.533 191.732 221.253 191.612 221.933 191.332V195.172C221.173 195.452 220.133 195.692 218.653 195.692ZM225.899 195.332V174.412H230.739V178.332C232.059 175.692 234.019 174.132 237.539 174.092V178.612C233.299 178.652 230.739 180.012 230.739 184.452V195.332H225.899ZM246.487 195.732C242.647 195.732 239.487 193.892 239.487 189.532C239.487 184.652 244.207 182.892 250.207 182.892H252.807V181.812C252.807 179.012 251.847 177.612 249.007 177.612C246.487 177.612 245.247 178.812 245.007 180.892H240.327C240.727 176.012 244.607 173.972 249.287 173.972C253.967 173.972 257.647 175.892 257.647 181.612V195.332H252.887V192.772C251.527 194.572 249.687 195.732 246.487 195.732ZM247.647 192.252C250.607 192.252 252.807 190.692 252.807 188.012V185.932H250.327C246.647 185.932 244.287 186.772 244.287 189.332C244.287 191.092 245.247 192.252 247.647 192.252ZM271.954 195.732C265.954 195.732 261.394 191.812 261.394 185.132V184.812C261.394 178.172 266.114 173.972 271.954 173.972C276.594 173.972 280.954 176.052 281.514 181.812H276.834C276.434 179.012 274.594 177.852 272.034 177.852C268.714 177.852 266.354 180.412 266.354 184.732V185.052C266.354 189.612 268.594 192.012 272.154 192.012C274.714 192.012 276.914 190.492 277.194 187.532H281.634C281.274 192.332 277.634 195.732 271.954 195.732ZM292.522 195.692C288.362 195.692 286.202 193.452 286.202 189.492V178.052H283.402V174.412H286.202V169.812H291.042V174.412H295.642V178.052H291.042V189.052C291.042 190.892 291.922 191.732 293.442 191.732C294.402 191.732 295.122 191.612 295.802 191.332V195.172C295.042 195.452 294.002 195.692 292.522 195.692ZM313.339 195.332V172.012L307.299 176.132V171.452L313.939 166.732H318.699V195.332H313.339ZM336.537 191.492C340.937 191.492 343.057 188.132 343.057 181.652V180.252C343.057 174.172 340.737 170.492 336.457 170.492C332.137 170.492 329.777 173.932 329.777 180.292V181.732C329.777 188.212 332.257 191.492 336.537 191.492ZM336.417 195.732C329.137 195.732 324.417 190.372 324.417 181.772V180.332C324.417 171.652 329.217 166.332 336.417 166.332C343.657 166.332 348.377 171.612 348.377 180.212V181.652C348.377 190.252 343.897 195.732 336.417 195.732ZM357.344 195.332V172.012L351.304 176.132V171.452L357.944 166.732H362.704V195.332H357.344Z" fill="white"/>
<path d="M214.184 88.337H215.666C218.706 88.337 220.169 86.589 220.169 83.587V83.435C220.169 80.509 218.839 78.742 215.647 78.742H214.184V88.337ZM211.657 90.332V76.747H215.78C220.511 76.747 222.81 79.445 222.81 83.397V83.568C222.81 87.52 220.511 90.332 215.742 90.332H211.657ZM223.414 90.332L227.955 76.747H231.261L235.745 90.332H233.123L232.04 86.969H226.853L225.789 90.332H223.414ZM229.456 78.818L227.442 85.126H231.451L229.456 78.818ZM243.005 90.522C238.749 90.522 236.374 87.805 236.374 83.625V83.473C236.374 79.388 239.186 76.538 242.967 76.538C246.083 76.538 248.496 78.096 248.8 81.288H246.235C245.95 79.483 244.943 78.552 242.986 78.552C240.592 78.552 239.034 80.414 239.034 83.454V83.606C239.034 86.665 240.497 88.47 243.005 88.47C244.886 88.47 246.216 87.52 246.482 85.601H248.952C248.553 88.869 246.235 90.522 243.005 90.522ZM249.818 90.332L254.359 76.747H257.665L262.149 90.332H259.527L258.444 86.969H253.257L252.193 90.332H249.818ZM255.86 78.818L253.846 85.126H257.855L255.86 78.818ZM266.749 88.337H268.231C271.271 88.337 272.734 86.589 272.734 83.587V83.435C272.734 80.509 271.404 78.742 268.212 78.742H266.749V88.337ZM264.222 90.332V76.747H268.345C273.076 76.747 275.375 79.445 275.375 83.397V83.568C275.375 87.52 273.076 90.332 268.307 90.332H264.222ZM277.786 90.332V76.747H286.279V78.742H280.313V82.466H285.101V84.366H280.313V88.337H286.602V90.332H277.786Z" fill="#FAFAFA"/>
<line opacity="0.4" x1="154.099" y1="107.916" x2="344.099" y2="107.916" stroke="#9CA3AF" stroke-width="2"/>
<g clip-path="url(#clip0_19811_882)">
<path d="M354.044 356.685C354.044 297.718 306.353 249.916 247.522 249.916C188.691 249.916 140.999 297.718 140.999 356.685C140.999 415.651 188.691 463.453 247.522 463.453C306.353 463.453 354.044 415.651 354.044 356.685Z" fill="#522785"/>
<path d="M359 433.658C359 414.46 343.473 398.896 324.319 398.896C305.164 398.896 289.637 414.46 289.637 433.658C289.637 452.857 305.164 468.42 324.319 468.42C343.473 468.42 359 452.857 359 433.658Z" fill="white"/>
</g>
<defs>
<linearGradient id="paint0_linear_19811_882" x1="249.149" y1="37.8876" x2="249.149" y2="632.959" gradientUnits="userSpaceOnUse">
<stop offset="0.000572331" stop-color="#F15A24"/>
<stop offset="0.463203" stop-color="#47110A"/>
<stop offset="0.961881" stop-color="#F15A24"/>
</linearGradient>
<linearGradient id="paint1_linear_19811_882" x1="498.745" y1="6.42815" x2="-22.3987" y2="5.42605" gradientUnits="userSpaceOnUse">
<stop offset="0.015668" stop-color="#47110A"/>
<stop offset="0.015768" stop-color="#47110A"/>
<stop offset="0.480532" stop-color="#F15A24"/>
<stop offset="0.950573" stop-color="#47110A"/>
</linearGradient>
<linearGradient id="paint2_linear_19811_882" x1="20.7119" y1="611.065" x2="8.06334" y2="22.9972" gradientUnits="userSpaceOnUse">
<stop offset="0.0396479" stop-color="#47110A"/>
<stop offset="0.451723" stop-color="#F15A24"/>
<stop offset="0.998103" stop-color="#47110A"/>
</linearGradient>
<linearGradient id="paint3_linear_19811_882" x1="250.041" y1="-73.1322" x2="250.041" y2="556.567" gradientUnits="userSpaceOnUse">
<stop offset="0.074236" stop-color="#F15A24"/>
<stop offset="0.218297" stop-color="#47110A"/>
<stop offset="0.549386" stop-color="#F15A24"/>
<stop offset="1" stop-color="#47110A"/>
</linearGradient>
<linearGradient id="paint4_linear_19811_882" x1="478.242" y1="30.4364" x2="0.613862" y2="29.4583" gradientUnits="userSpaceOnUse">
<stop offset="0.00582305" stop-color="#F15A24"/>
<stop offset="0.471312" stop-color="#47110A"/>
<stop offset="0.924755" stop-color="#F15A24"/>
</linearGradient>
<clipPath id="clip0_19811_882">
<rect width="218" height="218.503" fill="white" transform="translate(140.999 249.916)"/>
</clipPath>
</defs>
</svg>
