<svg width="499" height="601" viewBox="0 0 499 601" fill="none" xmlns="http://www.w3.org/2000/svg">
<path d="M498.247 0H0.0498047V372.645C0.0487869 505.642 119.343 600.677 248.521 600.999C378.067 601.323 498.247 504.388 498.247 372.645V0Z" fill="url(#paint0_linear_20319_470)"/>
<path d="M498.247 0H0L21.4194 23.7126L478.975 23.462L498.247 0Z" fill="url(#paint1_linear_20319_470)"/>
<path d="M21.7119 366.13V23.9043H478.37V366.13C478.37 486.804 368.299 575.753 249.466 575.456C130.965 575.16 21.711 487.958 21.7119 366.13Z" fill="url(#paint2_linear_20319_470)" stroke="url(#paint3_linear_20319_470)" stroke-width="2"/>
<path d="M458.502 46.1816H41.1514V362.713C41.1505 474.612 141.086 554.57 249.301 554.841C357.825 555.113 458.502 473.556 458.502 362.713V46.1816Z" fill="#F15A24"/>
<path d="M477.367 24.9043H22.7109L41.1392 46.302L458.491 46.2478L477.367 24.9043Z" fill="url(#paint4_linear_20319_470)"/>
<path d="M148.992 151.332V122.732H154.352V151.332H148.992ZM173.217 151.732C164.257 151.732 159.257 146.012 159.257 137.212V136.892C159.257 128.292 165.177 122.292 173.137 122.292C179.697 122.292 184.777 125.572 185.417 132.292H180.017C179.417 128.492 177.297 126.532 173.177 126.532C168.137 126.532 164.857 130.452 164.857 136.852V137.172C164.857 143.612 167.937 147.412 173.217 147.412C177.177 147.412 179.977 145.412 180.537 141.372H185.737C184.897 148.252 180.017 151.732 173.217 151.732ZM189.946 151.332V122.732H199.146C205.546 122.732 209.746 125.572 209.746 131.572V131.732C209.746 137.772 205.386 140.452 199.266 140.452H195.266V151.332H189.946ZM195.266 136.612H199.146C202.666 136.612 204.546 134.892 204.546 131.732V131.572C204.546 128.172 202.546 126.852 199.146 126.852H195.266V136.612ZM235.572 151.732C226.612 151.732 221.612 146.012 221.612 137.212V136.892C221.612 128.292 227.532 122.292 235.492 122.292C242.052 122.292 247.132 125.572 247.772 132.292H242.372C241.772 128.492 239.652 126.532 235.532 126.532C230.492 126.532 227.212 130.452 227.212 136.852V137.172C227.212 143.612 230.292 147.412 235.572 147.412C239.532 147.412 242.332 145.412 242.892 141.372H248.092C247.252 148.252 242.372 151.732 235.572 151.732ZM261.261 147.972C264.861 147.972 267.021 145.292 267.021 141.012V140.732C267.021 136.412 264.861 133.772 261.261 133.772C257.661 133.772 255.461 136.372 255.461 140.692V141.012C255.461 145.292 257.581 147.972 261.261 147.972ZM261.221 151.732C255.061 151.732 250.501 147.452 250.501 141.092V140.772C250.501 134.292 255.101 129.972 261.261 129.972C267.381 129.972 271.981 134.252 271.981 140.652V140.972C271.981 147.492 267.381 151.732 261.221 151.732ZM283.794 151.732C278.554 151.732 274.594 148.012 274.594 141.212V140.892C274.594 134.212 278.554 129.972 283.994 129.972C287.394 129.972 289.514 131.532 290.674 133.612V120.732H295.514V151.332H290.674V147.812C289.554 149.892 286.874 151.732 283.794 151.732ZM284.994 147.892C288.354 147.892 290.834 145.652 290.834 140.972V140.652C290.834 136.052 288.714 133.772 285.194 133.772C281.634 133.772 279.554 136.252 279.554 140.772V141.092C279.554 145.692 281.874 147.892 284.994 147.892ZM310.066 151.732C303.906 151.732 299.466 147.692 299.466 141.092V140.772C299.466 134.292 303.906 129.972 309.866 129.972C315.066 129.972 319.746 133.052 319.746 140.532V141.932H304.426C304.586 145.892 306.586 148.132 310.186 148.132C313.106 148.132 314.626 146.972 314.986 144.932H319.666C318.986 149.332 315.426 151.732 310.066 151.732ZM304.506 138.692H314.946C314.706 135.092 312.866 133.492 309.866 133.492C306.946 133.492 304.986 135.452 304.506 138.692ZM330.521 151.332V150.372L341.321 138.972C344.041 136.092 345.681 133.572 345.681 130.852C345.681 128.172 344.161 126.492 341.401 126.492C338.561 126.492 336.761 128.132 336.281 132.172H331.401C331.761 125.932 335.521 122.332 341.561 122.332C347.481 122.332 351.001 125.732 351.001 130.772C351.001 134.492 348.801 137.732 345.401 141.012L339.041 147.212H351.201V151.332H330.521ZM97.5372 195.332V166.732H102.857V178.892H115.697V166.732H121.057V195.332H115.697V183.172H102.857V195.332H97.5372ZM132.061 195.732C128.221 195.732 125.061 193.892 125.061 189.532C125.061 184.652 129.781 182.892 135.781 182.892H138.381V181.812C138.381 179.012 137.421 177.612 134.581 177.612C132.061 177.612 130.821 178.812 130.581 180.892H125.901C126.301 176.012 130.181 173.972 134.861 173.972C139.541 173.972 143.221 175.892 143.221 181.612V195.332H138.461V192.772C137.101 194.572 135.261 195.732 132.061 195.732ZM133.221 192.252C136.181 192.252 138.381 190.692 138.381 188.012V185.932H135.901C132.221 185.932 129.861 186.772 129.861 189.332C129.861 191.092 130.821 192.252 133.221 192.252ZM157.528 195.732C151.528 195.732 146.968 191.812 146.968 185.132V184.812C146.968 178.172 151.688 173.972 157.528 173.972C162.168 173.972 166.528 176.052 167.088 181.812H162.408C162.008 179.012 160.168 177.852 157.608 177.852C154.288 177.852 151.928 180.412 151.928 184.732V185.052C151.928 189.612 154.168 192.012 157.728 192.012C160.288 192.012 162.488 190.492 162.768 187.532H167.208C166.848 192.332 163.208 195.732 157.528 195.732ZM170.976 195.332V164.732H175.816V183.612L183.296 174.412H188.576L180.456 184.012L189.256 195.332H183.656L175.816 185.052V195.332H170.976ZM197.267 195.732C193.427 195.732 190.267 193.892 190.267 189.532C190.267 184.652 194.987 182.892 200.987 182.892H203.587V181.812C203.587 179.012 202.627 177.612 199.787 177.612C197.267 177.612 196.027 178.812 195.787 180.892H191.107C191.507 176.012 195.387 173.972 200.067 173.972C204.747 173.972 208.427 175.892 208.427 181.612V195.332H203.667V192.772C202.307 194.572 200.467 195.732 197.267 195.732ZM198.427 192.252C201.387 192.252 203.587 190.692 203.587 188.012V185.932H201.107C197.427 185.932 195.067 186.772 195.067 189.332C195.067 191.092 196.027 192.252 198.427 192.252ZM220.695 195.692C216.535 195.692 214.375 193.452 214.375 189.492V178.052H211.575V174.412H214.375V169.812H219.215V174.412H223.815V178.052H219.215V189.052C219.215 190.892 220.095 191.732 221.615 191.732C222.575 191.732 223.295 191.612 223.975 191.332V195.172C223.215 195.452 222.175 195.692 220.695 195.692ZM227.94 195.332V164.732H232.78V177.732C233.78 175.692 236.1 173.972 239.54 173.972C243.74 173.972 246.7 176.412 246.7 182.172V195.332H241.86V182.612C241.86 179.452 240.58 178.012 237.7 178.012C234.98 178.012 232.78 179.692 232.78 183.012V195.332H227.94ZM261.236 191.972C264.836 191.972 266.996 189.292 266.996 185.012V184.732C266.996 180.412 264.836 177.772 261.236 177.772C257.636 177.772 255.436 180.372 255.436 184.692V185.012C255.436 189.292 257.556 191.972 261.236 191.972ZM261.196 195.732C255.036 195.732 250.476 191.452 250.476 185.092V184.772C250.476 178.292 255.076 173.972 261.236 173.972C267.356 173.972 271.956 178.252 271.956 184.652V184.972C271.956 191.492 267.356 195.732 261.196 195.732ZM275.929 195.332V174.412H280.769V177.732C281.769 175.692 284.089 173.972 287.529 173.972C291.729 173.972 294.689 176.412 294.689 182.172V195.332H289.849V182.612C289.849 179.452 288.569 178.012 285.689 178.012C282.969 178.012 280.769 179.692 280.769 183.012V195.332H275.929ZM306.717 195.332V194.372L317.517 182.972C320.237 180.092 321.877 177.572 321.877 174.852C321.877 172.172 320.357 170.492 317.597 170.492C314.757 170.492 312.957 172.132 312.477 176.172H307.597C307.957 169.932 311.717 166.332 317.757 166.332C323.677 166.332 327.197 169.732 327.197 174.772C327.197 178.492 324.997 181.732 321.597 185.012L315.237 191.212H327.397V195.332H306.717ZM342.806 191.492C347.206 191.492 349.326 188.132 349.326 181.652V180.252C349.326 174.172 347.006 170.492 342.726 170.492C338.406 170.492 336.046 173.932 336.046 180.292V181.732C336.046 188.212 338.526 191.492 342.806 191.492ZM342.686 195.732C335.406 195.732 330.686 190.372 330.686 181.772V180.332C330.686 171.652 335.486 166.332 342.686 166.332C349.926 166.332 354.646 171.612 354.646 180.212V181.652C354.646 190.252 350.166 195.732 342.686 195.732ZM356.893 195.332V194.372L367.693 182.972C370.413 180.092 372.053 177.572 372.053 174.852C372.053 172.172 370.533 170.492 367.773 170.492C364.933 170.492 363.133 172.132 362.653 176.172H357.773C358.133 169.932 361.893 166.332 367.933 166.332C373.853 166.332 377.373 169.732 377.373 174.772C377.373 178.492 375.173 181.732 371.773 185.012L365.413 191.212H377.573V195.332H356.893ZM391.178 195.732C384.378 195.732 380.658 191.972 380.418 186.492H385.258C385.538 189.492 387.218 191.732 391.058 191.732C394.778 191.732 396.498 189.932 396.498 187.092C396.498 183.972 394.818 182.412 391.338 182.412H389.138V178.612H391.178C394.458 178.612 395.938 177.092 395.938 174.412C395.938 172.092 394.458 170.372 391.498 170.372C388.458 170.372 386.498 172.212 386.178 175.092H381.458C381.738 170.132 385.458 166.332 391.578 166.332C397.538 166.332 401.018 169.772 401.018 174.012C401.018 177.252 399.138 179.212 396.378 180.252C399.698 181.012 401.898 183.372 401.898 187.172C401.898 192.452 397.738 195.732 391.178 195.732Z" fill="white"/>
<path d="M214.184 88.337H215.666C218.706 88.337 220.169 86.589 220.169 83.587V83.435C220.169 80.509 218.839 78.742 215.647 78.742H214.184V88.337ZM211.657 90.332V76.747H215.78C220.511 76.747 222.81 79.445 222.81 83.397V83.568C222.81 87.52 220.511 90.332 215.742 90.332H211.657ZM223.414 90.332L227.955 76.747H231.261L235.745 90.332H233.123L232.04 86.969H226.853L225.789 90.332H223.414ZM229.456 78.818L227.442 85.126H231.451L229.456 78.818ZM243.005 90.522C238.749 90.522 236.374 87.805 236.374 83.625V83.473C236.374 79.388 239.186 76.538 242.967 76.538C246.083 76.538 248.496 78.096 248.8 81.288H246.235C245.95 79.483 244.943 78.552 242.986 78.552C240.592 78.552 239.034 80.414 239.034 83.454V83.606C239.034 86.665 240.497 88.47 243.005 88.47C244.886 88.47 246.216 87.52 246.482 85.601H248.952C248.553 88.869 246.235 90.522 243.005 90.522ZM249.818 90.332L254.359 76.747H257.665L262.149 90.332H259.527L258.444 86.969H253.257L252.193 90.332H249.818ZM255.86 78.818L253.846 85.126H257.855L255.86 78.818ZM266.749 88.337H268.231C271.271 88.337 272.734 86.589 272.734 83.587V83.435C272.734 80.509 271.404 78.742 268.212 78.742H266.749V88.337ZM264.222 90.332V76.747H268.345C273.076 76.747 275.375 79.445 275.375 83.397V83.568C275.375 87.52 273.076 90.332 268.307 90.332H264.222ZM277.786 90.332V76.747H286.279V78.742H280.313V82.466H285.101V84.366H280.313V88.337H286.602V90.332H277.786Z" fill="#FAFAFA"/>
<line opacity="0.4" x1="154.099" y1="107.916" x2="344.099" y2="107.916" stroke="#9CA3AF" stroke-width="2"/>
<g clip-path="url(#clip0_20319_470)">
<path d="M354.044 356.685C354.044 297.718 306.353 249.916 247.522 249.916C188.691 249.916 140.999 297.718 140.999 356.685C140.999 415.651 188.691 463.453 247.522 463.453C306.353 463.453 354.044 415.651 354.044 356.685Z" fill="#522785"/>
<path d="M359 433.658C359 414.46 343.473 398.896 324.319 398.896C305.164 398.896 289.637 414.46 289.637 433.658C289.637 452.857 305.164 468.42 324.319 468.42C343.473 468.42 359 452.857 359 433.658Z" fill="white"/>
</g>
<defs>
<linearGradient id="paint0_linear_20319_470" x1="249.149" y1="37.8876" x2="249.149" y2="632.959" gradientUnits="userSpaceOnUse">
<stop offset="0.000572331" stop-color="#F15A24"/>
<stop offset="0.463203" stop-color="#47110A"/>
<stop offset="0.961881" stop-color="#F15A24"/>
</linearGradient>
<linearGradient id="paint1_linear_20319_470" x1="498.745" y1="6.42815" x2="-22.3987" y2="5.42605" gradientUnits="userSpaceOnUse">
<stop offset="0.015668" stop-color="#47110A"/>
<stop offset="0.015768" stop-color="#47110A"/>
<stop offset="0.480532" stop-color="#F15A24"/>
<stop offset="0.950573" stop-color="#47110A"/>
</linearGradient>
<linearGradient id="paint2_linear_20319_470" x1="20.7119" y1="611.065" x2="8.06334" y2="22.9972" gradientUnits="userSpaceOnUse">
<stop offset="0.0396479" stop-color="#47110A"/>
<stop offset="0.451723" stop-color="#F15A24"/>
<stop offset="0.998103" stop-color="#47110A"/>
</linearGradient>
<linearGradient id="paint3_linear_20319_470" x1="250.041" y1="-73.1322" x2="250.041" y2="556.567" gradientUnits="userSpaceOnUse">
<stop offset="0.074236" stop-color="#F15A24"/>
<stop offset="0.218297" stop-color="#47110A"/>
<stop offset="0.549386" stop-color="#F15A24"/>
<stop offset="1" stop-color="#47110A"/>
</linearGradient>
<linearGradient id="paint4_linear_20319_470" x1="478.242" y1="30.4364" x2="0.613862" y2="29.4583" gradientUnits="userSpaceOnUse">
<stop offset="0.00582305" stop-color="#F15A24"/>
<stop offset="0.471312" stop-color="#47110A"/>
<stop offset="0.924755" stop-color="#F15A24"/>
</linearGradient>
<clipPath id="clip0_20319_470">
<rect width="218" height="218.503" fill="white" transform="translate(140.999 249.916)"/>
</clipPath>
</defs>
</svg>
