<svg width="499" height="601" viewBox="0 0 499 601" fill="none" xmlns="http://www.w3.org/2000/svg">
<path d="M498.247 0H0.0498047V372.645C0.0487869 505.642 119.343 600.677 248.521 600.999C378.067 601.323 498.247 504.388 498.247 372.645V0Z" fill="url(#paint0_linear_16768_19074)"/>
<path d="M498.247 0H0L21.4194 23.7126L478.975 23.462L498.247 0Z" fill="url(#paint1_linear_16768_19074)"/>
<path d="M21.7119 366.13V23.9043H478.37V366.13C478.37 486.804 368.299 575.753 249.466 575.456C130.965 575.16 21.711 487.958 21.7119 366.13Z" fill="url(#paint2_linear_16768_19074)" stroke="url(#paint3_linear_16768_19074)" stroke-width="2"/>
<path d="M458.502 46.1816H41.1514V362.713C41.1505 474.612 141.086 554.57 249.301 554.841C357.825 555.113 458.502 473.556 458.502 362.713V46.1816Z" fill="#F15A24"/>
<path d="M477.367 24.9043H22.7109L41.1392 46.302L458.491 46.2478L477.367 24.9043Z" fill="url(#paint4_linear_16768_19074)"/>
<path d="M175.076 151.332V122.732H180.436V151.332H175.076ZM199.302 151.732C190.342 151.732 185.342 146.012 185.342 137.212V136.892C185.342 128.292 191.262 122.292 199.222 122.292C205.782 122.292 210.862 125.572 211.502 132.292H206.102C205.502 128.492 203.382 126.532 199.262 126.532C194.222 126.532 190.942 130.452 190.942 136.852V137.172C190.942 143.612 194.022 147.412 199.302 147.412C203.262 147.412 206.062 145.412 206.622 141.372H211.822C210.982 148.252 206.102 151.732 199.302 151.732ZM216.03 151.332V122.732H225.23C231.63 122.732 235.83 125.572 235.83 131.572V131.732C235.83 137.772 231.47 140.452 225.35 140.452H221.35V151.332H216.03ZM221.35 136.612H225.23C228.75 136.612 230.63 134.892 230.63 131.732V131.572C230.63 128.172 228.63 126.852 225.23 126.852H221.35V136.612ZM246.936 151.332L256.496 122.732H263.456L272.896 151.332H267.376L265.096 144.252H254.176L251.936 151.332H246.936ZM259.656 127.092L255.416 140.372H263.856L259.656 127.092ZM274.457 151.332V150.772L285.537 134.252H275.537V130.412H292.697V131.092L281.657 147.452H292.377V151.332H274.457ZM296.299 151.332V120.732H301.139V151.332H296.299ZM315.838 151.732C309.678 151.732 305.238 147.692 305.238 141.092V140.772C305.238 134.292 309.678 129.972 315.638 129.972C320.838 129.972 325.518 133.052 325.518 140.532V141.932H310.198C310.358 145.892 312.358 148.132 315.958 148.132C318.878 148.132 320.398 146.972 320.758 144.932H325.438C324.758 149.332 321.198 151.732 315.838 151.732ZM310.278 138.692H320.718C320.478 135.092 318.638 133.492 315.638 133.492C312.718 133.492 310.758 135.452 310.278 138.692ZM97.1002 191.132H100.22C106.62 191.132 109.7 187.452 109.7 181.132V180.812C109.7 174.652 106.9 170.932 100.18 170.932H97.1002V191.132ZM91.7802 195.332V166.732H100.46C110.42 166.732 115.26 172.412 115.26 180.732V181.092C115.26 189.412 110.42 195.332 100.38 195.332H91.7802ZM128.735 195.732C122.575 195.732 118.135 191.692 118.135 185.092V184.772C118.135 178.292 122.575 173.972 128.535 173.972C133.735 173.972 138.415 177.052 138.415 184.532V185.932H123.095C123.255 189.892 125.255 192.132 128.855 192.132C131.775 192.132 133.295 190.972 133.655 188.932H138.335C137.655 193.332 134.095 195.732 128.735 195.732ZM123.175 182.692H133.615C133.375 179.092 131.535 177.492 128.535 177.492C125.615 177.492 123.655 179.452 123.175 182.692ZM147.427 195.332L139.787 174.412H144.987L150.467 190.372L155.867 174.412H160.627L153.067 195.332H147.427ZM172.232 195.732C166.072 195.732 161.632 191.692 161.632 185.092V184.772C161.632 178.292 166.072 173.972 172.032 173.972C177.232 173.972 181.912 177.052 181.912 184.532V185.932H166.592C166.752 189.892 168.752 192.132 172.352 192.132C175.272 192.132 176.792 190.972 177.152 188.932H181.832C181.152 193.332 177.592 195.732 172.232 195.732ZM166.672 182.692H177.112C176.872 179.092 175.032 177.492 172.032 177.492C169.112 177.492 167.152 179.452 166.672 182.692ZM185.955 195.332V164.732H190.795V195.332H185.955ZM205.654 191.972C209.254 191.972 211.414 189.292 211.414 185.012V184.732C211.414 180.412 209.254 177.772 205.654 177.772C202.054 177.772 199.854 180.372 199.854 184.692V185.012C199.854 189.292 201.974 191.972 205.654 191.972ZM205.614 195.732C199.454 195.732 194.894 191.452 194.894 185.092V184.772C194.894 178.292 199.494 173.972 205.654 173.972C211.774 173.972 216.374 178.252 216.374 184.652V184.972C216.374 191.492 211.774 195.732 205.614 195.732ZM220.347 202.492V174.412H225.187V177.772C226.347 175.772 228.947 173.972 232.027 173.972C237.267 173.972 241.307 177.852 241.307 184.612V184.932C241.307 191.652 237.427 195.732 232.027 195.732C228.707 195.732 226.307 194.092 225.187 192.052V202.492H220.347ZM230.827 191.892C234.387 191.892 236.347 189.492 236.347 185.012V184.692C236.347 180.052 233.947 177.772 230.787 177.772C227.427 177.772 225.027 180.052 225.027 184.692V185.012C225.027 189.692 227.307 191.892 230.827 191.892ZM245.26 195.332V174.412H250.1V177.612C251.1 175.652 253.38 173.972 256.46 173.972C259.18 173.972 261.34 175.132 262.38 177.732C263.98 175.132 266.86 173.972 269.46 173.972C273.3 173.972 276.42 176.332 276.42 182.092V195.332H271.58V182.412C271.58 179.332 270.26 178.012 267.86 178.012C265.46 178.012 263.26 179.612 263.26 182.812V195.332H258.42V182.412C258.42 179.332 257.06 178.012 254.7 178.012C252.3 178.012 250.1 179.612 250.1 182.812V195.332H245.26ZM290.779 195.732C284.619 195.732 280.179 191.692 280.179 185.092V184.772C280.179 178.292 284.619 173.972 290.579 173.972C295.779 173.972 300.459 177.052 300.459 184.532V185.932H285.139C285.299 189.892 287.299 192.132 290.899 192.132C293.819 192.132 295.339 190.972 295.699 188.932H300.379C299.699 193.332 296.139 195.732 290.779 195.732ZM285.219 182.692H295.659C295.419 179.092 293.579 177.492 290.579 177.492C287.659 177.492 285.699 179.452 285.219 182.692ZM304.382 195.332V174.412H309.222V177.732C310.222 175.692 312.542 173.972 315.982 173.972C320.182 173.972 323.142 176.412 323.142 182.172V195.332H318.302V182.612C318.302 179.452 317.022 178.012 314.142 178.012C311.422 178.012 309.222 179.692 309.222 183.012V195.332H304.382ZM335.438 195.692C331.278 195.692 329.118 193.452 329.118 189.492V178.052H326.318V174.412H329.118V169.812H333.958V174.412H338.558V178.052H333.958V189.052C333.958 190.892 334.838 191.732 336.358 191.732C337.318 191.732 338.038 191.612 338.718 191.332V195.172C337.958 195.452 336.918 195.692 335.438 195.692ZM356.255 195.332V172.012L350.215 176.132V171.452L356.855 166.732H361.615V195.332H356.255ZM379.452 191.492C383.852 191.492 385.972 188.132 385.972 181.652V180.252C385.972 174.172 383.652 170.492 379.372 170.492C375.052 170.492 372.692 173.932 372.692 180.292V181.732C372.692 188.212 375.172 191.492 379.452 191.492ZM379.332 195.732C372.052 195.732 367.332 190.372 367.332 181.772V180.332C367.332 171.652 372.132 166.332 379.332 166.332C386.572 166.332 391.292 171.612 391.292 180.212V181.652C391.292 190.252 386.812 195.732 379.332 195.732ZM400.259 195.332V172.012L394.219 176.132V171.452L400.859 166.732H405.619V195.332H400.259Z" fill="white"/>
<path d="M214.184 88.337H215.666C218.706 88.337 220.169 86.589 220.169 83.587V83.435C220.169 80.509 218.839 78.742 215.647 78.742H214.184V88.337ZM211.657 90.332V76.747H215.78C220.511 76.747 222.81 79.445 222.81 83.397V83.568C222.81 87.52 220.511 90.332 215.742 90.332H211.657ZM223.414 90.332L227.955 76.747H231.261L235.745 90.332H233.123L232.04 86.969H226.853L225.789 90.332H223.414ZM229.456 78.818L227.442 85.126H231.451L229.456 78.818ZM243.005 90.522C238.749 90.522 236.374 87.805 236.374 83.625V83.473C236.374 79.388 239.186 76.538 242.967 76.538C246.083 76.538 248.496 78.096 248.8 81.288H246.235C245.95 79.483 244.943 78.552 242.986 78.552C240.592 78.552 239.034 80.414 239.034 83.454V83.606C239.034 86.665 240.497 88.47 243.005 88.47C244.886 88.47 246.216 87.52 246.482 85.601H248.952C248.553 88.869 246.235 90.522 243.005 90.522ZM249.818 90.332L254.359 76.747H257.665L262.149 90.332H259.527L258.444 86.969H253.257L252.193 90.332H249.818ZM255.86 78.818L253.846 85.126H257.855L255.86 78.818ZM266.749 88.337H268.231C271.271 88.337 272.734 86.589 272.734 83.587V83.435C272.734 80.509 271.404 78.742 268.212 78.742H266.749V88.337ZM264.222 90.332V76.747H268.345C273.076 76.747 275.375 79.445 275.375 83.397V83.568C275.375 87.52 273.076 90.332 268.307 90.332H264.222ZM277.786 90.332V76.747H286.279V78.742H280.313V82.466H285.101V84.366H280.313V88.337H286.602V90.332H277.786Z" fill="#FAFAFA"/>
<line opacity="0.4" x1="154.099" y1="107.916" x2="344.099" y2="107.916" stroke="#9CA3AF" stroke-width="2"/>
<g clip-path="url(#clip0_16768_19074)">
<path d="M354.044 356.685C354.044 297.718 306.353 249.916 247.522 249.916C188.691 249.916 140.999 297.718 140.999 356.685C140.999 415.651 188.691 463.453 247.522 463.453C306.353 463.453 354.044 415.651 354.044 356.685Z" fill="#522785"/>
<path d="M359 433.658C359 414.46 343.473 398.896 324.319 398.896C305.164 398.896 289.637 414.46 289.637 433.658C289.637 452.857 305.164 468.42 324.319 468.42C343.473 468.42 359 452.857 359 433.658Z" fill="white"/>
</g>
<defs>
<linearGradient id="paint0_linear_16768_19074" x1="249.149" y1="37.8876" x2="249.149" y2="632.959" gradientUnits="userSpaceOnUse">
<stop offset="0.000572331" stop-color="#F15A24"/>
<stop offset="0.463203" stop-color="#47110A"/>
<stop offset="0.961881" stop-color="#F15A24"/>
</linearGradient>
<linearGradient id="paint1_linear_16768_19074" x1="498.745" y1="6.42815" x2="-22.3987" y2="5.42605" gradientUnits="userSpaceOnUse">
<stop offset="0.015668" stop-color="#47110A"/>
<stop offset="0.015768" stop-color="#47110A"/>
<stop offset="0.480532" stop-color="#F15A24"/>
<stop offset="0.950573" stop-color="#47110A"/>
</linearGradient>
<linearGradient id="paint2_linear_16768_19074" x1="20.7119" y1="611.065" x2="8.06334" y2="22.9972" gradientUnits="userSpaceOnUse">
<stop offset="0.0396479" stop-color="#47110A"/>
<stop offset="0.451723" stop-color="#F15A24"/>
<stop offset="0.998103" stop-color="#47110A"/>
</linearGradient>
<linearGradient id="paint3_linear_16768_19074" x1="250.041" y1="-73.1322" x2="250.041" y2="556.567" gradientUnits="userSpaceOnUse">
<stop offset="0.074236" stop-color="#F15A24"/>
<stop offset="0.218297" stop-color="#47110A"/>
<stop offset="0.549386" stop-color="#F15A24"/>
<stop offset="1" stop-color="#47110A"/>
</linearGradient>
<linearGradient id="paint4_linear_16768_19074" x1="478.242" y1="30.4364" x2="0.613862" y2="29.4583" gradientUnits="userSpaceOnUse">
<stop offset="0.00582305" stop-color="#F15A24"/>
<stop offset="0.471312" stop-color="#47110A"/>
<stop offset="0.924755" stop-color="#F15A24"/>
</linearGradient>
<clipPath id="clip0_16768_19074">
<rect width="218" height="218.503" fill="white" transform="translate(140.999 249.916)"/>
</clipPath>
</defs>
</svg>
