<svg width="499" height="601" viewBox="0 0 499 601" fill="none" xmlns="http://www.w3.org/2000/svg">
<path d="M498.247 0H0.0498047V372.645C0.0487869 505.642 119.343 600.677 248.521 600.999C378.067 601.323 498.247 504.388 498.247 372.645V0Z" fill="url(#paint0_linear_20306_621)"/>
<path d="M498.247 0H0L21.4194 23.7126L478.975 23.462L498.247 0Z" fill="url(#paint1_linear_20306_621)"/>
<path d="M21.7119 366.13V23.9043H478.37V366.13C478.37 486.804 368.299 575.753 249.466 575.456C130.965 575.16 21.711 487.958 21.7119 366.13Z" fill="url(#paint2_linear_20306_621)" stroke="url(#paint3_linear_20306_621)" stroke-width="2"/>
<path d="M458.502 46.1816H41.1514V362.713C41.1505 474.612 141.086 554.57 249.301 554.841C357.825 555.113 458.502 473.556 458.502 362.713V46.1816Z" fill="#F15A24"/>
<path d="M477.367 24.9043H22.7109L41.1392 46.302L458.491 46.2478L477.367 24.9043Z" fill="url(#paint4_linear_20306_621)"/>
<path d="M88.3605 151.332V122.732H93.7205V151.332H88.3605ZM112.586 151.732C103.626 151.732 98.6261 146.012 98.6261 137.212V136.892C98.6261 128.292 104.546 122.292 112.506 122.292C119.066 122.292 124.146 125.572 124.786 132.292H119.386C118.786 128.492 116.666 126.532 112.546 126.532C107.506 126.532 104.226 130.452 104.226 136.852V137.172C104.226 143.612 107.306 147.412 112.586 147.412C116.546 147.412 119.346 145.412 119.906 141.372H125.106C124.266 148.252 119.386 151.732 112.586 151.732ZM129.315 151.332V122.732H138.515C144.915 122.732 149.115 125.572 149.115 131.572V131.732C149.115 137.772 144.755 140.452 138.635 140.452H134.635V151.332H129.315ZM134.635 136.612H138.515C142.035 136.612 143.915 134.892 143.915 131.732V131.572C143.915 128.172 141.915 126.852 138.515 126.852H134.635V136.612ZM162.421 151.332V122.732H172.661C178.541 122.732 182.021 124.972 182.021 130.172V130.332C182.021 133.172 180.741 135.412 177.501 136.412C181.381 137.252 183.221 139.372 183.221 143.172V143.332C183.221 148.652 179.701 151.332 173.421 151.332H162.421ZM167.621 147.532H172.781C176.341 147.532 177.981 145.932 177.981 142.972V142.812C177.981 139.852 176.341 138.372 172.421 138.372H167.621V147.532ZM167.621 134.772H172.021C175.541 134.772 176.901 133.492 176.901 130.572V130.412C176.901 127.692 175.341 126.532 171.941 126.532H167.621V134.772ZM187.522 151.332V120.732H192.362V151.332H187.522ZM207.221 147.972C210.821 147.972 212.981 145.292 212.981 141.012V140.732C212.981 136.412 210.821 133.772 207.221 133.772C203.621 133.772 201.421 136.372 201.421 140.692V141.012C201.421 145.292 203.541 147.972 207.221 147.972ZM207.181 151.732C201.021 151.732 196.461 147.452 196.461 141.092V140.772C196.461 134.292 201.061 129.972 207.221 129.972C213.341 129.972 217.941 134.252 217.941 140.652V140.972C217.941 147.492 213.341 151.732 207.181 151.732ZM231.075 151.732C225.075 151.732 220.515 147.812 220.515 141.132V140.812C220.515 134.172 225.235 129.972 231.075 129.972C235.715 129.972 240.075 132.052 240.635 137.812H235.955C235.555 135.012 233.715 133.852 231.155 133.852C227.835 133.852 225.475 136.412 225.475 140.732V141.052C225.475 145.612 227.715 148.012 231.275 148.012C233.835 148.012 236.035 146.492 236.315 143.532H240.755C240.395 148.332 236.755 151.732 231.075 151.732ZM244.522 151.332V120.732H249.362V139.612L256.842 130.412H262.122L254.002 140.012L262.802 151.332H257.202L249.362 141.052V151.332H244.522ZM273.868 151.732C267.868 151.732 263.308 147.812 263.308 141.132V140.812C263.308 134.172 268.028 129.972 273.868 129.972C278.508 129.972 282.868 132.052 283.428 137.812H278.748C278.348 135.012 276.508 133.852 273.948 133.852C270.628 133.852 268.268 136.412 268.268 140.732V141.052C268.268 145.612 270.508 148.012 274.068 148.012C276.628 148.012 278.828 146.492 279.108 143.532H283.548C283.188 148.332 279.548 151.732 273.868 151.732ZM287.316 151.332V120.732H292.156V133.732C293.156 131.692 295.476 129.972 298.916 129.972C303.116 129.972 306.076 132.412 306.076 138.172V151.332H301.236V138.612C301.236 135.452 299.956 134.012 297.076 134.012C294.356 134.012 292.156 135.692 292.156 139.012V151.332H287.316ZM316.732 151.732C312.892 151.732 309.732 149.892 309.732 145.532C309.732 140.652 314.452 138.892 320.452 138.892H323.052V137.812C323.052 135.012 322.092 133.612 319.252 133.612C316.732 133.612 315.492 134.812 315.252 136.892H310.572C310.972 132.012 314.852 129.972 319.532 129.972C324.212 129.972 327.892 131.892 327.892 137.612V151.332H323.132V148.772C321.772 150.572 319.932 151.732 316.732 151.732ZM317.892 148.252C320.852 148.252 323.052 146.692 323.052 144.012V141.932H320.572C316.892 141.932 314.532 142.772 314.532 145.332C314.532 147.092 315.492 148.252 317.892 148.252ZM333.16 151.332V130.412H338V151.332H333.16ZM335.52 126.972C333.92 126.972 332.64 125.772 332.64 124.212C332.64 122.612 333.92 121.412 335.52 121.412C337.12 121.412 338.4 122.612 338.4 124.212C338.4 125.772 337.12 126.972 335.52 126.972ZM343.499 151.332V130.412H348.339V133.732C349.339 131.692 351.659 129.972 355.099 129.972C359.299 129.972 362.259 132.412 362.259 138.172V151.332H357.419V138.612C357.419 135.452 356.139 134.012 353.259 134.012C350.539 134.012 348.339 135.692 348.339 139.012V151.332H343.499ZM374.766 151.332L384.326 122.732H391.286L400.726 151.332H395.206L392.926 144.252H382.006L379.766 151.332H374.766ZM387.486 127.092L383.246 140.372H391.686L387.486 127.092ZM404.851 151.332V122.732H410.211V151.332H404.851ZM97.5372 195.332V166.732H102.857V178.892H115.697V166.732H121.057V195.332H115.697V183.172H102.857V195.332H97.5372ZM132.061 195.732C128.221 195.732 125.061 193.892 125.061 189.532C125.061 184.652 129.781 182.892 135.781 182.892H138.381V181.812C138.381 179.012 137.421 177.612 134.581 177.612C132.061 177.612 130.821 178.812 130.581 180.892H125.901C126.301 176.012 130.181 173.972 134.861 173.972C139.541 173.972 143.221 175.892 143.221 181.612V195.332H138.461V192.772C137.101 194.572 135.261 195.732 132.061 195.732ZM133.221 192.252C136.181 192.252 138.381 190.692 138.381 188.012V185.932H135.901C132.221 185.932 129.861 186.772 129.861 189.332C129.861 191.092 130.821 192.252 133.221 192.252ZM157.528 195.732C151.528 195.732 146.968 191.812 146.968 185.132V184.812C146.968 178.172 151.688 173.972 157.528 173.972C162.168 173.972 166.528 176.052 167.088 181.812H162.408C162.008 179.012 160.168 177.852 157.608 177.852C154.288 177.852 151.928 180.412 151.928 184.732V185.052C151.928 189.612 154.168 192.012 157.728 192.012C160.288 192.012 162.488 190.492 162.768 187.532H167.208C166.848 192.332 163.208 195.732 157.528 195.732ZM170.976 195.332V164.732H175.816V183.612L183.296 174.412H188.576L180.456 184.012L189.256 195.332H183.656L175.816 185.052V195.332H170.976ZM197.267 195.732C193.427 195.732 190.267 193.892 190.267 189.532C190.267 184.652 194.987 182.892 200.987 182.892H203.587V181.812C203.587 179.012 202.627 177.612 199.787 177.612C197.267 177.612 196.027 178.812 195.787 180.892H191.107C191.507 176.012 195.387 173.972 200.067 173.972C204.747 173.972 208.427 175.892 208.427 181.612V195.332H203.667V192.772C202.307 194.572 200.467 195.732 197.267 195.732ZM198.427 192.252C201.387 192.252 203.587 190.692 203.587 188.012V185.932H201.107C197.427 185.932 195.067 186.772 195.067 189.332C195.067 191.092 196.027 192.252 198.427 192.252ZM220.695 195.692C216.535 195.692 214.375 193.452 214.375 189.492V178.052H211.575V174.412H214.375V169.812H219.215V174.412H223.815V178.052H219.215V189.052C219.215 190.892 220.095 191.732 221.615 191.732C222.575 191.732 223.295 191.612 223.975 191.332V195.172C223.215 195.452 222.175 195.692 220.695 195.692ZM227.94 195.332V164.732H232.78V177.732C233.78 175.692 236.1 173.972 239.54 173.972C243.74 173.972 246.7 176.412 246.7 182.172V195.332H241.86V182.612C241.86 179.452 240.58 178.012 237.7 178.012C234.98 178.012 232.78 179.692 232.78 183.012V195.332H227.94ZM261.236 191.972C264.836 191.972 266.996 189.292 266.996 185.012V184.732C266.996 180.412 264.836 177.772 261.236 177.772C257.636 177.772 255.436 180.372 255.436 184.692V185.012C255.436 189.292 257.556 191.972 261.236 191.972ZM261.196 195.732C255.036 195.732 250.476 191.452 250.476 185.092V184.772C250.476 178.292 255.076 173.972 261.236 173.972C267.356 173.972 271.956 178.252 271.956 184.652V184.972C271.956 191.492 267.356 195.732 261.196 195.732ZM275.929 195.332V174.412H280.769V177.732C281.769 175.692 284.089 173.972 287.529 173.972C291.729 173.972 294.689 176.412 294.689 182.172V195.332H289.849V182.612C289.849 179.452 288.569 178.012 285.689 178.012C282.969 178.012 280.769 179.692 280.769 183.012V195.332H275.929ZM306.717 195.332V194.372L317.517 182.972C320.237 180.092 321.877 177.572 321.877 174.852C321.877 172.172 320.357 170.492 317.597 170.492C314.757 170.492 312.957 172.132 312.477 176.172H307.597C307.957 169.932 311.717 166.332 317.757 166.332C323.677 166.332 327.197 169.732 327.197 174.772C327.197 178.492 324.997 181.732 321.597 185.012L315.237 191.212H327.397V195.332H306.717ZM342.806 191.492C347.206 191.492 349.326 188.132 349.326 181.652V180.252C349.326 174.172 347.006 170.492 342.726 170.492C338.406 170.492 336.046 173.932 336.046 180.292V181.732C336.046 188.212 338.526 191.492 342.806 191.492ZM342.686 195.732C335.406 195.732 330.686 190.372 330.686 181.772V180.332C330.686 171.652 335.486 166.332 342.686 166.332C349.926 166.332 354.646 171.612 354.646 180.212V181.652C354.646 190.252 350.166 195.732 342.686 195.732ZM356.893 195.332V194.372L367.693 182.972C370.413 180.092 372.053 177.572 372.053 174.852C372.053 172.172 370.533 170.492 367.773 170.492C364.933 170.492 363.133 172.132 362.653 176.172H357.773C358.133 169.932 361.893 166.332 367.933 166.332C373.853 166.332 377.373 169.732 377.373 174.772C377.373 178.492 375.173 181.732 371.773 185.012L365.413 191.212H377.573V195.332H356.893ZM391.178 195.732C384.378 195.732 380.658 191.972 380.418 186.492H385.258C385.538 189.492 387.218 191.732 391.058 191.732C394.778 191.732 396.498 189.932 396.498 187.092C396.498 183.972 394.818 182.412 391.338 182.412H389.138V178.612H391.178C394.458 178.612 395.938 177.092 395.938 174.412C395.938 172.092 394.458 170.372 391.498 170.372C388.458 170.372 386.498 172.212 386.178 175.092H381.458C381.738 170.132 385.458 166.332 391.578 166.332C397.538 166.332 401.018 169.772 401.018 174.012C401.018 177.252 399.138 179.212 396.378 180.252C399.698 181.012 401.898 183.372 401.898 187.172C401.898 192.452 397.738 195.732 391.178 195.732Z" fill="white"/>
<path d="M214.184 88.337H215.666C218.706 88.337 220.169 86.589 220.169 83.587V83.435C220.169 80.509 218.839 78.742 215.647 78.742H214.184V88.337ZM211.657 90.332V76.747H215.78C220.511 76.747 222.81 79.445 222.81 83.397V83.568C222.81 87.52 220.511 90.332 215.742 90.332H211.657ZM223.414 90.332L227.955 76.747H231.261L235.745 90.332H233.123L232.04 86.969H226.853L225.789 90.332H223.414ZM229.456 78.818L227.442 85.126H231.451L229.456 78.818ZM243.005 90.522C238.749 90.522 236.374 87.805 236.374 83.625V83.473C236.374 79.388 239.186 76.538 242.967 76.538C246.083 76.538 248.496 78.096 248.8 81.288H246.235C245.95 79.483 244.943 78.552 242.986 78.552C240.592 78.552 239.034 80.414 239.034 83.454V83.606C239.034 86.665 240.497 88.47 243.005 88.47C244.886 88.47 246.216 87.52 246.482 85.601H248.952C248.553 88.869 246.235 90.522 243.005 90.522ZM249.818 90.332L254.359 76.747H257.665L262.149 90.332H259.527L258.444 86.969H253.257L252.193 90.332H249.818ZM255.86 78.818L253.846 85.126H257.855L255.86 78.818ZM266.749 88.337H268.231C271.271 88.337 272.734 86.589 272.734 83.587V83.435C272.734 80.509 271.404 78.742 268.212 78.742H266.749V88.337ZM264.222 90.332V76.747H268.345C273.076 76.747 275.375 79.445 275.375 83.397V83.568C275.375 87.52 273.076 90.332 268.307 90.332H264.222ZM277.786 90.332V76.747H286.279V78.742H280.313V82.466H285.101V84.366H280.313V88.337H286.602V90.332H277.786Z" fill="#FAFAFA"/>
<line opacity="0.4" x1="154.099" y1="107.916" x2="344.099" y2="107.916" stroke="#9CA3AF" stroke-width="2"/>
<g clip-path="url(#clip0_20306_621)">
<path d="M354.044 356.685C354.044 297.718 306.353 249.916 247.522 249.916C188.691 249.916 140.999 297.718 140.999 356.685C140.999 415.651 188.691 463.453 247.522 463.453C306.353 463.453 354.044 415.651 354.044 356.685Z" fill="#522785"/>
<path d="M359 433.658C359 414.46 343.473 398.896 324.319 398.896C305.164 398.896 289.637 414.46 289.637 433.658C289.637 452.857 305.164 468.42 324.319 468.42C343.473 468.42 359 452.857 359 433.658Z" fill="white"/>
</g>
<defs>
<linearGradient id="paint0_linear_20306_621" x1="249.149" y1="37.8876" x2="249.149" y2="632.959" gradientUnits="userSpaceOnUse">
<stop offset="0.000572331" stop-color="#F15A24"/>
<stop offset="0.463203" stop-color="#47110A"/>
<stop offset="0.961881" stop-color="#F15A24"/>
</linearGradient>
<linearGradient id="paint1_linear_20306_621" x1="498.745" y1="6.42815" x2="-22.3987" y2="5.42605" gradientUnits="userSpaceOnUse">
<stop offset="0.015668" stop-color="#47110A"/>
<stop offset="0.015768" stop-color="#47110A"/>
<stop offset="0.480532" stop-color="#F15A24"/>
<stop offset="0.950573" stop-color="#47110A"/>
</linearGradient>
<linearGradient id="paint2_linear_20306_621" x1="20.7119" y1="611.065" x2="8.06334" y2="22.9972" gradientUnits="userSpaceOnUse">
<stop offset="0.0396479" stop-color="#47110A"/>
<stop offset="0.451723" stop-color="#F15A24"/>
<stop offset="0.998103" stop-color="#47110A"/>
</linearGradient>
<linearGradient id="paint3_linear_20306_621" x1="250.041" y1="-73.1322" x2="250.041" y2="556.567" gradientUnits="userSpaceOnUse">
<stop offset="0.074236" stop-color="#F15A24"/>
<stop offset="0.218297" stop-color="#47110A"/>
<stop offset="0.549386" stop-color="#F15A24"/>
<stop offset="1" stop-color="#47110A"/>
</linearGradient>
<linearGradient id="paint4_linear_20306_621" x1="478.242" y1="30.4364" x2="0.613862" y2="29.4583" gradientUnits="userSpaceOnUse">
<stop offset="0.00582305" stop-color="#F15A24"/>
<stop offset="0.471312" stop-color="#47110A"/>
<stop offset="0.924755" stop-color="#F15A24"/>
</linearGradient>
<clipPath id="clip0_20306_621">
<rect width="218" height="218.503" fill="white" transform="translate(140.999 249.916)"/>
</clipPath>
</defs>
</svg>
