<svg width="499" height="601" viewBox="0 0 499 601" fill="none" xmlns="http://www.w3.org/2000/svg">
<path d="M498.247 0H0.0498047V372.645C0.0487869 505.642 119.343 600.677 248.521 600.999C378.067 601.323 498.247 504.388 498.247 372.645V0Z" fill="url(#paint0_linear_20446_401)"/>
<path d="M498.247 0H0L21.4194 23.7126L478.975 23.462L498.247 0Z" fill="url(#paint1_linear_20446_401)"/>
<path d="M21.7119 366.13V23.9043H478.37V366.13C478.37 486.804 368.299 575.753 249.466 575.456C130.965 575.16 21.711 487.958 21.7119 366.13Z" fill="url(#paint2_linear_20446_401)" stroke="url(#paint3_linear_20446_401)" stroke-width="2"/>
<path d="M458.502 46.1816H41.1514V362.713C41.1505 474.612 141.086 554.57 249.301 554.841C357.825 555.113 458.502 473.556 458.502 362.713V46.1816Z" fill="#F15A24"/>
<path d="M477.367 24.9043H22.7109L41.1392 46.302L458.491 46.2478L477.367 24.9043Z" fill="url(#paint4_linear_20446_401)"/>
<path d="M201.132 160.332V131.732H206.492V160.332H201.132ZM225.357 160.732C216.397 160.732 211.397 155.012 211.397 146.212V145.892C211.397 137.292 217.317 131.292 225.277 131.292C231.837 131.292 236.917 134.572 237.557 141.292H232.157C231.557 137.492 229.437 135.532 225.317 135.532C220.277 135.532 216.997 139.452 216.997 145.852V146.172C216.997 152.612 220.077 156.412 225.357 156.412C229.317 156.412 232.117 154.412 232.677 150.372H237.877C237.037 157.252 232.157 160.732 225.357 160.732ZM248.819 160.332L239.179 131.732H244.739L252.179 154.932L259.659 131.732H264.659L254.979 160.332H248.819ZM268.443 160.332V131.732H278.043C284.323 131.732 288.723 134.292 288.723 140.132V140.292C288.723 144.772 285.923 147.052 282.363 147.972L290.403 160.332H284.643L277.163 148.772H273.763V160.332H268.443ZM273.763 144.972H278.043C281.603 144.972 283.483 143.452 283.483 140.412V140.252C283.483 136.972 281.443 135.852 278.043 135.852H273.763V144.972ZM91.7802 213.332V184.732H100.46C110.42 184.732 115.26 190.412 115.26 198.732V199.092C115.26 207.412 110.42 213.332 100.38 213.332H91.7802ZM97.1002 209.132H100.22C106.62 209.132 109.7 205.452 109.7 199.132V198.812C109.7 192.652 106.9 188.932 100.18 188.932H97.1002V209.132ZM128.735 213.732C122.575 213.732 118.135 209.692 118.135 203.092V202.772C118.135 196.292 122.575 191.972 128.535 191.972C133.735 191.972 138.415 195.052 138.415 202.532V203.932H123.095C123.255 207.892 125.255 210.132 128.855 210.132C131.775 210.132 133.295 208.972 133.655 206.932H138.335C137.655 211.332 134.095 213.732 128.735 213.732ZM123.175 200.692H133.615C133.375 197.092 131.535 195.492 128.535 195.492C125.615 195.492 123.655 197.452 123.175 200.692ZM147.427 213.332L139.787 192.412H144.987L150.467 208.372L155.867 192.412H160.627L153.067 213.332H147.427ZM172.232 213.732C166.072 213.732 161.632 209.692 161.632 203.092V202.772C161.632 196.292 166.072 191.972 172.032 191.972C177.232 191.972 181.912 195.052 181.912 202.532V203.932H166.592C166.752 207.892 168.752 210.132 172.352 210.132C175.272 210.132 176.792 208.972 177.152 206.932H181.832C181.152 211.332 177.592 213.732 172.232 213.732ZM166.672 200.692H177.112C176.872 197.092 175.032 195.492 172.032 195.492C169.112 195.492 167.152 197.452 166.672 200.692ZM185.955 213.332V182.732H190.795V213.332H185.955ZM205.614 213.732C199.454 213.732 194.894 209.452 194.894 203.092V202.772C194.894 196.292 199.494 191.972 205.654 191.972C211.774 191.972 216.374 196.252 216.374 202.652V202.972C216.374 209.492 211.774 213.732 205.614 213.732ZM205.654 209.972C209.254 209.972 211.414 207.292 211.414 203.012V202.732C211.414 198.412 209.254 195.772 205.654 195.772C202.054 195.772 199.854 198.372 199.854 202.692V203.012C199.854 207.292 201.974 209.972 205.654 209.972ZM220.347 220.492V192.412H225.187V195.772C226.347 193.772 228.947 191.972 232.027 191.972C237.267 191.972 241.307 195.852 241.307 202.612V202.932C241.307 209.652 237.427 213.732 232.027 213.732C228.707 213.732 226.307 212.092 225.187 210.052V220.492H220.347ZM230.827 209.892C234.387 209.892 236.347 207.492 236.347 203.012V202.692C236.347 198.052 233.947 195.772 230.787 195.772C227.427 195.772 225.027 198.052 225.027 202.692V203.012C225.027 207.692 227.307 209.892 230.827 209.892ZM245.26 213.332V192.412H250.1V195.612C251.1 193.652 253.38 191.972 256.46 191.972C259.18 191.972 261.34 193.132 262.38 195.732C263.98 193.132 266.86 191.972 269.46 191.972C273.3 191.972 276.42 194.332 276.42 200.092V213.332H271.58V200.412C271.58 197.332 270.26 196.012 267.86 196.012C265.46 196.012 263.26 197.612 263.26 200.812V213.332H258.42V200.412C258.42 197.332 257.06 196.012 254.7 196.012C252.3 196.012 250.1 197.612 250.1 200.812V213.332H245.26ZM290.779 213.732C284.619 213.732 280.179 209.692 280.179 203.092V202.772C280.179 196.292 284.619 191.972 290.579 191.972C295.779 191.972 300.459 195.052 300.459 202.532V203.932H285.139C285.299 207.892 287.299 210.132 290.899 210.132C293.819 210.132 295.339 208.972 295.699 206.932H300.379C299.699 211.332 296.139 213.732 290.779 213.732ZM285.219 200.692H295.659C295.419 197.092 293.579 195.492 290.579 195.492C287.659 195.492 285.699 197.452 285.219 200.692ZM304.382 213.332V192.412H309.222V195.732C310.222 193.692 312.542 191.972 315.982 191.972C320.182 191.972 323.142 194.412 323.142 200.172V213.332H318.302V200.612C318.302 197.452 317.022 196.012 314.142 196.012C311.422 196.012 309.222 197.692 309.222 201.012V213.332H304.382ZM335.438 213.692C331.278 213.692 329.118 211.452 329.118 207.492V196.052H326.318V192.412H329.118V187.812H333.958V192.412H338.558V196.052H333.958V207.052C333.958 208.892 334.838 209.732 336.358 209.732C337.318 209.732 338.038 209.612 338.718 209.332V213.172C337.958 213.452 336.918 213.692 335.438 213.692ZM356.255 213.332V190.012L350.215 194.132V189.452L356.855 184.732H361.615V213.332H356.255ZM379.332 213.732C372.052 213.732 367.332 208.372 367.332 199.772V198.332C367.332 189.652 372.132 184.332 379.332 184.332C386.572 184.332 391.292 189.612 391.292 198.212V199.652C391.292 208.252 386.812 213.732 379.332 213.732ZM379.452 209.492C383.852 209.492 385.972 206.132 385.972 199.652V198.252C385.972 192.172 383.652 188.492 379.372 188.492C375.052 188.492 372.692 191.932 372.692 198.292V199.732C372.692 206.212 375.172 209.492 379.452 209.492ZM400.259 213.332V190.012L394.219 194.132V189.452L400.859 184.732H405.619V213.332H400.259Z" fill="white"/>
<path d="M214.184 88.337H215.666C218.706 88.337 220.169 86.589 220.169 83.587V83.435C220.169 80.509 218.839 78.742 215.647 78.742H214.184V88.337ZM211.657 90.332V76.747H215.78C220.511 76.747 222.81 79.445 222.81 83.397V83.568C222.81 87.52 220.511 90.332 215.742 90.332H211.657ZM223.414 90.332L227.955 76.747H231.261L235.745 90.332H233.123L232.04 86.969H226.853L225.789 90.332H223.414ZM229.456 78.818L227.442 85.126H231.451L229.456 78.818ZM243.005 90.522C238.749 90.522 236.374 87.805 236.374 83.625V83.473C236.374 79.388 239.186 76.538 242.967 76.538C246.083 76.538 248.496 78.096 248.8 81.288H246.235C245.95 79.483 244.943 78.552 242.986 78.552C240.592 78.552 239.034 80.414 239.034 83.454V83.606C239.034 86.665 240.497 88.47 243.005 88.47C244.886 88.47 246.216 87.52 246.482 85.601H248.952C248.553 88.869 246.235 90.522 243.005 90.522ZM249.818 90.332L254.359 76.747H257.665L262.149 90.332H259.527L258.444 86.969H253.257L252.193 90.332H249.818ZM255.86 78.818L253.846 85.126H257.855L255.86 78.818ZM266.749 88.337H268.231C271.271 88.337 272.734 86.589 272.734 83.587V83.435C272.734 80.509 271.404 78.742 268.212 78.742H266.749V88.337ZM264.222 90.332V76.747H268.345C273.076 76.747 275.375 79.445 275.375 83.397V83.568C275.375 87.52 273.076 90.332 268.307 90.332H264.222ZM277.786 90.332V76.747H286.279V78.742H280.313V82.466H285.101V84.366H280.313V88.337H286.602V90.332H277.786Z" fill="#FAFAFA"/>
<line opacity="0.4" x1="154.099" y1="107.916" x2="344.099" y2="107.916" stroke="#9CA3AF" stroke-width="2"/>
<g clip-path="url(#clip0_20446_401)">
<path d="M354.044 356.685C354.044 297.718 306.353 249.916 247.522 249.916C188.691 249.916 140.999 297.718 140.999 356.685C140.999 415.651 188.691 463.453 247.522 463.453C306.353 463.453 354.044 415.651 354.044 356.685Z" fill="#522785"/>
<path d="M359 433.658C359 414.46 343.473 398.896 324.319 398.896C305.164 398.896 289.637 414.46 289.637 433.658C289.637 452.857 305.164 468.42 324.319 468.42C343.473 468.42 359 452.857 359 433.658Z" fill="white"/>
</g>
<defs>
<linearGradient id="paint0_linear_20446_401" x1="249.149" y1="37.8876" x2="249.149" y2="632.959" gradientUnits="userSpaceOnUse">
<stop offset="0.000572331" stop-color="#F15A24"/>
<stop offset="0.463203" stop-color="#47110A"/>
<stop offset="0.961881" stop-color="#F15A24"/>
</linearGradient>
<linearGradient id="paint1_linear_20446_401" x1="498.745" y1="6.42815" x2="-22.3987" y2="5.42605" gradientUnits="userSpaceOnUse">
<stop offset="0.015668" stop-color="#47110A"/>
<stop offset="0.015768" stop-color="#47110A"/>
<stop offset="0.480532" stop-color="#F15A24"/>
<stop offset="0.950573" stop-color="#47110A"/>
</linearGradient>
<linearGradient id="paint2_linear_20446_401" x1="20.7119" y1="611.065" x2="8.06334" y2="22.9972" gradientUnits="userSpaceOnUse">
<stop offset="0.0396479" stop-color="#47110A"/>
<stop offset="0.451723" stop-color="#F15A24"/>
<stop offset="0.998103" stop-color="#47110A"/>
</linearGradient>
<linearGradient id="paint3_linear_20446_401" x1="250.041" y1="-73.1322" x2="250.041" y2="556.567" gradientUnits="userSpaceOnUse">
<stop offset="0.074236" stop-color="#F15A24"/>
<stop offset="0.218297" stop-color="#47110A"/>
<stop offset="0.549386" stop-color="#F15A24"/>
<stop offset="1" stop-color="#47110A"/>
</linearGradient>
<linearGradient id="paint4_linear_20446_401" x1="478.242" y1="30.4364" x2="0.613862" y2="29.4583" gradientUnits="userSpaceOnUse">
<stop offset="0.00582305" stop-color="#F15A24"/>
<stop offset="0.471312" stop-color="#47110A"/>
<stop offset="0.924755" stop-color="#F15A24"/>
</linearGradient>
<clipPath id="clip0_20446_401">
<rect width="218" height="218.503" fill="white" transform="translate(140.999 249.916)"/>
</clipPath>
</defs>
</svg>
