<svg width="499" height="601" viewBox="0 0 499 601" fill="none" xmlns="http://www.w3.org/2000/svg">
<path d="M498.741 0H0.543945V372.645C0.542928 505.642 119.837 600.677 249.015 600.999C378.561 601.323 498.741 504.388 498.741 372.645V0Z" fill="url(#paint0_linear_41_17109)"/>
<path d="M498.741 0H0.494141L21.9135 23.7126L479.469 23.462L498.741 0Z" fill="url(#paint1_linear_41_17109)"/>
<path d="M22.2061 366.13V23.9043H478.864V366.13C478.864 486.804 368.793 575.753 249.96 575.456C131.459 575.16 22.2051 487.958 22.2061 366.13Z" fill="url(#paint2_linear_41_17109)" stroke="url(#paint3_linear_41_17109)" stroke-width="2"/>
<path d="M458.996 46.1816H41.6455V362.713C41.6447 474.612 141.58 554.57 249.795 554.841C358.319 555.113 458.996 473.556 458.996 362.713V46.1816Z" fill="#381B84"/>
<path d="M477.862 24.9043H23.2051L41.6333 46.302L458.986 46.2478L477.862 24.9043Z" fill="url(#paint4_linear_41_17109)"/>
<path d="M112.586 152.662H117.946V124.062H112.586V152.662ZM123.891 152.662H128.731V140.342C128.731 137.022 130.931 135.342 133.651 135.342C136.531 135.342 137.811 136.782 137.811 139.942V152.662H142.651V139.502C142.651 133.742 139.691 131.302 135.491 131.302C132.051 131.302 129.731 133.022 128.731 135.062V131.742H123.891V152.662ZM154.947 153.022C156.427 153.022 157.467 152.782 158.227 152.502V148.662C157.547 148.942 156.827 149.062 155.867 149.062C154.347 149.062 153.467 148.222 153.467 146.382V135.382H158.067V131.742H153.467V127.142H148.627V131.742H145.827V135.382H148.627V146.822C148.627 150.782 150.787 153.022 154.947 153.022ZM162.193 152.662H167.033V141.782C167.033 137.342 169.593 135.982 173.833 135.942V131.422C170.313 131.462 168.353 133.022 167.033 135.662V131.742H162.193V152.662ZM186.661 149.302C182.981 149.302 180.861 146.622 180.861 142.342V142.022C180.861 137.702 183.061 135.102 186.661 135.102C190.261 135.102 192.421 137.742 192.421 142.062V142.342C192.421 146.622 190.261 149.302 186.661 149.302ZM186.621 153.062C192.781 153.062 197.381 148.822 197.381 142.302V141.982C197.381 135.582 192.781 131.302 186.661 131.302C180.501 131.302 175.901 135.622 175.901 142.102V142.422C175.901 148.782 180.461 153.062 186.621 153.062ZM209.194 153.062C212.274 153.062 214.954 151.222 216.074 149.142V152.662H220.914V122.062H216.074V134.942C214.914 132.862 212.794 131.302 209.394 131.302C203.954 131.302 199.994 135.542 199.994 142.222V142.542C199.994 149.342 203.954 153.062 209.194 153.062ZM210.394 149.222C207.274 149.222 204.954 147.022 204.954 142.422V142.102C204.954 137.582 207.034 135.102 210.594 135.102C214.114 135.102 216.234 137.382 216.234 141.982V142.302C216.234 146.982 213.754 149.222 210.394 149.222ZM233.266 153.062C236.666 153.062 238.866 151.422 239.906 149.382V152.662H244.746V131.742H239.906V144.182C239.906 147.502 237.626 149.182 235.026 149.182C232.226 149.182 230.906 147.742 230.906 144.582V131.742H226.066V145.142C226.066 150.702 229.146 153.062 233.266 153.062ZM259.245 153.062C264.925 153.062 268.565 149.662 268.925 144.862H264.485C264.205 147.822 262.005 149.342 259.445 149.342C255.885 149.342 253.645 146.942 253.645 142.382V142.062C253.645 137.742 256.005 135.182 259.325 135.182C261.885 135.182 263.725 136.342 264.125 139.142H268.805C268.245 133.382 263.885 131.302 259.245 131.302C253.405 131.302 248.685 135.502 248.685 142.142V142.462C248.685 149.142 253.245 153.062 259.245 153.062ZM279.813 153.022C281.293 153.022 282.333 152.782 283.093 152.502V148.662C282.413 148.942 281.693 149.062 280.733 149.062C279.213 149.062 278.333 148.222 278.333 146.382V135.382H282.933V131.742H278.333V127.142H273.493V131.742H270.693V135.382H273.493V146.822C273.493 150.782 275.653 153.022 279.813 153.022ZM287.179 152.662H292.019V131.742H287.179V152.662ZM289.539 128.302C291.139 128.302 292.419 127.102 292.419 125.542C292.419 123.942 291.139 122.742 289.539 122.742C287.939 122.742 286.659 123.942 286.659 125.542C286.659 127.102 287.939 128.302 289.539 128.302ZM306.878 149.302C303.198 149.302 301.078 146.622 301.078 142.342V142.022C301.078 137.702 303.278 135.102 306.878 135.102C310.478 135.102 312.638 137.742 312.638 142.062V142.342C312.638 146.622 310.478 149.302 306.878 149.302ZM306.838 153.062C312.998 153.062 317.598 148.822 317.598 142.302V141.982C317.598 135.582 312.998 131.302 306.878 131.302C300.718 131.302 296.118 135.622 296.118 142.102V142.422C296.118 148.782 300.678 153.062 306.838 153.062ZM321.571 152.662H326.411V140.342C326.411 137.022 328.611 135.342 331.331 135.342C334.211 135.342 335.491 136.782 335.491 139.942V152.662H340.331V139.502C340.331 133.742 337.371 131.302 333.171 131.302C329.731 131.302 327.411 133.022 326.411 135.062V131.742H321.571V152.662ZM361.758 153.022C363.238 153.022 364.278 152.782 365.038 152.502V148.662C364.358 148.942 363.638 149.062 362.678 149.062C361.158 149.062 360.278 148.222 360.278 146.382V135.382H364.878V131.742H360.278V127.142H355.438V131.742H352.638V135.382H355.438V146.822C355.438 150.782 357.598 153.022 361.758 153.022ZM378.364 149.302C374.684 149.302 372.564 146.622 372.564 142.342V142.022C372.564 137.702 374.764 135.102 378.364 135.102C381.964 135.102 384.124 137.742 384.124 142.062V142.342C384.124 146.622 381.964 149.302 378.364 149.302ZM378.324 153.062C384.484 153.062 389.084 148.822 389.084 142.302V141.982C389.084 135.582 384.484 131.302 378.364 131.302C372.204 131.302 367.604 135.622 367.604 142.102V142.422C367.604 148.782 372.164 153.062 378.324 153.062ZM150.234 196.662H161.234C167.514 196.662 171.034 193.982 171.034 188.662V188.502C171.034 184.702 169.194 182.582 165.314 181.742C168.554 180.742 169.834 178.502 169.834 175.662V175.502C169.834 170.302 166.354 168.062 160.474 168.062H150.234V196.662ZM155.434 192.862V183.702H160.234C164.154 183.702 165.794 185.182 165.794 188.142V188.302C165.794 191.262 164.154 192.862 160.594 192.862H155.434ZM155.434 180.102V171.862H159.754C163.154 171.862 164.714 173.022 164.714 175.742V175.902C164.714 178.822 163.354 180.102 159.834 180.102H155.434ZM175.336 196.662H180.176V166.062H175.336V196.662ZM195.035 193.302C191.355 193.302 189.235 190.622 189.235 186.342V186.022C189.235 181.702 191.435 179.102 195.035 179.102C198.635 179.102 200.795 181.742 200.795 186.062V186.342C200.795 190.622 198.635 193.302 195.035 193.302ZM194.995 197.062C201.155 197.062 205.755 192.822 205.755 186.302V185.982C205.755 179.582 201.155 175.302 195.035 175.302C188.875 175.302 184.275 179.622 184.275 186.102V186.422C184.275 192.782 188.835 197.062 194.995 197.062ZM218.888 197.062C224.568 197.062 228.208 193.662 228.568 188.862H224.128C223.848 191.822 221.648 193.342 219.088 193.342C215.528 193.342 213.288 190.942 213.288 186.382V186.062C213.288 181.742 215.648 179.182 218.968 179.182C221.528 179.182 223.368 180.342 223.768 183.142H228.448C227.888 177.382 223.528 175.302 218.888 175.302C213.048 175.302 208.328 179.502 208.328 186.142V186.462C208.328 193.142 212.888 197.062 218.888 197.062ZM232.336 196.662H237.176V186.382L245.016 196.662H250.616L241.816 185.342L249.936 175.742H244.656L237.176 184.942V166.062H232.336V196.662ZM261.682 197.062C267.362 197.062 271.002 193.662 271.362 188.862H266.922C266.642 191.822 264.442 193.342 261.882 193.342C258.322 193.342 256.082 190.942 256.082 186.382V186.062C256.082 181.742 258.442 179.182 261.762 179.182C264.322 179.182 266.162 180.342 266.562 183.142H271.242C270.682 177.382 266.322 175.302 261.682 175.302C255.842 175.302 251.122 179.502 251.122 186.142V186.462C251.122 193.142 255.682 197.062 261.682 197.062ZM275.13 196.662H279.97V184.342C279.97 181.022 282.17 179.342 284.89 179.342C287.77 179.342 289.05 180.782 289.05 183.942V196.662H293.89V183.502C293.89 177.742 290.93 175.302 286.73 175.302C283.29 175.302 280.97 177.022 279.97 179.062V166.062H275.13V196.662ZM304.546 197.062C307.746 197.062 309.586 195.902 310.946 194.102V196.662H315.706V182.942C315.706 177.222 312.026 175.302 307.346 175.302C302.666 175.302 298.786 177.342 298.386 182.222H303.066C303.306 180.142 304.546 178.942 307.066 178.942C309.906 178.942 310.866 180.342 310.866 183.142V184.222H308.266C302.266 184.222 297.546 185.982 297.546 190.862C297.546 195.222 300.706 197.062 304.546 197.062ZM305.706 193.582C303.306 193.582 302.346 192.422 302.346 190.662C302.346 188.102 304.706 187.262 308.386 187.262H310.866V189.342C310.866 192.022 308.666 193.582 305.706 193.582ZM320.973 196.662H325.813V175.742H320.973V196.662ZM323.333 172.302C324.933 172.302 326.213 171.102 326.213 169.542C326.213 167.942 324.933 166.742 323.333 166.742C321.733 166.742 320.453 167.942 320.453 169.542C320.453 171.102 321.733 172.302 323.333 172.302ZM331.312 196.662H336.152V184.342C336.152 181.022 338.352 179.342 341.072 179.342C343.952 179.342 345.232 180.782 345.232 183.942V196.662H350.072V183.502C350.072 177.742 347.112 175.302 342.912 175.302C339.472 175.302 337.152 177.022 336.152 179.062V175.742H331.312V196.662Z" fill="white"/>
<path d="M215.063 89.6671V80.0721H216.526C219.718 80.0721 221.048 81.8391 221.048 84.7651V84.9171C221.048 87.9191 219.585 89.6671 216.545 89.6671H215.063ZM212.536 91.6621H216.621C221.39 91.6621 223.689 88.8501 223.689 84.8981V84.7271C223.689 80.7751 221.39 78.0771 216.659 78.0771H212.536V91.6621ZM224.293 91.6621H226.668L227.732 88.2991H232.919L234.002 91.6621H236.624L232.14 78.0771H228.834L224.293 91.6621ZM230.335 80.1481L232.33 86.4561H228.321L230.335 80.1481ZM243.884 91.8521C247.114 91.8521 249.432 90.1991 249.831 86.9311H247.361C247.095 88.8501 245.765 89.8001 243.884 89.8001C241.376 89.8001 239.913 87.9951 239.913 84.9361V84.7841C239.913 81.7441 241.471 79.8821 243.865 79.8821C245.822 79.8821 246.829 80.8131 247.114 82.6181H249.679C249.375 79.4261 246.962 77.8681 243.846 77.8681C240.065 77.8681 237.253 80.7181 237.253 84.8031V84.9551C237.253 89.1351 239.628 91.8521 243.884 91.8521ZM250.697 91.6621H253.072L254.136 88.2991H259.323L260.406 91.6621H263.028L258.544 78.0771H255.238L250.697 91.6621ZM256.739 80.1481L258.734 86.4561H254.725L256.739 80.1481ZM267.628 89.6671V80.0721H269.091C272.283 80.0721 273.613 81.8391 273.613 84.7651V84.9171C273.613 87.9191 272.15 89.6671 269.11 89.6671H267.628ZM265.101 91.6621H269.186C273.955 91.6621 276.254 88.8501 276.254 84.8981V84.7271C276.254 80.7751 273.955 78.0771 269.224 78.0771H265.101V91.6621ZM278.664 91.6621H287.48V89.6671H281.191V85.6961H285.979V83.7961H281.191V80.0721H287.157V78.0771H278.664V91.6621Z" fill="#E4E4E7"/>
<line opacity="0.2" x1="154.978" y1="107.916" x2="344.978" y2="107.916" stroke="#9CA3AF" stroke-width="2"/>
<rect x="142.156" y="250.916" width="69.0655" height="69.3638" rx="34.5328" fill="#24DAD9"/>
<rect x="142.156" y="325.234" width="69.0655" height="69.3638" rx="34.5328" fill="#24DAD9"/>
<rect x="142.156" y="399.553" width="69.0655" height="69.3638" rx="34.5328" fill="#24DAD9"/>
<rect x="216.154" y="250.916" width="69.0655" height="69.3638" rx="34.5328" fill="#24DAD9"/>
<rect x="216.154" y="325.234" width="69.0655" height="69.3638" rx="34.5328" fill="#24DAD9"/>
<rect x="216.154" y="399.553" width="69.0655" height="69.3638" rx="34.5328" fill="#24DAD9"/>
<rect x="290.154" y="250.916" width="69.0655" height="69.3638" rx="34.5328" fill="#24DAD9"/>
<rect x="290.154" y="325.234" width="69.0655" height="69.3638" rx="34.5328" fill="#24DAD9"/>
<rect x="290.154" y="399.553" width="69.0655" height="69.3638" rx="34.5328" fill="white"/>
<defs>
<linearGradient id="paint0_linear_41_17109" x1="249.643" y1="37.8876" x2="249.643" y2="632.959" gradientUnits="userSpaceOnUse">
<stop offset="0.000572331" stop-color="#381B84"/>
<stop offset="0.463203" stop-color="#815EDE"/>
<stop offset="0.961881" stop-color="#381B84"/>
</linearGradient>
<linearGradient id="paint1_linear_41_17109" x1="499.239" y1="6.42815" x2="-21.9046" y2="5.42605" gradientUnits="userSpaceOnUse">
<stop offset="0.015768" stop-color="#815EDE"/>
<stop offset="0.480532" stop-color="#381B84"/>
<stop offset="0.950573" stop-color="#815EDE"/>
</linearGradient>
<linearGradient id="paint2_linear_41_17109" x1="21.2061" y1="611.065" x2="8.55748" y2="22.9972" gradientUnits="userSpaceOnUse">
<stop offset="0.0396479" stop-color="#815EDE"/>
<stop offset="0.451723" stop-color="#381B84"/>
<stop offset="0.998103" stop-color="#815EDE"/>
</linearGradient>
<linearGradient id="paint3_linear_41_17109" x1="250.535" y1="-73.1322" x2="250.535" y2="556.567" gradientUnits="userSpaceOnUse">
<stop offset="0.074236" stop-color="#381B84"/>
<stop offset="0.218297" stop-color="#815EDE"/>
<stop offset="0.549386" stop-color="#381B84"/>
<stop offset="1" stop-color="#815EDE"/>
</linearGradient>
<linearGradient id="paint4_linear_41_17109" x1="478.736" y1="30.4364" x2="1.108" y2="29.4583" gradientUnits="userSpaceOnUse">
<stop offset="0.00582305" stop-color="#381B84"/>
<stop offset="0.471312" stop-color="#815EDE"/>
<stop offset="0.924755" stop-color="#381B84"/>
</linearGradient>
</defs>
</svg>
