<svg width="499" height="601" viewBox="0 0 499 601" fill="none" xmlns="http://www.w3.org/2000/svg">
<path d="M498.764 0H0.566406V372.645C0.565388 505.642 119.86 600.677 249.038 600.999C378.584 601.323 498.764 504.388 498.764 372.645V0Z" fill="url(#paint0_linear_14158_15715)"/>
<path d="M498.764 0H0.516602L21.936 23.7126L479.491 23.462L498.764 0Z" fill="url(#paint1_linear_14158_15715)"/>
<path d="M22.2285 23.9043H478.886V366.13C478.886 486.804 368.816 575.753 249.982 575.456C131.482 575.16 22.2276 487.958 22.2285 366.13V23.9043Z" fill="url(#paint2_linear_14158_15715)" stroke="url(#paint3_linear_14158_15715)" stroke-width="2"/>
<path d="M459.019 46.1816H41.668V362.713C41.6671 474.612 141.603 554.57 249.818 554.841C358.341 555.113 459.019 473.556 459.019 362.713V46.1816Z" fill="#381B84"/>
<path d="M477.884 24.9043H23.2274L41.6557 46.302L459.008 46.2478L477.884 24.9043Z" fill="url(#paint4_linear_14158_15715)"/>
<path d="M112.608 152.662H117.968V124.062H112.608V152.662ZM123.914 152.662H128.754V140.342C128.754 137.022 130.954 135.342 133.674 135.342C136.554 135.342 137.834 136.782 137.834 139.942V152.662H142.674V139.502C142.674 133.742 139.714 131.302 135.514 131.302C132.074 131.302 129.754 133.022 128.754 135.062V131.742H123.914V152.662ZM154.97 153.022C156.45 153.022 157.49 152.782 158.25 152.502V148.662C157.57 148.942 156.85 149.062 155.89 149.062C154.37 149.062 153.49 148.222 153.49 146.382V135.382H158.09V131.742H153.49V127.142H148.65V131.742H145.85V135.382H148.65V146.822C148.65 150.782 150.81 153.022 154.97 153.022ZM162.215 152.662H167.055V141.782C167.055 137.342 169.615 135.982 173.855 135.942V131.422C170.335 131.462 168.375 133.022 167.055 135.662V131.742H162.215V152.662ZM186.683 149.302C183.003 149.302 180.883 146.622 180.883 142.342V142.022C180.883 137.702 183.083 135.102 186.683 135.102C190.283 135.102 192.443 137.742 192.443 142.062V142.342C192.443 146.622 190.283 149.302 186.683 149.302ZM186.643 153.062C192.803 153.062 197.403 148.822 197.403 142.302V141.982C197.403 135.582 192.803 131.302 186.683 131.302C180.523 131.302 175.923 135.622 175.923 142.102V142.422C175.923 148.782 180.483 153.062 186.643 153.062ZM209.216 153.062C212.296 153.062 214.976 151.222 216.096 149.142V152.662H220.936V122.062H216.096V134.942C214.936 132.862 212.816 131.302 209.416 131.302C203.976 131.302 200.016 135.542 200.016 142.222V142.542C200.016 149.342 203.976 153.062 209.216 153.062ZM210.416 149.222C207.296 149.222 204.976 147.022 204.976 142.422V142.102C204.976 137.582 207.056 135.102 210.616 135.102C214.136 135.102 216.256 137.382 216.256 141.982V142.302C216.256 146.982 213.776 149.222 210.416 149.222ZM233.289 153.062C236.689 153.062 238.889 151.422 239.929 149.382V152.662H244.769V131.742H239.929V144.182C239.929 147.502 237.649 149.182 235.049 149.182C232.249 149.182 230.929 147.742 230.929 144.582V131.742H226.089V145.142C226.089 150.702 229.169 153.062 233.289 153.062ZM259.268 153.062C264.948 153.062 268.588 149.662 268.948 144.862H264.508C264.228 147.822 262.028 149.342 259.468 149.342C255.908 149.342 253.668 146.942 253.668 142.382V142.062C253.668 137.742 256.028 135.182 259.348 135.182C261.908 135.182 263.748 136.342 264.148 139.142H268.828C268.268 133.382 263.908 131.302 259.268 131.302C253.428 131.302 248.708 135.502 248.708 142.142V142.462C248.708 149.142 253.268 153.062 259.268 153.062ZM279.835 153.022C281.315 153.022 282.355 152.782 283.115 152.502V148.662C282.435 148.942 281.715 149.062 280.755 149.062C279.235 149.062 278.355 148.222 278.355 146.382V135.382H282.955V131.742H278.355V127.142H273.515V131.742H270.715V135.382H273.515V146.822C273.515 150.782 275.675 153.022 279.835 153.022ZM287.201 152.662H292.041V131.742H287.201V152.662ZM289.561 128.302C291.161 128.302 292.441 127.102 292.441 125.542C292.441 123.942 291.161 122.742 289.561 122.742C287.961 122.742 286.681 123.942 286.681 125.542C286.681 127.102 287.961 128.302 289.561 128.302ZM306.9 149.302C303.22 149.302 301.1 146.622 301.1 142.342V142.022C301.1 137.702 303.3 135.102 306.9 135.102C310.5 135.102 312.66 137.742 312.66 142.062V142.342C312.66 146.622 310.5 149.302 306.9 149.302ZM306.86 153.062C313.02 153.062 317.62 148.822 317.62 142.302V141.982C317.62 135.582 313.02 131.302 306.9 131.302C300.74 131.302 296.14 135.622 296.14 142.102V142.422C296.14 148.782 300.7 153.062 306.86 153.062ZM321.593 152.662H326.433V140.342C326.433 137.022 328.633 135.342 331.353 135.342C334.233 135.342 335.513 136.782 335.513 139.942V152.662H340.353V139.502C340.353 133.742 337.393 131.302 333.193 131.302C329.753 131.302 327.433 133.022 326.433 135.062V131.742H321.593V152.662ZM361.781 153.022C363.261 153.022 364.301 152.782 365.061 152.502V148.662C364.381 148.942 363.661 149.062 362.701 149.062C361.181 149.062 360.301 148.222 360.301 146.382V135.382H364.901V131.742H360.301V127.142H355.461V131.742H352.661V135.382H355.461V146.822C355.461 150.782 357.621 153.022 361.781 153.022ZM378.386 149.302C374.706 149.302 372.586 146.622 372.586 142.342V142.022C372.586 137.702 374.786 135.102 378.386 135.102C381.986 135.102 384.146 137.742 384.146 142.062V142.342C384.146 146.622 381.986 149.302 378.386 149.302ZM378.346 153.062C384.506 153.062 389.106 148.822 389.106 142.302V141.982C389.106 135.582 384.506 131.302 378.386 131.302C372.226 131.302 367.626 135.622 367.626 142.102V142.422C367.626 148.782 372.186 153.062 378.346 153.062ZM150.257 196.662H161.257C167.537 196.662 171.057 193.982 171.057 188.662V188.502C171.057 184.702 169.217 182.582 165.337 181.742C168.577 180.742 169.857 178.502 169.857 175.662V175.502C169.857 170.302 166.377 168.062 160.497 168.062H150.257V196.662ZM155.457 192.862V183.702H160.257C164.177 183.702 165.817 185.182 165.817 188.142V188.302C165.817 191.262 164.177 192.862 160.617 192.862H155.457ZM155.457 180.102V171.862H159.777C163.177 171.862 164.737 173.022 164.737 175.742V175.902C164.737 178.822 163.377 180.102 159.857 180.102H155.457ZM175.358 196.662H180.198V166.062H175.358V196.662ZM195.057 193.302C191.377 193.302 189.257 190.622 189.257 186.342V186.022C189.257 181.702 191.457 179.102 195.057 179.102C198.657 179.102 200.817 181.742 200.817 186.062V186.342C200.817 190.622 198.657 193.302 195.057 193.302ZM195.017 197.062C201.177 197.062 205.777 192.822 205.777 186.302V185.982C205.777 179.582 201.177 175.302 195.057 175.302C188.897 175.302 184.297 179.622 184.297 186.102V186.422C184.297 192.782 188.857 197.062 195.017 197.062ZM218.911 197.062C224.591 197.062 228.231 193.662 228.591 188.862H224.151C223.871 191.822 221.671 193.342 219.111 193.342C215.551 193.342 213.311 190.942 213.311 186.382V186.062C213.311 181.742 215.671 179.182 218.991 179.182C221.551 179.182 223.391 180.342 223.791 183.142H228.471C227.911 177.382 223.551 175.302 218.911 175.302C213.071 175.302 208.351 179.502 208.351 186.142V186.462C208.351 193.142 212.911 197.062 218.911 197.062ZM232.358 196.662H237.198V186.382L245.038 196.662H250.638L241.838 185.342L249.958 175.742H244.678L237.198 184.942V166.062H232.358V196.662ZM261.704 197.062C267.384 197.062 271.024 193.662 271.384 188.862H266.944C266.664 191.822 264.464 193.342 261.904 193.342C258.344 193.342 256.104 190.942 256.104 186.382V186.062C256.104 181.742 258.464 179.182 261.784 179.182C264.344 179.182 266.184 180.342 266.584 183.142H271.264C270.704 177.382 266.344 175.302 261.704 175.302C255.864 175.302 251.144 179.502 251.144 186.142V186.462C251.144 193.142 255.704 197.062 261.704 197.062ZM275.152 196.662H279.992V184.342C279.992 181.022 282.192 179.342 284.912 179.342C287.792 179.342 289.072 180.782 289.072 183.942V196.662H293.912V183.502C293.912 177.742 290.952 175.302 286.752 175.302C283.312 175.302 280.992 177.022 279.992 179.062V166.062H275.152V196.662ZM304.568 197.062C307.768 197.062 309.608 195.902 310.968 194.102V196.662H315.728V182.942C315.728 177.222 312.048 175.302 307.368 175.302C302.688 175.302 298.808 177.342 298.408 182.222H303.088C303.328 180.142 304.568 178.942 307.088 178.942C309.928 178.942 310.888 180.342 310.888 183.142V184.222H308.288C302.288 184.222 297.568 185.982 297.568 190.862C297.568 195.222 300.728 197.062 304.568 197.062ZM305.728 193.582C303.328 193.582 302.368 192.422 302.368 190.662C302.368 188.102 304.728 187.262 308.408 187.262H310.888V189.342C310.888 192.022 308.688 193.582 305.728 193.582ZM320.996 196.662H325.836V175.742H320.996V196.662ZM323.356 172.302C324.956 172.302 326.236 171.102 326.236 169.542C326.236 167.942 324.956 166.742 323.356 166.742C321.756 166.742 320.476 167.942 320.476 169.542C320.476 171.102 321.756 172.302 323.356 172.302ZM331.335 196.662H336.175V184.342C336.175 181.022 338.375 179.342 341.095 179.342C343.975 179.342 345.255 180.782 345.255 183.942V196.662H350.095V183.502C350.095 177.742 347.135 175.302 342.935 175.302C339.495 175.302 337.175 177.022 336.175 179.062V175.742H331.335V196.662Z" fill="white"/>
<path d="M215.085 89.6671V80.0721H216.548C219.74 80.0721 221.07 81.8391 221.07 84.7651V84.9171C221.07 87.9191 219.607 89.6671 216.567 89.6671H215.085ZM212.558 91.6621H216.643C221.412 91.6621 223.711 88.8501 223.711 84.8981V84.7271C223.711 80.7751 221.412 78.0771 216.681 78.0771H212.558V91.6621ZM224.316 91.6621H226.691L227.755 88.2991H232.942L234.025 91.6621H236.647L232.163 78.0771H228.857L224.316 91.6621ZM230.358 80.1481L232.353 86.4561H228.344L230.358 80.1481ZM243.906 91.8521C247.136 91.8521 249.454 90.1991 249.853 86.9311H247.383C247.117 88.8501 245.787 89.8001 243.906 89.8001C241.398 89.8001 239.935 87.9951 239.935 84.9361V84.7841C239.935 81.7441 241.493 79.8821 243.887 79.8821C245.844 79.8821 246.851 80.8131 247.136 82.6181H249.701C249.397 79.4261 246.984 77.8681 243.868 77.8681C240.087 77.8681 237.275 80.7181 237.275 84.8031V84.9551C237.275 89.1351 239.65 91.8521 243.906 91.8521ZM250.719 91.6621H253.094L254.158 88.2991H259.345L260.428 91.6621H263.05L258.566 78.0771H255.26L250.719 91.6621ZM256.761 80.1481L258.756 86.4561H254.747L256.761 80.1481ZM267.65 89.6671V80.0721H269.113C272.305 80.0721 273.635 81.8391 273.635 84.7651V84.9171C273.635 87.9191 272.172 89.6671 269.132 89.6671H267.65ZM265.123 91.6621H269.208C273.977 91.6621 276.276 88.8501 276.276 84.8981V84.7271C276.276 80.7751 273.977 78.0771 269.246 78.0771H265.123V91.6621ZM278.687 91.6621H287.503V89.6671H281.214V85.6961H286.002V83.7961H281.214V80.0721H287.18V78.0771H278.687V91.6621Z" fill="#E4E4E7"/>
<line opacity="0.2" x1="155" y1="107.916" x2="345" y2="107.916" stroke="#9CA3AF" stroke-width="2"/>
<rect x="142.179" y="250.916" width="69.0655" height="69.3638" rx="34.5328" fill="#24DAD9"/>
<rect x="142.179" y="325.234" width="69.0655" height="69.3638" rx="34.5328" fill="#24DAD9"/>
<rect x="142.179" y="399.553" width="69.0655" height="69.3638" rx="34.5328" fill="#24DAD9"/>
<rect x="216.177" y="250.916" width="69.0655" height="69.3638" rx="34.5328" fill="#24DAD9"/>
<rect x="216.177" y="325.234" width="69.0655" height="69.3638" rx="34.5328" fill="#24DAD9"/>
<rect x="216.177" y="399.553" width="69.0655" height="69.3638" rx="34.5328" fill="#24DAD9"/>
<rect x="290.177" y="250.916" width="69.0655" height="69.3638" rx="34.5328" fill="#24DAD9"/>
<rect x="290.177" y="325.234" width="69.0655" height="69.3638" rx="34.5328" fill="#24DAD9"/>
<rect x="290.177" y="399.553" width="69.0655" height="69.3638" rx="34.5328" fill="white"/>
<defs>
<linearGradient id="paint0_linear_14158_15715" x1="249.666" y1="37.8876" x2="249.666" y2="632.959" gradientUnits="userSpaceOnUse">
<stop offset="0.000572331" stop-color="#381B84"/>
<stop offset="0.463203" stop-color="#815EDE"/>
<stop offset="0.961881" stop-color="#381B84"/>
</linearGradient>
<linearGradient id="paint1_linear_14158_15715" x1="499.261" y1="6.42815" x2="-21.8821" y2="5.42605" gradientUnits="userSpaceOnUse">
<stop offset="0.015768" stop-color="#815EDE"/>
<stop offset="0.480532" stop-color="#381B84"/>
<stop offset="0.950573" stop-color="#815EDE"/>
</linearGradient>
<linearGradient id="paint2_linear_14158_15715" x1="21.2285" y1="611.065" x2="8.57994" y2="22.9972" gradientUnits="userSpaceOnUse">
<stop offset="0.0396479" stop-color="#815EDE"/>
<stop offset="0.451723" stop-color="#381B84"/>
<stop offset="0.998103" stop-color="#815EDE"/>
</linearGradient>
<linearGradient id="paint3_linear_14158_15715" x1="250.558" y1="-73.1322" x2="250.558" y2="556.567" gradientUnits="userSpaceOnUse">
<stop offset="0.074236" stop-color="#381B84"/>
<stop offset="0.218297" stop-color="#815EDE"/>
<stop offset="0.549386" stop-color="#381B84"/>
<stop offset="1" stop-color="#815EDE"/>
</linearGradient>
<linearGradient id="paint4_linear_14158_15715" x1="478.759" y1="30.4364" x2="1.13034" y2="29.4583" gradientUnits="userSpaceOnUse">
<stop offset="0.00582305" stop-color="#381B84"/>
<stop offset="0.471312" stop-color="#815EDE"/>
<stop offset="0.924755" stop-color="#381B84"/>
</linearGradient>
</defs>
</svg>
