<svg width="500" height="601" viewBox="0 0 500 601" fill="none" xmlns="http://www.w3.org/2000/svg">
<path d="M499.09 0H0.892578V372.645C0.89156 505.642 120.186 600.677 249.364 600.999C378.91 601.323 499.09 504.388 499.09 372.645V0Z" fill="url(#paint0_linear_14158_15750)"/>
<path d="M499.09 0H0.842773L22.2621 23.7126L479.817 23.462L499.09 0Z" fill="url(#paint1_linear_14158_15750)"/>
<path d="M22.5547 23.9043H479.213V366.13C479.213 486.804 369.142 575.753 250.308 575.456C131.808 575.16 22.5538 487.958 22.5547 366.13V23.9043Z" fill="url(#paint2_linear_14158_15750)" stroke="url(#paint3_linear_14158_15750)" stroke-width="2"/>
<path d="M459.345 46.1816H41.9941V362.713C41.9933 474.612 141.929 554.57 250.144 554.841C358.667 555.113 459.345 473.556 459.345 362.713V46.1816Z" fill="#2E3337"/>
<path d="M478.21 24.9043H23.5536L41.9818 46.302L459.334 46.2478L478.21 24.9043Z" fill="url(#paint4_linear_14158_15750)"/>
<path d="M200.321 151.332H205.161V129.412L218.041 151.332H223.561V122.732H218.721V143.412L206.681 122.732H200.321V151.332ZM229.726 151.332H248.286V147.132H235.046V138.772H245.126V134.772H235.046V126.932H247.606V122.732H229.726V151.332ZM250.485 151.332H255.485L257.725 144.252H268.645L270.925 151.332H276.445L267.005 122.732H260.045L250.485 151.332ZM263.205 127.092L267.405 140.372H258.965L263.205 127.092ZM280.41 151.332H285.73V139.772H289.13L296.61 151.332H302.37L294.33 138.972C297.89 138.052 300.69 135.772 300.69 131.292V131.132C300.69 125.292 296.29 122.732 290.01 122.732H280.41V151.332ZM285.73 135.972V126.852H290.01C293.41 126.852 295.45 127.972 295.45 131.252V131.412C295.45 134.452 293.57 135.972 290.01 135.972H285.73ZM97.9928 191.132V170.932H101.073C107.793 170.932 110.593 174.652 110.593 180.812V181.132C110.593 187.452 107.513 191.132 101.113 191.132H97.9928ZM92.6728 195.332H101.273C111.313 195.332 116.153 189.412 116.153 181.092V180.732C116.153 172.412 111.313 166.732 101.353 166.732H92.6728V195.332ZM129.627 195.732C134.987 195.732 138.547 193.332 139.227 188.932H134.547C134.187 190.972 132.667 192.132 129.747 192.132C126.147 192.132 124.147 189.892 123.987 185.932H139.307V184.532C139.307 177.052 134.627 173.972 129.427 173.972C123.467 173.972 119.027 178.292 119.027 184.772V185.092C119.027 191.692 123.467 195.732 129.627 195.732ZM124.067 182.692C124.547 179.452 126.507 177.492 129.427 177.492C132.427 177.492 134.267 179.092 134.507 182.692H124.067ZM148.32 195.332H153.96L161.52 174.412H156.76L151.36 190.372L145.88 174.412H140.68L148.32 195.332ZM173.124 195.732C178.484 195.732 182.044 193.332 182.724 188.932H178.044C177.684 190.972 176.164 192.132 173.244 192.132C169.644 192.132 167.644 189.892 167.484 185.932H182.804V184.532C182.804 177.052 178.124 173.972 172.924 173.972C166.964 173.972 162.524 178.292 162.524 184.772V185.092C162.524 191.692 166.964 195.732 173.124 195.732ZM167.564 182.692C168.044 179.452 170.004 177.492 172.924 177.492C175.924 177.492 177.764 179.092 178.004 182.692H167.564ZM186.847 195.332H191.687V164.732H186.847V195.332ZM206.547 191.972C202.867 191.972 200.747 189.292 200.747 185.012V184.692C200.747 180.372 202.947 177.772 206.547 177.772C210.147 177.772 212.307 180.412 212.307 184.732V185.012C212.307 189.292 210.147 191.972 206.547 191.972ZM206.507 195.732C212.667 195.732 217.267 191.492 217.267 184.972V184.652C217.267 178.252 212.667 173.972 206.547 173.972C200.387 173.972 195.787 178.292 195.787 184.772V185.092C195.787 191.452 200.347 195.732 206.507 195.732ZM221.24 202.492H226.08V192.052C227.2 194.092 229.6 195.732 232.92 195.732C238.32 195.732 242.2 191.652 242.2 184.932V184.612C242.2 177.852 238.16 173.972 232.92 173.972C229.84 173.972 227.24 175.772 226.08 177.772V174.412H221.24V202.492ZM231.72 191.892C228.2 191.892 225.92 189.692 225.92 185.012V184.692C225.92 180.052 228.32 177.772 231.68 177.772C234.84 177.772 237.24 180.052 237.24 184.692V185.012C237.24 189.492 235.28 191.892 231.72 191.892ZM246.152 195.332H250.992V182.812C250.992 179.612 253.192 178.012 255.592 178.012C257.952 178.012 259.312 179.332 259.312 182.412V195.332H264.152V182.812C264.152 179.612 266.352 178.012 268.752 178.012C271.152 178.012 272.472 179.332 272.472 182.412V195.332H277.312V182.092C277.312 176.332 274.192 173.972 270.352 173.972C267.752 173.972 264.872 175.132 263.272 177.732C262.232 175.132 260.072 173.972 257.352 173.972C254.272 173.972 251.992 175.652 250.992 177.612V174.412H246.152V195.332ZM291.671 195.732C297.031 195.732 300.591 193.332 301.271 188.932H296.591C296.231 190.972 294.711 192.132 291.791 192.132C288.191 192.132 286.191 189.892 286.031 185.932H301.351V184.532C301.351 177.052 296.671 173.972 291.471 173.972C285.511 173.972 281.071 178.292 281.071 184.772V185.092C281.071 191.692 285.511 195.732 291.671 195.732ZM286.111 182.692C286.591 179.452 288.551 177.492 291.471 177.492C294.471 177.492 296.311 179.092 296.551 182.692H286.111ZM305.274 195.332H310.114V183.012C310.114 179.692 312.314 178.012 315.034 178.012C317.914 178.012 319.194 179.452 319.194 182.612V195.332H324.034V182.172C324.034 176.412 321.074 173.972 316.874 173.972C313.434 173.972 311.114 175.692 310.114 177.732V174.412H305.274V195.332ZM336.33 195.692C337.81 195.692 338.85 195.452 339.61 195.172V191.332C338.93 191.612 338.21 191.732 337.25 191.732C335.73 191.732 334.85 190.892 334.85 189.052V178.052H339.45V174.412H334.85V169.812H330.01V174.412H327.21V178.052H330.01V189.492C330.01 193.452 332.17 195.692 336.33 195.692ZM357.147 195.332H362.507V166.732H357.747L351.107 171.452V176.132L357.147 172.012V195.332ZM380.345 191.492C376.065 191.492 373.585 188.212 373.585 181.732V180.292C373.585 173.932 375.945 170.492 380.265 170.492C384.545 170.492 386.865 174.172 386.865 180.252V181.652C386.865 188.132 384.745 191.492 380.345 191.492ZM380.225 195.732C387.705 195.732 392.185 190.252 392.185 181.652V180.212C392.185 171.612 387.465 166.332 380.225 166.332C373.025 166.332 368.225 171.652 368.225 180.332V181.772C368.225 190.372 372.945 195.732 380.225 195.732ZM401.152 195.332H406.512V166.732H401.752L395.112 171.452V176.132L401.152 172.012V195.332Z" fill="white"/>
<path d="M215.076 88.337V78.742H216.539C219.731 78.742 221.061 80.509 221.061 83.435V83.587C221.061 86.589 219.598 88.337 216.558 88.337H215.076ZM212.549 90.332H216.634C221.403 90.332 223.702 87.52 223.702 83.568V83.397C223.702 79.445 221.403 76.747 216.672 76.747H212.549V90.332ZM224.307 90.332H226.682L227.746 86.969H232.933L234.016 90.332H236.638L232.154 76.747H228.848L224.307 90.332ZM230.349 78.818L232.344 85.126H228.335L230.349 78.818ZM243.898 90.522C247.128 90.522 249.446 88.869 249.845 85.601H247.375C247.109 87.52 245.779 88.47 243.898 88.47C241.39 88.47 239.927 86.665 239.927 83.606V83.454C239.927 80.414 241.485 78.552 243.879 78.552C245.836 78.552 246.843 79.483 247.128 81.288H249.693C249.389 78.096 246.976 76.538 243.86 76.538C240.079 76.538 237.267 79.388 237.267 83.473V83.625C237.267 87.805 239.642 90.522 243.898 90.522ZM250.71 90.332H253.085L254.149 86.969H259.336L260.419 90.332H263.041L258.557 76.747H255.251L250.71 90.332ZM256.752 78.818L258.747 85.126H254.738L256.752 78.818ZM267.642 88.337V78.742H269.105C272.297 78.742 273.627 80.509 273.627 83.435V83.587C273.627 86.589 272.164 88.337 269.124 88.337H267.642ZM265.115 90.332H269.2C273.969 90.332 276.268 87.52 276.268 83.568V83.397C276.268 79.445 273.969 76.747 269.238 76.747H265.115V90.332ZM278.678 90.332H287.494V88.337H281.205V84.366H285.993V82.466H281.205V78.742H287.171V76.747H278.678V90.332Z" fill="#E4E4E7"/>
<line opacity="0.4" x1="154.991" y1="107.916" x2="344.991" y2="107.916" stroke="#9CA3AF" stroke-width="2"/>
<path fill-rule="evenodd" clip-rule="evenodd" d="M176.866 250.302C186.501 250.302 195.22 254.225 201.512 260.56L275.776 334.824C282.112 341.117 286.035 349.835 286.035 359.47C286.035 359.589 286.034 359.708 286.033 359.826C286.008 369.349 282.152 377.97 275.924 384.23L201.362 458.792C195.081 465.04 186.424 468.901 176.865 468.901C157.681 468.902 142.129 453.35 142.129 434.166C142.129 424.522 146.06 415.795 152.406 409.502L202.306 359.601L152.24 309.535L152.24 309.534C145.992 303.254 142.131 294.596 142.131 285.037C142.131 265.854 157.682 250.302 176.866 250.302Z" fill="white"/>
<path fill-rule="evenodd" clip-rule="evenodd" d="M324.489 468.901C314.854 468.901 306.136 464.978 299.843 458.643L225.579 384.379C219.244 378.086 215.321 369.368 215.321 359.733C215.321 359.53 215.323 359.327 215.326 359.125C215.417 349.702 219.26 341.176 225.433 334.971L299.995 260.409C306.276 254.161 314.933 250.3 324.493 250.3C343.677 250.299 359.228 265.851 359.228 285.035C359.228 294.68 355.297 303.406 348.951 309.7L299.049 359.602L349.116 409.669L349.116 409.669C355.363 415.949 359.225 424.607 359.225 434.166C359.225 453.35 343.673 468.901 324.489 468.901Z" fill="#868FF3"/>
<defs>
<linearGradient id="paint0_linear_14158_15750" x1="249.992" y1="37.8876" x2="249.992" y2="632.959" gradientUnits="userSpaceOnUse">
<stop offset="0.000572331" stop-color="#2E3337"/>
<stop offset="0.463203" stop-color="#868FF3"/>
<stop offset="0.961881" stop-color="#2E3337"/>
</linearGradient>
<linearGradient id="paint1_linear_14158_15750" x1="499.588" y1="6.42815" x2="-21.5559" y2="5.42605" gradientUnits="userSpaceOnUse">
<stop offset="0.015768" stop-color="#868FF3"/>
<stop offset="0.480532" stop-color="#2E3337"/>
<stop offset="0.950573" stop-color="#868FF3"/>
</linearGradient>
<linearGradient id="paint2_linear_14158_15750" x1="21.5547" y1="611.065" x2="8.90612" y2="22.9972" gradientUnits="userSpaceOnUse">
<stop offset="0.0396479" stop-color="#868FF3"/>
<stop offset="0.451723" stop-color="#2E3337"/>
<stop offset="0.998103" stop-color="#868FF3"/>
</linearGradient>
<linearGradient id="paint3_linear_14158_15750" x1="250.884" y1="-73.1322" x2="250.884" y2="556.567" gradientUnits="userSpaceOnUse">
<stop offset="0.074236" stop-color="#2E3337"/>
<stop offset="0.218297" stop-color="#868FF3"/>
<stop offset="0.549386" stop-color="#2E3337"/>
<stop offset="1" stop-color="#868FF3"/>
</linearGradient>
<linearGradient id="paint4_linear_14158_15750" x1="479.085" y1="30.4364" x2="1.45651" y2="29.4583" gradientUnits="userSpaceOnUse">
<stop offset="0.00582305" stop-color="#2E3337"/>
<stop offset="0.471312" stop-color="#868FF3"/>
<stop offset="0.924755" stop-color="#2E3337"/>
</linearGradient>
</defs>
</svg>
