<svg width="499" height="601" viewBox="0 0 499 601" fill="none" xmlns="http://www.w3.org/2000/svg">
<path d="M498.494 0H0.296875V372.645C0.295857 505.642 119.59 600.677 248.768 600.999C378.314 601.323 498.494 504.388 498.494 372.645V0Z" fill="url(#paint0_linear_41_17107)"/>
<path d="M498.494 0H0.24707L21.6664 23.7126L479.222 23.462L498.494 0Z" fill="url(#paint1_linear_41_17107)"/>
<path d="M21.959 366.13V23.9043H478.617V366.13C478.617 486.804 368.546 575.753 249.713 575.456C131.212 575.16 21.9581 487.958 21.959 366.13Z" fill="url(#paint2_linear_41_17107)" stroke="url(#paint3_linear_41_17107)" stroke-width="2"/>
<path d="M458.749 46.1816H41.3984V362.713C41.3976 474.612 141.333 554.57 249.548 554.841C358.072 555.113 458.749 473.556 458.749 362.713V46.1816Z" fill="#2E3337"/>
<path d="M477.615 24.9043H22.958L41.3863 46.302L458.738 46.2478L477.615 24.9043Z" fill="url(#paint4_linear_41_17107)"/>
<path d="M199.726 151.332H204.566V129.412L217.446 151.332H222.966V122.732H218.126V143.412L206.086 122.732H199.726V151.332ZM229.13 151.332H247.69V147.132H234.45V138.772H244.53V134.772H234.45V126.932H247.01V122.732H229.13V151.332ZM249.89 151.332H254.89L257.13 144.252H268.05L270.33 151.332H275.85L266.41 122.732H259.45L249.89 151.332ZM262.61 127.092L266.81 140.372H258.37L262.61 127.092ZM279.815 151.332H285.135V139.772H288.535L296.015 151.332H301.775L293.735 138.972C297.295 138.052 300.095 135.772 300.095 131.292V131.132C300.095 125.292 295.695 122.732 289.415 122.732H279.815V151.332ZM285.135 135.972V126.852H289.415C292.815 126.852 294.855 127.972 294.855 131.252V131.412C294.855 134.452 292.975 135.972 289.415 135.972H285.135ZM97.3971 191.132V170.932H100.477C107.197 170.932 109.997 174.652 109.997 180.812V181.132C109.997 187.452 106.917 191.132 100.517 191.132H97.3971ZM92.0771 195.332H100.677C110.717 195.332 115.557 189.412 115.557 181.092V180.732C115.557 172.412 110.717 166.732 100.757 166.732H92.0771V195.332ZM129.032 195.732C134.392 195.732 137.952 193.332 138.632 188.932H133.952C133.592 190.972 132.072 192.132 129.152 192.132C125.552 192.132 123.552 189.892 123.392 185.932H138.712V184.532C138.712 177.052 134.032 173.972 128.832 173.972C122.872 173.972 118.432 178.292 118.432 184.772V185.092C118.432 191.692 122.872 195.732 129.032 195.732ZM123.472 182.692C123.952 179.452 125.912 177.492 128.832 177.492C131.832 177.492 133.672 179.092 133.912 182.692H123.472ZM147.724 195.332H153.364L160.924 174.412H156.164L150.764 190.372L145.284 174.412H140.084L147.724 195.332ZM172.529 195.732C177.889 195.732 181.449 193.332 182.129 188.932H177.449C177.089 190.972 175.569 192.132 172.649 192.132C169.049 192.132 167.049 189.892 166.889 185.932H182.209V184.532C182.209 177.052 177.529 173.972 172.329 173.972C166.369 173.972 161.929 178.292 161.929 184.772V185.092C161.929 191.692 166.369 195.732 172.529 195.732ZM166.969 182.692C167.449 179.452 169.409 177.492 172.329 177.492C175.329 177.492 177.169 179.092 177.409 182.692H166.969ZM186.252 195.332H191.092V164.732H186.252V195.332ZM205.951 191.972C202.271 191.972 200.151 189.292 200.151 185.012V184.692C200.151 180.372 202.351 177.772 205.951 177.772C209.551 177.772 211.711 180.412 211.711 184.732V185.012C211.711 189.292 209.551 191.972 205.951 191.972ZM205.911 195.732C212.071 195.732 216.671 191.492 216.671 184.972V184.652C216.671 178.252 212.071 173.972 205.951 173.972C199.791 173.972 195.191 178.292 195.191 184.772V185.092C195.191 191.452 199.751 195.732 205.911 195.732ZM220.644 202.492H225.484V192.052C226.604 194.092 229.004 195.732 232.324 195.732C237.724 195.732 241.604 191.652 241.604 184.932V184.612C241.604 177.852 237.564 173.972 232.324 173.972C229.244 173.972 226.644 175.772 225.484 177.772V174.412H220.644V202.492ZM231.124 191.892C227.604 191.892 225.324 189.692 225.324 185.012V184.692C225.324 180.052 227.724 177.772 231.084 177.772C234.244 177.772 236.644 180.052 236.644 184.692V185.012C236.644 189.492 234.684 191.892 231.124 191.892ZM245.557 195.332H250.397V182.812C250.397 179.612 252.597 178.012 254.997 178.012C257.357 178.012 258.717 179.332 258.717 182.412V195.332H263.557V182.812C263.557 179.612 265.757 178.012 268.157 178.012C270.557 178.012 271.877 179.332 271.877 182.412V195.332H276.717V182.092C276.717 176.332 273.597 173.972 269.757 173.972C267.157 173.972 264.277 175.132 262.677 177.732C261.637 175.132 259.477 173.972 256.757 173.972C253.677 173.972 251.397 175.652 250.397 177.612V174.412H245.557V195.332ZM291.076 195.732C296.436 195.732 299.996 193.332 300.676 188.932H295.996C295.636 190.972 294.116 192.132 291.196 192.132C287.596 192.132 285.596 189.892 285.436 185.932H300.756V184.532C300.756 177.052 296.076 173.972 290.876 173.972C284.916 173.972 280.476 178.292 280.476 184.772V185.092C280.476 191.692 284.916 195.732 291.076 195.732ZM285.516 182.692C285.996 179.452 287.956 177.492 290.876 177.492C293.876 177.492 295.716 179.092 295.956 182.692H285.516ZM304.679 195.332H309.519V183.012C309.519 179.692 311.719 178.012 314.439 178.012C317.319 178.012 318.599 179.452 318.599 182.612V195.332H323.439V182.172C323.439 176.412 320.479 173.972 316.279 173.972C312.839 173.972 310.519 175.692 309.519 177.732V174.412H304.679V195.332ZM335.735 195.692C337.215 195.692 338.255 195.452 339.015 195.172V191.332C338.335 191.612 337.615 191.732 336.655 191.732C335.135 191.732 334.255 190.892 334.255 189.052V178.052H338.855V174.412H334.255V169.812H329.415V174.412H326.615V178.052H329.415V189.492C329.415 193.452 331.575 195.692 335.735 195.692ZM356.551 195.332H361.911V166.732H357.151L350.511 171.452V176.132L356.551 172.012V195.332ZM379.749 191.492C375.469 191.492 372.989 188.212 372.989 181.732V180.292C372.989 173.932 375.349 170.492 379.669 170.492C383.949 170.492 386.269 174.172 386.269 180.252V181.652C386.269 188.132 384.149 191.492 379.749 191.492ZM379.629 195.732C387.109 195.732 391.589 190.252 391.589 181.652V180.212C391.589 171.612 386.869 166.332 379.629 166.332C372.429 166.332 367.629 171.652 367.629 180.332V181.772C367.629 190.372 372.349 195.732 379.629 195.732ZM400.556 195.332H405.916V166.732H401.156L394.516 171.452V176.132L400.556 172.012V195.332Z" fill="white"/>
<path d="M214.481 88.337V78.742H215.944C219.136 78.742 220.466 80.509 220.466 83.435V83.587C220.466 86.589 219.003 88.337 215.963 88.337H214.481ZM211.954 90.332H216.039C220.808 90.332 223.107 87.52 223.107 83.568V83.397C223.107 79.445 220.808 76.747 216.077 76.747H211.954V90.332ZM223.711 90.332H226.086L227.15 86.969H232.337L233.42 90.332H236.042L231.558 76.747H228.252L223.711 90.332ZM229.753 78.818L231.748 85.126H227.739L229.753 78.818ZM243.302 90.522C246.532 90.522 248.85 88.869 249.249 85.601H246.779C246.513 87.52 245.183 88.47 243.302 88.47C240.794 88.47 239.331 86.665 239.331 83.606V83.454C239.331 80.414 240.889 78.552 243.283 78.552C245.24 78.552 246.247 79.483 246.532 81.288H249.097C248.793 78.096 246.38 76.538 243.264 76.538C239.483 76.538 236.671 79.388 236.671 83.473V83.625C236.671 87.805 239.046 90.522 243.302 90.522ZM250.115 90.332H252.49L253.554 86.969H258.741L259.824 90.332H262.446L257.962 76.747H254.656L250.115 90.332ZM256.157 78.818L258.152 85.126H254.143L256.157 78.818ZM267.046 88.337V78.742H268.509C271.701 78.742 273.031 80.509 273.031 83.435V83.587C273.031 86.589 271.568 88.337 268.528 88.337H267.046ZM264.519 90.332H268.604C273.373 90.332 275.672 87.52 275.672 83.568V83.397C275.672 79.445 273.373 76.747 268.642 76.747H264.519V90.332ZM278.082 90.332H286.898V88.337H280.609V84.366H285.397V82.466H280.609V78.742H286.575V76.747H278.082V90.332Z" fill="#E4E4E7"/>
<line opacity="0.4" x1="154.396" y1="107.916" x2="344.396" y2="107.916" stroke="#9CA3AF" stroke-width="2"/>
<path fill-rule="evenodd" clip-rule="evenodd" d="M176.271 250.302C185.905 250.302 194.624 254.225 200.917 260.56L275.18 334.824C281.516 341.117 285.439 349.835 285.439 359.47C285.439 359.589 285.438 359.708 285.437 359.826C285.412 369.349 281.556 377.97 275.328 384.23L200.766 458.792C194.486 465.04 185.828 468.901 176.269 468.901C157.085 468.902 141.534 453.35 141.534 434.166C141.534 424.522 145.464 415.795 151.81 409.502L201.711 359.601L151.644 309.535L151.644 309.534C145.396 303.254 141.535 294.596 141.535 285.037C141.535 265.854 157.087 250.302 176.271 250.302Z" fill="white"/>
<path fill-rule="evenodd" clip-rule="evenodd" d="M323.894 468.901C314.259 468.901 305.54 464.978 299.247 458.643L224.984 384.379C218.648 378.086 214.725 369.368 214.725 359.733C214.725 359.53 214.727 359.327 214.73 359.125C214.821 349.702 218.664 341.176 224.838 334.971L299.4 260.409C305.68 254.161 314.338 250.3 323.897 250.3C343.081 250.299 358.632 265.851 358.632 285.035C358.632 294.68 354.702 303.406 348.356 309.7L298.453 359.602L348.52 409.669L348.52 409.669C354.768 415.949 358.629 424.607 358.629 434.166C358.629 453.35 343.077 468.901 323.894 468.901Z" fill="#868FF3"/>
<defs>
<linearGradient id="paint0_linear_41_17107" x1="249.396" y1="37.8876" x2="249.396" y2="632.959" gradientUnits="userSpaceOnUse">
<stop offset="0.000572331" stop-color="#2E3337"/>
<stop offset="0.463203" stop-color="#868FF3"/>
<stop offset="0.961881" stop-color="#2E3337"/>
</linearGradient>
<linearGradient id="paint1_linear_41_17107" x1="498.992" y1="6.42815" x2="-22.1516" y2="5.42605" gradientUnits="userSpaceOnUse">
<stop offset="0.015768" stop-color="#868FF3"/>
<stop offset="0.480532" stop-color="#2E3337"/>
<stop offset="0.950573" stop-color="#868FF3"/>
</linearGradient>
<linearGradient id="paint2_linear_41_17107" x1="20.959" y1="611.065" x2="8.31041" y2="22.9972" gradientUnits="userSpaceOnUse">
<stop offset="0.0396479" stop-color="#868FF3"/>
<stop offset="0.451723" stop-color="#2E3337"/>
<stop offset="0.998103" stop-color="#868FF3"/>
</linearGradient>
<linearGradient id="paint3_linear_41_17107" x1="250.288" y1="-73.1322" x2="250.288" y2="556.567" gradientUnits="userSpaceOnUse">
<stop offset="0.074236" stop-color="#2E3337"/>
<stop offset="0.218297" stop-color="#868FF3"/>
<stop offset="0.549386" stop-color="#2E3337"/>
<stop offset="1" stop-color="#868FF3"/>
</linearGradient>
<linearGradient id="paint4_linear_41_17107" x1="478.489" y1="30.4364" x2="0.860932" y2="29.4583" gradientUnits="userSpaceOnUse">
<stop offset="0.00582305" stop-color="#2E3337"/>
<stop offset="0.471312" stop-color="#868FF3"/>
<stop offset="0.924755" stop-color="#2E3337"/>
</linearGradient>
</defs>
</svg>
