<svg fill="none" height="601" viewBox="0 0 499 601" width="499" xmlns="http://www.w3.org/2000/svg" xmlns:xlink="http://www.w3.org/1999/xlink"><linearGradient id="a" gradientUnits="userSpaceOnUse" x1="249.341" x2="249.341" y1="0" y2="652"><stop offset=".000572331" stop-color="#161c2e"/><stop offset=".462127" stop-color="#e5e7eb"/><stop offset=".961881" stop-color="#161c2e"/></linearGradient><linearGradient id="b" gradientUnits="userSpaceOnUse" x1="498.936" x2="-22.2073" y1="6.42815" y2="5.42605"><stop offset=".015768" stop-color="#e5e7eb"/><stop offset=".480532" stop-color="#161c2e"/><stop offset=".950573" stop-color="#e5e7eb"/></linearGradient><linearGradient id="c" gradientUnits="userSpaceOnUse" x1="20.9023" x2="8.25377" y1="611.065" y2="22.9972"><stop offset=".0396479" stop-color="#e5e7eb"/><stop offset=".451723" stop-color="#161c2e"/><stop offset=".998103" stop-color="#e5e7eb"/></linearGradient><linearGradient id="d" gradientUnits="userSpaceOnUse" x1="250.231" x2="250.231" y1="-73.1322" y2="556.567"><stop offset=".074236" stop-color="#161c2e"/><stop offset=".218297" stop-color="#e5e7eb"/><stop offset=".549386" stop-color="#161c2e"/><stop offset="1" stop-color="#e5e7eb"/></linearGradient><linearGradient id="e" gradientUnits="userSpaceOnUse" x1="478.434" x2=".805146" y1="30.4364" y2="29.4583"><stop offset=".00582305" stop-color="#161c2e"/><stop offset=".471312" stop-color="#e5e7eb"/><stop offset=".924755" stop-color="#161c2e"/></linearGradient><path d="m498.44 0h-498.197812v372.645c-.001018 132.997 119.293812 228.032 248.470812 228.354 129.547.324 249.727-96.611 249.727-228.354z" fill="url(#a)"/><path d="m498.438 0h-498.246594l21.419394 23.7126 457.5552-.2506z" fill="url(#b)"/><path d="m21.9023 23.9043h456.6577v342.2257c0 120.674-110.07 209.623-228.904 209.326-118.501-.296-227.7546-87.498-227.7537-209.326z" fill="url(#c)" stroke="url(#d)" stroke-width="2"/><path d="m458.694 46.1816h-417.3502v316.5314c-.0009 111.899 99.9342 191.857 208.1492 192.128 108.524.272 209.201-81.285 209.201-192.128z" fill="#161c2e"/><path d="m477.559 24.9043h-454.6568l18.4283 21.3977 417.3525-.0542z" fill="url(#e)"/><path d="m191.179 151.732c6.32 0 10.52-3.88 10.52-8.84 0-5.72-3.48-7.64-10.2-8.56-4.96-.72-5.92-1.88-5.92-4.2 0-2.2 1.68-3.76 4.92-3.76 3.28 0 5 1.28 5.52 4.28h4.88c-.56-5.48-4.24-8.28-10.4-8.28-5.96 0-9.96 3.52-9.96 8.2 0 5.36 3.24 7.44 10.08 8.36 4.64.76 5.96 1.76 5.96 4.4s-2.24 4.4-5.4 4.4c-4.84 0-6-2.4-6.36-5.28h-5.12c.4 5.4 3.68 9.28 11.48 9.28zm24.231-3.76c-3.68 0-5.8-2.68-5.8-6.96v-.32c0-4.32 2.2-6.92 5.8-6.92s5.76 2.64 5.76 6.96v.28c0 4.28-2.16 6.96-5.76 6.96zm-.04 3.76c6.16 0 10.76-4.24 10.76-10.76v-.32c0-6.4-4.6-10.68-10.72-10.68-6.16 0-10.76 4.32-10.76 10.8v.32c0 6.36 4.56 10.64 10.72 10.64zm14.853-.4h4.84v-30.6h-4.84zm10.459 0h4.84v-20.92h-4.84zm2.36-24.36c1.6 0 2.88-1.2 2.88-2.76 0-1.6-1.28-2.8-2.88-2.8s-2.88 1.2-2.88 2.8c0 1.56 1.28 2.76 2.88 2.76zm15.82 24.76c3.08 0 5.76-1.84 6.88-3.92v3.52h4.84v-30.6h-4.84v12.88c-1.16-2.08-3.28-3.64-6.68-3.64-5.44 0-9.4 4.24-9.4 10.92v.32c0 6.8 3.96 10.52 9.2 10.52zm1.2-3.84c-3.12 0-5.44-2.2-5.44-6.8v-.32c0-4.52 2.08-7 5.64-7 3.52 0 5.64 2.28 5.64 6.88v.32c0 4.68-2.48 6.92-5.84 6.92zm15.992 3.44h4.84v-20.92h-4.84zm2.36-24.36c1.6 0 2.88-1.2 2.88-2.76 0-1.6-1.28-2.8-2.88-2.8s-2.88 1.2-2.88 2.8c0 1.56 1.28 2.76 2.88 2.76zm15.099 24.72c1.48 0 2.52-.24 3.28-.52v-3.84c-.68.28-1.4.4-2.36.4-1.52 0-2.4-.84-2.4-2.68v-11h4.6v-3.64h-4.6v-4.6h-4.84v4.6h-2.8v3.64h2.8v11.44c0 3.96 2.16 6.2 6.32 6.2zm9.566 6.8h4.76l11.4-28.08h-4.72l-5.12 13.48-5.56-13.48h-5.24l8.28 18.8zm-206.1936 32.64v-20.2h3.08c6.7196 0 9.5196 3.72 9.5196 9.88v.32c0 6.32-3.08 10-9.48 10zm-5.32 4.2h8.5996c10.04 0 14.88-5.92 14.88-14.24v-.36c0-8.32-4.84-14-14.8-14h-8.6796zm36.9546.4c5.36 0 8.92-2.4 9.6-6.8h-4.68c-.36 2.04-1.88 3.2-4.8 3.2-3.6 0-5.6-2.24-5.76-6.2h15.32v-1.4c0-7.48-4.68-10.56-9.88-10.56-5.96 0-10.4 4.32-10.4 10.8v.32c0 6.6 4.44 10.64 10.6 10.64zm-5.56-13.04c.48-3.24 2.44-5.2 5.36-5.2 3 0 4.84 1.6 5.08 5.2zm24.253 12.64h5.64l7.56-20.92h-4.76l-5.4 15.96-5.48-15.96h-5.2zm24.804.4c5.36 0 8.92-2.4 9.6-6.8h-4.68c-.36 2.04-1.88 3.2-4.8 3.2-3.6 0-5.6-2.24-5.76-6.2h15.32v-1.4c0-7.48-4.68-10.56-9.88-10.56-5.96 0-10.4 4.32-10.4 10.8v.32c0 6.6 4.44 10.64 10.6 10.64zm-5.56-13.04c.48-3.24 2.44-5.2 5.36-5.2 3 0 4.84 1.6 5.08 5.2zm19.283 12.64h4.84v-30.6h-4.84zm19.699-3.36c-3.68 0-5.8-2.68-5.8-6.96v-.32c0-4.32 2.2-6.92 5.8-6.92s5.76 2.64 5.76 6.96v.28c0 4.28-2.16 6.96-5.76 6.96zm-.04 3.76c6.16 0 10.76-4.24 10.76-10.76v-.32c0-6.4-4.6-10.68-10.72-10.68-6.16 0-10.76 4.32-10.76 10.8v.32c0 6.36 4.56 10.64 10.72 10.64zm14.734 6.76h4.84v-10.44c1.12 2.04 3.52 3.68 6.84 3.68 5.4 0 9.28-4.08 9.28-10.8v-.32c0-6.76-4.04-10.64-9.28-10.64-3.08 0-5.68 1.8-6.84 3.8v-3.36h-4.84zm10.48-10.6c-3.52 0-5.8-2.2-5.8-6.88v-.32c0-4.64 2.4-6.92 5.76-6.92 3.16 0 5.56 2.28 5.56 6.92v.32c0 4.48-1.96 6.88-5.52 6.88zm14.432 3.44h4.84v-12.52c0-3.2 2.2-4.8 4.6-4.8 2.36 0 3.72 1.32 3.72 4.4v12.92h4.84v-12.52c0-3.2 2.2-4.8 4.6-4.8s3.72 1.32 3.72 4.4v12.92h4.84v-13.24c0-5.76-3.12-8.12-6.96-8.12-2.6 0-5.48 1.16-7.08 3.76-1.04-2.6-3.2-3.76-5.92-3.76-3.08 0-5.36 1.68-6.36 3.64v-3.2h-4.84zm45.519.4c5.36 0 8.92-2.4 9.6-6.8h-4.68c-.36 2.04-1.88 3.2-4.8 3.2-3.6 0-5.6-2.24-5.76-6.2h15.32v-1.4c0-7.48-4.68-10.56-9.88-10.56-5.96 0-10.4 4.32-10.4 10.8v.32c0 6.6 4.44 10.64 10.6 10.64zm-5.56-13.04c.48-3.24 2.44-5.2 5.36-5.2 3 0 4.84 1.6 5.08 5.2zm19.163 12.64h4.84v-12.32c0-3.32 2.2-5 4.92-5 2.88 0 4.16 1.44 4.16 4.6v12.72h4.84v-13.16c0-5.76-2.96-8.2-7.16-8.2-3.44 0-5.76 1.72-6.76 3.76v-3.32h-4.84zm31.056.36c1.48 0 2.52-.24 3.28-.52v-3.84c-.68.28-1.4.4-2.36.4-1.52 0-2.4-.84-2.4-2.68v-11h4.6v-3.64h-4.6v-4.6h-4.84v4.6h-2.8v3.64h2.8v11.44c0 3.96 2.16 6.2 6.32 6.2zm20.817-.36h5.36v-28.6h-4.76l-6.64 4.72v4.68l6.04-4.12zm23.198-3.84c-4.28 0-6.76-3.28-6.76-9.76v-1.44c0-6.36 2.36-9.8 6.68-9.8 4.28 0 6.6 3.68 6.6 9.76v1.4c0 6.48-2.12 9.84-6.52 9.84zm-.12 4.24c7.48 0 11.96-5.48 11.96-14.08v-1.44c0-8.6-4.72-13.88-11.96-13.88-7.2 0-12 5.32-12 14v1.44c0 8.6 4.72 13.96 12 13.96zm20.926-.4h5.36v-28.6h-4.76l-6.64 4.72v4.68l6.04-4.12z" fill="#fff"/><path d="m214.085 88.337v-9.595h1.463c3.192 0 4.522 1.767 4.522 4.693v.152c0 3.002-1.463 4.75-4.503 4.75zm-2.527 1.995h4.085c4.769 0 7.068-2.812 7.068-6.764v-.171c0-3.952-2.299-6.65-7.03-6.65h-4.123zm11.758 0h2.375l1.064-3.363h5.187l1.083 3.363h2.622l-4.484-13.585h-3.306zm6.042-11.514 1.995 6.308h-4.009zm13.548 11.704c3.23 0 5.548-1.653 5.947-4.921h-2.47c-.266 1.919-1.596 2.869-3.477 2.869-2.508 0-3.971-1.805-3.971-4.864v-.152c0-3.04 1.558-4.902 3.952-4.902 1.957 0 2.964.931 3.249 2.736h2.565c-.304-3.192-2.717-4.75-5.833-4.75-3.781 0-6.593 2.85-6.593 6.935v.152c0 4.18 2.375 6.897 6.631 6.897zm6.813-.19h2.375l1.064-3.363h5.187l1.083 3.363h2.622l-4.484-13.585h-3.306zm6.042-11.514 1.995 6.308h-4.009zm10.889 9.519v-9.595h1.463c3.192 0 4.522 1.767 4.522 4.693v.152c0 3.002-1.463 4.75-4.503 4.75zm-2.527 1.995h4.085c4.769 0 7.068-2.812 7.068-6.764v-.171c0-3.952-2.299-6.65-7.03-6.65h-4.123zm13.564 0h8.816v-1.995h-6.289v-3.971h4.788v-1.9h-4.788v-3.724h5.966v-1.995h-8.493z" fill="#d4d4d8"/><path d="m154 105.916h190" opacity=".2" stroke="#d4d4d8" stroke-width="2"/><path d="m248.596 449.387c-13.317 22.986-46.609 22.986-59.925 0l-42.804-73.884c-13.316-22.986 3.329-51.718 29.963-51.718h85.607c26.633 0 43.279 28.732 29.962 51.718z" fill="#8a93b1"/><path d="m251.688 267.156c13.316-22.987 46.608-22.986 59.924 0l42.804 73.884c13.317 22.986-3.329 51.718-29.963 51.718h-85.606c-26.634 0-43.28-28.732-29.963-51.718z" fill="#fff"/></svg>