<svg width="500" height="601" viewBox="0 0 500 601" fill="none" xmlns="http://www.w3.org/2000/svg">
<path d="M499.237 0H1.03955V372.645C1.03853 505.642 120.333 600.677 249.511 600.999C379.057 601.323 499.237 504.388 499.237 372.645V0Z" fill="url(#paint0_linear_41_17111)"/>
<path d="M499.236 0H0.98877L22.4081 23.7126L479.963 23.462L499.236 0Z" fill="url(#paint1_linear_41_17111)"/>
<path d="M22.6997 366.13V23.9043H479.358V366.13C479.358 486.804 369.287 575.753 250.454 575.456C131.953 575.16 22.6988 487.958 22.6997 366.13Z" fill="url(#paint2_linear_41_17111)" stroke="url(#paint3_linear_41_17111)" stroke-width="2"/>
<path d="M459.492 46.1816H42.1411V362.713C42.1403 474.612 142.076 554.57 250.291 554.841C358.814 555.113 459.492 473.556 459.492 362.713V46.1816Z" fill="#161C2E"/>
<path d="M478.356 24.9043H23.6997L42.128 46.302L459.48 46.2478L478.356 24.9043Z" fill="url(#paint4_linear_41_17111)"/>
<path d="M191.976 151.732C198.296 151.732 202.496 147.852 202.496 142.892C202.496 137.172 199.016 135.252 192.296 134.332C187.336 133.612 186.376 132.452 186.376 130.132C186.376 127.932 188.056 126.372 191.296 126.372C194.576 126.372 196.296 127.652 196.816 130.652H201.696C201.136 125.172 197.456 122.372 191.296 122.372C185.336 122.372 181.336 125.892 181.336 130.572C181.336 135.932 184.576 138.012 191.416 138.932C196.056 139.692 197.376 140.692 197.376 143.332C197.376 145.972 195.136 147.732 191.976 147.732C187.136 147.732 185.976 145.332 185.616 142.452H180.496C180.896 147.852 184.176 151.732 191.976 151.732ZM216.207 147.972C212.527 147.972 210.407 145.292 210.407 141.012V140.692C210.407 136.372 212.607 133.772 216.207 133.772C219.807 133.772 221.967 136.412 221.967 140.732V141.012C221.967 145.292 219.807 147.972 216.207 147.972ZM216.167 151.732C222.327 151.732 226.927 147.492 226.927 140.972V140.652C226.927 134.252 222.327 129.972 216.207 129.972C210.047 129.972 205.447 134.292 205.447 140.772V141.092C205.447 147.452 210.007 151.732 216.167 151.732ZM231.02 151.332H235.86V120.732H231.02V151.332ZM241.48 151.332H246.32V130.412H241.48V151.332ZM243.84 126.972C245.44 126.972 246.72 125.772 246.72 124.212C246.72 122.612 245.44 121.412 243.84 121.412C242.24 121.412 240.96 122.612 240.96 124.212C240.96 125.772 242.24 126.972 243.84 126.972ZM259.659 151.732C262.739 151.732 265.419 149.892 266.539 147.812V151.332H271.379V120.732H266.539V133.612C265.379 131.532 263.259 129.972 259.859 129.972C254.419 129.972 250.459 134.212 250.459 140.892V141.212C250.459 148.012 254.419 151.732 259.659 151.732ZM260.859 147.892C257.739 147.892 255.419 145.692 255.419 141.092V140.772C255.419 136.252 257.499 133.772 261.059 133.772C264.579 133.772 266.699 136.052 266.699 140.652V140.972C266.699 145.652 264.219 147.892 260.859 147.892ZM276.851 151.332H281.691V130.412H276.851V151.332ZM279.211 126.972C280.811 126.972 282.091 125.772 282.091 124.212C282.091 122.612 280.811 121.412 279.211 121.412C277.611 121.412 276.331 122.612 276.331 124.212C276.331 125.772 277.611 126.972 279.211 126.972ZM294.311 151.692C295.791 151.692 296.831 151.452 297.591 151.172V147.332C296.911 147.612 296.191 147.732 295.231 147.732C293.711 147.732 292.831 146.892 292.831 145.052V134.052H297.431V130.412H292.831V125.812H287.991V130.412H285.191V134.052H287.991V145.492C287.991 149.452 290.151 151.692 294.311 151.692ZM303.876 158.492H308.636L320.036 130.412H315.316L310.196 143.892L304.636 130.412H299.396L307.676 149.212L303.876 158.492ZM97.6827 191.132V170.932H100.763C107.483 170.932 110.283 174.652 110.283 180.812V181.132C110.283 187.452 107.203 191.132 100.803 191.132H97.6827ZM92.3627 195.332H100.963C111.003 195.332 115.843 189.412 115.843 181.092V180.732C115.843 172.412 111.003 166.732 101.043 166.732H92.3627V195.332ZM129.317 195.732C134.677 195.732 138.237 193.332 138.917 188.932H134.237C133.877 190.972 132.357 192.132 129.437 192.132C125.837 192.132 123.837 189.892 123.677 185.932H138.997V184.532C138.997 177.052 134.317 173.972 129.117 173.972C123.157 173.972 118.717 178.292 118.717 184.772V185.092C118.717 191.692 123.157 195.732 129.317 195.732ZM123.757 182.692C124.237 179.452 126.197 177.492 129.117 177.492C132.117 177.492 133.957 179.092 134.197 182.692H123.757ZM148.01 195.332H153.65L161.21 174.412H156.45L151.05 190.372L145.57 174.412H140.37L148.01 195.332ZM172.814 195.732C178.174 195.732 181.734 193.332 182.414 188.932H177.734C177.374 190.972 175.854 192.132 172.934 192.132C169.334 192.132 167.334 189.892 167.174 185.932H182.494V184.532C182.494 177.052 177.814 173.972 172.614 173.972C166.654 173.972 162.214 178.292 162.214 184.772V185.092C162.214 191.692 166.654 195.732 172.814 195.732ZM167.254 182.692C167.734 179.452 169.694 177.492 172.614 177.492C175.614 177.492 177.454 179.092 177.694 182.692H167.254ZM186.537 195.332H191.377V164.732H186.537V195.332ZM206.237 191.972C202.557 191.972 200.437 189.292 200.437 185.012V184.692C200.437 180.372 202.637 177.772 206.237 177.772C209.837 177.772 211.997 180.412 211.997 184.732V185.012C211.997 189.292 209.837 191.972 206.237 191.972ZM206.197 195.732C212.357 195.732 216.957 191.492 216.957 184.972V184.652C216.957 178.252 212.357 173.972 206.237 173.972C200.077 173.972 195.477 178.292 195.477 184.772V185.092C195.477 191.452 200.037 195.732 206.197 195.732ZM220.93 202.492H225.77V192.052C226.89 194.092 229.29 195.732 232.61 195.732C238.01 195.732 241.89 191.652 241.89 184.932V184.612C241.89 177.852 237.85 173.972 232.61 173.972C229.53 173.972 226.93 175.772 225.77 177.772V174.412H220.93V202.492ZM231.41 191.892C227.89 191.892 225.61 189.692 225.61 185.012V184.692C225.61 180.052 228.01 177.772 231.37 177.772C234.53 177.772 236.93 180.052 236.93 184.692V185.012C236.93 189.492 234.97 191.892 231.41 191.892ZM245.842 195.332H250.682V182.812C250.682 179.612 252.882 178.012 255.282 178.012C257.642 178.012 259.002 179.332 259.002 182.412V195.332H263.842V182.812C263.842 179.612 266.042 178.012 268.442 178.012C270.842 178.012 272.162 179.332 272.162 182.412V195.332H277.002V182.092C277.002 176.332 273.882 173.972 270.042 173.972C267.442 173.972 264.562 175.132 262.962 177.732C261.922 175.132 259.762 173.972 257.042 173.972C253.962 173.972 251.682 175.652 250.682 177.612V174.412H245.842V195.332ZM291.361 195.732C296.721 195.732 300.281 193.332 300.961 188.932H296.281C295.921 190.972 294.401 192.132 291.481 192.132C287.881 192.132 285.881 189.892 285.721 185.932H301.041V184.532C301.041 177.052 296.361 173.972 291.161 173.972C285.201 173.972 280.761 178.292 280.761 184.772V185.092C280.761 191.692 285.201 195.732 291.361 195.732ZM285.801 182.692C286.281 179.452 288.241 177.492 291.161 177.492C294.161 177.492 296.001 179.092 296.241 182.692H285.801ZM304.964 195.332H309.804V183.012C309.804 179.692 312.004 178.012 314.724 178.012C317.604 178.012 318.884 179.452 318.884 182.612V195.332H323.724V182.172C323.724 176.412 320.764 173.972 316.564 173.972C313.124 173.972 310.804 175.692 309.804 177.732V174.412H304.964V195.332ZM336.02 195.692C337.5 195.692 338.54 195.452 339.3 195.172V191.332C338.62 191.612 337.9 191.732 336.94 191.732C335.42 191.732 334.54 190.892 334.54 189.052V178.052H339.14V174.412H334.54V169.812H329.7V174.412H326.9V178.052H329.7V189.492C329.7 193.452 331.86 195.692 336.02 195.692ZM356.837 195.332H362.197V166.732H357.437L350.797 171.452V176.132L356.837 172.012V195.332ZM380.035 191.492C375.755 191.492 373.275 188.212 373.275 181.732V180.292C373.275 173.932 375.635 170.492 379.955 170.492C384.235 170.492 386.555 174.172 386.555 180.252V181.652C386.555 188.132 384.435 191.492 380.035 191.492ZM379.915 195.732C387.395 195.732 391.875 190.252 391.875 181.652V180.212C391.875 171.612 387.155 166.332 379.915 166.332C372.715 166.332 367.915 171.652 367.915 180.332V181.772C367.915 190.372 372.635 195.732 379.915 195.732ZM400.842 195.332H406.202V166.732H401.442L394.802 171.452V176.132L400.842 172.012V195.332Z" fill="white"/>
<path d="M214.882 88.337V78.742H216.345C219.537 78.742 220.867 80.509 220.867 83.435V83.587C220.867 86.589 219.404 88.337 216.364 88.337H214.882ZM212.355 90.332H216.44C221.209 90.332 223.508 87.52 223.508 83.568V83.397C223.508 79.445 221.209 76.747 216.478 76.747H212.355V90.332ZM224.113 90.332H226.488L227.552 86.969H232.739L233.822 90.332H236.444L231.96 76.747H228.654L224.113 90.332ZM230.155 78.818L232.15 85.126H228.141L230.155 78.818ZM243.704 90.522C246.934 90.522 249.252 88.869 249.651 85.601H247.181C246.915 87.52 245.585 88.47 243.704 88.47C241.196 88.47 239.733 86.665 239.733 83.606V83.454C239.733 80.414 241.291 78.552 243.685 78.552C245.642 78.552 246.649 79.483 246.934 81.288H249.499C249.195 78.096 246.782 76.538 243.666 76.538C239.885 76.538 237.073 79.388 237.073 83.473V83.625C237.073 87.805 239.448 90.522 243.704 90.522ZM250.516 90.332H252.891L253.955 86.969H259.142L260.225 90.332H262.847L258.363 76.747H255.057L250.516 90.332ZM256.558 78.818L258.553 85.126H254.544L256.558 78.818ZM267.448 88.337V78.742H268.911C272.103 78.742 273.433 80.509 273.433 83.435V83.587C273.433 86.589 271.97 88.337 268.93 88.337H267.448ZM264.921 90.332H269.006C273.775 90.332 276.074 87.52 276.074 83.568V83.397C276.074 79.445 273.775 76.747 269.044 76.747H264.921V90.332ZM278.484 90.332H287.3V88.337H281.011V84.366H285.799V82.466H281.011V78.742H286.977V76.747H278.484V90.332Z" fill="#D4D4D8"/>
<line opacity="0.2" x1="154.797" y1="105.916" x2="344.797" y2="105.916" stroke="#D4D4D8" stroke-width="2"/>
<path d="M249.393 449.387C236.076 472.373 202.785 472.373 189.468 449.387L146.665 375.503C133.348 352.517 149.994 323.785 176.627 323.785H262.234C288.867 323.785 305.513 352.517 292.196 375.503L249.393 449.387Z" fill="#8A93B1"/>
<path d="M252.485 267.156C265.802 244.169 299.093 244.17 312.41 267.156L355.213 341.04C368.53 364.026 351.884 392.758 325.251 392.758L239.644 392.758C213.011 392.758 196.365 364.026 209.681 341.04L252.485 267.156Z" fill="white"/>
<defs>
<linearGradient id="paint0_linear_41_17111" x1="250.138" y1="0" x2="250.138" y2="652" gradientUnits="userSpaceOnUse">
<stop offset="0.000572331" stop-color="#161C2E"/>
<stop offset="0.462127" stop-color="#E5E7EB"/>
<stop offset="0.961881" stop-color="#161C2E"/>
</linearGradient>
<linearGradient id="paint1_linear_41_17111" x1="499.734" y1="6.42815" x2="-21.4099" y2="5.42605" gradientUnits="userSpaceOnUse">
<stop offset="0.015768" stop-color="#E5E7EB"/>
<stop offset="0.480532" stop-color="#161C2E"/>
<stop offset="0.950573" stop-color="#E5E7EB"/>
</linearGradient>
<linearGradient id="paint2_linear_41_17111" x1="21.6997" y1="611.065" x2="9.05113" y2="22.9972" gradientUnits="userSpaceOnUse">
<stop offset="0.0396479" stop-color="#E5E7EB"/>
<stop offset="0.451723" stop-color="#161C2E"/>
<stop offset="0.998103" stop-color="#E5E7EB"/>
</linearGradient>
<linearGradient id="paint3_linear_41_17111" x1="251.029" y1="-73.1322" x2="251.029" y2="556.567" gradientUnits="userSpaceOnUse">
<stop offset="0.074236" stop-color="#161C2E"/>
<stop offset="0.218297" stop-color="#E5E7EB"/>
<stop offset="0.549386" stop-color="#161C2E"/>
<stop offset="1" stop-color="#E5E7EB"/>
</linearGradient>
<linearGradient id="paint4_linear_41_17111" x1="479.231" y1="30.4364" x2="1.60263" y2="29.4583" gradientUnits="userSpaceOnUse">
<stop offset="0.00582305" stop-color="#161C2E"/>
<stop offset="0.471312" stop-color="#E5E7EB"/>
<stop offset="0.924755" stop-color="#161C2E"/>
</linearGradient>
</defs>
</svg>
