<svg width="499" height="601" viewBox="0 0 499 601" fill="none" xmlns="http://www.w3.org/2000/svg">
<path d="M498.496 0H0.298828V372.645C0.29781 505.642 119.592 600.677 248.77 600.999C378.316 601.323 498.496 504.388 498.496 372.645V0Z" fill="url(#paint0_linear_41_17211)"/>
<path d="M498.495 0H0.248047L21.6674 23.7126L479.223 23.462L498.495 0Z" fill="url(#paint1_linear_41_17211)"/>
<path d="M21.959 366.13V23.9043H478.617V366.13C478.617 486.804 368.546 575.753 249.713 575.456C131.212 575.16 21.9581 487.958 21.959 366.13Z" fill="url(#paint2_linear_41_17211)" stroke="url(#paint3_linear_41_17211)" stroke-width="2"/>
<path d="M458.751 46.1816H41.4004V362.713C41.3995 474.612 141.335 554.57 249.55 554.841C358.074 555.113 458.751 473.556 458.751 362.713V46.1816Z" fill="#4DA2FF"/>
<path d="M477.615 24.9043H22.959L41.3872 46.302L458.739 46.2478L477.615 24.9043Z" fill="url(#paint4_linear_41_17211)"/>
<path d="M232.887 151.4C225.087 151.4 221.807 147.52 221.407 142.12H226.527C226.887 145 228.047 147.4 232.887 147.4C236.047 147.4 238.287 145.64 238.287 143C238.287 140.36 236.967 139.36 232.327 138.6C225.487 137.68 222.247 135.6 222.247 130.24C222.247 125.56 226.247 122.04 232.207 122.04C238.367 122.04 242.047 124.84 242.607 130.32H237.727C237.207 127.32 235.487 126.04 232.207 126.04C228.967 126.04 227.287 127.6 227.287 129.8C227.287 132.12 228.247 133.28 233.207 134C239.927 134.92 243.407 136.84 243.407 142.56C243.407 147.52 239.207 151.4 232.887 151.4ZM254.563 151.4C250.443 151.4 247.363 149.04 247.363 143.48V130.08H252.203V142.92C252.203 146.08 253.523 147.52 256.323 147.52C258.923 147.52 261.203 145.84 261.203 142.52V130.08H266.043V151H261.203V147.72C260.163 149.76 257.963 151.4 254.563 151.4ZM271.501 151V130.08H276.341V151H271.501ZM273.861 126.64C272.261 126.64 270.981 125.44 270.981 123.88C270.981 122.28 272.261 121.08 273.861 121.08C275.461 121.08 276.741 122.28 276.741 123.88C276.741 125.44 275.461 126.64 273.861 126.64ZM86.3217 190.8H89.4417C95.8417 190.8 98.9217 187.12 98.9217 180.8V180.48C98.9217 174.32 96.1217 170.6 89.4017 170.6H86.3217V190.8ZM81.0017 195V166.4H89.6817C99.6417 166.4 104.482 172.08 104.482 180.4V180.76C104.482 189.08 99.6417 195 89.6017 195H81.0017ZM117.956 195.4C111.796 195.4 107.356 191.36 107.356 184.76V184.44C107.356 177.96 111.796 173.64 117.756 173.64C122.956 173.64 127.636 176.72 127.636 184.2V185.6H112.316C112.476 189.56 114.476 191.8 118.076 191.8C120.996 191.8 122.516 190.64 122.876 188.6H127.556C126.876 193 123.316 195.4 117.956 195.4ZM112.396 182.36H122.836C122.596 178.76 120.756 177.16 117.756 177.16C114.836 177.16 112.876 179.12 112.396 182.36ZM131.959 195V166.4H149.679V170.64H137.279V179.16H147.039V183.28H137.279V195H131.959ZM153.233 195V174.08H158.073V195H153.233ZM155.593 170.64C153.993 170.64 152.713 169.44 152.713 167.88C152.713 166.28 153.993 165.08 155.593 165.08C157.193 165.08 158.473 166.28 158.473 167.88C158.473 169.44 157.193 170.64 155.593 170.64ZM178.423 190.8H181.543C187.943 190.8 191.023 187.12 191.023 180.8V180.48C191.023 174.32 188.223 170.6 181.503 170.6H178.423V190.8ZM173.103 195V166.4H181.783C191.743 166.4 196.583 172.08 196.583 180.4V180.76C196.583 189.08 191.743 195 181.703 195H173.103ZM210.058 195.4C203.898 195.4 199.458 191.36 199.458 184.76V184.44C199.458 177.96 203.898 173.64 209.858 173.64C215.058 173.64 219.738 176.72 219.738 184.2V185.6H204.418C204.578 189.56 206.578 191.8 210.178 191.8C213.098 191.8 214.618 190.64 214.978 188.6H219.658C218.978 193 215.418 195.4 210.058 195.4ZM204.498 182.36H214.938C214.698 178.76 212.858 177.16 209.858 177.16C206.938 177.16 204.978 179.12 204.498 182.36ZM228.75 195L221.11 174.08H226.31L231.79 190.04L237.19 174.08H241.95L234.39 195H228.75ZM253.555 195.4C247.395 195.4 242.955 191.36 242.955 184.76V184.44C242.955 177.96 247.395 173.64 253.355 173.64C258.555 173.64 263.235 176.72 263.235 184.2V185.6H247.915C248.075 189.56 250.075 191.8 253.675 191.8C256.595 191.8 258.115 190.64 258.475 188.6H263.155C262.475 193 258.915 195.4 253.555 195.4ZM247.995 182.36H258.435C258.195 178.76 256.355 177.16 253.355 177.16C250.435 177.16 248.475 179.12 247.995 182.36ZM267.278 195V164.4H272.118V195H267.278ZM286.977 191.64C290.577 191.64 292.737 188.96 292.737 184.68V184.4C292.737 180.08 290.577 177.44 286.977 177.44C283.377 177.44 281.177 180.04 281.177 184.36V184.68C281.177 188.96 283.297 191.64 286.977 191.64ZM286.937 195.4C280.777 195.4 276.217 191.12 276.217 184.76V184.44C276.217 177.96 280.817 173.64 286.977 173.64C293.097 173.64 297.697 177.92 297.697 184.32V184.64C297.697 191.16 293.097 195.4 286.937 195.4ZM301.67 202.16V174.08H306.51V177.44C307.67 175.44 310.27 173.64 313.35 173.64C318.59 173.64 322.63 177.52 322.63 184.28V184.6C322.63 191.32 318.75 195.4 313.35 195.4C310.03 195.4 307.63 193.76 306.51 191.72V202.16H301.67ZM312.15 191.56C315.71 191.56 317.67 189.16 317.67 184.68V184.36C317.67 179.72 315.27 177.44 312.11 177.44C308.75 177.44 306.35 179.72 306.35 184.36V184.68C306.35 189.36 308.63 191.56 312.15 191.56ZM326.583 195V174.08H331.423V177.28C332.423 175.32 334.703 173.64 337.783 173.64C340.503 173.64 342.663 174.8 343.703 177.4C345.303 174.8 348.183 173.64 350.783 173.64C354.623 173.64 357.743 176 357.743 181.76V195H352.903V182.08C352.903 179 351.583 177.68 349.183 177.68C346.783 177.68 344.583 179.28 344.583 182.48V195H339.743V182.08C339.743 179 338.383 177.68 336.023 177.68C333.623 177.68 331.423 179.28 331.423 182.48V195H326.583ZM372.102 195.4C365.942 195.4 361.502 191.36 361.502 184.76V184.44C361.502 177.96 365.942 173.64 371.902 173.64C377.102 173.64 381.782 176.72 381.782 184.2V185.6H366.462C366.622 189.56 368.622 191.8 372.222 191.8C375.142 191.8 376.662 190.64 377.022 188.6H381.702C381.022 193 377.462 195.4 372.102 195.4ZM366.542 182.36H376.982C376.742 178.76 374.902 177.16 371.902 177.16C368.982 177.16 367.022 179.12 366.542 182.36ZM385.705 195V174.08H390.545V177.4C391.545 175.36 393.865 173.64 397.305 173.64C401.505 173.64 404.465 176.08 404.465 181.84V195H399.625V182.28C399.625 179.12 398.345 177.68 395.465 177.68C392.745 177.68 390.545 179.36 390.545 182.68V195H385.705ZM416.761 195.36C412.601 195.36 410.441 193.12 410.441 189.16V177.72H407.641V174.08H410.441V169.48H415.281V174.08H419.881V177.72H415.281V188.72C415.281 190.56 416.161 191.4 417.681 191.4C418.641 191.4 419.361 191.28 420.041 191V194.84C419.281 195.12 418.241 195.36 416.761 195.36Z" fill="white"/>
<path d="M214.825 88.005H216.307C219.347 88.005 220.81 86.257 220.81 83.255V83.103C220.81 80.177 219.48 78.41 216.288 78.41H214.825V88.005ZM212.298 90V76.415H216.421C221.152 76.415 223.451 79.113 223.451 83.065V83.236C223.451 87.188 221.152 90 216.383 90H212.298ZM224.056 90L228.597 76.415H231.903L236.387 90H233.765L232.682 86.637H227.495L226.431 90H224.056ZM230.098 78.486L228.084 84.794H232.093L230.098 78.486ZM243.647 90.19C239.391 90.19 237.016 87.473 237.016 83.293V83.141C237.016 79.056 239.828 76.206 243.609 76.206C246.725 76.206 249.138 77.764 249.442 80.956H246.877C246.592 79.151 245.585 78.22 243.628 78.22C241.234 78.22 239.676 80.082 239.676 83.122V83.274C239.676 86.333 241.139 88.138 243.647 88.138C245.528 88.138 246.858 87.188 247.124 85.269H249.594C249.195 88.537 246.877 90.19 243.647 90.19ZM250.459 90L255 76.415H258.306L262.79 90H260.168L259.085 86.637H253.898L252.834 90H250.459ZM256.501 78.486L254.487 84.794H258.496L256.501 78.486ZM267.391 88.005H268.873C271.913 88.005 273.376 86.257 273.376 83.255V83.103C273.376 80.177 272.046 78.41 268.854 78.41H267.391V88.005ZM264.864 90V76.415H268.987C273.718 76.415 276.017 79.113 276.017 83.065V83.236C276.017 87.188 273.718 90 268.949 90H264.864ZM278.427 90V76.415H286.92V78.41H280.954V82.134H285.742V84.034H280.954V88.005H287.243V90H278.427Z" fill="white"/>
<line opacity="0.2" x1="154.74" y1="105" x2="344.74" y2="105" stroke="#011829" stroke-width="2"/>
<path d="M165.248 401.518C165.248 362.219 214.29 310.388 241.339 254.795C244.473 248.352 254.3 248.166 257.57 254.541C286.073 310.099 327.879 354.893 333.092 401.518C336.483 448.059 296.298 488.238 249.17 488.238C202.042 488.238 165.248 452.28 165.248 401.518Z" fill="#C0E1FC"/>
<circle cx="320.256" cy="448.462" r="39.9932" fill="#011829"/>
<defs>
<linearGradient id="paint0_linear_41_17211" x1="249.397" y1="0" x2="249.397" y2="652" gradientUnits="userSpaceOnUse">
<stop offset="0.000572331" stop-color="#063989"/>
<stop offset="0.462127" stop-color="#8FCAFA"/>
<stop offset="0.961881" stop-color="#063989"/>
</linearGradient>
<linearGradient id="paint1_linear_41_17211" x1="498.993" y1="6.42815" x2="-22.1507" y2="5.42605" gradientUnits="userSpaceOnUse">
<stop offset="0.015768" stop-color="#8FCAFA"/>
<stop offset="0.480532" stop-color="#063989"/>
<stop offset="0.950573" stop-color="#8FCAFA"/>
</linearGradient>
<linearGradient id="paint2_linear_41_17211" x1="20.959" y1="611.065" x2="8.31041" y2="22.9972" gradientUnits="userSpaceOnUse">
<stop offset="0.0396479" stop-color="#4D83D9"/>
<stop offset="0.451723" stop-color="#063989"/>
<stop offset="0.998103" stop-color="#4D83D9"/>
</linearGradient>
<linearGradient id="paint3_linear_41_17211" x1="250.288" y1="-73.1322" x2="250.288" y2="556.567" gradientUnits="userSpaceOnUse">
<stop offset="0.074236" stop-color="#4D83D9"/>
<stop offset="0.218297" stop-color="#0A64EF"/>
<stop offset="0.549386" stop-color="#4D83D9"/>
<stop offset="1" stop-color="#063989"/>
</linearGradient>
<linearGradient id="paint4_linear_41_17211" x1="478.49" y1="30.4364" x2="0.861909" y2="29.4583" gradientUnits="userSpaceOnUse">
<stop offset="0.00582305" stop-color="#063989"/>
<stop offset="0.471312" stop-color="#8FCAFA"/>
<stop offset="0.924755" stop-color="#063989"/>
</linearGradient>
</defs>
</svg>
