<svg width="499" height="601" viewBox="0 0 499 601" fill="none" xmlns="http://www.w3.org/2000/svg">
    <path d="M498.248 0H0.0507812V372.645C0.0497634 505.642 119.344 600.677 248.522 600.999C378.068 601.323 498.248 504.388 498.248 372.645V0Z" fill="url(#paint0_linear_19879_1223)"/>
    <path d="M498.247 0H0L21.4194 23.7126L478.975 23.462L498.247 0Z" fill="url(#paint1_linear_19879_1223)"/>
    <path d="M21.7109 366.13V23.9043H478.369V366.13C478.369 486.804 368.298 575.753 249.465 575.456C130.964 575.16 21.71 487.958 21.7109 366.13Z" fill="url(#paint2_linear_19879_1223)" stroke="url(#paint3_linear_19879_1223)" stroke-width="2"/>
    <path d="M458.503 46.1816H41.1523V362.713C41.1515 474.612 141.087 554.57 249.302 554.841C357.826 555.113 458.503 473.556 458.503 362.713V46.1816Z" fill="#4DA2FF"/>
    <path d="M477.367 24.9043H22.7109L41.1392 46.302L458.491 46.2478L477.367 24.9043Z" fill="url(#paint4_linear_19879_1223)"/>
    <path d="M232.639 151.4C224.839 151.4 221.559 147.52 221.159 142.12H226.279C226.639 145 227.799 147.4 232.639 147.4C235.799 147.4 238.039 145.64 238.039 143C238.039 140.36 236.719 139.36 232.079 138.6C225.239 137.68 221.999 135.6 221.999 130.24C221.999 125.56 225.999 122.04 231.959 122.04C238.119 122.04 241.799 124.84 242.359 130.32H237.479C236.959 127.32 235.239 126.04 231.959 126.04C228.719 126.04 227.039 127.6 227.039 129.8C227.039 132.12 227.999 133.28 232.959 134C239.679 134.92 243.159 136.84 243.159 142.56C243.159 147.52 238.959 151.4 232.639 151.4ZM254.315 151.4C250.195 151.4 247.115 149.04 247.115 143.48V130.08H251.955V142.92C251.955 146.08 253.275 147.52 256.075 147.52C258.675 147.52 260.955 145.84 260.955 142.52V130.08H265.795V151H260.955V147.72C259.915 149.76 257.715 151.4 254.315 151.4ZM271.253 151V130.08H276.093V151H271.253ZM273.613 126.64C272.013 126.64 270.733 125.44 270.733 123.88C270.733 122.28 272.013 121.08 273.613 121.08C275.213 121.08 276.493 122.28 276.493 123.88C276.493 125.44 275.213 126.64 273.613 126.64ZM86.0736 190.8H89.1936C95.5936 190.8 98.6736 187.12 98.6736 180.8V180.48C98.6736 174.32 95.8736 170.6 89.1536 170.6H86.0736V190.8ZM80.7536 195V166.4H89.4336C99.3936 166.4 104.234 172.08 104.234 180.4V180.76C104.234 189.08 99.3936 195 89.3536 195H80.7536ZM117.708 195.4C111.548 195.4 107.108 191.36 107.108 184.76V184.44C107.108 177.96 111.548 173.64 117.508 173.64C122.708 173.64 127.388 176.72 127.388 184.2V185.6H112.068C112.228 189.56 114.228 191.8 117.828 191.8C120.748 191.8 122.268 190.64 122.628 188.6H127.308C126.628 193 123.068 195.4 117.708 195.4ZM112.148 182.36H122.588C122.348 178.76 120.508 177.16 117.508 177.16C114.588 177.16 112.628 179.12 112.148 182.36ZM131.711 195V166.4H149.431V170.64H137.031V179.16H146.791V183.28H137.031V195H131.711ZM152.985 195V174.08H157.825V195H152.985ZM155.345 170.64C153.745 170.64 152.465 169.44 152.465 167.88C152.465 166.28 153.745 165.08 155.345 165.08C156.945 165.08 158.225 166.28 158.225 167.88C158.225 169.44 156.945 170.64 155.345 170.64ZM178.175 190.8H181.295C187.695 190.8 190.775 187.12 190.775 180.8V180.48C190.775 174.32 187.975 170.6 181.255 170.6H178.175V190.8ZM172.855 195V166.4H181.535C191.495 166.4 196.335 172.08 196.335 180.4V180.76C196.335 189.08 191.495 195 181.455 195H172.855ZM209.81 195.4C203.65 195.4 199.21 191.36 199.21 184.76V184.44C199.21 177.96 203.65 173.64 209.61 173.64C214.81 173.64 219.49 176.72 219.49 184.2V185.6H204.17C204.33 189.56 206.33 191.8 209.93 191.8C212.85 191.8 214.37 190.64 214.73 188.6H219.41C218.73 193 215.17 195.4 209.81 195.4ZM204.25 182.36H214.69C214.45 178.76 212.61 177.16 209.61 177.16C206.69 177.16 204.73 179.12 204.25 182.36ZM228.502 195L220.862 174.08H226.062L231.542 190.04L236.942 174.08H241.702L234.142 195H228.502ZM253.307 195.4C247.147 195.4 242.707 191.36 242.707 184.76V184.44C242.707 177.96 247.147 173.64 253.107 173.64C258.307 173.64 262.987 176.72 262.987 184.2V185.6H247.667C247.827 189.56 249.827 191.8 253.427 191.8C256.347 191.8 257.867 190.64 258.227 188.6H262.907C262.227 193 258.667 195.4 253.307 195.4ZM247.747 182.36H258.187C257.947 178.76 256.107 177.16 253.107 177.16C250.187 177.16 248.227 179.12 247.747 182.36ZM267.03 195V164.4H271.87V195H267.03ZM286.729 191.64C290.329 191.64 292.489 188.96 292.489 184.68V184.4C292.489 180.08 290.329 177.44 286.729 177.44C283.129 177.44 280.929 180.04 280.929 184.36V184.68C280.929 188.96 283.049 191.64 286.729 191.64ZM286.689 195.4C280.529 195.4 275.969 191.12 275.969 184.76V184.44C275.969 177.96 280.569 173.64 286.729 173.64C292.849 173.64 297.449 177.92 297.449 184.32V184.64C297.449 191.16 292.849 195.4 286.689 195.4ZM301.422 202.16V174.08H306.262V177.44C307.422 175.44 310.022 173.64 313.102 173.64C318.342 173.64 322.382 177.52 322.382 184.28V184.6C322.382 191.32 318.502 195.4 313.102 195.4C309.782 195.4 307.382 193.76 306.262 191.72V202.16H301.422ZM311.902 191.56C315.462 191.56 317.422 189.16 317.422 184.68V184.36C317.422 179.72 315.022 177.44 311.862 177.44C308.502 177.44 306.102 179.72 306.102 184.36V184.68C306.102 189.36 308.382 191.56 311.902 191.56ZM326.335 195V174.08H331.175V177.28C332.175 175.32 334.455 173.64 337.535 173.64C340.255 173.64 342.415 174.8 343.455 177.4C345.055 174.8 347.935 173.64 350.535 173.64C354.375 173.64 357.495 176 357.495 181.76V195H352.655V182.08C352.655 179 351.335 177.68 348.935 177.68C346.535 177.68 344.335 179.28 344.335 182.48V195H339.495V182.08C339.495 179 338.135 177.68 335.775 177.68C333.375 177.68 331.175 179.28 331.175 182.48V195H326.335ZM371.854 195.4C365.694 195.4 361.254 191.36 361.254 184.76V184.44C361.254 177.96 365.694 173.64 371.654 173.64C376.854 173.64 381.534 176.72 381.534 184.2V185.6H366.214C366.374 189.56 368.374 191.8 371.974 191.8C374.894 191.8 376.414 190.64 376.774 188.6H381.454C380.774 193 377.214 195.4 371.854 195.4ZM366.294 182.36H376.734C376.494 178.76 374.654 177.16 371.654 177.16C368.734 177.16 366.774 179.12 366.294 182.36ZM385.457 195V174.08H390.297V177.4C391.297 175.36 393.617 173.64 397.057 173.64C401.257 173.64 404.217 176.08 404.217 181.84V195H399.377V182.28C399.377 179.12 398.097 177.68 395.217 177.68C392.497 177.68 390.297 179.36 390.297 182.68V195H385.457ZM416.513 195.36C412.353 195.36 410.193 193.12 410.193 189.16V177.72H407.393V174.08H410.193V169.48H415.033V174.08H419.633V177.72H415.033V188.72C415.033 190.56 415.913 191.4 417.433 191.4C418.393 191.4 419.113 191.28 419.793 191V194.84C419.033 195.12 417.993 195.36 416.513 195.36Z" fill="#011829"/>
    <path d="M214.577 88.005H216.059C219.099 88.005 220.562 86.257 220.562 83.255V83.103C220.562 80.177 219.232 78.41 216.04 78.41H214.577V88.005ZM212.05 90V76.415H216.173C220.904 76.415 223.203 79.113 223.203 83.065V83.236C223.203 87.188 220.904 90 216.135 90H212.05ZM223.808 90L228.349 76.415H231.655L236.139 90H233.517L232.434 86.637H227.247L226.183 90H223.808ZM229.85 78.486L227.836 84.794H231.845L229.85 78.486ZM243.399 90.19C239.143 90.19 236.768 87.473 236.768 83.293V83.141C236.768 79.056 239.58 76.206 243.361 76.206C246.477 76.206 248.89 77.764 249.194 80.956H246.629C246.344 79.151 245.337 78.22 243.38 78.22C240.986 78.22 239.428 80.082 239.428 83.122V83.274C239.428 86.333 240.891 88.138 243.399 88.138C245.28 88.138 246.61 87.188 246.876 85.269H249.346C248.947 88.537 246.629 90.19 243.399 90.19ZM250.211 90L254.752 76.415H258.058L262.542 90H259.92L258.837 86.637H253.65L252.586 90H250.211ZM256.253 78.486L254.239 84.794H258.248L256.253 78.486ZM267.143 88.005H268.625C271.665 88.005 273.128 86.257 273.128 83.255V83.103C273.128 80.177 271.798 78.41 268.606 78.41H267.143V88.005ZM264.616 90V76.415H268.739C273.47 76.415 275.769 79.113 275.769 83.065V83.236C275.769 87.188 273.47 90 268.701 90H264.616ZM278.179 90V76.415H286.672V78.41H280.706V82.134H285.494V84.034H280.706V88.005H286.995V90H278.179Z" fill="#011829"/>
    <line opacity="0.2" x1="154.492" y1="105" x2="344.492" y2="105" stroke="#011829" stroke-width="2"/>
    <path d="M165 401.518C165 362.218 214.042 310.388 241.091 254.794C244.225 248.352 254.052 248.165 257.322 254.54C285.825 310.099 327.631 354.893 332.844 401.518C336.235 448.059 296.05 488.237 248.922 488.237C201.794 488.237 165 452.28 165 401.518Z" fill="#C0E1FC"/>
    <circle cx="320.008" cy="448.461" r="39.9932" fill="#011829"/>
    <defs>
        <linearGradient id="paint0_linear_19879_1223" x1="249.149" y1="0" x2="249.149" y2="652" gradientUnits="userSpaceOnUse">
            <stop offset="0.000572331" stop-color="#063989"/>
            <stop offset="0.462127" stop-color="#8FCAFA"/>
            <stop offset="0.961881" stop-color="#063989"/>
        </linearGradient>
        <linearGradient id="paint1_linear_19879_1223" x1="498.745" y1="6.42815" x2="-22.3987" y2="5.42605" gradientUnits="userSpaceOnUse">
            <stop offset="0.015768" stop-color="#8FCAFA"/>
            <stop offset="0.480532" stop-color="#063989"/>
            <stop offset="0.950573" stop-color="#8FCAFA"/>
        </linearGradient>
        <linearGradient id="paint2_linear_19879_1223" x1="20.7109" y1="611.065" x2="8.06237" y2="22.9972" gradientUnits="userSpaceOnUse">
            <stop offset="0.0396479" stop-color="#4D83D9"/>
            <stop offset="0.451723" stop-color="#063989"/>
            <stop offset="0.998103" stop-color="#4D83D9"/>
        </linearGradient>
        <linearGradient id="paint3_linear_19879_1223" x1="250.04" y1="-73.1322" x2="250.04" y2="556.567" gradientUnits="userSpaceOnUse">
            <stop offset="0.074236" stop-color="#4D83D9"/>
            <stop offset="0.218297" stop-color="#0A64EF"/>
            <stop offset="0.549386" stop-color="#4D83D9"/>
            <stop offset="1" stop-color="#063989"/>
        </linearGradient>
        <linearGradient id="paint4_linear_19879_1223" x1="478.242" y1="30.4364" x2="0.613862" y2="29.4583" gradientUnits="userSpaceOnUse">
            <stop offset="0.00582305" stop-color="#063989"/>
            <stop offset="0.471312" stop-color="#8FCAFA"/>
            <stop offset="0.924755" stop-color="#063989"/>
        </linearGradient>
    </defs>
</svg>
