<svg width="209" height="209" viewBox="0 0 209 209" fill="none" xmlns="http://www.w3.org/2000/svg">
<path d="M209 104.5C209 162.214 162.214 209 104.5 209C46.7862 209 0 162.214 0 104.5C0 46.7862 46.7862 0 104.5 0C162.214 0 209 46.7862 209 104.5Z" fill="#2E3337"/>
<path fill-rule="evenodd" clip-rule="evenodd" d="M104.5 207.153C161.194 207.153 207.153 161.194 207.153 104.5C207.153 47.8064 161.194 1.84712 104.5 1.84712C47.8064 1.84712 1.84712 47.8064 1.84712 104.5C1.84712 161.194 47.8064 207.153 104.5 207.153ZM104.5 209C162.214 209 209 162.214 209 104.5C209 46.7862 162.214 0 104.5 0C46.7862 0 0 46.7862 0 104.5C0 162.214 46.7862 209 104.5 209Z" fill="white"/>
<path d="M17.8481 89L18.1258 87.354L9.27768 85.8834L9 87.5293L17.8481 89Z" fill="white"/>
<path d="M18.661 84.2282L19.0509 82.7718L12.4057 81.0187L20.0888 78.8961L20.5335 77.2351L11.8632 74.9477L11.4733 76.4041L17.7425 78.058L10.5031 80.027L9.99066 81.9408L18.661 84.2282Z" fill="white"/>
<path d="M22.5262 71.6404L23.1526 70.0917L16.0499 67.261L16.9803 64.9611L15.7577 64.4738L13.2705 70.6224L14.4931 71.1097L15.4234 68.8097L22.5262 71.6404Z" fill="white"/>
<path d="M25.7008 64.3079L26.4928 62.8499L23.3009 61.1418L23.807 60.21L28.1123 59.868L28.9697 58.2894L24.3602 58.6667C24.6361 57.5551 24.4234 56.4508 23.1864 55.7888L23.1422 55.7652C21.5297 54.9023 20.1679 55.73 19.233 57.4511L17.804 60.0821L25.7008 64.3079ZM22.2517 60.5804L19.7335 59.2329L20.3706 58.0598C20.8767 57.128 21.4897 56.7344 22.3953 57.219L22.4395 57.2427C23.2789 57.6919 23.4187 58.4317 22.8888 59.4074L22.2517 60.5804Z" fill="white"/>
<path d="M31.8963 51.7569C30.9532 53.0779 29.2301 53.316 27.633 52.1927L27.5511 52.1351C25.9745 51.0262 25.5222 49.4411 26.5378 48.0184C27.5534 46.5958 29.2642 46.5474 30.7691 47.6059L30.851 47.6635C32.4378 48.7796 32.8757 50.385 31.8963 51.7569ZM32.9772 52.5477C34.5514 50.3426 33.9815 47.7589 31.8419 46.254L31.76 46.1964C29.6101 44.6843 26.9978 45.0907 25.4526 47.2552C23.9147 49.4095 24.4133 52.0498 26.553 53.5548L26.6349 53.6124C28.7438 55.0957 31.3885 54.7731 32.9772 52.5477Z" fill="white"/>
<path d="M37.4991 44.5303L32.8403 40.2673L33.4952 39.5622C34.9239 38.0238 36.3772 38.1679 37.7979 39.4679L37.8717 39.5354C39.3293 40.8692 39.5232 42.3509 38.1625 43.816L37.4991 44.5303ZM37.3367 46.6345L39.1652 44.6658C41.2998 42.3673 40.9635 40.01 39.0446 38.2542L38.9616 38.1782C37.0427 36.4224 34.7036 36.3317 32.586 38.6118L30.7405 40.5988L37.3367 46.6345Z" fill="white"/>
<path d="M47.6184 36.6914C49.4332 35.1763 49.5711 33.3849 48.0608 31.6026L44.5475 27.4565L43.2608 28.5308L46.6853 32.572C47.8806 33.9826 47.7528 34.8379 46.7638 35.6636C45.7459 36.5134 44.9065 36.3354 43.8485 35.0868L40.3513 30.9599L39.0646 32.0341L42.6425 36.2564C44.1286 38.0101 45.8995 38.1264 47.6184 36.6914Z" fill="white"/>
<path d="M56.9821 29.8102C58.7749 28.6631 59.4701 26.9291 58.5223 24.987L57.1513 25.8642C57.6903 27.0159 57.292 28.0117 56.2479 28.6797C54.8558 29.5704 53.398 29.0956 52.3034 27.4102L52.2491 27.3265C51.1613 25.6516 51.3599 24.0725 52.6887 23.2222C53.7749 22.5272 54.667 22.6825 55.471 23.5757L56.8947 22.6647C55.5839 21.0141 53.6871 21.0127 51.9575 22.1194C49.8588 23.4622 49.3178 26.0311 50.7794 28.2817L50.8338 28.3654C52.3294 30.6683 54.6198 31.3218 56.9821 29.8102Z" fill="white"/>
<path d="M64.5351 25.3601L66.0463 24.6287L62.6918 17.8001L64.9361 16.7139L64.3586 15.5385L58.3588 18.4424L58.9362 19.6178L61.1805 18.5316L64.5351 25.3601Z" fill="white"/>
<path d="M71.9083 22.0706L73.4763 21.4683L70.2388 13.1636L68.6707 13.7659L71.9083 22.0706Z" fill="white"/>
<path d="M80.0877 18.0581C78.518 18.4983 77.0264 17.6094 76.4942 15.7397L76.4669 15.6439C75.9416 13.7981 76.5924 12.2826 78.2828 11.8086C79.9733 11.3345 81.3353 12.3633 81.8367 14.1251L81.864 14.221C82.3928 16.0787 81.7178 17.601 80.0877 18.0581ZM80.4286 19.3473C83.0488 18.6125 84.2399 16.2466 83.5269 13.7417L83.4996 13.6458C82.7832 11.1289 80.4931 9.81692 77.9212 10.5382C75.3614 11.256 74.079 13.6216 74.7919 16.1265L74.8192 16.2224C75.522 18.6913 77.7842 20.0888 80.4286 19.3473Z" fill="white"/>
<path d="M87.5607 17.451L89.0632 17.2348L88.077 10.4804L93.0617 16.6596L94.7753 16.4131L93.4885 7.60034L91.986 7.81649L92.9164 14.1888L88.2483 8.35419L86.2739 8.63822L87.5607 17.451Z" fill="white"/>
<path d="M105.931 15.9916L107.611 16.0542L107.898 8.46246L110.393 8.5555L110.443 7.24872L103.772 7L103.723 8.30678L106.218 8.39982L105.931 15.9916Z" fill="white"/>
<path d="M118.219 15.9064C116.608 15.6491 115.633 14.2192 115.944 12.301L115.96 12.2027C116.267 10.3091 117.5 9.20682 119.235 9.48387C120.969 9.76093 121.768 11.2635 121.474 13.071L121.459 13.1694C121.15 15.0753 119.891 16.1735 118.219 15.9064ZM117.981 17.2181C120.669 17.6475 122.753 16.0001 123.17 13.4302L123.186 13.3318C123.605 10.7496 122.085 8.60201 119.446 8.18049C116.82 7.76095 114.653 9.37 114.236 11.9399L114.22 12.0382C113.809 14.5712 115.268 16.7847 117.981 17.2181Z" fill="white"/>
<path d="M130.243 19.9064L133.493 21.057C135.348 21.7139 136.671 21.2962 137.231 19.736L137.248 19.6891C137.649 18.5747 137.329 17.7605 136.271 17.1083C137.333 17.154 137.948 16.6309 138.247 15.7981L138.264 15.7512C138.812 14.2262 138.02 13.2053 136.282 12.5902L133.257 11.5191L130.243 19.9064ZM132.18 19.3359L133.145 16.6497L134.563 17.1517C135.721 17.5618 136.05 18.1673 135.738 19.0354L135.721 19.0823C135.409 19.9504 134.756 20.248 133.704 19.8757L132.18 19.3359ZM133.524 15.5939L134.393 13.1774L135.669 13.6293C136.674 13.985 137.012 14.4883 136.726 15.286L136.709 15.3329C136.401 16.1892 135.864 16.4224 134.824 16.0542L133.524 15.5939Z" fill="white"/>
<path d="M139.684 23.4829L144.631 25.8584L145.21 24.67L141.765 23.0158L145.093 16.1881L143.59 15.4667L139.684 23.4829Z" fill="white"/>
<path d="M151.631 28.5431C150.254 27.6744 149.928 25.9781 150.978 24.3386L151.032 24.2545C152.069 22.636 153.641 22.1081 155.124 23.0436C156.606 23.9791 156.741 25.6726 155.751 27.2176L155.697 27.3017C154.654 28.9307 153.06 29.4452 151.631 28.5431ZM150.889 29.6543C153.187 31.1044 155.758 30.4099 157.165 28.2133L157.219 28.1292C158.633 25.9221 158.093 23.3529 155.837 21.9295C153.593 20.5129 150.961 21.1396 149.554 23.3362L149.5 23.4202C148.113 25.5853 148.57 28.1909 150.889 29.6543Z" fill="white"/>
<path d="M159.995 36.2704C161.633 37.6257 163.508 37.7658 165.092 36.2874L163.839 35.251C162.893 36.1059 161.816 36.0262 160.862 35.237C159.589 34.1847 159.61 32.6619 160.903 31.1213L160.967 31.0448C162.253 29.5138 163.83 29.2298 165.045 30.2342C166.038 31.0553 166.155 31.9467 165.537 32.9753L166.838 34.0515C168.033 32.3164 167.467 30.5194 165.886 29.212C163.968 27.6256 161.337 27.881 159.61 29.9383L159.546 30.0148C157.779 32.1199 157.835 34.4847 159.995 36.2704Z" fill="white"/>
<path d="M165.302 40.7967L166.446 42.0022L169.496 39.1494L168.813 44.4948L170.164 45.9178L170.903 39.9045L176.573 39.6663L175.342 38.3702L170.017 38.6625L172.976 35.8952L171.831 34.6897L165.302 40.7967Z" fill="white"/>
<path d="M174.331 51.4346C175.597 53.1388 177.384 53.7189 179.277 52.6583L178.309 51.3551C177.185 51.9611 176.159 51.6289 175.422 50.6365C174.439 49.3132 174.825 47.8392 176.451 46.6494L176.532 46.5903C178.148 45.4079 179.748 45.5057 180.686 46.7688C181.453 47.8013 181.353 48.6948 180.505 49.5472L181.51 50.9005C183.088 49.4986 182.97 47.6195 181.749 45.9754C180.268 43.9805 177.651 43.6053 175.479 45.1942L175.399 45.2533C173.177 46.8792 172.663 49.189 174.331 51.4346Z" fill="white"/>
<path d="M178.417 57.0766L179.229 58.5234L182.561 56.68L184.522 60.1719L181.19 62.0154L182.009 63.473L189.845 59.1373L189.027 57.6796L185.695 59.5231L183.734 56.0311L187.066 54.1877L186.253 52.7409L178.417 57.0766Z" fill="white"/>
<path d="M183.402 66.2645L183.991 67.7073L186.313 67.526L187.599 70.6772L185.81 72.1629L186.46 73.7558L193.663 67.6879L192.843 65.6794L183.402 66.2645ZM191.948 67.1011L188.581 69.8657L187.587 67.4302L191.948 67.1011Z" fill="white"/>
<path d="M187.32 76.5867L187.812 78.1823L196.39 75.5735L195.897 73.9779L187.32 76.5867Z" fill="white"/>
<path d="M188.741 81.216L189.047 82.6919L195.782 81.3128L189.864 86.6195L190.214 88.3027L199 86.5034L198.693 85.0275L192.34 86.3286L197.93 81.3561L197.527 79.4167L188.741 81.216Z" fill="white"/>
<path d="M183 104.5C183 147.854 147.854 183 104.5 183C61.1456 183 26 147.854 26 104.5C26 61.1456 61.1456 26 104.5 26C147.854 26 183 61.1456 183 104.5Z" fill="#35C07D"/>
<path fill-rule="evenodd" clip-rule="evenodd" d="M104.5 181.526C147.04 181.526 181.526 147.04 181.526 104.5C181.526 61.9598 147.04 27.4742 104.5 27.4742C61.9598 27.4742 27.4742 61.9598 27.4742 104.5C27.4742 147.04 61.9598 181.526 104.5 181.526ZM104.5 183C147.854 183 183 147.854 183 104.5C183 61.1456 147.854 26 104.5 26C61.1456 26 26 61.1456 26 104.5C26 147.854 61.1456 183 104.5 183Z" fill="white"/>
<path d="M77.8864 197.977L79.0363 191.648L79.99 191.825C82.0708 192.212 82.726 193.539 82.3753 195.469L82.3571 195.569C81.9973 197.55 80.8341 198.525 78.8524 198.157L77.8864 197.977ZM76 198.986L78.6629 199.482C81.7717 200.06 83.6073 198.484 84.081 195.877L84.1015 195.764C84.5751 193.157 83.3998 191.099 80.3158 190.525L77.6281 190.025L76 198.986Z" fill="white"/>
<path d="M85.684 200.7L87.2491 200.871L88.1887 198.705L91.6069 199.077L92.0822 201.397L93.8101 201.585L91.8183 192.204L89.6397 191.967L85.684 200.7ZM90.482 193.456L91.3495 197.805L88.7076 197.518L90.482 193.456Z" fill="white"/>
<path d="M100.261 201.997C102.4 202.067 103.972 201.01 104.306 198.828L102.67 198.774C102.453 200.054 101.551 200.662 100.305 200.621C98.6435 200.566 97.7133 199.325 97.7792 197.274L97.7825 197.172C97.8481 195.134 98.9203 193.92 100.506 193.972C101.803 194.015 102.45 194.661 102.599 195.877L104.299 195.933C104.166 193.787 102.601 192.69 100.537 192.622C98.0323 192.539 96.1081 194.388 96.02 197.127L96.0167 197.229C95.9266 200.031 97.4413 201.904 100.261 201.997Z" fill="white"/>
<path d="M106.153 201.977L107.726 201.91L108.337 199.626L111.772 199.48L112.583 201.703L114.319 201.629L110.971 192.652L108.781 192.745L106.153 201.977ZM109.833 194.091L111.33 198.261L108.676 198.375L109.833 194.091Z" fill="white"/>
<path d="M118.339 199.877L117.598 193.485L118.561 193.371C120.662 193.121 121.674 194.194 121.9 196.144L121.912 196.245C122.144 198.245 121.315 199.523 119.314 199.761L118.339 199.877ZM116.829 201.403L119.518 201.084C122.658 200.711 123.954 198.658 123.649 196.026L123.636 195.912C123.33 193.279 121.609 191.662 118.494 192.031L115.78 192.353L116.829 201.403Z" fill="white"/>
<path d="M127.259 200.014L133 198.911L132.753 197.597L128.658 198.383L128.167 195.767L131.285 195.168L131.05 193.916L127.933 194.515L127.472 192.061L131.357 191.315L131.111 190L125.58 191.062L127.259 200.014Z" fill="white"/>
<path d="M140.799 114.193C127.411 135.747 104.708 145.795 90.0906 136.635C75.4731 127.476 74.476 102.577 87.8637 81.0226C101.251 59.4683 123.954 49.4205 138.572 58.5801C153.189 67.7398 154.186 92.6384 140.799 114.193Z" fill="#2E3337"/>
<path d="M113.151 128.693C99.6282 150.247 76.6961 160.295 61.9309 151.135C47.1657 141.976 46.1587 117.077 59.6816 95.5226C73.2045 73.9683 96.1365 63.9205 110.902 73.0801C125.667 82.2398 126.674 107.138 113.151 128.693Z" fill="white"/>
</svg>
