<svg width="16" height="16" viewBox="0 0 16 16" fill="none" xmlns="http://www.w3.org/2000/svg">
  <path fill-rule="evenodd" clip-rule="evenodd"
    d="M8 16C12.4183 16 16 12.4183 16 8C16 3.58172 12.4183 0 8 0C3.58172 0 0 3.58172 0 8C0 12.4183 3.58172 16 8 16ZM11.197 4.80365C11.4899 5.09655 11.4899 5.57142 11.197 5.86431L9.0607 8.00065L11.197 10.137C11.4899 10.4299 11.4899 10.9048 11.197 11.1976C10.9041 11.4905 10.4293 11.4905 10.1364 11.1976L8.00004 9.06131L5.8637 11.1976C5.57081 11.4905 5.09594 11.4905 4.80304 11.1976C4.51015 10.9048 4.51015 10.4299 4.80304 10.137L6.93938 8.00065L4.80304 5.86431C4.51015 5.57142 4.51015 5.09655 4.80304 4.80365C5.09594 4.51076 5.57081 4.51076 5.8637 4.80365L8.00004 6.93999L10.1364 4.80365C10.4293 4.51076 10.9041 4.51076 11.197 4.80365Z"
    fill="currentColor" />
</svg>
