<svg viewBox="0 0 139 139" fill="none" xmlns="http://www.w3.org/2000/svg">
<path d="M110.68 131.432C112.347 131.814 114.019 132.164 115.696 132.482C116.158 132.567 116.595 132.344 116.887 131.891C117.181 131.435 117.285 130.794 117.063 130.188L117.063 130.187C116.432 128.467 115.854 126.721 115.329 124.953L115.327 124.944L115.325 124.936L115.306 124.863C113.548 118.956 112.114 112.16 111.589 105.822L111.571 105.613L111.708 105.454C120.298 95.4922 125.5 82.4523 125.5 68.1954C125.5 36.8776 100.42 11.5 69.5 11.5C38.5798 11.5 13.5 36.8776 13.5 68.1954C13.5 99.5132 38.5798 124.891 69.5 124.891H69.5008C75.0459 124.899 80.5688 124.066 85.9283 122.413L86.1384 122.348L86.3282 122.459C89.9584 124.583 97.814 128.478 110.68 131.432ZM110.68 131.432L110.568 131.919M110.68 131.432C110.68 131.432 110.68 131.432 110.68 131.432L110.568 131.919M110.568 131.919C112.242 132.303 113.921 132.654 115.604 132.973L110.568 131.919Z" fill="white" class="discord-button" stroke="#9CA3AF"/>
<path d="M66.888 80.456H72.216V77.36C72.216 72.968 75.312 69.944 78.552 66.848C82.008 63.536 85.608 60.152 85.608 54.824C85.608 48.776 81.72 42.872 71.928 42.872C63.144 42.872 57.168 48.776 56.664 57.2H62.28C62.784 51.512 66.456 47.84 71.856 47.84C77.184 47.84 79.56 50.792 79.56 55.04C79.56 58.496 77.112 61.088 74.304 63.896C70.704 67.424 66.888 71.024 66.888 76.856V80.456ZM69.408 95.36C71.928 95.36 74.016 93.344 74.016 90.752C74.016 88.16 71.928 86.144 69.408 86.144C66.888 86.144 64.8 88.16 64.8 90.752C64.8 93.344 66.888 95.36 69.408 95.36Z" fill="#111827"/>
</svg>
