<svg width="24" height="24" viewBox="0 0 24 24" fill="none" xmlns="http://www.w3.org/2000/svg">
<path d="M9 21H15" stroke="currentColor" stroke-width="1.5" stroke-linecap="round" stroke-linejoin="round"/>
<path d="M5.26953 9.75006C5.26829 8.86057 5.44311 7.97963 5.78392 7.15802C6.12473 6.33641 6.62478 5.59037 7.25526 4.96292C7.88574 4.33547 8.63417 3.83901 9.45741 3.50216C10.2807 3.16531 11.1624 2.99473 12.0519 3.00025C15.7634 3.02784 18.7322 6.11288 18.7322 9.8348V10.5001C18.7322 13.8578 19.4347 15.8062 20.0534 16.8711C20.1201 16.9849 20.1555 17.1143 20.1562 17.2462C20.157 17.378 20.1229 17.5077 20.0574 17.6222C19.992 17.7367 19.8975 17.832 19.7836 17.8983C19.6696 17.9646 19.5401 17.9997 19.4083 18.0001H4.59271C4.46082 17.9997 4.33136 17.9646 4.21738 17.8983C4.10339 17.8319 4.00892 17.7367 3.9435 17.6222C3.87808 17.5076 3.84401 17.3779 3.84474 17.246C3.84547 17.1141 3.88096 16.9848 3.94765 16.871C4.56671 15.806 5.26952 13.8576 5.26952 10.5001L5.26953 9.75006Z" stroke="currentColor" stroke-width="1.5" stroke-linecap="round" stroke-linejoin="round"/>
</svg>
