<svg width="18" height="18" viewBox="0 0 18 18" fill="none" xmlns="http://www.w3.org/2000/svg">
<path d="M1.582 5.99993H1V0.999928L1.582 5.99993ZM1.582 5.99993C2.24585 4.35806 3.43568 2.98284 4.96503 2.08979C6.49438 1.19674 8.2768 0.836341 10.033 1.06507C11.7891 1.29379 13.4198 2.09872 14.6694 3.3537C15.919 4.60869 16.7168 6.24279 16.938 7.99993M1.582 5.99993H6M16.419 11.9999H17V16.9999L16.419 11.9999ZM16.419 11.9999C15.7542 13.6408 14.564 15.015 13.0348 15.9072C11.5056 16.7995 9.72374 17.1594 7.9681 16.9308C6.21246 16.7022 4.5822 15.8978 3.33253 14.6437C2.08287 13.3895 1.28435 11.7564 1.062 9.99993M16.419 11.9999H12" stroke="currentColor" stroke-width="1.5" stroke-linecap="round" stroke-linejoin="round"/>
</svg>
