<svg width="77" height="24" viewBox="0 0 77 24" fill="none" xmlns="http://www.w3.org/2000/svg">
<path d="M62.0683 17.3658C61.9303 17.366 61.7947 17.33 61.675 17.2616C61.5553 17.1932 61.4557 17.0947 61.386 16.9759L52.7818 2.35934L44.8776 15.7878H52.7818C52.9914 15.7878 53.1925 15.8709 53.3407 16.0188C53.4889 16.1667 53.5722 16.3673 53.5722 16.5765C53.5722 16.7857 53.4889 16.9863 53.3407 17.1342C53.1925 17.2821 52.9914 17.3652 52.7818 17.3652H43.4953C43.3561 17.3652 43.2193 17.3285 43.0988 17.2588C42.9784 17.1892 42.8785 17.0889 42.8093 16.9684C42.7401 16.8478 42.7041 16.7111 42.7048 16.5721C42.7056 16.4332 42.7432 16.2969 42.8137 16.1771L52.1001 0.40268C52.1698 0.284101 52.2693 0.185764 52.3889 0.117433C52.5084 0.0491021 52.6437 0.0131531 52.7815 0.0131531C52.9192 0.0131531 53.0546 0.0491021 53.1741 0.117433C53.2936 0.185764 53.3932 0.284101 53.4628 0.40268L62.7493 16.1771C62.8197 16.2969 62.8572 16.4332 62.858 16.5721C62.8588 16.711 62.8228 16.8476 62.7537 16.9682C62.6846 17.0888 62.5849 17.1891 62.4645 17.2589C62.3442 17.3287 62.2075 17.3656 62.0683 17.3658Z" fill="#9CA3AF"/>
<path d="M45.7724 1.63759H30.2802C30.0705 1.63759 29.8695 1.55449 29.7213 1.40658C29.573 1.25867 29.4897 1.05805 29.4897 0.84887C29.4897 0.639689 29.573 0.439075 29.7213 0.291161C29.8695 0.143247 30.0705 0.0601501 30.2802 0.0601501H45.7724C45.982 0.0601501 46.183 0.143247 46.3313 0.291161C46.4795 0.439075 46.5628 0.639689 46.5628 0.84887C46.5628 1.05805 46.4795 1.25867 46.3313 1.40658C46.183 1.55449 45.982 1.63759 45.7724 1.63759Z" fill="#9CA3AF"/>
<path d="M38.0227 17.4345C37.8131 17.4345 37.612 17.3515 37.4638 17.2035C37.3156 17.0556 37.2323 16.855 37.2323 16.6458V0.871423C37.2323 0.662241 37.3156 0.461627 37.4638 0.313713C37.612 0.1658 37.8131 0.0827026 38.0227 0.0827026C38.2324 0.0827026 38.4334 0.1658 38.5816 0.313713C38.7299 0.461627 38.8131 0.662241 38.8131 0.871423V16.6458C38.8132 16.7494 38.7928 16.852 38.7531 16.9478C38.7134 17.0435 38.6552 17.1305 38.5818 17.2037C38.5084 17.277 38.4212 17.3351 38.3253 17.3747C38.2294 17.4143 38.1265 17.4346 38.0227 17.4345Z" fill="#9CA3AF"/>
<path d="M75.4091 17.3631C75.1995 17.3631 74.9985 17.28 74.8502 17.1321C74.702 16.9842 74.6187 16.7836 74.6187 16.5744V11.8964L62.9206 2.45064V9.86903C62.9206 10.0782 62.8373 10.2788 62.689 10.4267C62.5408 10.5747 62.3398 10.6577 62.1301 10.6577C61.9205 10.6577 61.7195 10.5747 61.5712 10.4267C61.423 10.2788 61.3397 10.0782 61.3397 9.86903V0.800008C61.3397 0.651084 61.382 0.505201 61.4616 0.379237C61.5412 0.253272 61.6549 0.152374 61.7896 0.088213C61.9243 0.0240525 62.0744 -0.000747288 62.2226 0.0166814C62.3709 0.03411 62.5111 0.0930558 62.6272 0.186699L74.6194 9.86903V0.800008C74.6194 0.590826 74.7026 0.390212 74.8509 0.242298C74.9991 0.0943848 75.2001 0.0112878 75.4098 0.0112878C75.6194 0.0112878 75.8204 0.0943848 75.9687 0.242298C76.1169 0.390212 76.2002 0.590826 76.2002 0.800008V16.5744C76.2002 16.678 76.1797 16.7807 76.14 16.8764C76.1002 16.9721 76.0419 17.0591 75.9685 17.1323C75.895 17.2056 75.8078 17.2637 75.7118 17.3033C75.6158 17.3429 75.513 17.3632 75.4091 17.3631Z" fill="#9CA3AF"/>
<path d="M16.282 11.631C16.1594 11.6306 16.0386 11.6018 15.9291 11.5469C15.8195 11.4921 15.7242 11.4126 15.6507 11.3147C15.5771 11.2169 15.5273 11.1033 15.5052 10.983C15.4831 10.8627 15.4893 10.7389 15.5232 10.6214C15.7141 9.9653 15.8108 9.28548 15.8103 8.60228C15.8103 5.13569 13.3518 2.17578 9.96499 1.56374C9.76005 1.5251 9.57871 1.40721 9.4605 1.23574C9.34229 1.06427 9.29679 0.853126 9.33392 0.648327C9.37104 0.443527 9.48779 0.261671 9.6587 0.142391C9.82962 0.0231103 10.0409 -0.0239242 10.2464 0.0115354C14.3863 0.759873 17.3918 4.37284 17.3918 8.60228C17.3926 9.43497 17.2746 10.2635 17.0414 11.0631C16.9934 11.227 16.8935 11.3709 16.7565 11.4733C16.6196 11.5757 16.4531 11.631 16.282 11.631Z" fill="#9CA3AF"/>
<path d="M1.10912 11.6323C0.938122 11.6322 0.771761 11.5768 0.634963 11.4744C0.498165 11.372 0.398296 11.2282 0.350318 11.0644C0.117153 10.2649 -0.000800751 9.43631 4.09102e-06 8.60361C4.09102e-06 4.43917 2.94921 0.837554 7.01259 0.0374761C7.21828 -0.00302146 7.43167 0.0396743 7.60582 0.156171C7.77996 0.272668 7.90059 0.453423 7.94118 0.658672C7.98176 0.863921 7.93897 1.07685 7.82223 1.25062C7.70548 1.42439 7.52434 1.54476 7.31865 1.58526C3.99383 2.23958 1.58084 5.19129 1.58084 8.60361C1.58033 9.28681 1.67698 9.96663 1.86792 10.6227C1.90187 10.7403 1.90802 10.864 1.8859 10.9844C1.86378 11.1047 1.81399 11.2182 1.74045 11.3161C1.6669 11.4139 1.57161 11.4934 1.46206 11.5483C1.35251 11.6031 1.2317 11.6319 1.10912 11.6323Z" fill="#9CA3AF"/>
<path d="M8.69423 17.3315C7.37319 17.3338 6.06924 17.0335 4.88284 16.4537C3.69643 15.8739 2.65922 15.0301 1.85111 13.9873C1.72215 13.8224 1.66412 13.6131 1.68979 13.4055C1.71546 13.1979 1.82274 13.009 1.98801 12.8803C2.15329 12.7516 2.36302 12.6937 2.57108 12.7193C2.77914 12.7449 2.96848 12.8519 3.09744 13.0169C3.75941 13.8685 4.60782 14.5578 5.57777 15.032C6.54771 15.5061 7.6135 15.7526 8.6936 15.7526C9.7737 15.7526 10.8395 15.5061 11.8094 15.032C12.7794 14.5578 13.6278 13.8685 14.2898 13.0169C14.4187 12.8519 14.6081 12.7449 14.8161 12.7193C15.0242 12.6937 15.2339 12.7516 15.3992 12.8803C15.5645 13.009 15.6717 13.1979 15.6974 13.4055C15.7231 13.6131 15.6651 13.8224 15.5361 13.9873C14.7281 15.0299 13.6911 15.8736 12.5049 16.4534C11.3188 17.0332 10.0151 17.3336 8.69423 17.3315Z" fill="#9CA3AF"/>
<path d="M23.3671 17.3329C21.2697 17.3355 19.2502 16.5398 17.7204 15.1081C17.5672 14.9652 17.4773 14.7674 17.4703 14.5583C17.4633 14.3492 17.5398 14.1459 17.683 13.9932C17.8263 13.8404 18.0244 13.7506 18.234 13.7436C18.4435 13.7367 18.6473 13.813 18.8004 13.9559C20.0396 15.1122 21.6728 15.7554 23.3693 15.7554C25.0659 15.7554 26.6991 15.1122 27.9382 13.9559C28.0914 13.813 28.2951 13.7367 28.5046 13.7436C28.7142 13.7506 28.9124 13.8404 29.0556 13.9932C29.1988 14.1459 29.2753 14.3492 29.2683 14.5583C29.2613 14.7674 29.1714 14.9652 29.0183 15.1081C27.4872 16.5408 25.466 17.3365 23.3671 17.3329Z" fill="#9CA3AF"/>
<path d="M28.4836 3.63283C28.2831 3.633 28.09 3.55697 27.9436 3.42019C26.7044 2.26393 25.0712 1.62069 23.3747 1.62069C21.6781 1.62069 20.0449 2.26393 18.8057 3.42019C18.7308 3.49541 18.6415 3.55479 18.543 3.59475C18.4446 3.63472 18.3391 3.65447 18.2328 3.65282C18.1265 3.65117 18.0217 3.62814 17.9245 3.58513C17.8274 3.54211 17.7399 3.47999 17.6674 3.40248C17.5949 3.32496 17.5387 3.23365 17.5024 3.13399C17.466 3.03434 17.4502 2.92839 17.4558 2.82248C17.4614 2.71658 17.4884 2.61289 17.5351 2.51762C17.5818 2.42236 17.6473 2.33747 17.7276 2.26803C19.2598 0.838479 21.279 0.0432129 23.3766 0.0432129C25.4742 0.0432129 27.4934 0.838479 29.0255 2.26803C29.1414 2.37612 29.222 2.51649 29.2568 2.67089C29.2916 2.82528 29.2791 2.98656 29.2209 3.13376C29.1626 3.28096 29.0613 3.40727 28.9302 3.49628C28.7991 3.58528 28.6441 3.63286 28.4855 3.63283H28.4836Z" fill="#9CA3AF"/>
<path d="M60.0844 23.0917C59.8337 23.093 59.5856 23.0419 59.3559 22.9416C59.1323 22.8494 58.9294 22.7136 58.759 22.5422C58.589 22.3743 58.4531 22.1753 58.3588 21.956C58.2609 21.7293 58.2112 21.4848 58.2127 21.2379C58.2115 20.9947 58.2598 20.7538 58.3545 20.5298C58.4493 20.3057 58.5886 20.1032 58.7641 19.9343C58.9367 19.7637 59.1407 19.6279 59.3648 19.5343C59.5957 19.4386 59.8432 19.3891 60.0932 19.3886C60.4733 19.388 60.8442 19.5055 61.1543 19.7249C61.1787 19.742 61.1994 19.7637 61.2154 19.7889C61.2313 19.814 61.2421 19.842 61.2472 19.8713C61.2522 19.9006 61.2514 19.9307 61.2448 19.9597C61.2382 19.9887 61.2259 20.0161 61.2087 20.0403C61.1734 20.0886 61.1207 20.1214 61.0617 20.1316C61.0027 20.1418 60.942 20.1288 60.8925 20.0952C60.6608 19.9284 60.3815 19.8399 60.0958 19.8429C59.7193 19.8454 59.3586 19.9938 59.0897 20.2568C58.9591 20.3841 58.854 20.5351 58.7799 20.7016C58.7078 20.8712 58.6708 21.0537 58.6711 21.2379C58.6703 21.4222 58.7074 21.6048 58.7799 21.7743C58.8515 21.9402 58.9553 22.0903 59.0853 22.216C59.2162 22.3483 59.3722 22.4535 59.5441 22.5253C59.716 22.5971 59.9005 22.6341 60.0869 22.6343C60.285 22.6343 60.4807 22.5912 60.6604 22.5081C60.8074 22.4408 60.9416 22.3486 61.0569 22.2355V21.296C61.0569 21.2357 61.0809 21.178 61.1236 21.1354C61.1663 21.0928 61.2242 21.0688 61.2846 21.0688C61.3449 21.0688 61.4028 21.0928 61.4455 21.1354C61.4882 21.178 61.5122 21.2357 61.5122 21.296V22.3365C61.5112 22.3918 61.49 22.445 61.4528 22.486C61.2827 22.6724 61.0766 22.8227 60.847 22.9277C60.6077 23.0368 60.3475 23.0928 60.0844 23.0917Z" fill="#9CA3AF"/>
<path d="M64.315 23.0056C64.2616 23.0045 64.2103 22.985 64.1697 22.9505C64.129 22.9161 64.1015 22.8687 64.0918 22.8163C64.0525 22.578 63.964 22.3505 63.8319 22.1481C63.7531 22.0293 63.6439 21.9337 63.5157 21.8711C63.4335 21.8296 63.3434 21.8058 63.2514 21.8011C63.192 21.8011 63.1249 21.8055 63.0617 21.8055C63.0052 21.8047 62.951 21.7828 62.9098 21.7442C62.8686 21.7055 62.8434 21.6529 62.8391 21.5966C62.8331 21.5409 62.8486 21.485 62.8825 21.4402C62.9163 21.3955 62.9659 21.3652 63.0212 21.3556C63.0975 21.3398 63.1757 21.3353 63.2533 21.3424C63.4483 21.3381 63.6399 21.2898 63.8135 21.201C64.0134 21.0874 64.1095 20.9108 64.1095 20.6426C64.1139 20.4866 64.0794 20.332 64.0089 20.1927C63.9575 20.107 63.8856 20.0352 63.7996 19.9839C63.6931 19.9263 63.5748 19.8935 63.4537 19.888H62.3288V22.7778C62.3287 22.838 62.3046 22.8957 62.262 22.9383C62.2193 22.9808 62.1615 23.0048 62.1012 23.005C62.0411 23.004 61.9838 22.9798 61.9413 22.9374C61.8988 22.895 61.8745 22.8378 61.8735 22.7778V19.6608C61.8739 19.6007 61.898 19.5431 61.9406 19.5006C61.9832 19.458 62.0409 19.434 62.1012 19.4337H63.4537C63.7447 19.4389 64.0235 19.5513 64.2366 19.7491C64.34 19.8526 64.4207 19.9764 64.4737 20.1126C64.5358 20.2815 64.5667 20.4602 64.5647 20.6401C64.5647 21.0673 64.3826 21.3973 64.0412 21.5941C64.0174 21.6074 63.9929 21.6194 63.9678 21.6301C64.0512 21.7 64.1261 21.7794 64.191 21.8667C64.3683 22.1257 64.4864 22.4203 64.5369 22.7299C64.5489 22.7888 64.537 22.8501 64.5038 22.9004C64.4706 22.9506 64.4189 22.9857 64.3599 22.998C64.3422 22.9999 64.3264 23.0056 64.315 23.0056Z" fill="#9CA3AF"/>
<path d="M66.7821 23.0861C66.5316 23.0862 66.2837 23.0351 66.0537 22.9359C65.8308 22.8421 65.6281 22.7063 65.4567 22.5359C65.2878 22.3655 65.1521 22.1652 65.0565 21.9453C64.9604 21.7198 64.9108 21.4773 64.9104 21.2323C64.9097 20.9851 64.9609 20.7405 65.0609 20.5142C65.1569 20.2946 65.2945 20.0956 65.4662 19.9281C65.6374 19.758 65.8399 19.6224 66.0625 19.5287C66.2952 19.4321 66.5447 19.3826 66.7967 19.3829C67.1599 19.384 67.5147 19.4925 67.8162 19.6946C68.1177 19.8968 68.3524 20.1835 68.4907 20.5187C68.5844 20.7447 68.6319 20.9871 68.6304 21.2317C68.6316 21.7191 68.4404 22.1875 68.098 22.5353C67.9267 22.7102 67.722 22.849 67.496 22.9436C67.2699 23.0383 67.0272 23.0867 66.7821 23.0861ZM66.7954 19.8372C66.605 19.8371 66.4164 19.8742 66.2402 19.9464C66.0698 20.017 65.9151 20.1206 65.7849 20.2511C65.5206 20.5099 65.3698 20.8628 65.3657 21.2323C65.3656 21.4152 65.4022 21.5963 65.4735 21.7648C65.5447 21.9333 65.6491 22.0859 65.7805 22.2135C65.9114 22.3459 66.0673 22.4511 66.2393 22.5229C66.4112 22.5947 66.5957 22.6317 66.7821 22.6318C67.0578 22.6317 67.3273 22.5501 67.5566 22.3972C67.7859 22.2444 67.9646 22.0272 68.0702 21.773C68.139 21.601 68.1746 21.4175 68.1752 21.2323C68.1781 20.8659 68.0359 20.5132 67.7793 20.2511C67.652 20.1195 67.4993 20.0149 67.3305 19.9438C67.1616 19.8726 66.98 19.8364 66.7967 19.8372H66.7954Z" fill="#9CA3AF"/>
<path d="M70.4694 23.0649C70.1723 23.0739 69.8782 23.0033 69.6177 22.8604C69.4199 22.7483 69.2575 22.583 69.1491 22.3834C69.0204 22.1294 68.9563 21.8477 68.9626 21.5631V19.6702C68.9634 19.6102 68.9876 19.5529 69.0302 19.5105C69.0727 19.4681 69.1301 19.4439 69.1902 19.4431C69.2505 19.4432 69.3083 19.4672 69.351 19.5098C69.3937 19.5523 69.4177 19.61 69.4179 19.6702V21.5631C69.4117 21.7723 69.4568 21.9798 69.5494 22.1676C69.6174 22.2949 69.7203 22.4004 69.8459 22.4717C70.0406 22.5648 70.2536 22.6131 70.4694 22.6131C70.6852 22.6131 70.8983 22.5648 71.0929 22.4717C71.2161 22.4008 71.3171 22.297 71.3844 22.172C71.4772 21.9827 71.5225 21.7738 71.5166 21.5631V19.6702C71.5176 19.6103 71.5419 19.5531 71.5843 19.5107C71.6268 19.4683 71.6842 19.444 71.7442 19.4431C71.8046 19.4431 71.8625 19.467 71.9052 19.5096C71.9479 19.5522 71.9719 19.61 71.9719 19.6702V21.5631C71.9776 21.848 71.9124 22.1298 71.7822 22.3834C71.6171 22.6983 71.2529 23.0649 70.4694 23.0649Z" fill="#9CA3AF"/>
<path d="M72.5725 23.01C72.5121 23.01 72.4542 22.9861 72.4115 22.9435C72.3688 22.9009 72.3448 22.8431 72.3448 22.7828V19.6665C72.3448 19.6062 72.3688 19.5484 72.4115 19.5058C72.4542 19.4632 72.5121 19.4393 72.5725 19.4393H73.9244C74.0151 19.4403 74.1054 19.4524 74.1932 19.4753C74.3865 19.5227 74.564 19.62 74.7079 19.7573C74.8114 19.8606 74.892 19.9844 74.9444 20.1208C75.0068 20.2893 75.0377 20.4679 75.0354 20.6476C75.0354 21.0792 74.8533 21.4048 74.5119 21.6017C74.2659 21.7424 73.9383 21.8105 73.533 21.8105C73.4726 21.8105 73.4147 21.7866 73.372 21.744C73.3293 21.7014 73.3054 21.6436 73.3054 21.5834C73.3054 21.5231 73.3293 21.4653 73.372 21.4227C73.4147 21.3801 73.4726 21.3562 73.533 21.3562C73.8561 21.3562 74.1116 21.3064 74.2842 21.2067C74.4847 21.0931 74.5801 20.9158 74.5801 20.6476C74.5853 20.4931 74.551 20.3397 74.4802 20.2021C74.4311 20.1146 74.3587 20.0423 74.2709 19.9933C74.165 19.9331 74.0462 19.8989 73.9244 19.8936H72.8033V22.7828C72.8036 22.813 72.7977 22.8429 72.7862 22.8708C72.7746 22.8987 72.7576 22.924 72.7361 22.9452C72.7145 22.9664 72.689 22.983 72.6609 22.9941C72.6328 23.0053 72.6027 23.0107 72.5725 23.01Z" fill="#9CA3AF"/>
<path d="M76.0755 22.6699C76.0775 22.7156 76.0702 22.7612 76.054 22.804C76.0379 22.8468 76.0132 22.8859 75.9815 22.9189C75.9498 22.9519 75.9118 22.9782 75.8696 22.9962C75.8275 23.0141 75.7821 23.0234 75.7363 23.0234C75.6905 23.0234 75.6451 23.0141 75.603 22.9962C75.5608 22.9782 75.5227 22.9519 75.4911 22.9189C75.4594 22.8859 75.4347 22.8468 75.4185 22.804C75.4024 22.7612 75.3951 22.7156 75.397 22.6699C75.3951 22.6242 75.4024 22.5786 75.4185 22.5358C75.4347 22.493 75.4594 22.454 75.4911 22.4209C75.5227 22.3879 75.5608 22.3616 75.603 22.3437C75.6451 22.3257 75.6905 22.3165 75.7363 22.3165C75.7821 22.3165 75.8275 22.3257 75.8696 22.3437C75.9118 22.3616 75.9498 22.3879 75.9815 22.4209C76.0132 22.454 76.0379 22.493 76.054 22.5358C76.0702 22.5786 76.0775 22.6242 76.0755 22.6699Z" fill="#9CA3AF"/>
</svg>
