<svg width="425" height="425" viewBox="0 0 425 425" fill="none" xmlns="http://www.w3.org/2000/svg">
<path d="M279.919 216.225C279.919 179.642 250.263 149.985 213.68 149.985C177.097 149.985 147.44 179.642 147.44 216.225C147.44 252.808 177.097 282.464 213.68 282.464C250.263 282.464 279.919 252.808 279.919 216.225Z" fill="white"/>
<path d="M322.799 106.401L355.891 76.3594L355.891 76.3594L322.799 106.401ZM228.762 58.3983L233.681 13.9757L233.681 13.9757L228.762 58.3983ZM126.5 84.6627L152.217 121.217L152.217 121.217L126.5 84.6627ZM23.7593 161.662C18.0281 185.671 32.8455 209.781 56.8549 215.512C80.8643 221.243 104.974 206.426 110.705 182.417L23.7593 161.662ZM406.203 204.014C405.554 156.752 387.662 111.356 355.891 76.3594L289.707 136.443C306.83 155.304 316.473 179.771 316.823 205.242L406.203 204.014ZM355.891 76.3594C324.121 41.3631 280.66 19.1782 233.681 13.9757L223.842 102.821C249.162 105.625 272.585 117.581 289.707 136.443L355.891 76.3594ZM233.681 13.9757C186.702 8.77317 139.441 20.9115 100.783 48.1085L152.217 121.217C173.051 106.559 198.523 100.017 223.842 102.821L233.681 13.9757ZM100.783 48.1085C62.1249 75.3054 34.7337 115.687 23.7593 161.662L110.705 182.417C116.62 157.639 131.382 135.875 152.217 121.217L100.783 48.1085Z" fill="#34E256"/>
<path d="M102.201 319.599L135.293 289.557L135.293 289.557L102.201 319.599ZM196.239 367.602L201.158 323.179L201.158 323.179L196.239 367.602ZM298.501 341.337L272.784 304.783L272.784 304.783L298.501 341.337ZM401.241 264.338C406.972 240.329 392.155 216.219 368.145 210.488C344.136 204.757 320.026 219.574 314.295 243.583L401.241 264.338ZM18.7973 221.986C19.4467 269.248 37.3386 314.644 69.1091 349.641L135.293 289.557C118.17 270.696 108.527 246.229 108.177 220.758L18.7973 221.986ZM69.1091 349.641C100.88 384.637 144.34 406.822 191.319 412.024L201.158 323.179C175.839 320.375 152.416 308.419 135.293 289.557L69.1091 349.641ZM191.319 412.024C238.298 417.227 285.56 405.088 324.218 377.892L272.784 304.783C251.949 319.441 226.477 325.983 201.158 323.179L191.319 412.024ZM324.218 377.892C362.875 350.695 390.266 310.312 401.241 264.338L314.295 243.583C308.381 268.361 293.618 290.125 272.784 304.783L324.218 377.892Z" fill="#34E256"/>
</svg>
