<svg width="166" height="171" viewBox="0 0 166 171" fill="none" xmlns="http://www.w3.org/2000/svg">
<path d="M111.383 86.5839C111.383 71.0321 98.7754 58.4248 83.2235 58.4248C67.6717 58.4248 55.0645 71.0321 55.0645 86.5839C55.0645 102.136 67.6717 114.743 83.2235 114.743C98.7754 114.743 111.383 102.136 111.383 86.5839Z" fill="white"/>
<path d="M129.612 39.8954L143.679 27.1244L143.679 27.1244L129.612 39.8954ZM89.6351 19.4889L91.7264 0.604357L91.7264 0.604357L89.6351 19.4889ZM46.1624 30.6542L57.095 46.1938L46.1624 30.6542ZM2.48635 63.3875C0.0499523 73.5941 6.349 83.8433 16.5556 86.2797C26.7623 88.7161 37.0115 82.4171 39.4479 72.2104L2.48635 63.3875ZM165.067 81.3918C164.791 61.3003 157.185 42.0016 143.679 27.1244L115.544 52.6664C122.823 60.6845 126.922 71.0856 127.071 81.9139L165.067 81.3918ZM143.679 27.1244C130.173 12.2471 111.698 2.816 91.7264 0.604357L87.5438 38.3735C98.3074 39.5654 108.265 44.6483 115.544 52.6664L143.679 27.1244ZM91.7264 0.604357C71.7551 -1.60729 51.6637 3.55286 35.2298 15.1146L57.095 46.1938C65.952 39.9626 76.7803 37.1815 87.5438 38.3735L91.7264 0.604357ZM35.2298 15.1146C18.796 26.6763 7.15171 43.8432 2.48635 63.3875L39.4479 72.2104C41.9623 61.677 48.238 52.425 57.095 46.1938L35.2298 15.1146Z" fill="#34E256"/>
<path d="M35.8328 130.53L49.9005 117.759L35.8328 130.53ZM75.8092 150.937L77.9005 132.052L75.8092 150.937ZM162.958 107.038C165.394 96.8317 159.095 86.5825 148.889 84.1461C138.682 81.7097 128.433 88.0087 125.996 98.2153L162.958 107.038ZM0.377009 89.034C0.653062 109.125 8.25912 128.424 21.7651 143.301L49.9005 117.759C42.6215 109.741 38.5222 99.3402 38.3734 88.5119L0.377009 89.034ZM21.7651 143.301C35.2711 158.179 53.7466 167.61 73.7179 169.821L77.9005 132.052C67.137 130.86 57.1796 125.777 49.9005 117.759L21.7651 143.301ZM73.7179 169.821C93.6893 172.033 113.781 166.873 130.214 155.311L108.349 124.232C99.4923 130.463 88.6641 133.244 77.9005 132.052L73.7179 169.821ZM130.214 155.311C146.648 143.749 158.293 126.583 162.958 107.038L125.996 98.2153C123.482 108.749 117.206 118.001 108.349 124.232L130.214 155.311Z" fill="#34E256"/>
</svg>
