<svg width="425" height="425" viewBox="0 0 425 425" fill="none" xmlns="http://www.w3.org/2000/svg">
<g clip-path="url(#clip0_33_14399)">
<mask id="mask0_33_14399" style="mask-type:luminance" maskUnits="userSpaceOnUse" x="0" y="14" width="425" height="397">
<path d="M424.997 14H0.00390625V410.918H424.997V14Z" fill="white"/>
</mask>
<g mask="url(#mask0_33_14399)">
<path d="M212.408 14C196.667 14 182.779 21.9717 174.446 34.022L5.92973 342.139C2.22609 348.813 0.00390625 356.414 0.00390625 364.571C0.00390625 390.155 20.7443 410.734 46.1143 410.734C62.7806 410.734 77.2249 401.835 85.3729 388.672C86.1136 387.374 87.0395 385.891 87.5951 384.408L251.296 84.4479C255.74 77.4032 258.333 68.8752 258.333 59.9765C258.518 34.7636 237.777 14 212.408 14Z" fill="#A6FA7C"/>
<path d="M400.368 323.97C400.368 323.97 318.332 275.954 212.408 275.954C106.484 275.954 24.448 323.97 24.448 323.97C10.0037 331.571 0.00390625 346.958 0.00390625 364.755C0.00390625 390.339 20.7443 410.917 46.1143 410.917C53.1512 410.917 59.8178 409.249 65.9288 406.468C65.9288 406.468 135.002 369.946 212.408 369.946C289.814 369.946 356.294 405.17 356.294 405.17C362.961 408.878 370.553 411.103 378.702 411.103C404.257 411.103 424.812 390.339 424.812 364.941C424.997 346.958 414.998 331.571 400.368 323.97Z" fill="white"/>
<path d="M419.257 342.51C414.998 334.723 408.331 328.234 400.368 323.971C400.368 323.971 351.85 295.606 281.481 282.443L337.406 384.779C338.147 386.262 338.887 387.559 339.629 389.042C347.777 402.205 362.22 411.104 378.887 411.104C404.442 411.104 424.997 390.34 424.997 364.941C424.997 356.599 422.961 348.998 419.257 342.51Z" fill="white"/>
</g>
<path d="M362.07 194.065C362.07 159.847 334.331 132.107 300.112 132.107C265.894 132.107 238.154 159.847 238.154 194.065C238.154 228.284 265.894 256.023 300.112 256.023C334.331 256.023 362.07 228.284 362.07 194.065Z" fill="#A6FA7C"/>
</g>
<defs>
<clipPath id="clip0_33_14399">
<rect width="424.993" height="396.918" fill="white" transform="translate(0.00292969 14)"/>
</clipPath>
</defs>
</svg>
