<svg width="425" height="425" viewBox="0 0 425 425" fill="none" xmlns="http://www.w3.org/2000/svg">
<g clip-path="url(#clip0_34_14473)">
<path d="M134.909 67.4545C134.909 30.2004 104.709 0 67.4545 0C30.2004 0 0 30.2004 0 67.4545C0 104.709 30.2004 134.909 67.4545 134.909C104.709 134.909 134.909 104.709 134.909 67.4545Z" fill="#24DAD9"/>
<path d="M134.909 211.999C134.909 174.745 104.709 144.545 67.4545 144.545C30.2004 144.545 0 174.745 0 211.999C0 249.254 30.2004 279.454 67.4545 279.454C104.709 279.454 134.909 249.254 134.909 211.999Z" fill="#24DAD9"/>
<path d="M134.909 356.545C134.909 319.291 104.709 289.091 67.4545 289.091C30.2004 289.091 0 319.291 0 356.545C0 393.799 30.2004 424 67.4545 424C104.709 424 134.909 393.799 134.909 356.545Z" fill="#24DAD9"/>
<path d="M279.455 67.4545C279.455 30.2004 249.255 0 212 0C174.746 0 144.546 30.2004 144.546 67.4545C144.546 104.709 174.746 134.909 212 134.909C249.255 134.909 279.455 104.709 279.455 67.4545Z" fill="#24DAD9"/>
<path d="M279.455 211.999C279.455 174.745 249.255 144.545 212 144.545C174.746 144.545 144.546 174.745 144.546 211.999C144.546 249.254 174.746 279.454 212 279.454C249.255 279.454 279.455 249.254 279.455 211.999Z" fill="#24DAD9"/>
<path d="M279.455 356.545C279.455 319.291 249.255 289.091 212 289.091C174.746 289.091 144.546 319.291 144.546 356.545C144.546 393.799 174.746 424 212 424C249.255 424 279.455 393.799 279.455 356.545Z" fill="#24DAD9"/>
<path d="M424 67.4545C424 30.2004 393.799 0 356.545 0C319.291 0 289.091 30.2004 289.091 67.4545C289.091 104.709 319.291 134.909 356.545 134.909C393.799 134.909 424 104.709 424 67.4545Z" fill="#24DAD9"/>
<path d="M424 211.999C424 174.745 393.799 144.545 356.545 144.545C319.291 144.545 289.091 174.745 289.091 211.999C289.091 249.254 319.291 279.454 356.545 279.454C393.799 279.454 424 249.254 424 211.999Z" fill="#24DAD9"/>
<path d="M424 356.545C424 319.291 393.799 289.091 356.545 289.091C319.291 289.091 289.091 319.291 289.091 356.545C289.091 393.799 319.291 424 356.545 424C393.799 424 424 393.799 424 356.545Z" fill="white"/>
</g>
<defs>
<clipPath id="clip0_34_14473">
<rect width="424" height="424" fill="white"/>
</clipPath>
</defs>
</svg>
