<svg width="425" height="425" viewBox="0 0 425 425" fill="none" xmlns="http://www.w3.org/2000/svg">
<path fill-rule="evenodd" clip-rule="evenodd" d="M270.521 177.306C286.386 203.412 283.038 237.913 260.475 260.476L116.552 404.399L116.547 404.393C116.307 404.64 116.065 404.886 115.821 405.13C89.3254 431.626 46.3678 431.626 19.8724 405.13C-6.6231 378.634 -6.62312 335.677 19.8724 309.181C20.1165 308.937 20.362 308.696 20.609 308.455L20.6036 308.45L116.552 212.502L20.6028 116.552L20.6082 116.546C20.3614 116.307 20.1158 116.066 19.8716 115.821C-6.62387 89.3256 -6.62387 46.368 19.8716 19.8726C46.3671 -6.62288 89.3246 -6.6229 115.82 19.8726C116.064 20.1167 116.306 20.3622 116.546 20.6092L116.552 20.6038L260.474 164.527H260.475C264.407 168.46 267.756 172.756 270.521 177.306Z" fill="white"/>
<path fill-rule="evenodd" clip-rule="evenodd" d="M164.917 164.134C164.785 164.264 164.653 164.395 164.522 164.527C138.026 191.022 138.026 233.98 164.522 260.475L308.445 404.398L308.45 404.392C308.69 404.639 308.932 404.884 309.175 405.129C335.671 431.624 378.629 431.624 405.124 405.129C431.62 378.634 431.62 335.676 405.124 309.18C404.88 308.936 404.635 308.695 404.387 308.455L404.393 308.449L308.447 212.503L404.397 116.551L404.391 116.546C404.638 116.306 404.885 116.065 405.128 115.82C431.624 89.3247 431.624 46.3671 405.128 19.8716C378.633 -6.62387 335.675 -6.62386 309.18 19.8716C308.936 20.1158 308.694 20.3614 308.454 20.6082L308.449 20.6028L164.917 164.134Z" fill="#2E3337"/>
</svg>
