<svg width="50" height="60" viewBox="0 0 50 60" fill="none" xmlns="http://www.w3.org/2000/svg">
<path d="M45.7374 0H4C1.79086 0 0 1.78854 0 3.99768V37.2029C-0.000101612 50.4807 11.9096 59.9684 24.8061 60.0006C37.7393 60.0329 49.7374 50.3554 49.7374 37.2029V3.99392C49.7374 1.78478 47.9466 0 45.7374 0Z" fill="black"/>
<path d="M45.7374 0H4C1.79086 0 0 1.78854 0 3.99768V37.2029C-0.000101612 50.4807 11.9096 59.9684 24.8061 60.0006C37.7393 60.0329 49.7374 50.3554 49.7374 37.2029V3.99392C49.7374 1.78478 47.9466 0 45.7374 0Z" fill="#01464C"/>
<path d="M29.9994 27.6831C29.9994 24.699 27.5803 22.2799 24.5962 22.2799C21.6121 22.2799 19.193 24.699 19.193 27.6831C19.193 30.6672 21.6121 33.0863 24.5962 33.0863C27.5803 33.0863 29.9994 30.6672 29.9994 27.6831Z" fill="white"/>
<path d="M33.4972 18.7247L36.1965 16.2742L36.1965 16.2742L33.4972 18.7247ZM25.8264 14.8091L26.2277 11.1855L26.2277 11.1855L25.8264 14.8091ZM9.1042 23.2324C8.6367 25.1908 9.84537 27.1575 11.8038 27.625C13.7623 28.0925 15.7289 26.8838 16.1964 24.9253L9.1042 23.2324ZM40.3005 26.6871C40.2475 22.8319 38.788 19.1288 36.1965 16.2742L30.7978 21.1752C32.1945 22.7137 32.9811 24.7095 33.0097 26.7872L40.3005 26.6871ZM36.1965 16.2742C33.605 13.4195 30.0598 11.6098 26.2277 11.1855L25.4252 18.4326C27.4905 18.6614 29.4011 19.6367 30.7978 21.1752L36.1965 16.2742ZM26.2277 11.1855C22.3956 10.7611 18.5404 11.7512 15.3871 13.9697L19.5826 19.9332C21.2821 18.7376 23.3598 18.2039 25.4252 18.4326L26.2277 11.1855ZM15.3871 13.9697C12.2337 16.1882 9.9994 19.4822 9.1042 23.2324L16.1964 24.9253C16.6789 22.9042 17.8831 21.1289 19.5826 19.9332L15.3871 13.9697Z" fill="#34E256"/>
<path d="M15.5028 36.1154L18.2022 33.6649L15.5028 36.1154ZM23.1736 40.031L22.7723 43.6546L23.1736 40.031ZM31.5152 37.8886L29.4174 34.9069L31.5152 37.8886ZM39.8958 31.6077C40.3633 29.6492 39.1546 27.6826 37.1962 27.2151C35.2377 26.7476 33.2711 27.9563 32.8036 29.9148L39.8958 31.6077ZM8.69952 28.153C8.75249 32.0082 10.212 35.7113 12.8035 38.5659L18.2022 33.6649C16.8055 32.1264 16.0189 30.1306 15.9903 28.0528L8.69952 28.153ZM12.8035 38.5659C15.395 41.4206 18.9402 43.2303 22.7723 43.6546L23.5748 36.4074C21.5095 36.1787 19.5989 35.2034 18.2022 33.6649L12.8035 38.5659ZM22.7723 43.6546C26.6044 44.079 30.4596 43.0889 33.6129 40.8704L29.4174 34.9069C27.7179 36.1025 25.6402 36.6362 23.5748 36.4074L22.7723 43.6546ZM33.6129 40.8704C36.7663 38.6519 39.0006 35.3579 39.8958 31.6077L32.8036 29.9148C32.3211 31.9359 31.1169 33.7112 29.4174 34.9069L33.6129 40.8704Z" fill="#34E256"/>
</svg>
