<svg width="48" height="60" viewBox="0 0 48 60" fill="none" xmlns="http://www.w3.org/2000/svg">
<path d="M44 0H4C1.79086 0 0 1.78854 0 3.99768V37.2029C-9.80626e-05 50.4807 11.4936 59.9684 23.9395 60.0006C36.421 60.0329 48 50.3554 48 37.2029V3.99392C48 1.78478 46.2091 0 44 0Z" fill="black"/>
<path d="M44 0H4C1.79086 0 0 1.78854 0 3.99768V37.2029C-9.80626e-05 50.4807 11.4936 59.9684 23.9395 60.0006C36.421 60.0329 48 50.3554 48 37.2029V3.99392C48 1.78478 46.2091 0 44 0Z" fill="#01464C"/>
<path d="M28.9998 27.6825C28.9998 24.6984 26.5807 22.2793 23.5966 22.2793C20.6125 22.2793 18.1934 24.6984 18.1934 27.6825C18.1934 30.6666 20.6125 33.0857 23.5966 33.0857C26.5807 33.0857 28.9998 30.6666 28.9998 27.6825Z" fill="white"/>
<path d="M32.4969 18.7246L35.1963 16.274L35.1963 16.274L32.4969 18.7246ZM24.8262 14.8089L25.2275 11.1853L25.2275 11.1853L24.8262 14.8089ZM8.10396 23.2322C7.63646 25.1907 8.84513 27.1573 10.8036 27.6248C12.7621 28.0923 14.7287 26.8837 15.1962 24.9252L8.10396 23.2322ZM39.3002 26.687C39.2473 22.8318 37.7878 19.1287 35.1963 16.274L29.7976 21.1751C31.1943 22.7136 31.9809 24.7094 32.0094 26.7871L39.3002 26.687ZM35.1963 16.274C32.6047 13.4194 29.0596 11.6097 25.2275 11.1853L24.4249 18.4325C26.4902 18.6612 28.4009 19.6366 29.7976 21.1751L35.1963 16.274ZM25.2275 11.1853C21.3953 10.761 17.5402 11.7511 14.3868 13.9696L18.5823 19.9331C20.2818 18.7374 22.3596 18.2038 24.4249 18.4325L25.2275 11.1853ZM14.3868 13.9696C11.2335 16.1881 8.99915 19.4821 8.10396 23.2322L15.1962 24.9252C15.6787 22.9041 16.8828 21.1287 18.5823 19.9331L14.3868 13.9696Z" fill="#34E256"/>
<path d="M14.5031 36.1153L17.2024 33.6648L14.5031 36.1153ZM22.1738 40.0309L21.7725 43.6545L22.1738 40.0309ZM30.5154 37.8885L28.4177 34.9067L30.5154 37.8885ZM38.896 31.6076C39.3635 29.6491 38.1549 27.6825 36.1964 27.215C34.2379 26.7475 32.2713 27.9562 31.8038 29.9146L38.896 31.6076ZM7.69977 28.1529C7.75274 32.0081 9.2122 35.7111 11.8037 38.5658L17.2024 33.6648C15.8057 32.1262 15.0191 30.1305 14.9906 28.0527L7.69977 28.1529ZM11.8037 38.5658C14.3953 41.4205 17.9404 43.2301 21.7725 43.6545L22.5751 36.4073C20.5098 36.1786 18.5991 35.2033 17.2024 33.6648L11.8037 38.5658ZM21.7725 43.6545C25.6047 44.0789 29.4598 43.0887 32.6132 40.8703L28.4177 34.9067C26.7182 36.1024 24.6404 36.636 22.5751 36.4073L21.7725 43.6545ZM32.6132 40.8703C35.7665 38.6518 38.0008 35.3578 38.896 31.6076L31.8038 29.9146C31.3213 31.9358 30.1172 33.7111 28.4177 34.9067L32.6132 40.8703Z" fill="#34E256"/>
</svg>
