<svg width="50" height="60" viewBox="0 0 50 60" fill="none" xmlns="http://www.w3.org/2000/svg">
<path d="M45.7374 0H4C1.79086 0 0 1.78854 0 3.99768V37.2029C-0.000101612 50.4807 11.9096 59.9684 24.8061 60.0006C37.7393 60.0329 49.7374 50.3554 49.7374 37.2029V3.99392C49.7374 1.78478 47.9466 0 45.7374 0Z" fill="black"/>
<path d="M45.7374 0H4C1.79086 0 0 1.78854 0 3.99768V37.2029C-0.000101612 50.4807 11.9096 59.9684 24.8061 60.0006C37.7393 60.0329 49.7374 50.3554 49.7374 37.2029V3.99392C49.7374 1.78478 47.9466 0 45.7374 0Z" fill="#2E3337"/>
<path d="M24.993 9C23.8078 9 22.762 9.59859 22.1346 10.5034L9.44619 33.6396C9.16732 34.1407 9 34.7114 9 35.324C9 37.245 10.5616 38.7902 12.4719 38.7902C13.7268 38.7902 14.8144 38.122 15.4279 37.1336C15.4836 37.0362 15.5534 36.9248 15.5952 36.8135L27.9211 14.2898C28.2557 13.7609 28.4509 13.1205 28.4509 12.4523C28.4648 10.5591 26.9032 9 24.993 9Z" fill="#A6FA7C"/>
<path d="M39.1454 32.2753C39.1454 32.2753 32.9685 28.6699 24.993 28.6699C17.0174 28.6699 10.8405 32.2753 10.8405 32.2753C9.75294 32.8461 9 34.0015 9 35.3379C9 37.2589 10.5616 38.8041 12.4719 38.8041C13.0017 38.8041 13.5037 38.6788 13.9638 38.47C13.9638 38.47 19.1647 35.7276 24.993 35.7276C30.8213 35.7276 35.8269 38.3726 35.8269 38.3726C36.3289 38.651 36.9005 38.818 37.5141 38.818C39.4382 38.818 40.9859 37.2589 40.9859 35.3518C40.9999 34.0015 40.2469 32.8461 39.1454 32.2753Z" fill="white"/>
<path d="M40.5678 33.6675C40.2471 33.0829 39.7451 32.5956 39.1455 32.2755C39.1455 32.2755 35.4924 30.1456 30.1939 29.1572L34.4048 36.8414C34.4606 36.9528 34.5164 37.0503 34.5721 37.1616C35.1856 38.15 36.2732 38.8182 37.5281 38.8182C39.4523 38.8182 41 37.2591 41 35.3519C41 34.7255 40.8466 34.1548 40.5678 33.6675Z" fill="white"/>
</svg>
