<svg width="48" height="60" viewBox="0 0 48 60" fill="none" xmlns="http://www.w3.org/2000/svg">
<path d="M44 0H4C1.79086 0 0 1.78854 0 3.99768V37.2029C-9.80626e-05 50.4807 11.4936 59.9684 23.9395 60.0006C36.421 60.0329 48 50.3554 48 37.2029V3.99392C48 1.78478 46.2091 0 44 0Z" fill="black"/>
<path d="M44 0H4C1.79086 0 0 1.78854 0 3.99768V37.2029C-9.80626e-05 50.4807 11.4936 59.9684 23.9395 60.0006C36.421 60.0329 48 50.3554 48 37.2029V3.99392C48 1.78478 46.2091 0 44 0Z" fill="black"/>
<path d="M23.993 9C22.8078 9 21.762 9.59859 21.1346 10.5034L8.44619 33.6396C8.16732 34.1407 8 34.7114 8 35.324C8 37.245 9.56165 38.7902 11.4719 38.7902C12.7268 38.7902 13.8144 38.122 14.4279 37.1336C14.4836 37.0362 14.5534 36.9248 14.5952 36.8135L26.9211 14.2898C27.2557 13.7609 27.4509 13.1205 27.4509 12.4523C27.4648 10.5591 25.9032 9 23.993 9Z" fill="#A6FA7C"/>
<path d="M38.1454 32.2753C38.1454 32.2753 31.9685 28.6699 23.993 28.6699C16.0174 28.6699 9.84052 32.2753 9.84052 32.2753C8.75294 32.8461 8 34.0015 8 35.3379C8 37.2589 9.56165 38.8041 11.4719 38.8041C12.0017 38.8041 12.5037 38.6788 12.9638 38.47C12.9638 38.47 18.1647 35.7276 23.993 35.7276C29.8213 35.7276 34.8269 38.3726 34.8269 38.3726C35.3289 38.651 35.9005 38.818 36.5141 38.818C38.4382 38.818 39.9859 37.2589 39.9859 35.3518C39.9999 34.0015 39.2469 32.8461 38.1454 32.2753Z" fill="white"/>
<path d="M39.5678 33.6675C39.2471 33.0829 38.7451 32.5956 38.1455 32.2755C38.1455 32.2755 34.4924 30.1456 29.1939 29.1572L33.4048 36.8414C33.4606 36.9528 33.5164 37.0503 33.5721 37.1616C34.1856 38.15 35.2732 38.8182 36.5281 38.8182C38.4523 38.8182 40 37.2591 40 35.3519C40 34.7255 39.8466 34.1548 39.5678 33.6675Z" fill="white"/>
</svg>
