<svg width="50" height="60" viewBox="0 0 50 60" fill="none" xmlns="http://www.w3.org/2000/svg">
<path d="M45.7374 0H4C1.79086 0 0 1.78854 0 3.99768V37.2029C-0.000101612 50.4807 11.9096 59.9684 24.8061 60.0006C37.7393 60.0329 49.7374 50.3554 49.7374 37.2029V3.99392C49.7374 1.78478 47.9466 0 45.7374 0Z" fill="black"/>
<path d="M45.7374 0H4C1.79086 0 0 1.78854 0 3.99768V37.2029C-0.000101612 50.4807 11.9096 59.9684 24.8061 60.0006C37.7393 60.0329 49.7374 50.3554 49.7374 37.2029V3.99392C49.7374 1.78478 47.9466 0 45.7374 0Z" fill="#381B84"/>
<rect x="8.81445" y="9" width="10.1818" height="10.2258" rx="5.0909" fill="#24DAD9"/>
<rect x="8.81445" y="19.9559" width="10.1818" height="10.2258" rx="5.0909" fill="#24DAD9"/>
<rect x="8.81445" y="30.9124" width="10.1818" height="10.2258" rx="5.0909" fill="#24DAD9"/>
<rect x="19.7234" y="9" width="10.1818" height="10.2258" rx="5.0909" fill="#24DAD9"/>
<rect x="19.7234" y="19.9559" width="10.1818" height="10.2258" rx="5.0909" fill="#24DAD9"/>
<rect x="19.7234" y="30.9124" width="10.1818" height="10.2258" rx="5.0909" fill="#24DAD9"/>
<rect x="30.6327" y="9" width="10.1818" height="10.2258" rx="5.0909" fill="#24DAD9"/>
<rect x="30.6327" y="19.9564" width="10.1818" height="10.2258" rx="5.0909" fill="#24DAD9"/>
<rect x="30.6327" y="30.9124" width="10.1818" height="10.2258" rx="5.0909" fill="white"/>
</svg>
