<svg width="48" height="60" viewBox="0 0 48 60" fill="none" xmlns="http://www.w3.org/2000/svg">
<path d="M44 0H4C1.79086 0 0 1.78854 0 3.99768V37.2029C-9.80626e-05 50.4807 11.4936 59.9684 23.9395 60.0006C36.421 60.0329 48 50.3554 48 37.2029V3.99392C48 1.78478 46.2091 0 44 0Z" fill="#374151"/>
<path d="M44 0H4C1.79086 0 0 1.78854 0 3.99768V37.2029C-9.80626e-05 50.4807 11.4936 59.9684 23.9395 60.0006C36.421 60.0329 48 50.3554 48 37.2029V3.99392C48 1.78478 46.2091 0 44 0Z" fill="#381B84"/>
<rect x="8" y="9" width="10.1818" height="10.2258" rx="5.0909" fill="#24DAD9"/>
<rect x="8" y="19.9561" width="10.1818" height="10.2258" rx="5.0909" fill="#24DAD9"/>
<rect x="8" y="30.9121" width="10.1818" height="10.2258" rx="5.0909" fill="#24DAD9"/>
<rect x="18.9092" y="9" width="10.1818" height="10.2258" rx="5.0909" fill="#24DAD9"/>
<rect x="18.9092" y="19.9561" width="10.1818" height="10.2258" rx="5.0909" fill="#24DAD9"/>
<rect x="18.9092" y="30.9121" width="10.1818" height="10.2258" rx="5.0909" fill="#24DAD9"/>
<rect x="29.8184" y="9" width="10.1818" height="10.2258" rx="5.0909" fill="#24DAD9"/>
<rect x="29.8184" y="19.9561" width="10.1818" height="10.2258" rx="5.0909" fill="#24DAD9"/>
<rect x="29.8184" y="30.9121" width="10.1818" height="10.2258" rx="5.0909" fill="white"/>
</svg>
