<svg width="50" height="60" viewBox="0 0 50 60" fill="none" xmlns="http://www.w3.org/2000/svg">
<path d="M45.7374 0H4C1.79086 0 0 1.78854 0 3.99768V37.2029C-0.000101612 50.4807 11.9096 59.9684 24.8061 60.0006C37.7393 60.0329 49.7374 50.3554 49.7374 37.2029V3.99392C49.7374 1.78478 47.9466 0 45.7374 0Z" fill="black"/>
<path d="M45.7374 0H4C1.79086 0 0 1.78854 0 3.99768V37.2029C-0.000101612 50.4807 11.9096 59.9684 24.8061 60.0006C37.7393 60.0329 49.7374 50.3554 49.7374 37.2029V3.99392C49.7374 1.78478 47.9466 0 45.7374 0Z" fill="url(#paint0_linear_14642_19003)" fill-opacity="0.2"/>
<path d="M9.08203 15.0728C9.08203 11.9541 11.6103 9.42578 14.7291 9.42578H35.435C38.5538 9.42578 41.082 11.9541 41.082 15.0728V35.7787C41.082 38.8975 38.5538 41.4258 35.435 41.4258H14.7291C11.6103 41.4258 9.08203 38.8975 9.08203 35.7787V15.0728Z" fill="#FCFF52"/>
<circle cx="25.0824" cy="25.4241" r="11.2239" fill="black"/>
<defs>
<linearGradient id="paint0_linear_14642_19003" x1="24.8687" y1="0" x2="24.8687" y2="60.0007" gradientUnits="userSpaceOnUse">
<stop/>
<stop offset="1" stop-opacity="0"/>
</linearGradient>
</defs>
</svg>
