<svg viewBox="0 0 48 58" fill="none" xmlns="http://www.w3.org/2000/svg">
    <path
        d="M44 0H4C1.79086 0 0 1.78398 0 3.99312V35.9033C-9.80626e-05 48.7173 11.4936 57.8736 23.9395 57.9047C36.421 57.9358 48 48.5964 48 35.9033V3.99093C48 1.78179 46.2091 0 44 0Z"
        fill="black" />
    <path
        d="M44 0H4C1.79086 0 0 1.78398 0 3.99312V35.9033C-9.80626e-05 48.7173 11.4936 57.8736 23.9395 57.9047C36.421 57.9358 48 48.5964 48 35.9033V3.99093C48 1.78179 46.2091 0 44 0Z"
        fill="url(#paint0_linear_15229_26139)" fill-opacity="0.2" />
    <path
        d="M8.76285 14.5492C8.76285 11.5393 11.2028 9.09937 14.2126 9.09937H34.1952C37.2051 9.09937 39.645 11.5393 39.645 14.5492V34.5318C39.645 37.5416 37.2051 39.9816 34.1952 39.9816H14.2126C11.2028 39.9816 8.76285 37.5416 8.76285 34.5318V14.5492Z"
        fill="#FCFF52" />
    <circle cx="24.2052" cy="24.5384" r="10.8318" fill="black" />
    <defs>
        <linearGradient id="paint0_linear_15229_26139" x1="24" y1="0" x2="24" y2="57.9048"
            gradientUnits="userSpaceOnUse">
            <stop />
            <stop offset="1" stop-opacity="0" />
        </linearGradient>
    </defs>
</svg>
