<svg width="48" height="60" viewBox="0 0 48 60" fill="none" xmlns="http://www.w3.org/2000/svg">
<path d="M44 0H4C1.79086 0 0 1.78854 0 3.99768V37.2029C-9.80626e-05 50.4807 11.4936 59.9684 23.9395 60.0006C36.421 60.0329 48 50.3554 48 37.2029V3.99392C48 1.78478 46.2091 0 44 0Z" fill="#2E3337"/>
<path d="M44 0H4C1.79086 0 0 1.78854 0 3.99768V37.2029C-9.80626e-05 50.4807 11.4936 59.9684 23.9395 60.0006C36.421 60.0329 48 50.3554 48 37.2029V3.99392C48 1.78478 46.2091 0 44 0Z" fill="#2E3337"/>
<path d="M8 15.0728C8 11.9541 10.5283 9.42578 13.6471 9.42578H34.3529C37.4717 9.42578 40 11.9541 40 15.0728V35.7787C40 38.8975 37.4717 41.4258 34.3529 41.4258H13.6471C10.5283 41.4258 8 38.8975 8 35.7787V15.0728Z" fill="#FCFF52"/>
<circle cx="24.0002" cy="25.4241" r="11.2239" fill="#2E3337"/>
</svg>
