<svg width="50" height="60" viewBox="0 0 50 60" fill="none" xmlns="http://www.w3.org/2000/svg">
<path d="M45.7374 0H4C1.79086 0 0 1.78854 0 3.99768V37.2029C-0.000101612 50.4807 11.9096 59.9684 24.8061 60.0006C37.7393 60.0329 49.7374 50.3554 49.7374 37.2029V3.99392C49.7374 1.78478 47.9466 0 45.7374 0Z" fill="black"/>
<path d="M45.7374 0H4C1.79086 0 0 1.78854 0 3.99768V37.2029C-0.000101612 50.4807 11.9096 59.9684 24.8061 60.0006C37.7393 60.0329 49.7374 50.3554 49.7374 37.2029V3.99392C49.7374 1.78478 47.9466 0 45.7374 0Z" fill="#47110A"/>
<g clip-path="url(#clip0_14642_19034)">
<path d="M39.47 24.6725C39.47 16.0168 32.4694 9 23.8336 9C15.1979 9 8.19727 16.0168 8.19727 24.6725C8.19727 33.3281 15.1979 40.3449 23.8336 40.3449C32.4694 40.3449 39.47 33.3281 39.47 24.6725Z" fill="#FF3A00"/>
<path d="M40.1974 35.9713C40.1974 33.1532 37.9182 30.8687 35.1065 30.8687C32.2949 30.8687 30.0156 33.1532 30.0156 35.9713C30.0156 38.7894 32.2949 41.074 35.1065 41.074C37.9182 41.074 40.1974 38.7894 40.1974 35.9713Z" fill="white"/>
</g>
<defs>
<clipPath id="clip0_14642_19034">
<rect width="32" height="32.0739" fill="white" transform="translate(8.19727 9)"/>
</clipPath>
</defs>
</svg>
