<svg width="48" height="60" viewBox="0 0 48 60" fill="none" xmlns="http://www.w3.org/2000/svg">
<path d="M44 0H4C1.79086 0 0 1.78854 0 3.99768V37.2029C-9.80626e-05 50.4807 11.4936 59.9684 23.9395 60.0006C36.421 60.0329 48 50.3554 48 37.2029V3.99392C48 1.78478 46.2091 0 44 0Z" fill="black"/>
<path d="M44 0H4C1.79086 0 0 1.78854 0 3.99768V37.2029C-9.80626e-05 50.4807 11.4936 59.9684 23.9395 60.0006C36.421 60.0329 48 50.3554 48 37.2029V3.99392C48 1.78478 46.2091 0 44 0Z" fill="#F15A24"/>
<g clip-path="url(#clip0_2268_36267)">
<path d="M39.2727 24.6725C39.2727 16.0168 32.2721 9 23.6364 9C15.0006 9 8 16.0168 8 24.6725C8 33.3281 15.0006 40.3449 23.6364 40.3449C32.2721 40.3449 39.2727 33.3281 39.2727 24.6725Z" fill="#4F2E82"/>
<path d="M40.0002 35.9718C40.0002 33.1537 37.7209 30.8691 34.9093 30.8691C32.0976 30.8691 29.8184 33.1537 29.8184 35.9718C29.8184 38.7899 32.0976 41.0745 34.9093 41.0745C37.7209 41.0745 40.0002 38.7899 40.0002 35.9718Z" fill="white"/>
</g>
<defs>
<clipPath id="clip0_2268_36267">
<rect width="32" height="32.0739" fill="white" transform="translate(8 9)"/>
</clipPath>
</defs>
</svg>
