<svg width="58" height="60" viewBox="0 0 58 60" fill="none" xmlns="http://www.w3.org/2000/svg">
<path d="M49.7374 0H8C5.79086 0 4 1.78854 4 3.99768V37.2029C3.9999 50.4807 15.9096 59.9684 28.8061 60.0006C41.7393 60.0329 53.7374 50.3554 53.7374 37.2029V3.99392C53.7374 1.78478 51.9466 0 49.7374 0Z" fill="black"/>
<path d="M49.7374 0H8C5.79086 0 4 1.78854 4 3.99768V37.2029C3.9999 50.4807 15.9096 59.9684 28.8061 60.0006C41.7393 60.0329 53.7374 50.3554 53.7374 37.2029V3.99392C53.7374 1.78478 51.9466 0 49.7374 0Z" fill="#2E3337"/>
<path fill-rule="evenodd" clip-rule="evenodd" d="M17.9974 9.09794C19.3996 9.09794 20.6685 9.66886 21.5843 10.5909L32.3925 21.3991C33.2141 22.2151 33.7568 23.3113 33.8654 24.5324C33.8808 24.6928 33.8886 24.8553 33.8886 25.0197C33.8886 26.411 33.3267 27.6709 32.4174 28.585L21.5658 39.4366C20.6517 40.3459 19.3918 40.9078 18.0005 40.9078C15.2085 40.9079 12.9452 38.6445 12.9452 35.8525C12.9452 34.4489 13.5173 33.1789 14.4408 32.2629L21.6993 25.0045L14.4133 17.7185L14.4133 17.7185C13.504 16.8044 12.9421 15.5445 12.9421 14.1533C12.9421 11.3613 15.2054 9.09794 17.9974 9.09794Z" fill="white"/>
<path fill-rule="evenodd" clip-rule="evenodd" d="M39.4858 40.9101C38.0835 40.9101 36.8146 40.3392 35.8988 39.4171L25.0906 28.6089C24.2691 27.793 23.7263 26.6968 23.6177 25.4757C23.6024 25.3153 23.5945 25.1527 23.5945 24.9883C23.5945 23.5971 24.1564 22.3371 25.0658 21.4231L35.9174 10.5715C36.8314 9.66215 38.0914 9.10024 39.4826 9.10024C42.2746 9.10018 44.538 11.3635 44.538 14.1556C44.538 15.5592 43.9659 16.8292 43.0423 17.7451L35.7839 25.0036L43.0699 32.2895L43.0698 32.2896C43.9791 33.2036 44.5411 34.4636 44.5411 35.8548C44.5411 38.6468 42.2777 40.9101 39.4858 40.9101Z" fill="#868FF3"/>
</svg>
