<svg width="48" height="60" viewBox="0 0 48 60" fill="none" xmlns="http://www.w3.org/2000/svg">
<path d="M44 0H4C1.79086 0 0 1.78854 0 3.99768V37.2029C-9.80626e-05 50.4807 11.4936 59.9684 23.9395 60.0006C36.421 60.0329 48 50.3554 48 37.2029V3.99392C48 1.78478 46.2091 0 44 0Z" fill="#878FF3"/>
<path d="M44 0H4C1.79086 0 0 1.78854 0 3.99768V37.2029C-9.80626e-05 50.4807 11.4936 59.9684 23.9395 60.0006C36.421 60.0329 48 50.3554 48 37.2029V3.99392C48 1.78478 46.2091 0 44 0Z" fill="#2E3337"/>
<path d="M13.0553 9.09766C14.4576 9.09766 15.7265 9.66858 16.6423 10.5907L27.4504 21.3988C28.272 22.2148 28.8148 23.311 28.9234 24.5322C28.9387 24.6925 28.9466 24.8551 28.9465 25.0194C28.9465 26.4107 28.3846 27.6706 27.4753 28.5847L16.6237 39.4363C15.7097 40.3456 14.4497 40.9075 13.0585 40.9075C10.2665 40.9076 8.00312 38.6443 8.00312 35.8522C8.00312 34.4486 8.57519 33.1786 9.49877 32.2626L16.7572 25.0042L9.47124 17.7182C8.56193 16.8042 8 15.5442 8 14.153C8 11.361 10.2633 9.09766 13.0553 9.09766Z" fill="white"/>
<path d="M34.5436 40.9095C33.1413 40.9095 31.8724 40.3386 30.9566 39.4165L20.1484 28.6083C19.3269 27.7924 18.7841 26.6961 18.6755 25.475C18.6602 25.3147 18.6523 25.1521 18.6523 24.9877C18.6523 23.5965 19.2142 22.3365 20.1236 21.4225L30.9752 10.5708C31.8892 9.66151 33.1492 9.09961 34.5404 9.09961C37.3324 9.09955 39.5958 11.3629 39.5958 14.155C39.5958 15.5585 39.0237 16.8285 38.1001 17.7445L30.8417 25.0029L38.1277 32.2889C39.037 33.203 39.5989 34.463 39.5989 35.8542C39.5989 38.6461 37.3355 40.9095 34.5436 40.9095Z" fill="#878FF3"/>
</svg>
