<svg width="48" height="60" viewBox="0 0 48 60" fill="none" xmlns="http://www.w3.org/2000/svg">
<path d="M44 0H4C1.79086 0 0 1.78854 0 3.99768V37.2029C-9.80626e-05 50.4807 11.4936 59.9684 23.9395 60.0006C36.421 60.0329 48 50.3554 48 37.2029V3.99392C48 1.78478 46.2091 0 44 0Z" fill="#161C2E"/>
<path d="M44 0H4C1.79086 0 0 1.78854 0 3.99768V37.2029C-9.80626e-05 50.4807 11.4936 59.9684 23.9395 60.0006C36.421 60.0329 48 50.3554 48 37.2029V3.99392C48 1.78478 46.2091 0 44 0Z" fill="#161C2E"/>
<path d="M23.8615 38.4544C21.8951 41.8485 16.9792 41.8485 15.0129 38.4544L8.69241 27.5445C6.72605 24.1503 9.184 19.9076 13.1167 19.9076H25.7576C29.6904 19.9076 32.1483 24.1503 30.182 27.5445L23.8615 38.4544Z" fill="#8A93B2"/>
<path d="M24.3182 11.5456C26.2845 8.15146 31.2005 8.15146 33.1668 11.5456L39.4873 22.4555C41.4536 25.8497 38.9957 30.0924 35.063 30.0924L22.422 30.0924C18.4893 30.0924 16.0314 25.8497 17.9977 22.4555L24.3182 11.5456Z" fill="white"/>
</svg>
