<svg width="50" height="60" viewBox="0 0 50 60" fill="none" xmlns="http://www.w3.org/2000/svg">
<path d="M45.7374 0H4C1.79086 0 0 1.78854 0 3.99768V37.2029C-0.000101612 50.4807 11.9096 59.9684 24.8061 60.0006C37.7393 60.0329 49.7374 50.3554 49.7374 37.2029V3.99392C49.7374 1.78478 47.9466 0 45.7374 0Z" fill="black"/>
<path d="M45.7374 0H4C1.79086 0 0 1.78854 0 3.99768V37.2029C-0.000101612 50.4807 11.9096 59.9684 24.8061 60.0006C37.7393 60.0329 49.7374 50.3554 49.7374 37.2029V3.99392C49.7374 1.78478 47.9466 0 45.7374 0Z" fill="#161C2E"/>
<path d="M24.4413 38.4544C22.475 41.8485 17.5591 41.8485 15.5927 38.4544L9.27225 27.5445C7.30588 24.1503 9.76384 19.9076 13.6966 19.9076H26.3375C30.2702 19.9076 32.7282 24.1503 30.7618 27.5445L24.4413 38.4544Z" fill="#8A93B1"/>
<path d="M24.8979 11.5456C26.8643 8.15146 31.7802 8.15146 33.7465 11.5456L40.067 22.4555C42.0333 25.8497 39.5754 30.0924 35.6427 30.0924L23.0018 30.0924C19.069 30.0924 16.6111 25.8497 18.5774 22.4555L24.8979 11.5456Z" fill="white"/>
</svg>
