<svg width="50" height="60" viewBox="0 0 50 60" fill="none" xmlns="http://www.w3.org/2000/svg">
    <g clip-path="url(#clip0_1_7)">
        <path
            d="M45.7374 0H4C1.79086 0 6.502e-10 1.78854 6.502e-10 3.99768V37.2029C-0.000101611 50.4807 11.9096 59.9684 24.8061 60.0006C37.7393 60.0329 49.7374 50.3554 49.7374 37.2029V3.99392C49.7374 1.78478 47.9466 0 45.7374 0Z"
            fill="black" />
        <path
            d="M45.7374 0H4C1.79086 0 6.502e-10 1.78854 6.502e-10 3.99768V37.2029C-0.000101611 50.4807 11.9096 59.9684 24.8061 60.0006C37.7393 60.0329 49.7374 50.3554 49.7374 37.2029V3.99392C49.7374 1.78478 47.9466 0 45.7374 0Z"
            fill="#4DA2FF" />
        <path
            d="M9 31.8359C9.00001 25.1058 17.6755 16.1712 22.1176 6.61676C22.492 5.81161 23.701 5.78867 24.0963 6.58387C28.8734 16.195 36.2388 23.8545 37.136 31.8359C37.7044 39.5945 30.9681 46.2924 23.068 46.2924C15.1679 46.2924 9 40.2982 9 31.8359Z"
            fill="#C0E1FC" />
        <path
            d="M34.9841 46.3286C38.6867 46.3286 41.6882 43.3436 41.6882 39.6615C41.6882 35.9794 38.6867 32.9945 34.9841 32.9945C31.2815 32.9945 28.28 35.9794 28.28 39.6615C28.28 43.3436 31.2815 46.3286 34.9841 46.3286Z"
            fill="#011829" />
    </g>
    <defs>
        <clipPath id="clip0_1_7">
            <rect width="50" height="60" fill="white" />
        </clipPath>
    </defs>
</svg>
