<svg width="56" height="89" viewBox="0 0 156 189" fill="none" xmlns="http://www.w3.org/2000/svg">
<path d="M143.441 0H12.5448C5.61649 0 0 5.60921 0 12.5375V116.675C-0.000318675 158.317 37.3509 188.073 77.7966 188.174C118.358 188.275 155.986 157.924 155.986 116.675V12.5257C155.986 5.59742 150.37 0 143.441 0Z" fill="black"/>
<path d="M143.441 0H12.5448C5.61649 0 0 5.60921 0 12.5375V116.675C-0.000318675 158.317 37.3509 188.073 77.7966 188.174C118.358 188.275 155.986 157.924 155.986 116.675V12.5257C155.986 5.59742 150.37 0 143.441 0Z" fill="#4DA2FF"/>
<path d="M39.6309 95.7102C39.6309 79.4798 57.4832 58.6878 70.3957 36.1475C73.9572 29.9305 84.2951 29.7731 87.9014 35.9643C100.679 57.9008 116.125 76.4728 118.275 95.7102C119.864 117.517 101.035 136.343 78.9532 136.343C56.8711 136.343 39.6309 119.495 39.6309 95.7102Z" fill="#C0E1FC"/>
<circle cx="112.262" cy="117.705" r="18.7391" fill="#011829"/>
</svg>
