<svg width="48" height="60" viewBox="0 0 48 60" fill="none" xmlns="http://www.w3.org/2000/svg">
<path d="M44 0H4C1.79086 0 0 1.78854 0 3.99768V37.2029C-9.80626e-05 50.4807 11.4936 59.9684 23.9395 60.0006C36.421 60.0329 48 50.3554 48 37.2029V3.99392C48 1.78478 46.2091 0 44 0Z" fill="#4DA2FF"/>
<path d="M11 33.609C11 27.7357 18.3293 19.9897 22.3717 11.6813C22.8401 10.7184 24.3087 10.6906 24.7975 11.6433C29.0572 19.9465 35.3051 26.6409 36.0841 33.609C36.5909 40.5645 30.5852 46.5691 23.5421 46.5691C16.4989 46.5691 11 41.1953 11 33.609Z" fill="#C0E1FC"/>
<circle cx="34.1659" cy="40.6254" r="5.97694" fill="#011829"/>
</svg>
