<?xml version="1.0" standalone="no"?>
<!DOCTYPE svg PUBLIC "-//W3C//DTD SVG 20010904//EN"
 "http://www.w3.org/TR/2001/REC-SVG-20010904/DTD/svg10.dtd">
<svg version="1.0" xmlns="http://www.w3.org/2000/svg"
 width="700.000000pt" height="700.000000pt" viewBox="0 0 700.000000 700.000000"
 preserveAspectRatio="xMidYMid meet">
<metadata>
Created by potrace 1.14, written by Peter Selinger 2001-2017
</metadata>
<g transform="translate(0.000000,700.000000) scale(0.100000,-0.100000)"
fill="#000000" stroke="none">
<path d="M3245 6949 c-291 -24 -567 -79 -835 -169 -686 -228 -1272 -656 -1703
-1242 -117 -159 -202 -301 -307 -513 -244 -493 -354 -966 -354 -1525 0 -559
110 -1032 354 -1525 182 -368 376 -639 656 -919 281 -281 552 -475 919 -656
367 -181 726 -288 1135 -336 304 -36 724 -21 1030 37 1314 251 2369 1235 2705
2524 80 306 109 538 109 875 0 273 -16 440 -64 680 -133 665 -460 1277 -942
1760 -555 557 -1265 901 -2053 996 -159 19 -500 26 -650 13z m454 -269 c519
-144 992 -880 1206 -1875 232 -1078 163 -2301 -182 -3240 -64 -174 -206 -470
-288 -600 -219 -347 -481 -576 -737 -644 -243 -65 -760 -10 -1178 124 -867
279 -1587 926 -1954 1757 -439 995 -345 2143 249 3053 218 334 533 657 867
887 460 319 1000 510 1573 557 160 14 356 5 444 -19z m861 -310 c406 -273 775
-743 998 -1270 234 -554 334 -1130 310 -1788 -29 -824 -313 -1624 -777 -2189
-100 -122 -291 -312 -396 -394 -72 -57 -220 -159 -230 -159 -3 0 17 28 44 63
299 381 552 1011 676 1681 111 606 135 1302 65 1926 -98 872 -371 1656 -741
2128 -27 34 -47 62 -44 62 3 0 46 -27 95 -60z m710 -196 c1056 -696 1601
-1949 1394 -3204 -143 -868 -656 -1657 -1394 -2144 -69 -46 -152 -98 -185
-116 l-60 -34 89 95 c536 569 859 1287 978 2174 20 152 23 211 23 555 0 344
-3 403 -23 555 -118 883 -444 1609 -973 2169 l-94 100 60 -34 c33 -18 116 -70
185 -116z"/>
</g>
</svg>
